<?xml version="1.0" encoding="UTF-8"?>
<svg id="Layer_2" data-name="Layer 2" xmlns="http://www.w3.org/2000/svg" viewBox="0 0 512 471.55">
  <defs>
    <style>
      .cls-1 {
        fill: none;
      }

      .cls-2 {
        fill: #d2da47;
      }

      .cls-3 {
        fill: #e12686;
      }

      .cls-4 {
        fill: #2db298;
      }
    </style>
  </defs>
  <g id="Layer_1-2" data-name="Layer 1">
    <g>
      <path class="cls-1" d="M148.29,129.58v211.06h35.4c4.48,0,8.82-.19,13.06-.52v-210.02c-4.24-.33-8.57-.52-13.06-.52h-35.4Z"/>
      <path class="cls-3" d="M345.02,353.33h69.47c11.12-20.81,18.98-43.07,23.54-66.8h-93v66.8Z"/>
      <path class="cls-3" d="M196.74,339.16c-4.24.33-8.57.52-13.06.52h-35.4v-210.47h35.4c4.48,0,8.82.19,13.06.52V0H0v471.55h197.04c9.78,0,19.26-.52,28.56-1.33h-28.86v-131.06Z"/>
      <path class="cls-3" d="M345.02,116.89v58.1h91.22c-4.7-20.61-11.94-39.98-21.73-58.1h-69.49Z"/>
      <path class="cls-4" d="M326.95,31.03c37.17,19.81,65.79,47.34,85.83,82.55.62,1.08,1.13,2.21,1.73,3.3h97.49V0H196.74v1.32h.3c49.42,0,92.72,9.9,129.91,29.71Z"/>
      <path class="cls-4" d="M263.17,313.26c19.59-18.26,29.39-44.31,29.39-78.15s-9.8-59.89-29.39-78.15c-16.97-15.8-39.13-24.74-66.43-26.86v210.02c27.3-2.12,49.45-11.05,66.43-26.86Z"/>
      <path class="cls-4" d="M326.95,441.83c-29.83,16.6-63.66,26.44-101.35,29.72h286.4v-118.22h-97.51c-.59,1.1-1.1,2.24-1.71,3.34-20.04,36.06-48.65,64.45-85.83,85.16Z"/>
      <path class="cls-4" d="M438.03,286.53h53.94v-111.54h-55.72c4.33,19,6.59,39.01,6.59,60.12,0,17.85-1.65,34.98-4.8,51.43Z"/>
      <path class="cls-2" d="M345.02,116.89h69.49c-.6-1.1-1.12-2.24-1.73-3.34-20.04-35.62-48.65-63.46-85.83-83.49C289.76,10.02,246.46,0,197.04,0h-.3v130.1c27.3,2.12,49.45,11.06,66.43,26.86,19.59,18.26,29.39,44.32,29.39,78.15s-9.8,59.89-29.39,78.15c-16.97,15.81-39.13,24.74-66.43,26.86v131.43h28.86c37.69-3.29,71.52-13.12,101.35-29.72,37.17-20.7,65.79-49.09,85.83-85.16.61-1.1,1.12-2.23,1.71-3.34h-69.47v-66.8h93c3.16-16.45,4.8-33.57,4.8-51.43,0-21.11-2.26-41.12-6.59-60.12h-91.22v-58.1Z"/>
    </g>
  </g>
</svg>