<?xml version="1.0" encoding="utf-8"?>
<!-- Generator: Adobe Illustrator 27.8.0, SVG Export Plug-In . SVG Version: 6.00 Build 0)  -->
<svg version="1.1" id="Layer_1" xmlns="http://www.w3.org/2000/svg" xmlns:xlink="http://www.w3.org/1999/xlink" x="0px" y="0px"
	 viewBox="0 0 520 520" style="enable-background:new 0 0 520 520;" xml:space="preserve">
<style type="text/css">
	.st0{display:none;}
	.st1{display:inline;stroke:#FFFFFF;stroke-miterlimit:10;}
	.st2{display:inline;}
	.st3{fill:#DD3E00;}
	.st4{fill:#FFDC6E;}
	.st5{fill:#FFFFFF;}
	.st6{fill:#00AAE8;}
</style>
<g id="Layer_1_00000052817074080607393390000005016247766384778170_">
	<g id="Layer_2_00000090286714496417820170000001764225154977443001_" class="st0">
		<rect class="st1" width="520" height="520"/>
	</g>
	<g id="Layer_1_00000066480756121981008890000004355686845963646377_">
		<g id="Layer_2_00000085936121840229651220000006667689004388277686_" class="st0">
			<rect y="-0.8" class="st2" width="520" height="520.8"/>
		</g>
		<g id="Layer_3">
			<g>
				<g transform="translate(196.156467, 261.871007)">
					<g>
						<path class="st3" d="M149,84.3c0,1.9-0.1,3.7-0.3,5.4c-0.2,1.7-0.3,3.7-0.3,5.8v0.6c0,1,0,2.4,0,4.5c0,2-0.6,3.8-1.9,5.4
							c-1.2,1.6-3.8,2.4-7.6,2.4c-2.7,0-5.1-0.1-7.2-0.3c-2.1-0.2-4.5-0.3-7.2-0.3c-2.5,0-4.7,0-6.6,0.1s-4.1,0.1-6.6,0.1
							s-4.6,0-6.5-0.1c-1.8-0.1-3.9-0.1-6.2-0.1H77.2c-3.1,0-5.8,0.1-8.3,0.3c-2.5,0.2-5.4,0.3-8.6,0.3c-5.2,0-8.3-1.4-9.3-4.2
							c-1.1-2.8-1.6-5.1-1.6-7v-2.3c0-5.3,0.1-10.1,0.4-14.3c0.3-4.2,0.4-9,0.4-14.4c0-5.7-0.1-10.9-0.4-15.5
							c-0.3-4.6-0.4-9.8-0.4-15.5c0-4.6,0.2-8.7,0.5-12.3c0.4-3.6,0.6-7.7,0.6-12.1c0-3.6-0.1-6.9-0.3-9.6c-0.2-2.8-0.3-5.9-0.3-9.3
							c0-2.3,0.1-4.6,0.3-6.8c0.2-2.3,0.3-4.6,0.3-6.9c0-3.6-0.1-6.9-0.3-9.7c-0.2-2.9-0.3-6.2-0.3-9.8c0.2-3.6,0.4-6.9,0.6-9.6
							c0.2-2.8,0.3-5.9,0.3-9.3c0-3.8-0.1-7.5-0.3-11s-0.3-7.2-0.3-10.8v-1.1c0-1,0.1-2.4,0.4-4.3c0.3-1.9,1.1-3.6,2.6-5.2
							c1.4-1.5,4-2.3,7.6-2.3c2.7,0,5.1,0.1,7.1,0.4c2.1,0.3,4.5,0.4,7.2,0.4s5.3-0.1,7.9-0.2c2.6-0.2,5.1-0.3,7.6-0.3
							c2.7,0,5.4,0.3,8.2,1c2.8,0.7,4.2,3.1,4.2,7.3c0,1.9-0.1,3.6-0.3,5c-0.2,1.4-0.4,3-0.6,4.7c-0.2,4-0.4,7.7-0.6,10.9
							c-0.2,3.3-0.3,6.8-0.3,10.6s0.1,7.3,0.4,10.5s0.3,6.7,0.1,10.5c0,2.9-0.1,5.7-0.3,8.6c-0.2,2.9-0.3,5.8-0.3,8.9
							c0,2.3,0.1,4.6,0.4,7s0.4,4.7,0.4,7c0,4.2-0.1,8-0.3,11.3c-0.2,3.3-0.3,7.1-0.3,11.3c0,2.5,0.1,4.9,0.3,7.1
							c0.2,2.2,0.3,4.6,0.3,7.3c0,1.1,0,2.3-0.1,3.6c-0.1,1.2-0.1,2.5-0.1,3.9c0,5,1,8.6,3,11.1c2,2.4,4.3,3.9,6.9,4.5
							s4.7,0.8,6.5,0.8c2.5,0,4.6,0,6.5,0.1c1.8,0.1,4,0,6.5-0.1c1.1,0,2.2,0,3.1-0.1c1-0.1,2-0.1,3.2-0.1c1.3,0,2.8,0.1,4.3,0.4
							c1.5,0.3,3,1.2,4.4,2.7c1.1,1.1,1.9,3.4,2.2,6.6c0.4,3.3,0.6,6.5,0.6,9.8C149,80.7,149,83,149,84.3z"/>
					</g>
				</g>
			</g>
			<g>
				<g transform="translate(247.537942, 261.871007)">
					<g>
						<path class="st4" d="M228.3-60.5c0,3.7-0.4,6.9-1.2,9.8c-0.8,2.9-3.9,4.3-9.5,4.3c-1.3,0-2.6,0-3.9-0.1
							c-1.2-0.1-2.5-0.1-3.9-0.1h-8c-1.9,0-3.7,0-5.3-0.1s-3.5-0.1-5.6-0.1h-0.5c-3.5,0-5.8,0.8-6.9,2.3c-1.1,1.5-1.7,3.3-1.7,5.2v6
							c0,1.5,0,2.9-0.1,4.2c-0.1,1.2-0.1,2.6-0.1,4.2c0,3,0.8,5.2,2.4,6.5c1.6,1.2,3.4,2,5.2,2.2c1.8,0.2,2.9,0.3,3.3,0.3
							c1.5,0,3,0,4.5-0.1c1.4-0.1,2.9,0,4.5,0.1c1.1,0,2.1,0,3,0.1s1.9,0.1,3,0.1c1.1-0.2,2.3-0.3,3.4-0.4c1.2-0.1,2.3-0.1,3.5-0.1
							c3.8,0.2,6.3,1.4,7.4,3.5c1.2,2.1,1.8,3.9,1.8,5.4s-0.1,2.9-0.3,4.2c-0.2,1.2-0.3,2.6-0.3,4.2v5.5c0,5.4,0,9.9-0.1,13.6
							s-1,6.6-2.6,8.6s-4.8,3-9.6,3c-3.1,0-5.8-0.2-8.2-0.5c-2.4-0.4-5.1-0.6-8.2-0.6c-3.7,0-6.3,0.8-8.1,2.3
							c-1.7,1.5-2.7,3.3-3.1,5.3c-0.4,2-0.6,3.6-0.6,4.7v14.1c0,3.5,0,6.5,0.1,9.2s0.1,5.7,0.1,9.2c-0.2,1.5-0.3,2.9-0.4,4.2
							c-0.1,1.2-0.1,2.6-0.1,4.2c0,2.5,0.2,4.6,0.6,6.5c0.4,1.8,0.6,3.9,0.6,6.2v0.8c0,1-0.2,2.3-0.6,4.2c-0.4,1.8-1.3,3.5-2.7,4.9
							s-3.9,2.2-7.3,2.2c-3.1,0-5.9-0.1-8.5-0.3c-2.6-0.2-5.5-0.3-8.8-0.3c-2.7,0-5.1,0.1-7.3,0.3c-2.2,0.2-4.6,0.3-7.3,0.3
							c-4.6,0-7.5-1.2-8.7-3.7c-1.1-2.5-1.7-4.6-1.7-6.3c0-4.4,0.1-8.4,0.4-12.1c0.3-3.6,0.4-7.8,0.4-12.4
							c0.2-8.4,0.1-15.9-0.3-22.5c-0.4-6.6-0.5-14-0.3-22.3c0-6.1,0.2-11.6,0.6-16.6s0.6-10.4,0.6-16.4c0-5.9-0.1-11.2-0.4-15.8
							c-0.3-4.6-0.4-9.9-0.4-15.8c0-5,0.1-9.5,0.3-13.6s0.3-8.8,0.3-13.9c0-2.9-0.1-5.5-0.3-7.9s-0.3-5-0.3-7.9
							c0-6.5,1.3-10.7,3.9-12.5c2.6-1.8,5.7-2.7,9.3-2.7h9.5c5.2,0,9.9-0.1,14.1-0.2c4.2-0.2,8.9-0.3,14-0.3c2.7,0,5.2,0.1,7.5,0.3
							c2.3,0.2,4.9,0.2,7.8,0.2c4.2,0,8,0,11.4-0.1s7.3-0.1,11.5-0.1c1.2,0,2.8,0.3,5,0.9s3.3,2.7,3.3,6.6c0,1.1,0,2.2-0.1,3
							c-0.1,0.9-0.1,1.8-0.1,3v5.2c0,2.9,0,5.5,0.1,7.8C228.2-65.9,228.3-63.3,228.3-60.5z"/>
					</g>
				</g>
			</g>
			<g>
				<path class="st5" d="M108.9,242.8c-4.8,1.6-7,6.1-4.6,13.2c2.4,7.1,6.9,9.3,11.7,7.6c4.9-1.7,7.1-6.1,4.6-13.2
					C118.2,243.3,113.8,241.2,108.9,242.8z"/>
				<path class="st5" d="M310.4,150.4l-57.9,20.7l-46.1-46.2l2.4,61.9L46.3,248.3l-0.5,58.6l163.9-55.5l-2.1,41.9l44-59.5l69.1,14.8
					l-37.1-46L310.4,150.4z M70.5,284.1l-1.3-3.7l10.3-15.9c2.5-3.9,2.5-5.9,2-7.5c-0.9-2.7-3.7-3.5-8-2c-3.4,1.2-6,3.1-7.2,5.9
					l-5.6-1.4c1.7-4,6-7.5,11.8-9.5c7.7-2.6,13.8-1.1,15.6,4.1c1,2.9,0.9,5.8-2.7,11.3l-6.9,10.7l16.7-5.7l1.6,4.6L70.5,284.1z
					 M117.7,268.4c-8.4,2.9-16.7-0.4-20-10.1c-3.3-9.7,1.2-17.4,9.6-20.2c8.5-2.9,16.7,0.4,20,10.1
					C130.6,257.9,126.1,265.5,117.7,268.4z M138.6,260.8l-1.3-3.7l10.3-15.9c2.5-3.9,2.5-5.9,2-7.5c-0.9-2.7-3.7-3.5-8-2
					c-3.4,1.2-6,3.1-7.2,5.9l-5.6-1.4c1.7-4,6-7.5,11.8-9.5c7.7-2.6,13.8-1.1,15.6,4.1c1,2.9,0.9,5.8-2.7,11.3l-6.9,10.7l16.7-5.7
					l1.6,4.6L138.6,260.8z M195.6,241.3l-6.4,2.2l-2.3-6.7l-19.4,6.7l-1.3-3.8l10.9-25l7-2.4L174,236l11.6-4l-2-5.9l6.2-2.1l2,5.9
					l6.3-2.1l1.6,4.6l-6.3,2.1L195.6,241.3z"/>
			</g>
			<g>
				<path class="st6" d="M208.6,168.5c-0.9-0.6-2.2-0.8-3.7-0.8c-3.1,0-5.8,0.1-8.1,0.3s-4.9,0.3-8,0.3c-2.9,0-5.5-0.1-7.8-0.3
					s-4.9-0.3-7.8-0.3c-1.7,0-3.7,0.1-6,0.3s-3.5,0.4-3.7,0.6c-1.3,0.8-2.1,1.2-2.2,1.4c-0.1,0.2-0.6,0.8-1.6,1.7
					c0,0-0.7,1.4-2.2,4.1c-1.4,2.7-2.8,5.4-4.2,8c-1.3,2.7-2,4.1-2,4.3c-1.3,3.1-2.4,5.8-3.3,8.3c-0.9,2.5-1.9,5.3-3.3,8.3
					c-1.3,3-2.6,5.5-3.8,7.7l67.9-25.6L208.6,168.5z"/>
				<path class="st6" d="M209.8,348.6c-0.4-3.1-0.6-6.5-0.6-10.3c0-6.7,0.1-12.7,0.4-18.1c0.3-5.4,0.4-11.4,0.4-18.1
					c0-4.2-0.1-8.5-0.3-12.8c-0.1-2.9-0.2-5.7-0.2-8.6l-0.2,0.1v-29.4l-104.1,35.3c0,0,0,0,0,0.1c0.7,1.3,1.4,2.6,1.9,3.9
					c0.5,1.2,1.1,2.6,1.9,4.2c0.6,1.1,1.1,2.2,1.7,3.2s1.2,2,2,3.1c2.7,4.6,5.1,9,7.3,13.1c2.2,4.1,4.2,6.7,5.9,7.9
					c0.6,0.4,1.5,0.6,2.8,0.7s2.3,0.1,2.9,0.1c1.7,0,3-0.4,3.7-1.1c0.8-0.8,1.4-1.6,2-2.3c0,0,0.6-1.4,1.9-4.2
					c1.3-2.8,2.7-5.9,4.4-9.3c1.6-3.4,3.1-6.6,4.3-9.3c1.2-2.8,1.9-4.2,1.9-4.2c0.2-0.4,0.6-1.8,1.3-4.2c0.7-2.4,1.5-4.7,2.6-7
					c1-2.3,2.1-3.5,3-3.5s1.4,0.5,1.4,1.4v1.2c0,0.8,0,1.4,0.1,2s0.1,1.3,0.1,2.3c0,1.5,0,3-0.1,4.3s-0.1,2.9-0.1,4.6
					c0,3.1,0.1,5.9,0.4,8.5c0.3,2.6,0.4,5.5,0.4,8.8c0,1.7-0.1,3.3-0.3,4.6c-0.2,1.3-0.4,2.8-0.6,4.3c-0.2,1.9-0.2,3.6,0,5
					s0.3,3.1,0.3,5c0,1.1,0,2.2-0.1,3.2s-0.1,2-0.1,3.1v7.7c0,3.1-0.2,5.9-0.6,8.5c-0.4,2.6-0.5,5.5-0.5,8.8c0,1.9,0.6,4,1.9,6.5
					c1.2,2.4,4.2,3.6,8.8,3.6c2.7,0,5.1-0.1,7.3-0.4s4.7-0.4,7.3-0.4c3.8,0,7.3,0.1,10.4,0.4c3.1,0.3,6.5,0.4,10.3,0.4
					c3.4,0,5.6-0.9,6.3-2.8c0.8-1.9,1.2-5.1,1.2-9.5C210.4,355.1,210.2,351.7,209.8,348.6z"/>
				<path class="st6" d="M46.1,312.9c0.4,5.6,0.6,11.9,0.6,18.8c0,3.1,0,5.8-0.1,8.3s-0.2,5.4-0.4,8.6c-0.2,2.3-0.3,4.4-0.4,6.2
					c-0.1,1.8-0.1,3.9-0.1,6.2c0,1.9,0.4,4.2,1.1,6.9c0.8,2.7,3.8,4,9,4c1.1,0,2.2-0.1,3.1-0.3c1-0.2,2-0.3,3.2-0.3
					c2.5-0.2,4.7-0.3,6.6-0.3s4.1,0,6.6,0c2.3,0,4.4,0,6.2,0.1c1.8,0.1,3.9,0.1,6.2,0.1c2.5,0,4.7-0.6,6.7-1.7s3-4.1,3-8.9
					c0-3.1-0.1-5.8-0.3-8.2c-0.2-2.4-0.2-5.1-0.2-8.2v-6c0-3.4,0-6.5,0.1-9.2s0.2-5.6,0.4-8.9c0-2.7,0-5.1-0.1-7.1
					c-0.1-2.1-0.1-4.4-0.1-6.9c0-4.4,0.1-8.4,0.4-11.9c0.1-1.5,0.2-3.1,0.3-4.8L45.8,307C45.9,309,46,311,46.1,312.9z"/>
				<path class="st6" d="M46.5,194.3l-0.2,0.1c0.2,2.8,0.2,5.7,0.1,8.9c0,3.1-0.1,5.9-0.3,8.4s-0.3,5.3-0.3,8.6
					c0,6.7,0.1,12.8,0.3,18.1c0.1,3.1,0.2,6.4,0.2,9.9l74.5-28.1c-0.6-1.4-1.1-2.6-1.6-3.8c-0.7-1.6-1.6-3.4-2.7-5.3
					c-2.5-4.4-4.9-8.5-7.1-12.1s-4.3-7.9-6.4-12.6c-0.9-2.1-1.7-4-2.4-5.8c-0.4-1-0.7-1.9-1-2.8c-1-2.8-2.2-4.8-3.6-6.2
					c-1.5-1.3-3.9-2-7.4-2c-1.9,0-3.5,0-4.9,0.1s-3,0.1-4.9,0.1c-4.2,0-8,0-11.4-0.1s-7.3-0.1-11.7-0.1c-0.6,0-1.7,0-3.3,0.1
					s-3.2,0.7-4.7,1.7c-1.5,1.1-2.3,3.1-2.3,6.2c0,5.2,0.3,9.8,0.8,13.9C46.3,192.4,46.4,193.4,46.5,194.3z"/>
			</g>
		</g>
	</g>
</g>
</svg>
