<?xml version="1.0" encoding="UTF-8"?>
<svg id="Layer_1" xmlns="http://www.w3.org/2000/svg" version="1.1" viewBox="0 0 520 520">
  <!-- Generator: Adobe Illustrator 29.8.6, SVG Export Plug-In . SVG Version: 2.1.1 Build 1)  -->
  <defs>
    <style>
      .st0 {
        fill: #dd3e00;
      }

      .st1 {
        fill: #fff;
      }

      .st2 {
        fill: #00aae8;
      }

      .st3 {
        display: none;
      }

      .st4 {
        stroke: #fff;
        stroke-miterlimit: 10;
      }

      .st5 {
        fill: #ffdc6e;
      }
    </style>
  </defs>
  <g id="Layer_11" data-name="Layer_1">
    <g id="Layer_2" class="st3">
      <rect class="st4" width="520" height="520"/>
    </g>
    <g id="Layer_12" data-name="Layer_1">
      <g id="Layer_21" data-name="Layer_2" class="st3">
        <rect y="-.8" width="520" height="520.8"/>
      </g>
      <g id="Layer_3">
        <path class="st0" d="M345.2,346.2c0,1.9-.1,3.7-.3,5.4-.2,1.7-.3,3.7-.3,5.8v5.1c0,2-.6,3.8-1.9,5.4-1.2,1.6-3.8,2.4-7.6,2.4s-5.1,0-7.2-.3c-2.1-.2-4.5-.3-7.2-.3s-4.7,0-6.6,0-4.1,0-6.6,0-4.6,0-6.5,0c-1.8,0-3.9,0-6.2,0h-21.4c-3.1,0-5.8,0-8.3.3-2.5.2-5.4.3-8.6.3-5.2,0-8.3-1.4-9.3-4.2-1.1-2.8-1.6-5.1-1.6-7v-2.3c0-5.3,0-10.1.4-14.3.3-4.2.4-9,.4-14.4s0-10.9-.4-15.5c-.3-4.6-.4-9.8-.4-15.5s.2-8.7.5-12.3c.4-3.6.6-7.7.6-12.1s0-6.9-.3-9.6c-.2-2.8-.3-5.9-.3-9.3s0-4.6.3-6.8c.2-2.3.3-4.6.3-6.9,0-3.6,0-6.9-.3-9.7-.2-2.9-.3-6.2-.3-9.8.2-3.6.4-6.9.6-9.6.2-2.8.3-5.9.3-9.3s0-7.5-.3-11-.3-7.2-.3-10.8v-1.1c0-1,0-2.4.4-4.3.3-1.9,1.1-3.6,2.6-5.2,1.4-1.5,4-2.3,7.6-2.3s5.1,0,7.1.4c2.1.3,4.5.4,7.2.4s5.3,0,7.9-.2c2.6-.2,5.1-.3,7.6-.3s5.4.3,8.2,1c2.8.7,4.2,3.1,4.2,7.3s0,3.6-.3,5c-.2,1.4-.4,3-.6,4.7-.2,4-.4,7.7-.6,10.9-.2,3.3-.3,6.8-.3,10.6s0,7.3.4,10.5.3,6.7,0,10.5c0,2.9,0,5.7-.3,8.6-.2,2.9-.3,5.8-.3,8.9s0,4.6.4,7,.4,4.7.4,7c0,4.2,0,8-.3,11.3-.2,3.3-.3,7.1-.3,11.3s0,4.9.3,7.1c.2,2.2.3,4.6.3,7.3s0,2.3,0,3.6c0,1.2,0,2.5,0,3.9,0,5,1,8.6,3,11.1,2,2.4,4.3,3.9,6.9,4.5s4.7.8,6.5.8,4.6,0,6.5,0c1.8,0,4,0,6.5,0,1.1,0,2.2,0,3.1,0,1,0,2,0,3.2,0s2.8,0,4.3.4c1.5.3,3,1.2,4.4,2.7,1.1,1.1,1.9,3.4,2.2,6.6.4,3.3.6,6.5.6,9.8.1,3.1.1,5.4.1,6.7Z"/>
        <path class="st5" d="M475.8,201.4c0,3.7-.4,6.9-1.2,9.8-.8,2.9-3.9,4.3-9.5,4.3s-2.6,0-3.9,0c-1.2,0-2.5,0-3.9,0h-8c-1.9,0-3.7,0-5.3,0s-3.5,0-5.6,0h-.5c-3.5,0-5.8.8-6.9,2.3-1.1,1.5-1.7,3.3-1.7,5.2v6c0,1.5,0,2.9-.1,4.2-.1,1.2-.1,2.6-.1,4.2,0,3,.8,5.2,2.4,6.5,1.6,1.2,3.4,2,5.2,2.2,1.8.2,2.9.3,3.3.3,1.5,0,3,0,4.5-.1,1.4,0,2.9,0,4.5.1,1.1,0,2.1,0,3,.1s1.9.1,3,.1c1.1-.2,2.3-.3,3.4-.4,1.2-.1,2.3-.1,3.5-.1,3.8.2,6.3,1.4,7.4,3.5,1.2,2.1,1.8,3.9,1.8,5.4s-.1,2.9-.3,4.2c-.2,1.2-.3,2.6-.3,4.2v5.5c0,5.4,0,9.9-.1,13.6s-1,6.6-2.6,8.6-4.8,3-9.6,3-5.8-.2-8.2-.5c-2.4-.4-5.1-.6-8.2-.6s-6.3.8-8.1,2.3c-1.7,1.5-2.7,3.3-3.1,5.3-.4,2-.6,3.6-.6,4.7v14.1c0,3.5,0,6.5.1,9.2s.1,5.7.1,9.2c-.2,1.5-.3,2.9-.4,4.2-.1,1.2-.1,2.6-.1,4.2,0,2.5.2,4.6.6,6.5.4,1.8.6,3.9.6,6.2v.8c0,1-.2,2.3-.6,4.2-.4,1.8-1.3,3.5-2.7,4.9s-3.9,2.2-7.3,2.2-5.9,0-8.5-.3c-2.6-.2-5.5-.3-8.8-.3s-5.1,0-7.3.3c-2.2.2-4.6.3-7.3.3-4.6,0-7.5-1.2-8.7-3.7-1.1-2.5-1.7-4.6-1.7-6.3,0-4.4.1-8.4.4-12.1.3-3.6.4-7.8.4-12.4.2-8.4.1-15.9-.3-22.5-.4-6.6-.5-14-.3-22.3,0-6.1.2-11.6.6-16.6s.6-10.4.6-16.4-.1-11.2-.4-15.8c-.3-4.6-.4-9.9-.4-15.8s.1-9.5.3-13.6.3-8.8.3-13.9-.1-5.5-.3-7.9-.3-5-.3-7.9c0-6.5,1.3-10.7,3.9-12.5,2.6-1.8,5.7-2.7,9.3-2.7h9.5c5.2,0,9.9,0,14.1-.2,4.2-.2,8.9-.3,14-.3s5.2,0,7.5.3c2.3.2,4.9.2,7.8.2,4.2,0,8,0,11.4,0s7.3,0,11.5,0,2.8.3,5,.9,3.3,2.7,3.3,6.6,0,2.2-.1,3c-.1.9-.1,1.8-.1,3v5.2c0,2.9,0,5.5.1,7.8,0,1.5,0,4.1,0,6.9Z"/>
        <g>
          <path class="st1" d="M108.9,242.8c-4.8,1.6-7,6.1-4.6,13.2,2.4,7.1,6.9,9.3,11.7,7.6,4.9-1.7,7.1-6.1,4.6-13.2-2.4-7.1-6.8-9.2-11.7-7.6Z"/>
          <path class="st1" d="M310.4,150.4l-57.9,20.7-46.1-46.2,2.4,61.9-162.5,61.5-.5,58.6,163.9-55.5-2.1,41.9,44-59.5,69.1,14.8-37.1-46,26.8-52.2Z"/>
        </g>
        <g>
          <path class="st2" d="M208.6,168.5c-.9-.6-2.2-.8-3.7-.8-3.1,0-5.8.1-8.1.3s-4.9.3-8,.3-5.5-.1-7.8-.3-4.9-.3-7.8-.3-3.7.1-6,.3-3.5.4-3.7.6c-1.3.8-2.1,1.2-2.2,1.4-.1.2-.6.8-1.6,1.7,0,0-.7,1.4-2.2,4.1-1.4,2.7-2.8,5.4-4.2,8-1.3,2.7-2,4.1-2,4.3-1.3,3.1-2.4,5.8-3.3,8.3-.9,2.5-1.9,5.3-3.3,8.3-1.3,3-2.6,5.5-3.8,7.7l67.9-25.6-.2-18.3Z"/>
          <path class="st2" d="M209.8,348.6c-.4-3.1-.6-6.5-.6-10.3,0-6.7.1-12.7.4-18.1.3-5.4.4-11.4.4-18.1s-.1-8.5-.3-12.8c-.1-2.9-.2-5.7-.2-8.6h-.2c0,.1,0-29.3,0-29.3l-104.1,35.3h0c.7,1.4,1.4,2.7,1.9,4,.5,1.2,1.1,2.6,1.9,4.2.6,1.1,1.1,2.2,1.7,3.2s1.2,2,2,3.1c2.7,4.6,5.1,9,7.3,13.1,2.2,4.1,4.2,6.7,5.9,7.9.6.4,1.5.6,2.8.7s2.3.1,2.9.1c1.7,0,3-.4,3.7-1.1.8-.8,1.4-1.6,2-2.3,0,0,.6-1.4,1.9-4.2,1.3-2.8,2.7-5.9,4.4-9.3,1.6-3.4,3.1-6.6,4.3-9.3,1.2-2.8,1.9-4.2,1.9-4.2.2-.4.6-1.8,1.3-4.2.7-2.4,1.5-4.7,2.6-7,1-2.3,2.1-3.5,3-3.5s1.4.5,1.4,1.4v1.2c0,.8,0,1.4.1,2s.1,1.3.1,2.3c0,1.5,0,3-.1,4.3s-.1,2.9-.1,4.6c0,3.1.1,5.9.4,8.5.3,2.6.4,5.5.4,8.8s-.1,3.3-.3,4.6c-.2,1.3-.4,2.8-.6,4.3-.2,1.9-.2,3.6,0,5s.3,3.1.3,5,0,2.2-.1,3.2-.1,2-.1,3.1v7.7c0,3.1-.2,5.9-.6,8.5-.4,2.6-.5,5.5-.5,8.8s.6,4,1.9,6.5c1.2,2.4,4.2,3.6,8.8,3.6s5.1-.1,7.3-.4,4.7-.4,7.3-.4c3.8,0,7.3.1,10.4.4,3.1.3,6.5.4,10.3.4s5.6-.9,6.3-2.8c.8-1.9,1.2-5.1,1.2-9.5,0-3.9-.3-7.3-.7-10.4Z"/>
          <path class="st2" d="M46.1,312.9c.4,5.6.6,11.9.6,18.8s0,5.8,0,8.3-.2,5.4-.4,8.6c-.2,2.3-.3,4.4-.4,6.2,0,1.8,0,3.9,0,6.2s.4,4.2,1.1,6.9c.8,2.7,3.8,4,9,4s2.2-.1,3.1-.3c1-.2,2-.3,3.2-.3,2.5-.2,4.7-.3,6.6-.3h6.6c2.3,0,4.4,0,6.2.1,1.8.1,3.9.1,6.2.1s4.7-.6,6.7-1.7,3-4.1,3-8.9,0-5.8-.3-8.2c-.2-2.4-.2-5.1-.2-8.2v-6c0-3.4,0-6.5,0-9.2s.2-5.6.4-8.9c0-2.7,0-5.1,0-7.1,0-2.1,0-4.4,0-6.9,0-4.4,0-8.4.4-11.9,0-1.5.2-3.1.3-4.8l-52.1,17.6c.1,2,.2,4,.3,5.9Z"/>
          <path class="st2" d="M46.5,194.3h-.2c.2,2.9.2,5.8,0,9,0,3.1,0,5.9-.3,8.4s-.3,5.3-.3,8.6c0,6.7,0,12.8.3,18.1,0,3.1.2,6.4.2,9.9l74.5-28.1c-.6-1.4-1.1-2.6-1.6-3.8-.7-1.6-1.6-3.4-2.7-5.3-2.5-4.4-4.9-8.5-7.1-12.1s-4.3-7.9-6.4-12.6c-.9-2.1-1.7-4-2.4-5.8-.4-1-.7-1.9-1-2.8-1-2.8-2.2-4.8-3.6-6.2-1.5-1.3-3.9-2-7.4-2s-3.5,0-4.9.1-3,.1-4.9.1c-4.2,0-8,0-11.4-.1s-7.3-.1-11.7-.1-1.7,0-3.3.1-3.2.7-4.7,1.7c-1.5,1.1-2.3,3.1-2.3,6.2,0,5.2.3,9.8.8,13.9,0,.9.2,1.9.3,2.8Z"/>
        </g>
      </g>
    </g>
  </g>
</svg>