<?xml version="1.0" encoding="utf-8"?>
<!-- Generator: Adobe Illustrator 27.8.0, SVG Export Plug-In . SVG Version: 6.00 Build 0)  -->
<svg version="1.1" xmlns="http://www.w3.org/2000/svg" xmlns:xlink="http://www.w3.org/1999/xlink" x="0px" y="0px"
	 viewBox="0 0 285.9 285.9" style="enable-background:new 0 0 285.9 285.9;" xml:space="preserve">
<style type="text/css">
	.st0{fill:#FFCE00;}
	.st1{fill:#FFFFFF;}
	.st2{fill:#E20707;}
	.st3{fill:#1294B2;}
	.st4{fill:none;}
</style>
<g id="Layer_1">
	<g>
		<g>
			<polygon class="st0" points="31.9,177 31.9,82.7 85.8,115.4 139.7,82.7 139.7,177 98.7,177.7 98.3,154.5 86.7,164.1 73.4,154.7 
				73.8,177.1 			"/>
			<g>
				<g>
					<g>
						<g>
							<path class="st1" d="M39.1,175.3c0.4-1.5,0.4-4,0.5-6.4C39.2,170.8,39.1,172.7,39.1,175.3z"/>
							<path class="st1" d="M39.6,168.9C39.6,168.9,39.6,168.8,39.6,168.9C39.6,168.9,39.6,168.9,39.6,168.9
								C39.6,168.9,39.6,168.9,39.6,168.9z"/>
							<path class="st1" d="M33.6,185.5c0.6,0,1.3,0,2,0C35,185.5,34.3,185.5,33.6,185.5z"/>
							<path class="st1" d="M52.9,105.6l0.6-0.3c4.9,2.9,1.1,1.4,5.6,4c2.2,0.3,7.4,4.6,9.2,5.2c-0.1,0,2.1,1.4,1.8,1.5
								c0.9,0,2.3,1.3,3.8,2c0.6,0.2-0.3-0.3-0.6-0.7l3.3,1.8c0.2,0.1,0.3,0.2,0.4,0.3c0.2,0.2,0.4,0.3,0.6,0.4
								c0.3,0.3,0.5,0.4,0.6,0.5c0,0.1-0.1,0.1-0.4-0.1c-0.1-0.1-0.3-0.2-0.6-0.3c-0.2-0.1-0.4-0.2-0.7-0.4c2.1,1.3,5.2,3.2,9.3,5.7
								c7.8-4.7,20.8-12.4,32.9-19.6c4.3-2.6,8.5-5.1,12-7.2c0,0,0.1-0.1,0.1-0.2c0.1-0.3,0.1-0.3,0.1-0.4c0-0.1,0-0.1,0-0.5
								c0.2-0.3,0.3-0.3,0.3-0.3c0.1,0,0.1,0,0.3-0.3c-0.2,0.5-0.2,0.6-0.2,0.7c-0.1,0.3,0,0.4-0.6,1c0.2-0.2,0.3-0.3,0.5-0.5
								c-0.1,0.1-0.2,0.2-0.3,0.3c0.2,0,0.3,0.1,0.3,0.1c0,0,0,0,0,0c0,0,0,0,0,0c0,0.1,0,0.3,0,0.5c0,0.8-0.1,2.3-0.1,5
								c0.1,6.2,0.7,9.2,0.5,12.7c0-0.5,0.3-1.9,0.4-0.3c-0.4,0.3,0.3,4.3-0.1,5.1c0.1,1.6,0,6.7,0.6,5c-0.3,0.9-0.4,5.5-0.6,2.7
								c0,1.5-0.1,3,0,4.2l0.2-2c0.1,5.2-0.3,8.1,0.2,11.5l0.2-1.9c0,3.1,0.1,5.7-0.5,7l-0.2-3.2c0,5.2,0.1,8.3,0.3,12.6l0-1.5
								c0.1,1.4,0.3,4.5,0.4,8.3c0,1,0.1,2,0.1,3c0,0.3,0,0.5,0,0.8l0,0.2l0,0l0,0.1l0.1,0.3c0.1,0.5,0.1,1.1,0.2,1.6
								c-0.4,0.1-0.9,0.1-1.3,0.2c-0.2,0-0.5,0.1-0.7,0.1c-0.8,0-1.6,0.1-2.4,0.1c-3.2,0.2-5.8,0.4-6.9,0.6l2.3,0.4l-4.3,0.4
								c0.5,0,2.1-1.4,2.5-1.3c-1.8,0-5,0.1-9.1,0.2c-1.7,0-3.7,0.1-5.7,0.1c-0.7,0-1.4,0-2.2,0.1c0-0.5,0-1.1-0.1-1.7
								c0-1.2-0.1-2.4-0.1-3.7c-0.1-3.9-0.1-7.8-0.2-11.5l-0.3-13.2l-10.1,8.4c-2.3,1.9-4.4,3.7-6.3,5.3c-0.6,0.5-1.1,0.9-1.5,1.2
								c-0.5-0.4-0.9-0.7-1.1-0.9c-0.4-0.4-0.3-0.5-0.1-0.6c0.1-0.1,0.3-0.1,0.3-0.1c-0.2-0.1-0.2,0-0.8-0.4
								c-0.4-0.2-0.6-0.3-0.8-0.4c-0.4-0.1-0.6-0.3-2.1-1.3c-0.8-0.6,0.4-0.2,0.8,0.1c-1.3-0.9-2.4-1.8-2.6-1.7c1.5,1.3,0.5,1.2,1,2
								l-3.7-2.7l0.4-0.2c-0.2-0.1-0.4-0.2-0.6-0.3l-12.4-5.5l2.5,10.7c0.2,1.1,0.8,2.8,0.8,6.4c0,2.3,0,4.7,0.1,7.1
								c0,1,0,1.9,0.1,2.9c-1,0-1.9,0-2.8,0c0-0.2,0.5-0.3,1-0.4c-0.3,0-0.8,0-1.1-0.1c0.3,0.2,0.1,0.2-0.2,0.3l-0.1,0l-0.1,0
								l-0.2,0c-0.2,0-0.4,0-0.5,0c-0.2,0-0.3,0,0.1,0.1c-5.6,0.8-13,0.1-17.9,0.6c-0.4,0.7-10.7,12.5-10.7,13.4
								c-1.5,0-3.1,0-3.6-0.1c0.4,0.2,3.4,0.3,5.1,0.2l0.3-0.5c3.7-0.2,0.9,0.3,4.5,0.3c0.2,0.4-3.1,0.5-6.1,0.5
								c2.6,0,5.3,0.3,6.4-0.1c2.5,0.2-0.3,0.5,2.7,0.6c2.1-0.1,4.9-0.5,7.4-0.2l0,0.1c3,0.2,5.3,0.1,7.5-0.1
								c1.1-0.1,2.2-0.1,3.4-0.2c0.3,0,0.6,0,0.9,0c0.3,0,0.6,0,1,0c1.2,0,2.5,0,3.8,0.1l-1.1,0.1c3.3,0.2,9.3,0,15.4,0.1
								c0-0.9,0-1.9,0-2.8c0,1.9-0.3,3.3-0.4-0.8c0-3.8,0-7.1-0.1-10.1c0-1.5,0-3-0.1-4.4c0-0.8,0-1.5,0.1-2.2l-0.4-2.8
								c0-1.9-0.1-4.6-0.2-8.2l-13.3,7c4.9,3.4,11.5,8.1,18.6,13.1c5.2-4.4,11-9.2,16.5-13.9l-13.5-6.2c0.3,12.2,0.5,23,0.7,31.2
								c15.2-0.3,23.3-0.5,28-0.6l-0.5,0.1c2.9-0.1,6.2-0.1,9.8-0.2c6-0.1,12.6-0.2,19.5-0.4c-0.1-13.4-0.1-28.5-0.2-42.7
								c-0.1-11.6-0.2-22.5-0.4-30.5c0.4-3.4,0.3-8.1,0.4-11.7c-0.2,2-0.4,1.3-0.4-0.2c0-2.1,0-3.7,0-4.9c0-1.4,0-2.4,0-3
								c0-1.3-0.1-1.5-0.1-1.6c-0.1-0.3-0.2-0.7-0.3-10.2c0-2.4-0.1-5.5-0.1-9.3c-5.9,3.6-13.6,8.3-22,13.4
								c-5.1,3.1-10.7,6.4-16.2,9.7c-5.2,3.1-10.4,6.2-14.9,8.9c-2.3,1.3-4.4,2.6-6.3,3.7l-0.3,0.2l-0.1,0l-0.2,0.1
								c-0.1,0-0.2,0.1-0.3,0.1c-0.2,0.1-0.3,0.2-0.5,0.2c-0.3-0.2-0.5-0.3-0.6-0.4c-0.1,0-0.2,0-0.2,0c-0.1,0-0.1,0-0.5-0.2
								c-0.7-0.4-1.4-0.8-2.1-1.2c-1.4-0.8-2.9-1.7-4.3-2.5c-2.9-1.7-5.7-3.5-8.3-4.9l0.6,0.2c-2.1-1.2-8-4.8-14.7-8.9
								c-10.3-6.3-22-13.5-30.7-18.8c0,7.1,0,12.6,0,15.6l0.1-1.7c0.2,5.8,0.1,8.1,0,10.3c-0.1,1.1-0.1,2.1-0.2,3.4
								c0,0.3,0,0.7-0.1,1c0,0.2,0,0.4-0.1,0.7c0,0.5-0.1,1-0.1,1.6c0.6-0.7,1,4.8,1,6.9l-0.1-0.1c0.1,3.2,0.6,10.3,0.7,15.5
								l-0.3-0.2c0.4,4.3,0.2,12.5,0.2,15.7c-0.1,7.1-0.7,18.2-0.3,27.7l-0.9,6.2l0.1,0.9c0,0,11.4,9.9,13.9-2.7l0.3,0.2l0-2.5
								c0.2-3-0.2-4.4,0.1-4.2l0,4.1c0.1-3,0.3-0.9,0.5,0.2c0-1.3,0.1-2.5,0.2-3.5c-0.1-0.6-0.1,0.4-0.2,0.9
								c-0.1-1.6-0.4-3.9-0.3-5.8c0-3.1,0.5-0.2,0.6-3.8c0.3-19,0.6-37.3,0.6-56.5c0.1-0.4,0.1,0.1,0.2,0.6c0-0.7,0-1.4,0-2.1
								c0,0,0-0.1,0-0.1c0-0.1,0-0.1,0-0.2c0-0.1,0-0.3-0.1-0.5c0.1,0.1,0.2,0.3,0.4,0.5c0,0.1,0.1,0.1,0.1,0.2
								c-0.2-0.3-0.1-0.3,0.1-0.2c2.8,1.7,5.6,3.4,7.7,4.6C51.1,104.5,52.8,105.6,52.9,105.6z"/>
						</g>
					</g>
				</g>
			</g>
		</g>
		<g>
			<path class="st2" d="M168,80.8c8.4-2.5,12.9-1,12.9-1l-37.7,86.6c0,0,43.9-3.4,45.4-2.9c1.5,0.5,3.1,10.8,1.4,12.2
				s-54.4,7.1-59.2,4.7c-4.8-2.4-2.4-1.8-3.1-5.6C127.1,170.9,158.9,81.7,168,80.8z"/>
			<g>
				<g>
					<g>
						<g>
							<path class="st1" d="M172.1,91.6c0.9,0.4,2,0.1,3,0.1C174.3,91.3,173.4,91.2,172.1,91.6z"/>
							<path class="st1" d="M175.2,91.8L175.2,91.8C175.2,91.8,175.2,91.8,175.2,91.8L175.2,91.8z"/>
							<path class="st1" d="M159.2,70.1c-0.3,0.2-0.7,0.5-1,0.8c-0.3,0.2-0.5,0.4-0.7,0.6c-0.2,0.2-0.5,0.4-0.7,0.7l-0.6,0.6
								l0.6-0.5l0.7-0.7l0.7-0.6C158.5,70.6,158.8,70.3,159.2,70.1z"/>
							<path class="st1" d="M136.5,146.6l0.8,0.6c-3,7-2.1,2-4.7,8.7c0.2,1.2-1,3.9-2.3,6.6c-1.3,2.7-2.8,5.6-2.7,6.4
								c-0.1,0-1.6,3.3-2.1,3.4c0.6,0.4-1.2,3.2-1.8,5.1c0,0.5,0.6-0.8,1.1-1.5l-1.6,4.3c-0.2,0.3-0.3,0.5-0.4,0.7
								c0.9,0.2,0.7,0.5-1,0.7c0-0.1,0.1-0.2,0.1-0.3c0,0.1-0.1,0.2-0.1,0.3c6.9-0.4,26.2-1.7,45.6-2.9c5-0.3,10-0.5,14.3-0.8
								c2-0.1,3.7-0.2,5.2-0.3c0.3,0,0.5,0,0.8,0l0.2,0l-0.5,0c-0.1,0-0.1,0-0.2,0l-0.1-0.8c-0.1-0.5-0.1-1-0.2-1.5
								c-0.3-4,0.3-7.8,1.5-11.3l0.1-0.3l0,0.1l0,0.1c0,0,0,0.1-0.1,0.1l-0.1,0.1c0,0.1-0.1,0.1-0.1,0.1c-0.1,0.1-0.2,0.2-0.3,0.2
								c-0.1,0.1-0.2,0.2-0.4,0.3c-0.1,0.1-0.3,0.2-0.4,0.3l-0.5,0.3c-0.3,0.2-0.6,0.3-1,0.6c-0.7,0.4-1.5,0.7-2.3,1.1
								c-0.4,0.2-0.8,0.3-1.2,0.5c-0.4,0.2-0.8,0.3-1.2,0.5c0.4-0.2,0.8-0.3,1.3-0.5c0.4-0.2,0.9-0.4,1.4-0.6
								c0.5-0.2,0.9-0.4,1.4-0.6c0.5-0.2,0.9-0.5,1.3-0.7c0.2-0.1,0.4-0.2,0.6-0.4c0.2-0.1,0.3-0.2,0.5-0.3c0.3-0.3,0.6-0.4,0.7-0.7
								c0.1-0.1,0.1-0.1,0.1-0.2l0,0c0.1-0.3,0-0.1,0-0.1l0,0l0,0.1l0,0.1l-0.1,0.4l-0.3,0.8c-0.2,0.5-0.3,1.1-0.5,1.7
								c-0.6,2.2-0.8,4.5-0.8,6.8c0,1.2,0.1,2.3,0.2,3.5l0,0.1c0,0,0,0,0,0l0,0l0.1,0l0.2,0l0.3,0c0.1,0,0.1,0,0.1,0l0,0l0,0l-0.1,0
								c-0.1,0-0.3-0.1-0.4-0.1c-0.2-0.1-0.4-0.2-0.6-0.4c0.4-0.1,0.6-0.2,0.9-0.2c0.1,0,0.1,0,0.2,0l0.1,0c-0.2,0-0.3,0-0.5,0
								l-0.3,0l-0.1,0l0,0c0,0,0-0.1,0-0.1l-0.1-0.7c-0.1-0.9-0.1-1.8-0.1-2.7c0-1.8,0.2-3.5,0.6-5.2c0.2-0.8,0.4-1.6,0.6-2.4
								c0.1-0.4,0.2-0.8,0.4-1.2l0.1-0.3l0-0.1l0,0.2l0,0l0,0c0,0.1-0.1,0.1-0.1,0.2c0,0-0.1,0.2-0.2,0.2c-0.1,0.1-0.1,0.1-0.2,0.2
								c-0.1,0.1-0.2,0.2-0.3,0.3c-0.2,0.2-0.4,0.3-0.7,0.5c-0.5,0.4-1,0.6-1.7,0.9c-0.3,0.2-0.6,0.3-0.9,0.4
								c-0.3,0.1-0.7,0.3-1,0.5c-0.3,0.1-0.7,0.3-1.1,0.4c-0.4,0.2-1,0.4-1.6,0.6c-0.6,0.2-1.3,0.4-2,0.7c-0.4,0.1-0.7,0.2-1.1,0.4
								c-0.2,0.1-0.4,0.1-0.6,0.2l-0.2,0.1l0,0c-0.1,0-0.1,0.2-0.1,0.5c0,0.5,0.1,1.3-0.6,1.7l0.8,0.2c-0.1,0.2-0.3,0.3-0.4,0.5
								c0.1,0.2,0.1,0.3,0.1,0.3c1.3,0.1,2.5,0.1,3.7,0.2c1.1,0.1,2.2,0.2,3.1,0.3c0.4,0.1,0.9,0.1,1.3,0.2c0.4,0.1,0.7,0.1,1.1,0.2
								c0.7,0.2,1.2,0.3,1.7,0.5c0.3,0.1,0.4,0.1,0.6,0.2c0.2,0.1,0.4,0.2,0.5,0.2c0.2,0.1,0.5,0.3,0.6,0.4c0.1,0.1,0.1,0.1,0.2,0.2
								l0,0c-0.3-0.4,0.5,0.5,0.4,0.4l0,0l0,0l-0.1-0.1l-0.2-0.2c-0.1-0.1-0.2-0.3-0.3-0.4c-0.3-0.5-0.5-1.1-0.6-1.6l0-0.2l-0.1-0.3
								c-0.1-0.2-0.2-0.4-0.2-0.6c-0.1-0.4-0.3-0.8-0.4-1.1c-0.2-0.7-0.5-1.4-0.6-2c-0.4-1.2-0.6-2.2-0.8-3
								c-0.1-0.4-0.2-0.8-0.2-1.2c0-0.2-0.1-0.4-0.1-0.5c-0.1-0.2-0.1-0.5-0.2-0.7l-0.2-0.7c0-0.2,0-0.1,0-0.1l0,0l0,0
								c0,0,0,0-0.1,0c-0.1,0-0.1,0-0.2,0c-0.4,0-1.1,0.1-2.8,0.3c-4,0.7-6,2-8.3,1.9c0.4,0,1.3,0.3,0.3,0.6
								c-0.3-0.6-2.9,0.8-3.5,0.2c-1.1,0.2-4.6,0.5-3.3,1.2c-0.6-0.4-3.8-0.2-2-0.8c-1.1,0.1-2.1,0.1-2.9,0.3l1.4,0.1
								c-3.6,0.5-5.6,0-7.9,1l1.4,0.2c-2.1,0.2-3.9,0.4-4.8-0.4l2.2-0.4c-3.6,0.3-5.7,0.5-8.6,1.2l1,0c-0.2,0.1-0.5,0.1-0.9,0.2
								c-0.2,0-0.4,0.1-0.6,0.1c-0.1,0-0.2,0-0.3,0.1c-0.1,0-0.2,0-0.2,0.1c-0.3,0.1-0.8,0.3-0.9,0.4c-0.5,0.2-1.2,0.5-2,0.7
								c-0.4,0.1-0.9,0.2-1.3,0.1c-0.2,0-0.4-0.1-0.6-0.1c-0.2,0-0.3-0.2-0.3-0.3c-0.1-0.2-0.3-0.5-0.4-0.7
								c-0.1-0.2-0.2-0.4-0.3-0.4c-0.3,0.3-0.6,0.6-0.9,0.9c-0.1-0.3-0.3-0.6-0.4-0.9c0,0.1,0.6,0.1,1.1,0c0.6-0.1,1.1-0.2,1-0.1
								c0.1-0.4,0.3-1.3,0.6-2.5c0-0.1,0.1-0.3,0.1-0.4c0.2-0.5,0.3-1,0.5-1.5c0.4-1.1,0.7-2.2,1.1-3.3c0.8-2.3,1.6-4.6,2.4-7
								c3.3-9.5,6.9-18.8,8.2-21.5c1.2-2.1,1.2,0,1.3,0.1c0.8-2.8-0.2-1.4,0.8-3.8c0.4-0.6,0.4,0.3,0.4,0.7c0.3-1,0.9-1.9,0.7-2.1
								c-0.7,1.2-1.3,0.3-2,0.7l1.3-3l0.4,0.3c0.3-0.7-0.7-2.2,0.8-5.1c2.3-4.8,4.4-10.2,6.7-15c0.3,0.2,0,1.3-0.3,2.4
								c0.3-0.6,0.7-1.6,1.2-2.1c-1,0.9,0.6-2.2,0-1.4c0.5-4.1,3.7-7.9,4.5-11c-0.4-0.4-4-4.3-7.1-8.8c-1.5-2.2-2.9-4.6-3.7-6.7
								c-0.2-0.5-0.4-1-0.6-1.5c-0.2-0.5-0.3-0.9-0.4-1.3c-0.2-0.7-0.3-1.2-0.5-1.4l0.3-0.3l0.4-0.4c0.3-0.2,0.6-0.5,0.8-0.7
								l0.2-0.2l0.3-0.2c0.2-0.1,0.4-0.3,0.6-0.4c0.4-0.3,0.7-0.5,1.1-0.7c0.5-0.3,1.1-0.6,1.6-0.8c0.3-0.1,0.5-0.2,0.7-0.3
								c0.1,0,0.3-0.1,0.4-0.1c0.2-0.1,0.3-0.1,0.5-0.2c1.3-0.4,2.4-0.5,3-0.6c-0.3,0-0.8,0-1.5,0.1c-0.4,0.1-0.8,0.1-1.2,0.3
								c-0.4,0.1-1,0.3-1.3,0.4c-0.7,0.2-1.4,0.6-2.2,1c-0.6,0.3-1.1,0.7-1.7,1.1l-0.4,0.3l-0.3,0.2l-0.6,0.5l-0.6,0.5l-0.4,0.4
								c-0.3,0.3-0.5,0.6-0.8,0.8c-0.2,0.2-0.4,0.5-0.5,0.7l0.3,0.7c-1.2,1.7-1.4,1.8-1.6,1.9c-0.1,0-0.2,0.1-0.5,0.3
								c-0.2,0.2-0.5,0.6-1,1.3c-0.3-0.1-0.1-0.8,0.5-1.8c0.6-1,1.5-2.4,3.1-4.1c-0.8,0.8-1.3,1.3-1.9,1.9c-0.5,0.5-1,1.1-1.3,1.5
								c-0.7,0.9-1.1,1.7-1.1,2.3c-1.4,1.7-0.5-0.6-2.1,1.5c-0.8,1.7-1.4,3.9-2.6,5.5l-0.1-0.1c-2.7,3.8-2.3,6.7-4.6,10.1l0-0.5
								c-0.9,1.2-1.7,3.9-3,6.1c0.4-0.6,1.1-1,0.5,0.4c-1.5,2.5-2,4.5-3.2,6.3l-0.2,2.1c-2,4.6-6.5,16.2-10.6,27.9
								c-2,5.8-4,11.7-5.6,16.8c-0.4,1.4-0.9,2.7-1.3,4c-0.7,2.1-1.3,4.1-1.8,5.9c-1.1,3.6-1.8,6.7-2,8.7l0-0.6
								c-0.2,1.6,0.1,3.2-0.2,4.9c0,0.8,0,1.6,0.2,2.5c0.1,0.8,0.4,1.8,0.7,2.6c0.3,0.8,0.6,1.6,1,2.2c0.3,0.6,0.9,1.6,1.6,2.2
								c0.6,0.7,1.3,1.4,2.1,2c0.8,0.6,1.7,1.2,2.5,1.6c1.7,0.9,3.6,1.6,5.6,2.3c0.1,0,0.3,0.1,0.4,0.1l0.4,0.1l0.9,0.1
								c0.6,0.1,1.2,0.2,1.8,0.2c1.3,0.1,2.5,0.2,3.8,0.2c1.3,0,2.6,0,3.9,0c1.3,0,2.7-0.1,3.9-0.1c1.2-0.1,2.3-0.1,3.5-0.2l2.2-0.2
								c11.9-0.9,23.6-2.3,31.5-3.8c1.3,0.1,2.8,0.1,4.3-0.1c1.5-0.2,3.1-0.4,4.7-0.6c-0.9,0.1-1.1-0.1-1.1-0.2
								c0.1-0.1,0.5-0.3,1.2-0.4c0.5-0.1,1.3-0.3,1.8-0.4c0.1,0,0.2-0.1,0.3-0.1c0.1,0,0.2-0.1,0.4-0.1c0.2-0.1,0.5-0.1,0.7-0.2
								c0.1,0,0.2-0.1,0.3-0.1l0.1,0l0.4-0.2c0.3-0.1,0.5-0.2,0.7-0.3c1-0.5,1.9-1.1,2.7-1.7c0.7-0.6,1.3-1.2,1.8-1.9l0.4-0.5
								l0.2-0.3c0.1-0.2,0.3-0.4,0.4-0.7c0.1-0.2,0.2-0.4,0.4-0.7c0.1-0.2,0.2-0.3,0.2-0.5c0.1-0.3,0.2-0.6,0.4-0.9
								c0.1-0.3,0.2-0.5,0.2-0.7c0.1-0.2,0.1-0.4,0.2-0.5c0.1-0.4,0.1-0.6,0.2-0.8c0.2-0.9,0.2-1.2,0.2-1.5c0-0.3,0-0.3,0-0.4
								c0-0.1-0.1-0.2-0.1-0.4c0-0.2,0-0.5,0-1.1c0-1-0.1-2.7-0.4-5.3c-0.1-0.8-0.3-1.6-0.5-2.6c-0.2-1-0.5-2.1-0.9-3.6
								c-0.3-0.8-0.5-1.6-1.2-3c-0.1-0.2-0.2-0.3-0.3-0.6c-0.1-0.3-0.3-0.5-0.5-0.8c-0.1-0.1-0.2-0.3-0.3-0.5
								c-0.1-0.2-0.3-0.4-0.4-0.6l-0.2-0.3l-0.3-0.3c-0.3-0.3-0.6-0.6-0.9-0.8l-0.5-0.4l-0.2-0.2l-0.4-0.3c-0.6-0.4-1.2-0.8-1.9-1
								l-0.5-0.2l-0.4-0.2l-0.3-0.1l-0.5-0.1c-0.7-0.2-1.4-0.3-2.1-0.3c-0.4,0-0.7-0.1-1.1-0.1l-0.3,0l-0.5,0c-0.3,0-0.7,0-1,0
								c-0.6,0-1.2,0.1-1.8,0.1c-4.6,0.3-10.1,0.5-15.5,0.8c-3.6,0.2-3.1,0.1-3.9,0.1c-0.6,0-1.1,0-1.5-0.1
								c-0.9-0.1-1.5-0.1-1.7-0.3c-0.2,0.1-0.4,0.2-0.6,0.3c-0.3-0.1-0.1-0.6,0.1-1c0.2-0.5,0.4-0.9,0.2-1.2l0.2,0
								c0-0.2,0.2-0.8,0.5-1.4c0.2-0.3,0.3-0.7,0.5-1.1c0.7-1.6,1.5-3.2,2.2-4.9c3.1-6.9,6.3-13.8,7.2-16.3l-0.4,0.6
								c1.3-4.4,1.9-3.4,3.6-6.6c-1.1,0,0-3.7,0.5-5.1l0.2,0.1c0.7-2.1,2-7.1,3.3-10.5l0.4,0.3c0.7-3,3.2-8.3,4.1-10.3
								c1.6-3.3,4.2-7.8,6.2-12.5l4.4-10.2l-10.3-3.4l-0.5-0.2l-0.3-0.1l-0.4-0.1c-0.3-0.1-0.5-0.1-0.8-0.2
								c-0.5-0.1-0.9-0.2-1.3-0.2c-0.8-0.1-1.6-0.2-2.3-0.2c-1.5,0-2.8,0-4.1,0.2c-2-0.4-4.1-0.6-6.1-0.7l-0.8,0.3
								c0,0-0.3,1.2-0.5,3.1c-0.2,1.9-0.2,4.4,0.3,6.9c0.4,2.5,1.2,5.1,2.3,7.1c1.1,2,2.6,3.5,4.2,4.2l0,0.5
								c0.4-0.1,0.7-0.2,1.1-0.2c1.3,0.1,1.7-0.5,1.6,0.1c-0.5,0-1,0-1.6,0c1.2,0,0.4,0.4,0,0.7c0.5,0,1,0,1.3,0.2
								c0.2-0.2-0.1-0.2-0.3-0.3c0.5-0.2,1.4-0.7,1.6-0.4l0,0c0.1-0.3,0.1-0.6,0.2-0.8c0.1-0.8,0.3-1.5,0.4-2
								c0.2-0.7,0.3-1.2,0.4-1.7c0.1-0.5,0.2-0.8,0.3-1.2c0.1-0.4,0.2-0.7,0.3-1.1c0.1-0.2,0.1-0.5,0.2-0.7c0.1-0.2,0.2-0.5,0.2-0.7
								l0.1-0.2l0,0l0,0l0,0l-2.8,8.9l0,0l0,0l-0.1,0c-0.1,0-0.2,0-0.3,0l-7.3-16.7c-0.2,0.1-0.4,0.3-0.8,1.1
								c-5.7,12.1-11.5,23.8-16.8,36.3c-0.3,0.2-0.2-0.1-0.1-0.5c-1.4,3.8-2.9,7.1-4.2,10.6c-0.6,0.9-1,1-1.4,1.2
								c0.3-0.2-1.6,4.6-3.7,9.4c-1.1,2.6-2.3,5.3-3.2,7.4C137.7,143.9,136.6,146.4,136.5,146.6z"/>
						</g>
					</g>
				</g>
			</g>
		</g>
		<g>
			<path class="st2" d="M172.5,172.7c1.8,9.5,12.4,10,12.4,10l18.7-43.9c0,0,36.3-6.3,38.3-6.5c0-4.5-0.5-9.9-1.8-10.9
				c-6.2,0.5-27,3.9-27.8,3.9c-0.7,0-1.2-2.7-1.2-2.7l15.6-26.3c0,0,37.8-6.2,43.3-5.6c2.5-6.9-6.6-13-6.6-13s-57.5,10.1-60.4,13
				c-1.8,1.8-1.7,4.7,0.7,5.9c1.5,0.8,5.6,0.4,5.6,0.4L195,126.5l-7.7,1.9c-0.5,3.4,1.8,5.2,3.1,6.4S172.5,172.7,172.5,172.7z"/>
			<g>
				<g>
					<g>
						<g>
							<path class="st1" d="M165.9,176.2c0,0.5,0.2,1.1,0.4,1.7c0.2,0.6,0.4,1.3,0.8,2c0.7,1.4,1.8,2.9,3,4.1
								C168.5,182,167,179.6,165.9,176.2z"/>
							<path class="st1" d="M170.2,184.1C170.2,184.1,170.2,184.2,170.2,184.1C170.2,184.1,170.1,184.1,170.2,184.1
								C170.1,184.1,170.1,184.1,170.2,184.1z"/>
							<path class="st1" d="M180.7,175.3c0.2-0.5,0.5-1,0.8-1.5C181.2,174.3,180.9,174.8,180.7,175.3z"/>
							<path class="st1" d="M250.6,131c-0.2-0.1-0.4-0.4-0.6-0.6c-0.2-4.6-0.2-5.2-0.1-5.9c0-0.3,0.1-0.6,0-1.3
								c-0.1-0.7-0.3-1.9-0.9-3.7c-0.6-0.7-1.2-2.1-2.4-3.3c-0.3-0.3-0.6-0.6-0.9-0.9c-0.3-0.3-0.7-0.7-1-0.9
								c-0.6-0.6-1.2-1.2-1.8-1.7c-2.3,0.2-4.4,0.3-5.5,0.6c0.1-0.1-4.1,0.4-3.8,0.1c-0.7,0.3-1.7,0.5-3,0.6c-0.3,0-0.7,0.1-1.1,0.1
								c-0.4,0-0.7,0.1-1,0.2c-0.5,0.2,0.4,0.1,0.8,0.2l-1.6,0.3l-0.8,0.2c-0.2,0-0.1,0-0.2,0l0,0c-0.1-0.1-0.1-0.4,0-0.5
								c-0.1,0-0.3-0.1-0.4-0.1c0,0-0.1,0-0.1,0c0,0,0-0.1,0.1-0.2c0.1-0.1,0.2-0.2,0.2-0.2l0.1-0.1c0.6-1,1.3-2.1,1.9-3.1
								c1.4-2.3,2.7-4.4,3.8-6.4c0,0,0,0,0,0c1.5-0.3,2.7-0.5,3.5-0.6c-0.6-0.1-1.5,0-2.5,0.1c-0.2,0-0.5,0-0.7,0.1
								c-0.1,0-0.2,0-0.3,0c-0.1,0-0.1,0-0.1,0l0,0c0-0.1-0.1-0.1-0.1-0.3c0,0,0-0.1,0.1-0.1c0,0,0,0,0.3-0.1
								c0.4-0.1,0.8-0.1,1.2-0.2c0.7-0.1,1.2-0.1,1.7-0.4c1,0.7,5.1-0.6,6.9,0l0.6-0.6l1.2,0.1c10-1.9,2.3-0.6,11.2-1.7
								c5.1-0.8,7.5-1.6,10.2-1.7c-0.4,0-1.5-0.2-0.3-0.4c0.1,0.2,1,0,1.8-0.1c0.8-0.1,1.6-0.2,1.9,0c0,0,0.1,0,0.2,0
								c0,0,0.1,0,0.1,0l0,0l0,0c0,0,0,0,0,0l0-0.2l0-0.3c0.1-0.9,0.2-1.8,0.4-2.8l7.9-1.8c0.3-0.9,0.5-1.8,0.7-2.7
								c0.1-0.9,0.1-1.8,0.1-2.5c-0.1-1.3-0.3-1.8-0.4-0.7c0-0.4,0-1.1,0-2c-0.1-0.8-0.3-1.7-0.5-2.4c-0.4-1.3-0.6-2,0.3-0.1
								c-0.8-2.3-1.8-4-2.7-5.1c0.4,0.8,0.9,1.5,1.3,2.3c-0.8-1.5-1.6-2.5-2.3-3.5c-0.2-0.3-0.3-0.4-0.6-0.8
								c-0.3-0.3-0.5-0.6-0.8-0.9c-0.5-0.5-1-1-1.5-1.5c-1.9-1.8-3.9-3.1-5.8-4.2c-0.4,0.1-0.8,0.2-1.2,0.3l1.2-0.1
								c0.5,0.3,0.9,0.7,1.4,1.1c-0.5-0.3-1-0.7-1.4-0.9c-2,0.4-3.8,0.7-5.3,0.9c-0.8,0.1-1.5,0.2-2.1,0.2c-0.3,0-0.6,0-0.9-0.1
								l0.7-0.2l0.5-0.1l0.6-0.1l2.5-0.5c-1.7,0.3-3.2,0.6-4.6,0.8c-0.9,0.2-1.7,0.4-2.6,0.5c-1.6,0.3-3.2,0.7-4.9,1.2l1.3-0.2
								c-2.2,0.7-9.3,2.3-16.4,3.9c-7,1.6-14,3.4-16.1,4.2l2,0l-3.6,1.1c0.4-0.1,1.5-1.7,1.8-1.7c-1.9,0.4-5.9,1.3-11,2.7
								c-1.3,0.3-2.6,0.7-4.2,1.3c-0.4,0.2-0.9,0.3-1.3,0.5l-0.9,0.4c-0.2,0.1-0.3,0.1-0.5,0.2c-0.3,0.2-0.7,0.4-1,0.7
								c-0.2,0.1-0.3,0.3-0.5,0.4l-0.2,0.2c-0.1,0.1-0.1,0.1-0.2,0.2l-0.4,0.5c-0.3,0.3-0.6,0.7-0.8,1.1c-0.5,0.8-0.9,1.6-1.2,2.5
								c-0.6,1.8-0.8,3.9-0.2,5.9c0.3,1,0.8,2,1.4,2.9c0.3,0.4,0.7,0.9,0.9,1.1l0.4,0.4l0.1,0c0.4,0.3,0.9,0.2,1.3,0.2
								c0.2,0,0.4,0,0.5,0l-0.2,0.5c-0.1,0.3-0.3,0.6-0.4,0.9c-1.5,3.1-2.9,6-4,8.4c-1.6,3.3-2.9,5.9-3.6,7.2
								c-1.5,2.5-0.8,0.2-0.9,0.1c-0.4,0.8-0.5,1.3-0.7,1.7c0,0.1,0,0.1,0,0.1c0,0,0,0,0,0.1c0,0,0,0.1,0,0.1c0,0.1,0.1,0.2-0.1,0.5
								c-0.1,0.1-0.2-0.3-0.2-0.4c-0.1,0.2-0.2,0.3-0.2,0.4c0,0-0.1,0.1,0,0.1c0.1,0,0.1,0,0.2,0c0.2,0,0.5,0.4,0.8,0.5l-0.2,0.3
								l-0.9,0.2l-0.1-0.3c-0.1,0-0.1,0.2-0.5,0.5c-0.8,0.4-1.8,0.9-3.5,1.2l-3.8,0.9l-0.5,3.8c0,0.4-0.1,0.8-0.1,1.2
								c-0.1,1.2,0.1,2.4,0.4,3.6c0.2,0.6,0.4,1.2,0.7,1.8c0.3,0.7,0.5,0.9,0.6,1c0.1,0.2,0.3,0.4,0.5,0.6l0.3,0.2
								c0.1,0.1,0,0.2,0,0.3c-0.1,0.5-0.3,0.9-0.5,1.4l-0.6,1.3c-0.3,0.6-0.6,1.2-0.8,1.8c-0.6,1.2-1.1,2.4-1.7,3.6
								c-0.1-0.2,0.3-1.4,0.8-2.7c-0.4,0.8-0.9,2-1.4,2.6c1-1.2-1,2.5-0.3,1.5c-1.3,4.6-4.8,9.7-6.2,13.7c0.5,0.6,7,13.8,7.8,14.2
								c-0.6,1.2-1.2,2.3-1.5,2.6c0.3-0.2,1.6-2.5,2.2-3.7l-0.3-0.4c1.3-2.9,0.6-0.5,2-3.3c0.4,0-0.8,2.6-1.9,4.8
								c1.1-2,2.4-3.8,2.4-4.8c1.1-1.8,0.3,0.4,1.6-1.8c0.7-1.7,1.5-4,2.6-5.7l0,0.1c2.6-4.4,3-7.2,5.4-11.3l-0.1,0.5
								c0.5-0.7,1-1.8,1.6-3.1c0.3-0.6,0.6-1.3,0.9-2c0.4-0.9,0.9-1.8,1.3-2.7c-0.2,0.4-0.3,0.7-0.5,0.9c-0.1,0.1-0.1,0.2-0.2,0.3
								c0,0.1-0.1,0.1-0.1,0.1c0,0,0,0,0,0c0,0,0-0.1,0-0.2c0.1-0.3,0.3-0.7,0.6-1.5c1.4-3,2.3-5.6,2.1-7.9c0-0.3,0-0.6-0.1-0.9
								c0-0.3-0.1-0.6-0.2-0.8c-0.1-0.5-0.3-0.9-0.5-1.4c-0.4-1-1-2-1.9-2.9l-0.3-0.2l-0.2-0.2l-0.2-0.1l-0.3-0.2l0,0l0,0l-2.3,1.3
								l-0.1,0l-0.1,0.1l-0.2,0.1c-0.1,0-0.2,0.1-0.2,0.1c0,0-0.1,0,0,0c0,0,0.3-0.1,1.6,0l-4.8,7.2c2.5-0.6,6.3-1.6,11.6-2.9
								c3.9-8.2,10.1-21.3,15.5-32.8c-0.9-1.4-1.7-2.7-2.4-3.9c-0.2-0.3-0.4-0.6-0.6-0.9l-0.3-0.4c-0.1-0.1-0.2-0.3-0.2-0.3
								c-0.2-0.2-0.4-0.4-0.6-0.6c-0.7-0.7-1.5-1.7-3.2-3.9l-0.3-0.4l-0.1-0.2l0,0.1l0,0.1c-1.2,1-2.4,2.1-3.5,3.1
								c-0.1,0.1-0.1,0,0,0c0.1,0,0.3-0.1,0.5,0c0.2,0,0.3,0.1,0.4,0.2l0,0l0,0l0,0l0,0c0.6,0.6-4.8-4.9-2.5-2.5l0,0l0.1,0.1
								c0.8,0.7,1.3,1.5,1.6,2.4l0.1,0.2c0,0.1,0.1,0.2,0.1,0.2l0.3,0.5l0.6,1.1l0.5,1.1l0.3,0.5l0.1,0.1l0,0l0,0c0,0-0.1,0,0,0
								c0.2-0.1,0.3-0.1,0.5-0.2c0.2-0.1,0.4-0.1,0.6-0.2c0.4-0.1,0.9-0.3,1.3-0.4c3.7-1.1,6.9-1.8,8.9-2.3l-0.4,0.2
								c5.5-1.3,12.9-2.9,21-4.5c7.1-1.4,14.7-2.9,21.9-4.2c0.2,0,0.3,0.2,0.5,0.3l0.1,0.1c0,0,0,0,0,0c0,0,0.1,0.1,0.2,0.2l0.4,0.4
								c0.1,0.1,0.2,0.3,0.3,0.4c0.3,0.5,0.4,0.8,0.5,0.9c0,0-0.1,0,0.2,0l0.1,0l0,0c0,0,0,0,0.1,0c0,0,0.1,0,0.1,0c0,0-0.1,0-0.2,0
								c-0.1,0-0.2-0.1-0.3-0.1l7.8-4.9c-0.8,0-1.7-0.1-2.4-0.1c-0.6,0-1.1,0.1-1.6,0.1c-0.5,0-1,0.1-1.5,0.1
								c-0.5,0-0.9,0.1-1.3,0.1c-1.7,0.2-3.2,0.4-4.6,0.6c-3,0-7,0.6-10,0.9c1.7-0.1,1.2,0.3-0.2,0.4c-9.1,1.3-0.6,0.3-9.8,1.8
								c-1.3,0.2-3.1,0.5-5.2,0.9c-2.8,0.4-6,1-9.4,1.5c-0.6,0.1-1.2,0.2-1.8,0.3l-0.5,0.1c-0.1,0-0.1,0.1-0.2,0.1l-0.1,0.2
								l-0.5,0.8c-0.6,1.1-1.3,2.2-1.9,3.3c-0.9,1.5-1.9,3.1-2.8,4.7c-1.8,3-3.6,6-5.4,9.1c-1.4,2.4-2.9,4.8-4.3,7.2
								c-0.4,0.6-0.7,1.2-1.1,1.8c-0.2,0.3-0.2,0.5-0.3,0.8l-0.2,0.7c-0.3,1-0.5,2-0.7,2.9c-0.1,0.5-0.2,1-0.4,1.4
								c0,0.4,0,0.7,0,1.1c0,0.7,0.1,1.3,0.1,1.9c0.3,0.9,0.7,1.8,1.2,2.6c0.2,0.4,0.6,0.9,0.8,1c0.2,0.2,0.4,0.3,0.6,0.4
								c0.2,0.1,0.5,0.3,0.7,0.4c0.2,0.1,0.5,0.3,0.8,0.4c0.5,0.3,1.2,0.5,1.8,0.7c0.6,0.3,1.5,0.3,2.3,0.3c0.4,0,0.8,0,1.2,0.1
								c0.4,0,0.9-0.1,1.3-0.1c3.5-0.4,6.5-0.9,8.6-1.1c0.9-0.2,1.8-0.4,2.7-0.5c0.8-0.1,1.6-0.3,2.4-0.4c1-0.2,2.1-0.4,3.2-0.5
								c0.5-0.1,1-0.2,1.5-0.2c0.2,0,0.3-0.1,0.5-0.1c0.2,0,0.2,0.1,0.3,0.2c-0.1,0-0.1,0-0.2,0c0.1,0.1,0.2,0.4,0.3,0.9
								c0,0.2,0,0.4,0.1,0.7c0,0.1,0,0.3,0,0.4c0,0.4,0,0.7,0,1.1l6-6.8c-10.9,1.8-27.1,4.3-31.4,5.2l0.8-0.1
								c-1.3,0.3-2.3,0.5-3,0.6c-0.6,0.1-1.2,0.2-1.7,0.2c-0.5,0.1-1,0.1-1.5,0.2c-0.9,0.1-1.8,0.2-2.9,0.3
								c-0.6,0.1-1.2,0.1-1.9,0.2c-0.2,0-0.4,0-0.6,0.1c-0.1,0-0.2,0-0.3,0l-0.2,0c0,0,0,0.1-0.1,0.1c-0.2,0.4-0.4,0.8-0.6,1.2
								c0.4-0.2-0.1,1.7-0.9,3.9c-0.4,1.1-0.8,2.3-1.2,3.4c-0.2,0.6-0.4,1.2-0.6,1.6l-0.1-0.1c-0.9,2.5-2.8,8.3-4.5,12.3l-0.2-0.3
								c-1.1,3.5-3.9,9.8-5,12.2c-1.7,3.6-4.1,8.5-6.3,13.7l6.1-3.8c0.1,0-0.2,0-0.4-0.1c-0.2,0-0.4-0.1-0.7-0.1
								c-0.4-0.1-0.9-0.2-1.3-0.3c-0.8-0.3-1.6-0.6-2.2-0.9c-0.5-0.8-0.7-1.5-0.7-2.2c-0.1,0-0.1-0.1-0.2-0.2c0,0-0.7,0.1-1.9,0.2
								c-1.1,0-2.7-0.1-4.4-0.2c-0.8,0-1.6,0-2.4,0.2c-0.8,0.2-1.5,0.4-2.1,1c-0.6,0.6-1.1,1.5-1.2,2.7c0,0.6,0,1.4,0.1,2.2
								c0.2,0.8,0.5,1.8,1,2.7l-0.4,0c0.7,0.9,1.4,1.8,2.3,2.6c1.4,1.5,2.7,2.2,3.5,2.7c0.8,0.5,1.1,0.6,0.9,0.7
								c-1.5-0.8-3-1.9-4.4-3.2c0.7,0.8,1.2,1.1,1.4,1.3c0.2,0.2,0.2,0.2,0,0.1c-0.2-0.1-0.5-0.3-0.9-0.5c-0.4-0.2-0.7-0.6-1.1-0.8
								c0.3,0.3,0.6,0.6,0.9,0.9c0.3,0.3,0.6,0.5,1,0.8c0.6,0.5,1.2,0.9,1.8,1.3c0.7,0.3-0.4-0.4-0.9-0.8c1.9,1.2,4.6,2.1,6.8,2.8
								c1.8,0.5,1.8,0.6,1.9,0.8c0.1,0.1,0.1,0.2,0.5,0.3c0.2,0.1,0.4,0.1,0.7,0.2c0.2,0,0.4,0.1,0.6,0.1c0.1,0,0.3,0,0.4,0
								c0.1,0,0.2,0,0.2,0c0.1,0,0.3,0,0.4,0l7.7-4.8l0,0l0,0l0,0c3.3-7.3,6.5-14.5,9.7-21.7c1.6-3.6,3.2-7.2,4.8-10.9
								c0.8-1.8,1.6-3.7,2.4-5.5l0.5-1.2l0.1-0.2c0.1,0.1,0.1,0.1,0.1,0.2c0-0.1,0-0.1,0.1-0.1c0,0,0,0,0,0c0.5-0.1,1-0.2,1.4-0.3
								c2.2-0.4,4.3-0.8,6.5-1.2c1.2-0.1,1.6,0.1,2,0.2c-0.7-0.1,18.6-3.5,23.2-4.2l7.6-1.2l0.1-7.4
								C250.6,131.5,250.6,131.1,250.6,131z"/>
						</g>
					</g>
				</g>
			</g>
		</g>
		<g>
			<g>
				<g>
					<path class="st3" d="M79.7,196.5c2.4-2.1,4.4-4.3,6-6.6c1.6-2.3,2.4-4.4,2.4-6.5c0-1.2-0.3-2.2-0.8-2.9c-0.6-0.7-1.4-1-2.5-1
						c-1.1,0-2,0.5-2.6,1.4c-0.6,0.9-0.9,2.3-0.9,4.1h-11c0.1-3.4,0.9-6.3,2.3-8.5c1.4-2.3,3.2-3.9,5.4-5c2.2-1.1,4.7-1.6,7.5-1.6
						c4.8,0,8.3,1.2,10.6,3.5c2.3,2.4,3.5,5.4,3.5,9.2c0,4-1.3,7.8-4,11.3c-2.7,3.5-6,6.7-10.1,9.4h14.5v9.2H70.5v-8.5
						C74.3,201.1,77.3,198.6,79.7,196.5z"/>
					<g>
						<path class="st4" d="M79.7,196.5c2.4-2.1,4.4-4.3,6-6.6c1.6-2.3,2.4-4.4,2.4-6.5c0-1.2-0.3-2.2-0.8-2.9c-0.6-0.7-1.4-1-2.5-1
							c-1.1,0-2,0.5-2.6,1.4c-0.6,0.9-0.9,2.3-0.9,4.1h-11c0.1-3.4,0.9-6.3,2.3-8.5c1.4-2.3,3.2-3.9,5.4-5c2.2-1.1,4.7-1.6,7.5-1.6
							c4.8,0,8.3,1.2,10.6,3.5c2.3,2.4,3.5,5.4,3.5,9.2c0,4-1.3,7.8-4,11.3c-2.7,3.5-6,6.7-10.1,9.4h14.5v9.2H70.5v-8.5
							C74.3,201.1,77.3,198.6,79.7,196.5z"/>
						<g>
							<g>
								<g>
									<path class="st1" d="M85.1,201.4c0.7-0.2,1.6-0.9,2.4-1.7C86.7,200.1,85.9,200.6,85.1,201.4z"/>
									<path class="st1" d="M87.5,199.7C87.5,199.7,87.5,199.7,87.5,199.7C87.5,199.7,87.5,199.7,87.5,199.7L87.5,199.7z"/>
									<path class="st1" d="M73.3,190.8c-0.3,0.3-0.6,0.5-0.9,0.8C72.7,191.4,73,191.1,73.3,190.8z"/>
									<path class="st1" d="M80,181.3l-0.5-0.3c0.5-0.8,0.7,0.1,1.1-0.6c-0.2-0.4,0-0.6,0.3-0.7c0.3-0.1,0.5-0.1,0.5-0.4
										c0,0.1,0.3-0.1,0.4,0.2c-0.1-0.5,0.4-0.3,0.6-0.5c0.1-0.2-0.1-0.1-0.2-0.2c0.2-0.1,0.4-0.3,0.6-0.4
										c0.3,0.1,0.4,0.3,0.2,0.4c0.5-0.1,1.3-0.2,2.7-0.2c1.6,0,3.3,0.4,3.8,0.8c0.2,0.1,0.2,0.2,0.3,0.2l0.2,0.2
										c0.2,0.3,0.3,0.5,0.4,0.8c0.2,0.5,0.3,1.3,0.4,1.8c0.3-0.3,0.1-0.8,0.6-1.1c0.4,0.4,0,0.7,0.3,1c-0.8,0.2-0.2,1.3-1.1,1.6
										l0.4,0.2l-0.3,0.2c0,1.2-0.1,1.4-0.1,1.5c-0.1,0.1-0.1,0.1-0.7,1.1c-0.3,0.6-0.5,1.2-0.6,1.7c-0.1,0.2-0.2,0.5-0.3,0.7
										c-0.1,0.2-0.3,0.4-0.5,0.6c0.1-0.1,0.6-0.3,0.4,0.2c-0.4-0.2-0.7,1.2-1.1,1.1c-0.3,0.4-1.5,1.5-0.7,1.5
										c-0.4,0-1.5,0.9-1.1,0.2c-0.4,0.3-0.8,0.6-1,0.9l0.6-0.3c-1.2,1.2-2.2,1.4-2.8,2.5l0.6-0.2c-0.8,0.7-1.5,1.2-2.1,1l0.8-0.8
										c-0.4,0.3-0.7,0.5-1,0.7l-20.7,15.3l25.3-0.6c1.3,0,2.2-0.1,3.5-0.3l-0.6,0c0.4-0.1,1-0.2,1.9-0.3c0.2,0,0.4,0,0.7-0.1
										c0.1,0,0.1,0,0.2-0.1c0.1,0,0.2-0.1,0.3-0.1c0.5-0.2,1.2-0.4,1.9-0.6c0.2-0.9,0.4-1.5,0.6-1.8c0.1,0.1,0.3,0.1,0.4,0.1
										c0.1-0.2,0.2-0.3,0.4-0.4c0,0-0.1,0-0.2,0c-0.1,0-0.3,0.1-0.5,0.1c-0.3,0.1-0.6,0.2-0.6,0.3c0-0.4,0-1.2,0.1-2.3
										c-0.5,0-1,0-1.6,0.1l-0.9,0c-1,0-2,0-2.9,0c-1,0-1.9,0-2.8,0c-0.3,0-0.6,0-0.8,0c-0.4,0-0.8,0-0.9-0.1
										c-0.2-0.2,0.4-0.7,0.4-0.7c-0.4,0.2-0.5,0.5-0.8,0.4c0-0.1,0.3-0.3,0.4-0.4c-0.2,0.1-0.1-0.1-0.4,0.1c0,0.2-0.5,0.7-0.7,1
										l-0.5,0l0.4-0.3c-0.1,0-1.4,0.9-1.8,0.7c-0.1,0-0.2,0-0.4,0l-0.2,0l-0.1,0c0,0-0.1,0-0.1,0c0-0.3,0-0.6,0-0.9
										c0-0.6,0-1.1,0-1.7c0.3,0,0.5,0.2,0.7,0.3c0-0.1-0.1-0.3,0.2-0.5c-0.6,0.3-0.4-0.4-0.6-0.2c-0.1,0-0.2-0.1-0.2-0.1
										l-0.1-0.1c0,0,0,0,0-0.1c0-0.1,0-0.1,0.1-0.2c0.1-0.2,0.3-0.3,0.5-0.5c0.4-0.3,0.8-0.6,0.9-1c-0.2-0.1-1.1-0.5-2.2-1.2
										c-0.5-0.3-1.1-0.8-1.7-1.3c-0.3-0.2-0.6-0.5-0.8-0.8c-0.2-0.3-0.5-0.6-0.7-0.9c-1.8-2.5-3-5.8-3.3-6.1
										c0.7-0.6,1.4-1.2,1.7-1.3c-0.3,0-1.8,1.1-2.4,1.9l0.2,0.4c-1.5,1.7-0.6,0.2-2.2,1.8c-0.4-0.1,1-1.7,2.3-3
										c-1.2,1.1-2.7,2.1-2.8,2.9c-1.2,1.1-0.3-0.4-1.7,1c-0.8,1.1-1.6,2.6-2.7,3.8l0,0c-1.3,1.5-1.9,2.7-2.4,3.7l-0.4,0.8
										l-0.2,0.4c0,0.1-0.1,0.1-0.1,0.2l0,0.3c0,0.7,0,1.5-0.1,2.3l-0.1-0.3c-0.2,1.2,0.1,3.5-0.2,5.8c0.1-0.7,0.4-1.3,0.4,0
										c-0.1,1.3-0.1,2.3-0.1,3.3c0,0.5,0,0.9,0,1.4c0,0.2,0,0.5,0,0.7l0,0.1c0,0,0,0,0,0l0.1,0.1l0.2,0.1l1.7,0.3
										c1.4,0.5,3.8,1.4,6.6,2.4c0.2,0.1,0.4,0.1,0.5,0.2c0.3,0,0.6,0,0.9,0c0.6,0,1.2,0,1.8,0c1.2,0,2.5,0,3.8,0
										c2.5,0,5.2,0,7.9-0.1c1.4,0,2.8-0.1,4.2-0.1c2.2,0,4.3-0.1,6.3-0.1c4.8-0.1,9.1-0.1,12.2-0.1c0-7,0-9.8,0-11.8l0.1,0.6
										c0-3.9-0.1-8.6-0.1-13.9c-4,0-8.5,0-13.1,0.1c-3,0-6.2,0.1-9.3,0.1l4.4,14.1c2.6-1.8,5-3.9,7-5.9c1-1,1.9-2.1,2.7-3.1
										c0.4-0.5,0.8-1,1.1-1.5c0.4-0.5,0.7-0.9,1-1.5c1.3-1.2,2.6-3.4,3.4-5.2c-0.6,0.9-0.7,0.5-0.3-0.3c1.1-2.8,1-2.9,0.9-3
										c0-0.1-0.1-0.1,0-0.5c0-0.4,0.2-1.2,0.4-2.7c0.1-1.8,0.4-4.5-0.4-8.3c-0.4-1.8-1.2-3.9-2.4-5.8c-0.6-1-1.3-1.9-2.1-2.7
										c-0.7-0.8-1.7-1.8-2.7-2.4c-2-1.4-4.2-2.3-6.1-2.9c-2-0.5-3.7-0.8-5.3-0.9c-0.8-0.1-1.5-0.1-2.2-0.1c-0.7,0-1.4,0-2.1,0.1
										c-1.3,0.1-2.4,0.3-3.2,0.4c-1.6,0.6-3.3,1.3-5.1,2.1c-1.8,0.9-3.5,2.2-4.7,3.5l0.2-0.3c-0.4,0.4-1.1,1.2-1.9,2.2
										c-0.4,0.5-0.8,1.1-1.2,1.7c-0.4,0.6-0.9,1.4-1.2,2.2c-1.6,3.2-2.3,7-2.4,10.1l-0.3,7.1l7.3,0.1c1.5,0,2.9,0,4.1,0
										c1,0,1.9,0,2.6,0c0.8,0,1.4,0,1.9,0l-0.7-0.1c4.3-0.3,3.9,0.3,7.6,0.4c-0.3-0.2,0-0.4,0.5-0.6c0.3-0.2,0.8-0.5,1.5-0.7
										c-0.1-0.8-0.1-1.5-0.1-2l0.1,0.2c0-0.7,0-1.7-0.1-2.7c0-0.5,0-1.1,0-1.7c-0.1-0.2-0.3-0.4-0.4-0.6
										c-0.6-0.4-1.3-0.9-1.9-1.3l-0.1-0.1c-0.2-0.1-0.3-0.2-0.4-0.3c-0.4-0.4-0.4-0.6-0.3-0.1c0,0.1,0.1,0.2,0.1,0.4
										c0,0.1,0,0.2,0,0.3l0,0.2l0,0.1l0,1.1l0-0.1c0-0.6,0.1-1.1,0.1-1.4l0,0.1c0.1-0.6,0.4-1.1,0.3-1c0,0,0,0.1-0.1,0.1
										l-0.3,0.2l-0.1,0.1c-0.2,0.1-0.4,0.2-0.8,0.4c-0.4,0.1-0.9,0.3-1.5,0.3l-0.2,0c0,0,0,0,0,0l0,0l0,0.1c0,0.1,0,0.2,0,0.3
										c-0.1,0.4-0.5,1.1-1.3,2.1c-0.5,0.6-0.9,1.2-1.4,1.7c-0.5,0.6-1,1.3-1.5,1.9c-0.7,0.3-1.4,0.5-2.1,0.8l-0.2,0.3
										c0,0,0.3,0.7,0.9,1.7c0.6,1,1.3,2.3,2.3,3.6c1.8,2.6,4.3,5.1,7.2,4l0.2,0.3l0.8-0.8c1.1-0.9,1.2-1.6,1.4-1.3
										c-0.4,0.5-0.9,0.9-1.3,1.3c1-0.9,0.5-0.1,0.3,0.4c0.4-0.4,0.8-0.8,1.2-1c0.1-0.3-0.2,0.1-0.4,0.2c0.4-0.6,0.9-1.6,1.6-2.2
										c0.9-1.1,0.5,0.3,1.6-1.1c0.3-0.4,0.6-0.8,1-1.3c0.4-0.5,0.7-1,1-1.5c0.7-1.1,1.3-2.3,1.8-3.6c0.5-1.4,0.9-2.9,1.1-4.6
										c0.1-0.8,0.1-1.7,0-2.6c-0.1-1-0.3-2-0.7-3.2c-0.4-1.2-1.1-2.5-2.2-3.7c-1.1-1.3-2.6-2.4-4.1-3c-1.5-0.6-2.9-0.8-4.1-0.9
										c-1.1-0.1-2.7,0.1-4.2,0.6c-1.6,0.5-3.1,1.5-4.2,2.6c-0.6,0.5-1,1.1-1.4,1.6l-0.3,0.5c0,0,0,0,0,0c0,0,0,0.1,0,0.1
										c0,0,0,0.1,0,0.1c-0.1-0.1-0.1-0.1-0.1-0.2c0,0.1,0,0.1-0.1,0.1c0,0,0,0-0.1,0l0,0l0,0c0,0,0,0,0,0l-0.2,0
										c-0.6-0.1-0.7-0.4-0.9-0.5c0.1,0.1-1.3,0.2-3.2,0.2l8.8,9.1c0-1.2,0.2-2.4,0.4-3.1C79.8,181.6,80,181.3,80,181.3z"/>
								</g>
							</g>
						</g>
					</g>
				</g>
				<g>
					<path class="st3" d="M107.9,175.7c2.7-3.8,7-5.7,12.7-5.7c5.8,0,10.1,1.9,12.8,5.7c2.7,3.8,4.1,9.1,4.1,15.7
						c0,6.7-1.4,12-4.1,15.8c-2.7,3.8-7,5.7-12.8,5.7c-5.8,0-10.1-1.9-12.8-5.7c-2.7-3.8-4-9.1-4-15.8
						C103.8,184.7,105.2,179.5,107.9,175.7z M125.2,183.4c-0.7-1.8-2.2-2.8-4.5-2.8c-2.3,0-3.8,0.9-4.5,2.8c-0.7,1.8-1.1,4.5-1.1,8
						c0,3.6,0.4,6.2,1.1,8.1c0.7,1.8,2.2,2.8,4.5,2.8c2.3,0,3.8-0.9,4.5-2.8c0.7-1.8,1.1-4.5,1.1-8.1
						C126.3,187.9,125.9,185.3,125.2,183.4z"/>
					<g>
						<path class="st4" d="M107.9,175.7c2.7-3.8,7-5.7,12.7-5.7c5.8,0,10.1,1.9,12.8,5.7c2.7,3.8,4.1,9.1,4.1,15.7
							c0,6.7-1.4,12-4.1,15.8c-2.7,3.8-7,5.7-12.8,5.7c-5.8,0-10.1-1.9-12.8-5.7c-2.7-3.8-4-9.1-4-15.8
							C103.8,184.7,105.2,179.5,107.9,175.7z M125.2,183.4c-0.7-1.8-2.2-2.8-4.5-2.8c-2.3,0-3.8,0.9-4.5,2.8c-0.7,1.8-1.1,4.5-1.1,8
							c0,3.6,0.4,6.2,1.1,8.1c0.7,1.8,2.2,2.8,4.5,2.8c2.3,0,3.8-0.9,4.5-2.8c0.7-1.8,1.1-4.5,1.1-8.1
							C126.3,187.9,125.9,185.3,125.2,183.4z"/>
						<g>
							<g>
								<g>
									<path class="st1" d="M131.7,180.3c0.2-0.5-0.1-1.2-0.5-1.9C131.2,179.1,131.4,179.7,131.7,180.3z"/>
									<path class="st1" d="M131.2,178.4L131.2,178.4L131.2,178.4C131.2,178.4,131.2,178.4,131.2,178.4z"/>
									<path class="st1" d="M117.3,186.6C117.3,186.6,117.3,186.6,117.3,186.6C117.3,186.6,117.3,186.6,117.3,186.6z"/>
									<path class="st1" d="M106.7,185.1l0.6,0.1c-0.1,0.9-0.7,0.2-0.7,1c0.8,0.4-0.2,1.3,0.2,1.6c-0.1,0-0.1,0.4-0.4,0.3
										c0.5,0.1,0.1,0.4,0.2,0.6c0.1,0.1,0.1-0.1,0.3-0.1l0.1,0.5c-0.2,0.2-0.4,0.2-0.5,0c-0.1,0.7-0.3,2.6-0.3,4.6
										c0,2,0.2,4.3,0.6,5.2c0.3-0.3,0-0.8,0.5-1.1c0.4,0.4,0,0.7,0.4,0.8c-0.8,0.3,0,1.1-0.7,1.7l0.5,0l-0.2,0.3
										c0.6,1.1,0.7,1.3,0.7,1.4c0,0.1,0,0.1,0,0.3c0.1,0.2,0.2,0.7,0.6,1.5c0.5,0.9,1.2,1.5,1.7,2c0.6,0.5,1.1,0.8,1.5,1.3
										c-0.1-0.1-0.3-0.7,0.2-0.4c-0.1,0.2,0.2,0.4,0.6,0.6c0.4,0.2,0.8,0.4,0.8,0.6c0.3,0.1,0.8,0.4,1.2,0.6
										c0.4,0.1,0.7,0.1,0.6-0.2c0.1,0.4,1.4,1,0.6,0.9c0.5,0.2,0.9,0.4,1.2,0.4l-0.5-0.3c1.5,0.4,2.2,0.8,3,0.4l-0.4-0.3
										c0.8,0,1.3,0,1.6,0.6l-0.7,0.1c1.2,0,1.9,0,3-0.5l-0.4,0c0.3-0.2,1-0.4,2-0.8c0.9-0.4,2.1-1,3.2-1.9c1.1-0.9,2-2,2.4-3
										c0.5-0.9,0.6-1.7,0.6-2.1c-0.2,0.1-0.4,0.2-0.6,0.4c0.1-0.4,0.1-0.8,0.1-1.1c0,0.1,1.1,1,0.9,1.1c0.1-0.1,0.1-0.3,0.2-0.5
										c0.1-0.2,0.1-0.4,0.2-0.6c0.1-0.4,0.3-0.9,0.4-1.4c0.2-1,0.4-2.1,0.5-3.2c0.2-2.1,0.2-4,0.4-4.5c0.2-0.5,0.7-0.1,0.7-0.1
										c-0.2-0.6-0.4-0.2-0.4-0.7c0.1-0.1,0.3,0,0.4,0.1c0-0.2,0.1-0.4-0.1-0.4c-0.2,0.3-0.7,0.2-1,0.3l0-0.6l0.3,0
										c0-0.1-0.9-0.3-0.7-0.9c0.1-1-0.1-2.2-0.1-3.3c0.2,0,0.3,0.2,0.5,0.4c0-0.1-0.1-0.4,0-0.5c-0.3,0.3-0.3-0.4-0.4-0.2
										c-0.9-0.7-0.4-1.9-1.1-2.6c-0.4,0.1-3.5,0.4-6.6,1c-3.1,0.6-6.1,1.6-6.5,1.7c0,0,0-0.1,0.1-0.1c-0.2,0.1-0.3,0.2-0.1,0.2
										l0.4-0.1c0.2,0.1-0.3,0.1-0.2,0.2c-0.4,0.1-0.5,0-0.5,0c0,0.1-0.3,0.2,0.2,0.2c-0.1,0.1-0.5,0.1-0.6,0.3
										c0.1,0.1,0.5,0.1,0.3,0.3l-0.1,0c-0.3,0.4,0.7,0.5,0.3,1l-0.1,0c-0.2,0.2,0.1,0.4-0.1,0.7c0.1-0.1,0.3-0.2,0.4,0
										c-0.2,0.4,0,0.6-0.2,0.9l0.4,0.2c0,0.6,0.1,2.4,0.1,3.9c0,0.7,0,1.4-0.1,1.9c0,0.3-0.1,0.6-0.1,0.7l-0.1,0l0,0l0,0l0,0l0,0
										l0,0l2.4,0.9l0,0l0.1,0c0.1,0,0.2,0.1,0.3,0.1c0.2,0.1,0.4,0.2,0.5,0.3c0.3,0.2,0.5,0.3,0.4,0.3c0,0-0.1-0.1-0.1-0.2
										c-0.1-0.1-0.2-0.3-0.2-0.5c-0.2-0.5-0.4-1.2-0.5-2.2c0-0.3-0.1-0.5-0.1-0.8c0-0.2,0-0.1,0-0.1l0,0c0,0,0,0,0,0l0,0l0,0.3
										c-0.1,1.1-0.2,1.9-0.4,2.4c-0.4,1.1-0.6,1.1-0.4,0.9c0.1-0.1,0.6-0.4,1.2-0.7c-0.3,0.1-0.2,0.1,0,0
										c0.6-0.2,1.2-0.5,1.8-0.7l0,0l0,0c0,0,0,0,0,0c0,0,0,0,0,0c0,0-0.1,0-0.1,0c-0.1,0-0.2,0.1-0.4-0.2
										c-0.3-0.3-0.5-1.5-0.5-2.9c0-1.4,0.2-3,0.4-3.5c-0.5-0.6-0.1-1.3-0.4-1.8l0.1,0.1c-0.1-0.3,0.1-1.2,0.3-1.8
										c0.1-0.1,0.1-0.3,0.2-0.4c0,0,0-0.1,0.1-0.1l0,0l0,0l0,0l0,0l0,0l-1.4-0.6c-0.1,0-0.2-0.1-0.3-0.1c-0.7-0.3-0.9-0.5-1-0.6
										l0.1,0.1c-0.2-0.2-0.2-0.2-0.2-0.2c0,0,0,0,0,0c0,0,0.1,0.1,0.2,0.4l0,0c0.1,0.1,0.2,0.5,0.3,0.9c0,0.1,0.1,0.3,0.1,0.4
										l0,0.2c0,0.1,0,0,0,0c0-0.1,0-0.1,0-0.1l0,0.3c0-0.2,0.1-0.2,0.2-0.2c0.1,0,0.1,0,0.1,0c0.1-0.7,0.4-1.4,0.5-1.7
										c0.1-0.2,0.1-0.2,0.1-0.2c0,0-0.1,0.1-0.2,0.2L121,185c-0.1,0-0.2,0.1-0.3,0.2l-0.1,0.1c0,0-0.1,0-0.2,0.1
										c1-0.5,2.4-1,3.9-1.6c1.5-0.5,3-1.1,4.3-1.8c1.2-0.7,2.2-1.5,2.3-2.6l0.3-0.1c-0.1-0.2-0.3-0.4-0.4-0.6
										c-0.4-0.9-1-1-0.7-1.1c0.3,0.4,0.5,0.7,0.8,1.1c-0.5-0.8,0.1-0.4,0.4-0.2c-0.2-0.4-0.4-0.7-0.5-1c-0.2-0.1,0,0.2,0,0.4
										c-0.4-0.4-1.1-0.7-1.5-1.3c-0.8-0.7,0.3-0.5-0.7-1.3c-1.3-1.1-2.8-1.8-4.2-2.2c-1.3-0.4-2.6-0.6-3.6-0.6
										c-1.1-0.1-2.3,0-3.7,0.3c-1.4,0.3-3,1-4.5,2.1c-0.2,0-0.1-0.1,0.1-0.3c-1.7,1.4-3,3-3.7,4.5c-0.4,0.3-0.6,0.4-0.8,0.4
										c0,0,0,0.1,0,0.3c0,0.1-0.1,0.2-0.1,0.4c0,0.1-0.1,0.3-0.1,0.4c-0.2,0.6-0.4,1.3-0.6,2
										C106.9,183.9,106.7,185.1,106.7,185.1z"/>
								</g>
							</g>
						</g>
						<g>
							<g>
								<g>
									<path class="st1" d="M113.9,179.7c0.4,0.1,0.6-0.1,0.8-0.2C114.4,179.3,114.1,179.4,113.9,179.7z"/>
									<polygon class="st1" points="114.7,179.5 114.7,179.5 114.7,179.5 									"/>
									<path class="st1" d="M100.6,171.4c-0.1,0.2-0.3,0.4-0.4,0.7C100.3,171.8,100.5,171.6,100.6,171.4z"/>
									<path class="st1" d="M127.2,182.3l0.6-0.2c0.4,0.8-0.5,0.5-0.1,1.2c0.9,0,0.4,1.4,0.9,1.6c-0.1,0,0,0.5-0.3,0.5
										c0.5,0.1,0.2,0.5,0.4,0.7c0.1,0.1,0.1-0.1,0.2-0.2l0.3,0.7c-0.1,0.3-0.4,0.4-0.5,0.1c0,0.5,0.1,1.4,0.1,2.6
										c0,1.2-0.1,2.8-0.2,4.2c-0.1,1.5-0.4,2.8-0.6,3.9c-0.2,1-0.5,1.8-0.6,2.2c0.4-0.1,0.3-0.7,0.9-0.7c0.1,0.6-0.3,0.6-0.1,0.9
										c-0.8-0.1-0.6,0.9-1.4,0.8l0.4,0.3l-0.3,0c-0.2,0.9-0.2,0.9-0.3,1c0,0-0.2,0.1-0.5,0.4c-0.3,0.4-0.1,1.1-0.5,1.1
										c0,0,0.3,0.1,0.3,0.3c-0.1-0.2-0.2,0-0.2,0.1c-0.1,0.1-0.1,0.2-0.3,0.1c-0.1,0.1-0.7,0.3-0.3,0.7c-0.2-0.2-0.8-0.1-0.5-0.5
										c-0.2,0-0.4,0-0.5,0.2c0.1,0,0.2,0.1,0.3,0.1c-0.6,0.3-1.1-0.1-1.6,0.5l0.3,0.2c-0.5,0.1-0.9,0.2-1.2-0.3
										c0.2-0.1,0.3-0.1,0.5-0.2c-0.8,0.1-1.4,0.2-2.2,0.4l0.3,0c-0.5,0.3-2.1,0.5-3.4,0.4c-1.3-0.1-2.3-0.4-2.8-0.3
										c0,0.2,0,0.3,0,0.5c-0.2,0-0.5,0-0.7-0.1c0.1,0.1,1.1-0.9,1-0.8c-0.2-0.2-0.7-0.5-1.2-1.1c-0.2-0.3-0.6-0.7-0.9-1.2
										c-0.3-0.5-0.6-1.1-0.8-1.7c-1-2.5-1.4-5.6-1.3-6.6c0.2-0.8,0.7-0.2,0.7-0.2c-0.2-0.9-0.5-0.4-0.5-1.2
										c0.1-0.2,0.3,0,0.4,0.2c-0.1-0.3,0.1-0.7-0.1-0.7c-0.1,0.4-0.7,0.3-1,0.5c0-0.3,0-0.7,0-1.1l0.3,0c0-0.2-0.9-0.6-0.7-1.6
										c0.2-1.7,0.3-3.6,0.7-5.2c0.2,0.1,0.2,0.4,0.3,0.8c0-0.2,0.1-0.5,0.2-0.7c-0.4,0.3-0.1-0.7-0.3-0.4
										c-0.5-1.4,0.6-2.5,0.5-3.6c-0.3-0.2-3-1.9-5.4-4.1c-2.5-2.1-4.6-4.6-5-4.9c0.3-0.5,0.7-1,0.8-1.1c-0.2,0-1,0.9-1.2,1.5
										l0.3,0.3c-0.6,1.3-0.4,0.1-1,1.3c-0.4-0.1,0.1-1.3,0.7-2.3c-0.6,0.8-1.3,1.6-1.1,2.2c-0.5,0.8-0.4-0.3-1,0.7
										c-0.2,0.8-0.3,1.9-0.8,2.6l-0.1,0c-1.1,1.9-0.4,3.3-1.2,5l-0.1-0.2c-0.4,0.6-0.3,1.9-0.7,3c0.1-0.3,0.4-0.6,0.4,0.1
										c-0.4,1.3-0.2,2.2-0.6,3.1l0.3,0.9c-0.1,1.1-0.1,2.9,0.1,5.2c0.2,2.3,0.6,5.1,1.3,7.9c0.8,2.8,2,5.8,3.6,8.1
										c0.7,1.1,1.6,2.3,2.4,3.2c0.8,0.9,1.6,1.6,2.2,2.1l-0.2-0.1c1.8,1.5,4.3,3,7.2,3.9c2.8,0.9,5.8,1.2,8.6,1.2
										c2.8,0,5.7-0.4,8.5-1.4c2.8-1,5.3-2.6,6.9-4.2c1.3-0.6,2.6-2.2,3.5-3.3c-0.6,0.6-0.6,0.2-0.3-0.3c1.2-1.7,1.1-1.8,1.1-1.9
										c-0.1-0.1,0-0.2,0.8-2c0.4-1,1.1-2.8,1.7-4.8c0.6-2.1,1-4.4,1.3-6.8c0.3-2.3,0.3-4.5,0.4-6.4c0-1.9-0.1-3.5-0.1-4.4
										c-0.8-1.8-0.9-4.3-1.8-6.1l0.2,0.2c-0.4-1-1.5-4.4-3.8-7.7c-1.2-1.7-2.8-3.3-4.2-4.4c-1.5-1.1-2.8-1.7-3.5-2l0.3,0.2
										c-1.2-0.4-1.7-0.6-2.1-0.9c-0.4-0.3-0.7-0.6-1.6-0.9c0.1,0.6-2,0.5-2.7,0.4l0-0.1c-1.1-0.1-3.6,0.2-5.2,0.4l0.1-0.3
										c-0.7,0.2-1.7,0.3-2.7,0.4c-1,0.1-2,0.3-2.5,0.4c-1.2,0.2-2.9,0.5-4.6,1.2c-1.7,0.7-3.5,1.8-4.7,3.3
										c-0.8,0.3-1.6,0.7-2.4,1.1l-0.2,0.3c0,0,0.4,0.7,1.1,1.5c0.7,0.9,1.8,2,3,3c2.4,2.1,5.5,3.7,6.9,3.9l0.2,0.2
										c0-0.1,0.1-0.2,0.2-0.2c0.3-0.1,0.2-0.5,0.4-0.2c-0.1,0.1-0.2,0.2-0.4,0.3c0.3-0.2,0.3,0.1,0.3,0.3
										c0.1-0.1,0.2-0.1,0.4-0.1c0-0.1-0.1-0.1-0.2-0.1c0-0.2,0-0.6,0.3-0.6c0.3-0.1,0.3,0.4,0.6,0.3c0.9-0.4,2.1-0.6,3.6-0.6
										c0.8,0,1.6,0,2.4,0.1c0.8,0.1,1.4,0.2,2,0.4c0,0.1,0,0.1-0.1,0.2c0.7,0.1,1.2,0.3,1.6,0.4c0,0.2-0.1,0.4-0.1,0.5
										c0.1-0.1,0.5,0.1,1,0.6c0.1,0.1,0.2,0.3,0.4,0.5c0.1,0.2,0.2,0.4,0.3,0.6C127.1,182,127.2,182.3,127.2,182.3z"/>
								</g>
							</g>
						</g>
					</g>
				</g>
				<g>
					<path class="st3" d="M150.8,196.5c2.4-2.1,4.4-4.3,6-6.6c1.6-2.3,2.4-4.4,2.4-6.5c0-1.2-0.3-2.2-0.8-2.9c-0.6-0.7-1.4-1-2.5-1
						c-1.1,0-2,0.5-2.6,1.4c-0.6,0.9-0.9,2.3-0.9,4.1h-11c0.1-3.4,0.9-6.3,2.3-8.5c1.4-2.3,3.2-3.9,5.4-5c2.2-1.1,4.7-1.6,7.5-1.6
						c4.8,0,8.3,1.2,10.6,3.5c2.3,2.4,3.5,5.4,3.5,9.2c0,4-1.3,7.8-4,11.3c-2.7,3.5-6,6.7-10.1,9.4h14.5v9.2h-29.6v-8.5
						C145.3,201.1,148.4,198.6,150.8,196.5z"/>
					<g>
						<path class="st4" d="M150.8,196.5c2.4-2.1,4.4-4.3,6-6.6c1.6-2.3,2.4-4.4,2.4-6.5c0-1.2-0.3-2.2-0.8-2.9c-0.6-0.7-1.4-1-2.5-1
							c-1.1,0-2,0.5-2.6,1.4c-0.6,0.9-0.9,2.3-0.9,4.1h-11c0.1-3.4,0.9-6.3,2.3-8.5c1.4-2.3,3.2-3.9,5.4-5c2.2-1.1,4.7-1.6,7.5-1.6
							c4.8,0,8.3,1.2,10.6,3.5c2.3,2.4,3.5,5.4,3.5,9.2c0,4-1.3,7.8-4,11.3c-2.7,3.5-6,6.7-10.1,9.4h14.5v9.2h-29.6v-8.5
							C145.3,201.1,148.4,198.6,150.8,196.5z"/>
						<g>
							<g>
								<g>
									<path class="st1" d="M156.1,201.4c0.7-0.2,1.6-0.9,2.4-1.7C157.7,200.1,157,200.6,156.1,201.4z"/>
									<path class="st1" d="M158.6,199.7C158.6,199.7,158.6,199.7,158.6,199.7C158.6,199.7,158.6,199.7,158.6,199.7L158.6,199.7z"
										/>
									<path class="st1" d="M144.3,190.8c-0.3,0.3-0.6,0.5-0.9,0.8C143.7,191.4,144,191.1,144.3,190.8z"/>
									<path class="st1" d="M151.1,181.3l-0.5-0.3c0.5-0.8,0.7,0.1,1.1-0.6c-0.2-0.4,0-0.6,0.3-0.7c0.3-0.1,0.5-0.1,0.5-0.4
										c0,0.1,0.3-0.1,0.4,0.2c-0.1-0.5,0.4-0.3,0.6-0.5c0.1-0.2-0.1-0.1-0.2-0.2c0.2-0.1,0.4-0.3,0.6-0.4
										c0.3,0.1,0.4,0.3,0.2,0.4c0.5-0.1,1.3-0.2,2.7-0.2c1.6,0,3.3,0.4,3.8,0.8c0.2,0.1,0.2,0.2,0.3,0.2l0.2,0.2
										c0.2,0.3,0.3,0.5,0.4,0.8c0.2,0.5,0.3,1.3,0.4,1.8c0.3-0.3,0.1-0.8,0.6-1.1c0.4,0.4,0,0.7,0.3,1c-0.8,0.2-0.2,1.3-1.1,1.6
										l0.4,0.2l-0.3,0.2c0,1.2-0.1,1.4-0.1,1.5c-0.1,0.1-0.1,0.1-0.7,1.1c-0.3,0.6-0.5,1.2-0.6,1.7c-0.1,0.2-0.2,0.5-0.3,0.7
										c-0.1,0.2-0.3,0.4-0.5,0.6c0.1-0.1,0.6-0.3,0.4,0.2c-0.4-0.2-0.7,1.2-1.1,1.1c-0.3,0.4-1.5,1.5-0.7,1.5
										c-0.4,0-1.5,0.9-1.1,0.2c-0.4,0.3-0.8,0.6-1,0.9l0.6-0.3c-1.2,1.2-2.2,1.4-2.8,2.5l0.6-0.2c-0.8,0.7-1.5,1.2-2.1,1l0.8-0.8
										c-0.4,0.3-0.7,0.5-1,0.7l-20.7,15.3l25.3-0.6c1.3,0,2.2-0.1,3.5-0.3l-0.6,0c0.4-0.1,1-0.2,1.9-0.3c0.2,0,0.4,0,0.7-0.1
										c0.1,0,0.1,0,0.2-0.1c0.1,0,0.2-0.1,0.3-0.1c0.5-0.2,1.2-0.4,1.9-0.6c0.2-0.9,0.4-1.5,0.6-1.8c0.1,0.1,0.3,0.1,0.4,0.1
										c0.1-0.2,0.2-0.3,0.4-0.4c0,0-0.1,0-0.2,0c-0.1,0-0.3,0.1-0.5,0.1c-0.3,0.1-0.6,0.2-0.6,0.3c0-0.4,0-1.2,0.1-2.3
										c-0.5,0-1,0-1.6,0.1l-0.9,0c-1,0-2,0-2.9,0c-1,0-1.9,0-2.8,0c-0.3,0-0.6,0-0.8,0c-0.4,0-0.8,0-0.9-0.1
										c-0.2-0.2,0.4-0.7,0.4-0.7c-0.4,0.2-0.5,0.5-0.8,0.4c0-0.1,0.3-0.3,0.4-0.4c-0.2,0.1-0.1-0.1-0.4,0.1c0,0.2-0.5,0.7-0.7,1
										l-0.5,0l0.4-0.3c-0.1,0-1.4,0.9-1.8,0.7c-0.1,0-0.2,0-0.4,0l-0.2,0l-0.1,0c0,0-0.1,0-0.1,0c0-0.3,0-0.6,0-0.9
										c0-0.6,0-1.1,0-1.7c0.3,0,0.5,0.2,0.7,0.3c0-0.1-0.1-0.3,0.2-0.5c-0.6,0.3-0.4-0.4-0.6-0.2c-0.1,0-0.2-0.1-0.2-0.1
										l-0.1-0.1c0,0,0,0,0-0.1c0-0.1,0-0.1,0.1-0.2c0.1-0.2,0.3-0.3,0.5-0.5c0.4-0.3,0.8-0.6,0.9-1c-0.2-0.1-1.1-0.5-2.2-1.2
										c-0.5-0.3-1.1-0.8-1.7-1.3c-0.3-0.2-0.6-0.5-0.8-0.8c-0.2-0.3-0.5-0.6-0.7-0.9c-1.8-2.5-3-5.8-3.3-6.1
										c0.7-0.6,1.4-1.2,1.7-1.3c-0.3,0-1.8,1.1-2.4,1.9l0.2,0.4c-1.5,1.7-0.6,0.2-2.2,1.8c-0.4-0.1,1-1.7,2.3-3
										c-1.2,1.1-2.7,2.1-2.8,2.9c-1.2,1.1-0.3-0.4-1.7,1c-0.8,1.1-1.6,2.6-2.7,3.8l0,0c-1.3,1.5-1.9,2.7-2.4,3.7l-0.4,0.8
										l-0.2,0.4c0,0.1-0.1,0.1-0.1,0.2l0,0.3c0,0.7,0,1.5-0.1,2.3l-0.1-0.3c-0.2,1.2,0.1,3.5-0.2,5.8c0.1-0.7,0.4-1.3,0.4,0
										c-0.1,1.3-0.1,2.3-0.1,3.3c0,0.5,0,0.9,0,1.4c0,0.2,0,0.5,0,0.7l0,0.1c0,0,0,0,0,0l0.1,0.1l0.2,0.1l1.7,0.3
										c1.4,0.5,3.8,1.4,6.6,2.4c0.2,0.1,0.4,0.1,0.5,0.2c0.3,0,0.6,0,0.9,0c0.6,0,1.2,0,1.8,0c1.2,0,2.5,0,3.8,0
										c2.5,0,5.2,0,7.9-0.1c1.4,0,2.8-0.1,4.2-0.1c2.2,0,4.3-0.1,6.3-0.1c4.8-0.1,9.1-0.1,12.2-0.1c0-7,0-9.8,0-11.8l0.1,0.6
										c0-3.9-0.1-8.6-0.1-13.9c-4,0-8.5,0-13.1,0.1c-3,0-6.2,0.1-9.3,0.1l4.4,14.1c2.6-1.8,5-3.9,7-5.9c1-1,1.9-2.1,2.7-3.1
										c0.4-0.5,0.8-1,1.1-1.5c0.4-0.5,0.7-0.9,1-1.5c1.3-1.2,2.6-3.4,3.4-5.2c-0.6,0.9-0.7,0.5-0.3-0.3c1.1-2.8,1-2.9,0.9-3
										c0-0.1-0.1-0.1,0-0.5c0-0.4,0.2-1.2,0.4-2.7c0.1-1.8,0.4-4.5-0.4-8.3c-0.4-1.8-1.2-3.9-2.4-5.8c-0.6-1-1.3-1.9-2.1-2.7
										c-0.7-0.8-1.7-1.8-2.7-2.4c-2-1.4-4.2-2.3-6.1-2.9c-2-0.5-3.7-0.8-5.3-0.9c-0.8-0.1-1.5-0.1-2.2-0.1c-0.7,0-1.4,0-2.1,0.1
										c-1.3,0.1-2.4,0.3-3.2,0.4c-1.6,0.6-3.3,1.3-5.1,2.1c-1.8,0.9-3.5,2.2-4.7,3.5l0.2-0.3c-0.4,0.4-1.1,1.2-1.9,2.2
										c-0.4,0.5-0.8,1.1-1.2,1.7c-0.4,0.6-0.9,1.4-1.2,2.2c-1.6,3.2-2.3,7-2.4,10.1l-0.3,7.1l7.3,0.1c1.5,0,2.9,0,4.1,0
										c1,0,1.9,0,2.6,0c0.8,0,1.4,0,1.9,0l-0.7-0.1c4.3-0.3,3.9,0.3,7.6,0.4c-0.3-0.2,0-0.4,0.5-0.6c0.3-0.2,0.8-0.5,1.5-0.7
										c-0.1-0.8-0.1-1.5-0.1-2l0.1,0.2c0-0.7,0-1.7-0.1-2.7c0-0.5,0-1.1,0-1.7c-0.1-0.2-0.3-0.4-0.4-0.6
										c-0.6-0.4-1.3-0.9-1.9-1.3l-0.1-0.1c-0.2-0.1-0.3-0.2-0.4-0.3c-0.4-0.4-0.4-0.6-0.3-0.1c0,0.1,0.1,0.2,0.1,0.4
										c0,0.1,0,0.2,0,0.3l0,0.2l0,0.1l0,1.1l0-0.1c0-0.6,0.1-1.1,0.1-1.4l0,0.1c0.1-0.6,0.4-1.1,0.3-1c0,0,0,0.1-0.1,0.1
										l-0.3,0.2l-0.1,0.1c-0.2,0.1-0.4,0.2-0.8,0.4c-0.4,0.1-0.9,0.3-1.5,0.3l-0.2,0c0,0,0,0,0,0l0,0l0,0.1c0,0.1,0,0.2,0,0.3
										c-0.1,0.4-0.5,1.1-1.3,2.1c-0.5,0.6-0.9,1.2-1.4,1.7c-0.5,0.6-1,1.3-1.5,1.9c-0.7,0.3-1.4,0.5-2.1,0.8l-0.2,0.3
										c0,0,0.3,0.7,0.9,1.7c0.6,1,1.3,2.3,2.3,3.6c1.8,2.6,4.3,5.1,7.2,4l0.2,0.3l0.8-0.8c1.1-0.9,1.2-1.6,1.4-1.3
										c-0.4,0.5-0.9,0.9-1.3,1.3c1-0.9,0.5-0.1,0.3,0.4c0.4-0.4,0.8-0.8,1.2-1c0.1-0.3-0.2,0.1-0.4,0.2c0.4-0.6,0.9-1.6,1.6-2.2
										c0.9-1.1,0.5,0.3,1.6-1.1c0.3-0.4,0.6-0.8,1-1.3c0.4-0.5,0.7-1,1-1.5c0.7-1.1,1.3-2.3,1.8-3.6c0.5-1.4,0.9-2.9,1.1-4.6
										c0.1-0.8,0.1-1.7,0-2.6c-0.1-1-0.3-2-0.7-3.2c-0.4-1.2-1.1-2.5-2.2-3.7c-1.1-1.3-2.6-2.4-4.1-3c-1.5-0.6-2.9-0.8-4.1-0.9
										c-1.1-0.1-2.7,0.1-4.2,0.6c-1.6,0.5-3.1,1.5-4.2,2.6c-0.6,0.5-1,1.1-1.4,1.6l-0.3,0.5c0,0,0,0,0,0c0,0,0,0.1,0,0.1
										c0,0,0,0.1,0,0.1c-0.1-0.1-0.1-0.1-0.1-0.2c0,0.1,0,0.1-0.1,0.1c0,0,0,0-0.1,0l0,0l0,0c0,0,0,0,0,0l-0.2,0
										c-0.6-0.1-0.7-0.4-0.9-0.5c0.1,0.1-1.3,0.2-3.2,0.2l8.8,9.1c0-1.2,0.2-2.4,0.4-3.1C150.8,181.6,151,181.3,151.1,181.3z"/>
								</g>
							</g>
						</g>
					</g>
				</g>
				<g>
					<path class="st3" d="M175.6,206.2v-9.4l17.8-25.4h12.5v24.9h4.5v9.9h-4.5v7h-11.5v-7H175.6z M195.2,184.3l-8,12.1h8V184.3z"/>
					<g>
						<path class="st4" d="M175.6,206.2v-9.4l17.8-25.4h12.5v24.9h4.5v9.9h-4.5v7h-11.5v-7H175.6z M195.2,184.3l-8,12.1h8V184.3z"/>
						<g>
							<g>
								<g>
									<path class="st1" d="M189.1,180.4c-0.4-0.1-0.5,0-0.6,0.1C188.8,180.6,189,180.6,189.1,180.4z"/>
									<polygon class="st1" points="188.5,180.5 188.5,180.5 188.5,180.5 									"/>
									<path class="st1" d="M186.7,184.4c0,0,0,0.1,0,0.1C186.8,184.5,186.8,184.4,186.7,184.4z"/>
									<path class="st1" d="M182.9,187l0.5,0.4c-0.2,0.4-0.6-0.3-0.7,0.1c0.6,0.6-0.4,0.5-0.1,0.8c-0.1,0-0.2,0.1-0.4-0.1
										c0.4,0.3,0,0.2,0,0.4c0.1,0.1,0.1,0,0.3,0.1l0,0.3c-0.2,0-0.4-0.1-0.4-0.2c-0.4,0.3-1.5,1.6-2.2,2.6l-9.6,12.9l17,0.9
										c0.6,0,1.2,0,1.4,0c-0.1-0.3-0.3-0.1-0.4-0.7c0.2-0.3,0.3,0.1,0.4-0.2c0.1,0.8,0.4,0.2,0.6,1l0.1-0.5l0.1,0.3
										c0.9-0.5,0.2-0.2,1-0.1c0.5-0.1,0.7-0.7,0.9-0.5c0,0-0.1-0.3,0-0.4c0,0.4,0.3-0.3,0.4,0.1c0.1-0.1,0.5,0,0.4-0.6
										c0.1,0.3,0.4,0.4,0.2,0.6c0.1,0,0.2,0.1,0.3,0l-0.1-0.2c0.4-0.1,0.6,0.3,0.8-0.2l-0.1-0.2c0.2,0,0.4-0.1,0.5,0.5l-0.2,0.2
										c0.4,0,0.6-0.1,0.9-0.3l-0.1,0c0.2-0.2,0.6-0.4,1.1-0.6l8.6-3.7l-1.5-3.4c-0.3-0.7-0.6-1.6-1-1.8l-0.4,0.2l-0.4-0.3
										c0,0,1.4,0.2,1.2,0.2c0-0.7-0.4-4.2-0.1-4.8c0.2-0.3,0.7,0,0.7,0c-0.2-0.3-0.5-0.1-0.4-0.4c0.1-0.1,0.3,0,0.4,0.1
										c-0.1-0.1,0.1-0.2-0.1-0.2c-0.2,0.1-0.7,0.1-1,0.1l0-0.3l0.3,0c0-0.1-0.9-0.2-0.7-0.5c0.1-0.6,0-1.2,0.1-1.7
										c0.2,0,0.3,0.1,0.4,0.2c0-0.1,0-0.2,0.1-0.3c-0.4,0.1-0.2-0.2-0.4-0.1c-0.8-0.4-0.1-0.9-0.6-1.3c-0.7,0-12.6-0.8-13.4-0.8
										c0-0.1,0-0.2,0.1-0.3c-0.2,0-0.3,0.3-0.2,0.4l0.5,0c0.2,0.3-0.3,0.1-0.2,0.3c-0.4,0-0.5-0.2-0.5-0.4c0,0.2-0.3,0.4,0.1,0.5
										c-0.2,0.2-0.5,0-0.6,0.2c0.1,0.2,0.5,0.4,0.3,0.5l-0.1,0c-0.4,0.4,0.6,0.7,0.2,1.1l-0.1,0c-0.2,0.1,0.1,0.4-0.2,0.7
										c0.1-0.1,0.4-0.1,0.4,0c-0.2,0.3,0,0.5-0.3,0.7l0.4,0.2c-0.1,1,0.5,5,0.5,6l-0.1,0c0.1,0.5,0.1,1.2,0.1,2l7.8-7.8
										c-1.5,0.1-3.3,0.2-4.3,0.5c-0.2-0.4-0.6-0.3-0.8-0.4c0.1,0.2,0.1,0.4,0,0.4c-0.8,0-0.1,0.3-0.9,0.4c-0.4,0.1-1.1,0.2-2,0.1
										l5.6,10.5c0.8-1,1.8-2.2,2.2-2.5c-0.2-0.7,0.4-0.9,0.4-1.4l0.1,0.1c0.1-0.5,1.9-2.4,2.1-3l-0.1,0c0-0.6,0.4-0.2,0.8-0.4
										c-0.5-0.3-0.6-0.8-0.6-1l0.1,0.1c0-0.2-0.1-1,0-1.3l0.3,0.2c-0.1-0.5,0.3-0.9,0.4-1.1c0.4-0.4,1.3-0.7,1.3-1.5l1,0.1l0-0.1
										c0,0-9.2-6.9-11.7-7.5l-0.3-0.2l-0.1,0.2c-0.3,0.1,0,0.4-0.3,0.2l0.2-0.2c-0.2,0.1-0.3-0.1-0.4-0.3
										c-0.1,0.1-0.2,0.1-0.3,0.1c0.1,0.1,0.1,0,0.2,0.1c0,0.2,0.2,0.5,0,0.5c-0.1,0.2-0.5-0.3-0.6-0.1c-1,1-2,1.9-2.7,3.1
										c-0.1,0-0.1-0.1-0.1-0.1c-0.1,0.4-0.4,0.7-0.4,1.1c-0.2,0-0.4-0.1-0.5-0.1C184.2,185.2,183,187,182.9,187z"/>
								</g>
							</g>
						</g>
						<g>
							<g>
								<g>
									<path class="st1" d="M182.8,205.7c0.4-0.4,0.4-1.2,0.5-1.9C182.9,204.4,182.8,204.9,182.8,205.7z"/>
									<polygon class="st1" points="183.3,203.8 183.3,203.8 183.3,203.8 									"/>
									<path class="st1" d="M176.1,214.7c0.2,0,0.4,0,0.6,0C176.5,214.7,176.3,214.7,176.1,214.7z"/>
									<path class="st1" d="M197.8,180.3l-0.4-0.4c0.1-0.1,0.5,0.5,0.4,0.3c-0.2-0.3-0.2-0.4-0.2-0.4c0.1,0.1,0.2,0.2,0.1,0
										c0,0,0,0.1,0.1,0.1c0,0,0,0.1,0,0.1c0,0-0.1,0.1,0,0.2c-0.2-0.2-0.4-0.3-0.6-0.2c-0.1,0-0.2,0-0.3,0l-0.1,0c0,0-0.1,0,0,0
										c0.1,0,0.1,0,0.2,0c0.1-0.1,0.1-0.1,0-0.1c0,0-0.1,0-0.1-0.1c0,0-0.1,0,0-0.1c-0.1,0,0,0,0.1,0l0.1,0l0.3,0l0.6-0.1
										c0.1,0,0.1,0,0.1,0.1c0,0,0,0,0,0.1c0,0,0,0.1,0,0.1c0,0,0,0.1,0,0.1c0,0,0.1,0.1-0.1,0.1c0,0,0.1,0,0.1,0l0,0
										c0,0-0.1,0-0.1,0c-0.1,0-0.1,0-0.2,0c-0.2,0-0.4,0-0.6,0.1l-0.1,0c0,0,0,0,0,0l0,0l0,0c0,0,0,0.1,0,0.1
										c-0.1,0.1-0.1,0.2-0.1,0.2c0,0,0,0,0,0c0,0.3,0,0.7,0,1c0,0.8,0,1.5,0.1,2c0.3-0.4,0.1-1.4,0.7-1.7
										c0.3,0.8-0.1,1.2,0.2,1.6c-0.8,0.3-0.2,1.8-1,2.4l0.5,0.2l-0.3,0.4c0.5,3.6,0.2,0.8,0.1,4c0.1,1.9,0.7,2.7,0.5,3.8
										c0-0.2,0.3-0.6,0.4-0.1c-0.4,0.1,0.3,1.3-0.1,1.5c0,0.2,0,0.5,0.1,0.9l0.6,8.6l7.3-0.7c0.5,0,0.9-0.2,0.6-0.5
										c0.3,0.3,1.6,0.4,0.8,0.6c0.5,0,0.9,0.1,1.2,0l-0.6-0.2c1-0.1,1.7,0.1,2.4,0.1l-7.9-7.9c0,0.3,0.1,0.7,0.2,1l0.2-0.6
										c0,0.9,0.1,1.7-0.5,2.1l-0.2-0.9c0,1.5,0.1,2.5,0.3,3.7l0-0.5c0.2,0.7,0.5,2.8,0.7,5l7-7c-1.6,0.2-3.2,0.3-4.5,0.5
										l-7.3,1.1l0.8,5.5c0.1,1,0.3,1.8,0.5,2.1l0.4-0.7l0.4,1.3c0-0.2-1.4-0.6-1.2-0.8c0,0.8,0,2.7,0.1,5l6.4-6.4
										c-3.6,0.1-8.3,0.1-11.5,0.1l6.3,6.3c0-1.5,0-2.7,0.1-3.2c0.2-1,0.7-0.2,0.7-0.2c-0.2-1.3-0.5-0.5-0.4-1.6
										c0.1-0.3,0.3,0.1,0.4,0.2c-0.1-0.5,0.1-0.9-0.1-0.9c-0.2,0.6-0.7,0.3-1,0.6l0-1.4l0.3,0.1c0-0.1-0.1-0.3-0.3-0.5l-5.1-6.9
										l-1,0.8c-0.3,0.2-0.8,0.5-1.6,0.4c-2.3-0.1-4.7,0-7-0.1c0-0.2,0.5-0.3,1-0.4c-0.3,0-0.8,0-1.1-0.1c0.6,0.4-1,0.2-0.5,0.4
										c-1.7,0.8-3.8,0.1-5.3,0.6c-0.1,0.7-3.2,12.6-3.2,13.4c-0.5,0-0.9,0-1.1-0.1c0.1,0.2,1,0.3,1.5,0.2l0.1-0.5
										c1.1-0.2,0.3,0.3,1.3,0.2c0.1,0.4-0.9,0.5-1.8,0.5c0.8,0,1.6,0.3,1.9-0.1c0.7,0.2-0.1,0.5,0.8,0.6c0.6-0.1,1.5-0.5,2.2-0.3
										l0,0.1c1.8,0.4,2.7-0.6,4.3-0.2l-0.2,0.1c0.6,0.2,1.7-0.1,2.7,0.2c-0.3-0.1-0.5-0.4,0.1-0.4c1.2,0.2,2,0,2.9,0.3l0.8-0.4
										c0.5,0,1.1,0,2.2,0l-8.4-8.4c0,1.6,0.1,4.2,0.1,7l0.2,8.5l8.1-0.2c4.1-0.1,8.8-0.2,11.5-0.3l8.1-0.2l-0.1-7.7
										c0-2.3-0.1-3.3-0.1-4l0.1,0.2c0-0.9,0-2-0.1-3.2l-7.9,7.9c1.4,0,2.9,0,4.5-0.1l8-0.1l-0.1-7.7c-0.1-3.2-0.1-6.7-0.2-9.9
										l-0.1-7.9l-7.5,0.2c-1.6,0-3.1,0.1-4.5,0.1l7.5,7.5c-0.1-1.5-0.1-2.8-0.2-3.8c0.4-1,0.3-2.4,0.4-3.5
										c-0.2,0.6-0.4,0.4-0.4-0.1c0-3.2-0.3-0.2-0.4-3.5c-0.1-0.6-0.1-1.4-0.1-2.4c0-0.5,0-1.1,0-1.6c0-0.8,0-1.6,0-2.5
										c0-4.5,0.1-9.7,0.1-14.4c-2.8-0.1-5.4-0.1-7.6-0.2c-2.5-0.1-4.7-0.1-6-0.2l-1.2,0.1c-0.2,0-0.4,0.1-0.6,0.1l-0.3,0l-0.2,0
										l-0.4,0c-0.6,0-1.2,0-1.8,0c-0.9,0-1.7,0-2.6,0c-0.8,0-1.5,0-2.2,0.1c-0.2,0.3-0.3,0.6-0.5,0.9l0.1-0.4
										c-0.4,0.7-1.5,2.2-2.8,4c-0.6,0.8-1.2,1.7-1.9,2.7c-0.4,0.6-0.9,1.2-1.4,1.9c-1.9,2.5-3.8,5.1-4.3,6.1l0.2-0.2
										c-0.8,1.7-1.2,1.2-2.2,2.3c0.6,0.2,0,1.7-0.4,2.3l-0.1-0.1c-0.5,0.8-1.2,2.9-2.1,4.2l-0.2-0.2c-0.2,0.6-0.7,1.4-1.2,2.1
										c-0.6,0.9-1.3,1.8-1.6,2.3c-0.6,0.8-1.3,1.6-2,2.6c0,0.8-0.1,1.6-0.1,2.5c0,0.8-0.1,1.7-0.1,2.5c0,1.1,0,2.2,0.1,3.2
										l-0.9,1.8l0.1,0.3c0,0,11.4,2.9,13.9-0.8l0.3,0.1l0-0.7c0.2-0.9-0.2-1.3,0.1-1.2l0,1.2c0.1-0.9,0.3-0.3,0.5,0.1
										c0-0.4,0.1-0.7,0.2-1c-0.1-0.2-0.1,0.1-0.2,0.3c-0.1-0.5-0.4-1.1-0.3-1.7c0-0.9,0.5-0.1,0.6-1.1l0-0.4c0-0.1,0-0.1,0-0.1
										l0,0l0-0.1c0-0.1,0.1-0.1,0.1-0.2l0.2-0.1l0.1,0l0,0c0,0,0,0,0.1-0.1l0.3-0.3l2-2.6c1.3-1.8,2.7-3.6,3.9-5.5
										c0.2,0,0.1,0.1,0.1,0.3c0.9-1.5,1.8-2.7,2.6-4.1c0.4-0.3,0.6-0.2,0.8-0.3c-0.2,0,1-1.8,2.2-3.6c0.6-0.9,1.3-1.8,1.7-2.5
										C197.7,180.5,197.7,180.4,197.8,180.3C197.8,180.3,197.8,180.3,197.8,180.3C197.8,180.3,197.8,180.3,197.8,180.3
										C197.8,180.3,197.8,180.3,197.8,180.3z"/>
								</g>
							</g>
						</g>
					</g>
				</g>
			</g>
		</g>
	</g>
</g>
<g id="Layer_2">
	<g>
		<g>
			<polygon class="st0" points="31.9,176.7 31.9,82.3 85.8,115 139.7,82.3 139.7,176.7 98.7,177.3 98.3,154.1 86.7,163.8 
				73.4,154.4 73.8,176.7 			"/>
		</g>
		<g>
			<path class="st2" d="M168,80.4c8.4-2.5,12.9-1,12.9-1l-37.7,86.6c0,0,43.9-3.4,45.4-2.9c1.5,0.5,3.1,10.8,1.4,12.2
				s-54.4,7.1-59.2,4.7c-4.8-2.4-2.4-1.8-3.1-5.6C127.1,170.6,158.9,81.4,168,80.4z"/>
		</g>
		<g>
			<path class="st2" d="M172.5,172.3c1.8,9.5,12.4,10,12.4,10l18.7-43.9c0,0,36.3-6.3,38.3-6.5c0-4.5-0.5-9.9-1.8-10.9
				c-6.2,0.5-27,3.9-27.8,3.9c-0.7,0-1.2-2.7-1.2-2.7l15.6-26.3c0,0,37.8-6.2,43.3-5.6c2.5-6.9-6.6-13-6.6-13s-57.5,10.1-60.4,13
				c-1.8,1.8-1.7,4.7,0.7,5.9c1.5,0.8,5.6,0.4,5.6,0.4L195,126.2l-7.7,1.9c-0.5,3.4,1.8,5.2,3.1,6.4
				C191.8,135.7,172.5,172.3,172.5,172.3z"/>
		</g>
		<g>
			<g>
				<g>
					<path class="st3" d="M79.7,196.1c2.4-2.1,4.4-4.3,6-6.6c1.6-2.3,2.4-4.4,2.4-6.5c0-1.2-0.3-2.2-0.8-2.9c-0.6-0.7-1.4-1-2.5-1
						c-1.1,0-2,0.5-2.6,1.4c-0.6,0.9-0.9,2.3-0.9,4.1h-11c0.1-3.4,0.9-6.3,2.3-8.5c1.4-2.3,3.2-3.9,5.4-5c2.2-1.1,4.7-1.6,7.5-1.6
						c4.8,0,8.3,1.2,10.6,3.5c2.3,2.4,3.5,5.4,3.5,9.2c0,4-1.3,7.8-4,11.3c-2.7,3.5-6,6.7-10.1,9.4h14.5v9.2H70.5v-8.5
						C74.3,200.8,77.3,198.3,79.7,196.1z"/>
				</g>
				<g>
					<path class="st3" d="M107.9,175.3c2.7-3.8,7-5.7,12.7-5.7c5.8,0,10.1,1.9,12.8,5.7c2.7,3.8,4.1,9.1,4.1,15.7
						c0,6.7-1.4,12-4.1,15.8c-2.7,3.8-7,5.7-12.8,5.7c-5.8,0-10.1-1.9-12.8-5.7c-2.7-3.8-4-9.1-4-15.8
						C103.8,184.4,105.2,179.2,107.9,175.3z M125.2,183.1c-0.7-1.8-2.2-2.8-4.5-2.8c-2.3,0-3.8,0.9-4.5,2.8c-0.7,1.8-1.1,4.5-1.1,8
						c0,3.6,0.4,6.2,1.1,8.1c0.7,1.8,2.2,2.8,4.5,2.8c2.3,0,3.8-0.9,4.5-2.8c0.7-1.8,1.1-4.5,1.1-8.1
						C126.3,187.6,125.9,184.9,125.2,183.1z"/>
				</g>
				<g>
					<path class="st3" d="M150.8,196.1c2.4-2.1,4.4-4.3,6-6.6c1.6-2.3,2.4-4.4,2.4-6.5c0-1.2-0.3-2.2-0.8-2.9c-0.6-0.7-1.4-1-2.5-1
						c-1.1,0-2,0.5-2.6,1.4c-0.6,0.9-0.9,2.3-0.9,4.1h-11c0.1-3.4,0.9-6.3,2.3-8.5c1.4-2.3,3.2-3.9,5.4-5c2.2-1.1,4.7-1.6,7.5-1.6
						c4.8,0,8.3,1.2,10.6,3.5c2.3,2.4,3.5,5.4,3.5,9.2c0,4-1.3,7.8-4,11.3c-2.7,3.5-6,6.7-10.1,9.4h14.5v9.2h-29.6v-8.5
						C145.3,200.8,148.4,198.3,150.8,196.1z"/>
				</g>
				<g>
					<path class="st3" d="M175.6,205.9v-9.4l17.8-25.4h12.5V196h4.5v9.9h-4.5v7h-11.5v-7H175.6z M195.2,183.9l-8,12.1h8V183.9z"/>
				</g>
			</g>
		</g>
	</g>
</g>
</svg>
