<?xml version="1.0" encoding="UTF-8"?>
<svg id="Layer_1" data-name="Layer 1" xmlns="http://www.w3.org/2000/svg" viewBox="0 0 478.54 503.32">
  <defs>
    <style>
      .cls-1 {
        stroke-width: 34px;
      }

      .cls-1, .cls-2 {
        fill: none;
        <!-- stroke: #000; -->
        stroke-miterlimit: 10;
      }

      .cls-3 {
        stroke-width: 0px;
      }

      .cls-2 {
        stroke-linecap: round;
        stroke-width: 33px;
      }
    </style>
  </defs>
  <path class="cls-3" fill="currentColor" stroke="currentColor" d="m411.6,120.7l14.7,12.52c8.31,7.08,12.28,30.55,2.4,67.02-5.76,21.24-15.75,44.95-28.89,68.54-14.21,25.49-31.78,50.6-52.23,74.63-30.71,36.08-65.07,66.29-99.34,87.38-29.47,18.13-57.96,28.53-78.16,28.53-7.96,0-13.83-1.56-17.43-4.63l-14.67-12.49c57.01-22.61,118.14-68.79,171.38-131.33,48.29-56.72,83.47-119.66,99.06-177.21,1.19-4.37,2.25-8.7,3.2-12.96m-62.01-110.57c50.59,43.07,17.57,164.95-73.75,272.22-69.56,81.71-152.88,131.39-211,131.39-18.19,0-33.9-4.86-45.95-15.12l105.24,89.58c12.06,10.26,27.77,15.12,45.95,15.12,58.12,0,141.44-49.67,211-131.39,91.32-107.28,124.34-229.16,73.75-272.22L349.59,10.12h0Z"/>
  <path class="cls-3" fill="currentColor" stroke="currentColor" d="m347.5,8.34l-.24.28c1.31.8,2.55,1.69,3.72,2.69l-3.48-2.96h0Z"/>
  <path class="cls-3" fill="currentColor" stroke="currentColor" d="m17.03,396.55l-.24.28,3.48,2.96c-1.17-.99-2.25-2.08-3.24-3.24h0Z"/>
  <path class="cls-3" fill="currentColor" stroke="currentColor" d="m304.34,44c.1,0,.2,0,.3,0-55.65,22.78-113.52,66.28-162.85,124.23-49.35,57.97-83.06,122.07-96.66,180.67-6.73-40.39,15.83-116.86,81.28-193.75,29.56-34.72,63.12-63.68,97.05-83.72,29.93-17.68,58.65-27.42,80.88-27.42m0-44c-61.04,0-143.84,47.23-211.43,126.62C4.55,230.42-25.39,351.13,23.15,401.76c1.63,1.7,3.34,3.32,5.15,4.86,14.46,12.31,33.22,18.13,54.66,18.13.32,0,.63,0,.95,0-9.26-60.24,24.14-149.02,91.38-228,67.24-78.98,149.54-126.13,210.49-126.61-3.31-21.59-12.1-39.51-26.78-52.01-1.81-1.54-3.68-2.97-5.62-4.31-13.57-9.37-30.28-13.83-49.04-13.83h0Z"/>
  <path class="cls-2" fill="currentColor" stroke="currentColor" d="m54.86,205.38c-12.11-12.75-17.07-19.27-23.47-22.38-.8-.39-11.85-5.91-12.44-7.15-3.48-7.35,15.58-25.59,37.17-37.68,19.29-10.8,24.22-12.47,45.92-19.47s38.14-21.27,37.25-20.26"/>
  <path class="cls-1" fill="currentColor" stroke="currentColor" d="m141.48,96.04c14.05,7.24,42.1,23.61,65.75,52.79"/>
</svg>