<?xml version="1.0" encoding="UTF-8"?>
<svg id="Layer_2" data-name="Layer 2" xmlns="http://www.w3.org/2000/svg" xmlns:xlink="http://www.w3.org/1999/xlink" viewBox="0 0 513 405.86">
  <defs>
    <style>
      .cls-1 {
        filter: url(#outer-glow-1);
      }

      .cls-2 {
        fill: #ed1c24;
      }

      .cls-3 {
        letter-spacing: .22em;
      }

      .cls-4 {
        letter-spacing: .22em;
      }

      .cls-5 {
        letter-spacing: .22em;
      }

      .cls-6 {
        letter-spacing: .23em;
      }

      .cls-7 {
        letter-spacing: .23em;
      }

      .cls-8 {
        letter-spacing: .23em;
      }

      .cls-9 {
        letter-spacing: .24em;
      }

      .cls-10 {
        fill: #fff;
      }

      .cls-11 {
        fill: #ffcb05;
        font-family: BlockW1G-Condensed, 'Block W1G';
        font-size: 68px;
      }

      .cls-12 {
        fill: #6dcff6;
      }
    </style>
    <filter id="outer-glow-1" x="0" y="0" width="513" height="278" filterUnits="userSpaceOnUse">
      <feOffset dx="0" dy="0"/>
      <feGaussianBlur result="blur" stdDeviation="8"/>
      <feFlood flood-color="#fff" flood-opacity=".51"/>
      <feComposite in2="blur" operator="in"/>
      <feComposite in="SourceGraphic"/>
    </filter>
  </defs>
  <g id="Layer_28" data-name="Layer 28">
    <g id="Layer_40" data-name="Layer 40">
      <g id="LATIN">
        <path class="cls-2" d="M107.12,246.6c0,3.75.42,6.39.28,10.15,0,2.78-.28,5.56-.28,8.48,0,2.22.42,4.59.42,6.81,0,4.03-.28,6.95-.28,10.98,0,2.5.28,4.31.28,6.95,0,1.11-.14,2.36-.14,3.61,0,7.37,5.28,7.92,7.92,7.92,2.36,0,3.89.14,6.25,0,1.11,0,1.95-.14,3.06-.14,1.25,0,2.92.14,4.17,1.53,1.67,1.67,1.39,9.45,1.39,11.26,0,1.95-.28,3.34-.28,5.42v.28c0,1.53.83,5.98-4.59,5.98-2.64,0-4.45-.28-6.95-.28-2.36,0-4.03.14-6.39.14s-3.89-.14-6.12-.14h-10.43c-3.06,0-5.14.28-8.2.28-5,0-5.28-3.61-5.28-5.42v-1.11c0-5.14.42-8.76.42-13.9,0-5.56-.42-9.45-.42-15.01,0-4.45.56-7.51.56-11.82,0-3.47-.28-5.84-.28-9.17,0-2.22.28-4.45.28-6.67,0-3.48-.28-5.98-.28-9.45.14-3.48.42-5.84.42-9.17"/>
        <path class="cls-2" d="M275.04,252.26c-1.39,0-2.36-.14-3.75-.14-4.03,0-5.28,1.81-5.28,7.37,0,4.73.42,7.92.42,12.65,0,5.7-.28,9.59-.28,15.29,0,5.14.28,8.76.28,13.9,0,2.92-.14,5.84-.14,8.76,0,2.5,0,4.31.28,6.81.14,1.53.42,2.5.42,4.03,0,4.45-4.03,4.73-5.28,4.73-1.67,0-2.78-.14-4.45-.28-2.36-.14-3.89-.14-6.25-.14-1.95,0-3.48.28-5.42.28-2.92,0-4.87-.97-4.87-5.7s.69-7.65.69-12.23c0-4.31-.42-7.37-.42-11.68,0-5,.7-8.62.7-13.62,0-3.61-.42-6.12-.56-9.73-.28-8.62,2.08-15.71-1.39-18.91-.56-.69-1.11-.69-1.25-.83-.97-.56-2.64-.56-3.48-.56-1.11,0-1.95.14-2.92.14-3.75,0-4.73-2.5-4.73-4.17,0-3.48.28-5.98.28-9.45,0-2.36-.28-4.03-.28-6.39,0-3.48,1.39-4.73,4.87-4.73,3.2,0,5.42.28,8.62.28,4.73,0,9.45-.42,14.18-.42h1.53c3.89,0,6.67.28,10.7.28,2.5,0,4.17-.28,6.67-.28,5.42,0,5.42,4.03,5.42,7.65,0,2.78-.14,4.59-.14,7.23,0,1.95.14,3.2.14,5,0,1.11-.14,4.87-4.31,4.87Z"/>
        <path class="cls-2" d="M319.51,325.44c-2.08,0-3.61-.28-5.7-.28-3.47,0-5.84.42-9.17.42-6.95,0-6.53-3.06-6.53-6.39v-5.7c0-3.2.42-5.56.42-8.76v-5.7c0-7.09-.42-11.96-.42-18.91v-17.24c0-5.56.42-9.31.42-14.74v-9.59c0-2.36-.42-4.03-.42-6.39,0-4.59,3.06-4.73,6.26-4.73s5.56.14,8.76.14c2.64,0,4.59-.28,7.37-.28,2.92,0,3.34,3.48,3.34,5.14,0,2.22-.28,3.75-.42,5.98-.14,3.48,0,5.84,0,9.31v21.55c0,3.2-.28,5.42-.28,8.62v6.81c0,5.56.56,9.31.56,14.87,0,4.17-.42,7.09-.42,11.12s.56,6.53.56,10.43c0,1.67-.28,4.31-4.31,4.31Z"/>
        <path class="cls-2" d="M210.54,299.29c-.83-5.7-.83-9.73-1.67-15.43-.56-4.31-1.39-7.51-2.22-11.82-1.11-5.42-1.81-9.17-2.78-14.6-.7-4.45-.97-7.65-1.67-12.09,0-.14-2.5-12.93-2.5-13.07-.14-.28-.42-1.39-.7-1.67-1.39-2.36-2.5-2.92-6.12-2.92h-.56c-3.47,0-7.09.14-10.56.14-4.73,0-8.06-.56-12.79-.56-3.06,0-4.73.42-6.12,1.53-1.25,1.25-2.36,4.73-3.2,8.48-1.39,5.7-1.39,9.87-2.5,15.71-.69,3.75-1.53,6.53-2.22,10.29-.56,3.34-.7,5.7-1.11,8.9-.56,4.59-1.39,7.65-2.08,12.23-.83,4.59-.97,7.78-1.81,12.37-.56,3.2-1.11,5.42-1.67,8.62-.69,3.61-.83,5.98-1.39,9.59-.56,2.92-1.11,5.56-1.11,6.67,0,3.75,2.78,4.03,5.28,4.03,2.78,0,5.56-.14,8.34-.14s4.45.14,7.09.14c2.22,0,3.06-.56,4.03-1.81.83-1.25,1.11-9.17,1.25-10.29.56-3.06.14-4.45,5.42-4.45,3.2,0,8.48.14,8.76.28.83.56.42.14,1.11.83,1.25,1.25,1.53,9.04,1.67,10.29.28,1.39-.42,5.14,4.59,5.14,2.78,0,4.73-.28,7.51-.28,3.34,0,5.7.42,9.04.42,4.17,0,4.59-5.42,4.59-5.56,0-1.95-2.5-12.51-3.89-20.99ZM186.27,273.54l3.19,9.83-8.36-6.07-8.36,6.07,3.19-9.83-8.36-6.08h10.34l3.19-9.82,3.19,9.82h10.33l-8.36,6.08Z"/>
        <path class="cls-2" d="M82.79,253.63c0-3.61-.28-7.09-.28-10.56v-.56c0-1.5-.14-5.42,5.14-6.19,2.5-.45,4.31-.51,6.95-1.23,2.5-.68,5.01-1.66,7.51-2.14,2.5-.56,5.98-.69,5.98,3.39,0,1.81-.28,3.06-.42,4.73-.28,3.9-.42,6.68-.42,10.44"/>
      </g>
      <text class="cls-11" transform="translate(80.36 387.98)"><tspan class="cls-7" x="0" y="0">F</tspan><tspan class="cls-5" x="41.41" y="0">E</tspan><tspan class="cls-9" x="86.36" y="0">S</tspan><tspan class="cls-4" x="130.97" y="-.09">T</tspan><tspan class="cls-6" x="173.13" y="0">I</tspan><tspan class="cls-8" x="206.04" y="-.03">V</tspan><tspan class="cls-3" x="254.25" y="-.05">A</tspan><tspan class="cls-4" x="303.48" y="0">L</tspan></text>
      <g class="cls-1">
        <path id="Star" class="cls-10" d="M24.63,212.55c84.58-41.14,204.56-78.74,302.75-97.59,3.81-30.13,7.76-60.36,11.83-90.67,17.44,25.43,33.59,52.38,48.3,80.74,33.09-4.08,66.79-6.88,101.08-8.28-26.47,21.12-51.42,42.23-74.95,63.19,9.81,30.29,18.33,61.62,25.47,93.9-23.66-21.32-48.92-40.67-75.52-57.86-82.87-2.9-236.39,15.04-310.17,45.86,77.9-35.71,229.73-59.13,315.19-63.92,14.08,9.29,27.78,19.19,41.06,29.66-5.07-17.81-10.56-35.29-16.47-52.42,13.56-12.36,27.6-24.79,42.14-37.25-19.39,1.56-38.57,3.55-57.55,5.97-8.57-16.68-17.64-32.87-27.18-48.55-2.56,17.86-5.07,35.69-7.54,53.49-102.5,11.78-227.7,44.14-318.45,83.74Z"/>
      </g>
      <path class="cls-2" d="M391.52,227.56c-1.67,0-3.06.69-3.61,1.11-.42.28-.83.56-1.39,1.25-.69,1.25-.69,5.56-.69,6.67,0,6.12.69,10.43.69,16.4,0,2.22-.28,3.75-.28,5.84,0,2.22.42,3.75.42,5.84,0,1.95,0,5-.7,5.14-.7.14-1.95-4.31-2.78-6.95-.69-1.95-1.11-3.34-1.95-5.14-.42-1.11-.97-1.81-1.39-2.92-.7-1.53-.97-2.64-1.53-4.03-.56-1.39-1.25-2.36-1.95-3.75-.83-1.95-1.39-3.2-2.22-5.14-.7-1.53-4.31-11.54-6.12-13.07-.7-.7-1.39-1.25-2.92-1.25-3.06,0-5.14.42-8.06.42-1.81,0-3.2,0-5-.14-1.25,0-2.08-.28-3.2-.28h-.69c-3.2.56-3.2,3.34-3.2,4.03,0,5.42.56,9.04.42,14.46-.14,5.14-.28,8.76-.28,13.9v7.23c0,2.5.42,4.31.42,6.95s-.28,4.45-.42,7.09c-.14,3.34-.14,5.7-.14,9.04,0,3.75.14,6.39.14,10.29,0,1.67.14,2.78.14,4.59.14,5.84-.83,10.01-.83,15.85,0,.28-.42,4.87,3.75,4.87,2.5,0,4.31-.42,6.81-.42,3.61,0,6.12.28,9.59.28,2.92,0,4.87-.56,4.87-4.03,0-4.31-.7-7.23-.7-11.54-.14-4.59.42-7.65.42-12.23,0-3.61-.14-6.12-.56-9.59-.14-1.81-.56-3.06-.56-4.87,0-.56.28-1.25.56-1.25.56-.14,1.95,4.03,2.78,6.53.83,2.36,1.25,3.89,2.22,6.12.97,2.36,2.08,4.03,3.06,6.39,1.25,3.06,1.81,5.28,3.06,8.34,1.25,3.2,2.64,5.28,3.89,8.34,1.53,3.89,1.95,7.51,4.87,7.51,3.75,0,6.39-.42,10.29-.28,2.5,0,4.17.28,6.67.28,1.81,0,4.87-.14,4.87-3.34,0-1.25-.42-2.22-.42-3.48-.42-2.92-.28-5.14-.28-8.06,0-5.98.56-10.15.56-15.99,0-6.53-.56-10.98-.56-17.52s.42-11.12.42-17.65c0-6.12-.35-10.29-.28-16.4.02-1.35,0-2.57-.77-4.88-1.31-2.37-1.74-2.24-3.72-4.22-1.35-1.35-2.89-2.47-4.44-3.47-1.38-.89-1.51-1.93-4.07-2.58-3.48-.5-3.29-.28-5.21-.28Z"/>
      <g>
        <path class="cls-12" d="M100.87,217.68l.12-12.36-4.88,11.71-3.21,1.2-4.53-7.66-.17,11.82-6.53,2.43.39-26.71,5.89-2.34,6.79,11.62,7.12-17.14,6.11-2.42-.34,27.32-6.76,2.52Z"/>
        <path class="cls-12" d="M132.64,200.55l-.11,7.11-19.21,5.81.41-27.49,18.79-6.14-.11,7.11-11.2,3.59-.05,3.24,9.83-3.12-.1,6.78-9.82,3.06-.05,3.64,11.63-3.59Z"/>
        <path class="cls-12" d="M148.18,196.4l-2.22.59-.11,7.11-8.12,2.11.43-28.08,11.64-3.31c6.84-1.94,11.17.98,11.07,7.61-.06,4.13-1.82,7.7-4.81,10.25l5.07,7.45-8.89,2.31-4.04-6.04ZM149.16,182.34l-2.99.83-.1,6.63,2.99-.81c2.27-.62,3.37-2.17,3.4-4.24.03-2.07-1.03-3.03-3.3-2.4Z"/>
        <path class="cls-12" d="M164.44,197.08l2.85-7.7c2.36,1.05,5.55,1.33,8.37.68,2.46-.57,3.35-1.36,3.37-2.36.06-3.66-14.09,2.6-13.92-8.12.08-5.34,4.09-10.69,12.01-12.68,3.46-.87,7.05-.94,9.74.09l-2.76,7.8c-2.54-.83-4.93-.95-7.17-.4-2.53.62-3.35,1.65-3.36,2.64-.05,3.47,14.3-2.9,14.12,7.9-.09,5.36-4.22,10.8-12.22,12.61-4.27.97-8.53.74-11.03-.45Z"/>
        <path class="cls-12" d="M215.07,180.96l-.12,7.62-22.44,4.51.47-29.42,21.94-4.94-.12,7.62-13.09,2.87-.06,3.47,11.48-2.48-.12,7.27-11.48,2.41-.06,3.9,13.59-2.81Z"/>
        <path class="cls-12" d="M237.76,173.42l-.18,11.07-9.57,1.7.18-11.12-10.23-17.04,9.94-2.01,5.61,9.35,6.05-11.7,9.42-1.9-11.21,21.65Z"/>
        <path class="cls-12" d="M249.87,179.89l3.31-8.1c2.75,1.27,6.45,1.77,9.73,1.24,2.86-.47,3.9-1.26,3.92-2.33.07-3.93-16.38,1.93-16.19-9.56.1-5.73,4.75-11.23,13.96-12.9,4.03-.73,8.2-.59,11.34.68l-3.21,8.22c-2.95-1.05-5.74-1.32-8.35-.86-2.94.52-3.89,1.57-3.91,2.63-.06,3.73,16.65-2.26,16.45,9.34-.1,5.76-4.91,11.35-14.23,12.8-4.97.77-9.92.27-12.82-1.16Z"/>
        <path class="cls-12" d="M283.07,145.74l10.49-1.72-.55,31.88-10.48,1.47.54-31.62Z"/>
        <path class="cls-12" d="M301.49,142.67l15.86-2.3c10.98-1.59,18.52,3.55,18.34,13.76-.18,10.2-7.94,17.38-18.91,18.7l-15.85,1.91.56-32.07ZM316.47,164.36c4.62-.59,7.85-3.74,7.94-8.73.09-4.99-3.05-7.3-7.67-6.66l-4.59.63-.27,15.34,4.58-.58Z"/>
        <path class="cls-12" d="M371.42,158.64l-.16,8.59-28.77,2.65.59-33.09,28.13-3.27-.16,8.59-16.8,1.85-.07,3.91,14.73-1.58-.15,8.19-14.73,1.49-.08,4.38,17.45-1.71Z"/>
      </g>
    </g>
  </g>
</svg>