<?xml version="1.0" encoding="UTF-8"?>
<svg id="Layer_2" data-name="Layer 2" xmlns="http://www.w3.org/2000/svg" viewBox="0 0 471.2 433.21">
  <defs>
    <style>
      .cls-1 {
        fill: #dd3e00;
      }

      .cls-2 {
        fill: #fff;
      }

      .cls-3 {
        fill: #00aae8;
      }

      .cls-4 {
        fill: #ffdc6e;
      }
    </style>
  </defs>
  <g id="Layer_1-2" data-name="Layer 1">
    <g id="Layer_1-3" data-name="Layer 1">
      <g>
        <path class="cls-4" d="M21.79,394.91c0,.8-.1,1.5-.3,2.2-.1.7-.8,1-2.1,1h-6.1c-.8,0-1.3.1-1.5.6-.3.3-.4.7-.4,1.1v3.4c0,.7.1,1.1.6,1.4.4.3.7.4,1.1.6h4.1c.3,0,.6,0,.8-.1h.8c.8,0,1.4.3,1.7.8.3.4.4.8.4,1.3v6.2c0,.9-.3,1.5-.6,1.9-.3.4-1.1.7-2.1.7-.7,0-1.3,0-1.8-.1-.6-.1-1.1-.1-1.8-.1-.8,0-1.4.1-1.8.6-.4.3-.7.7-.7,1.3-.1.4-.1.8-.1,1.1v6.8c0,.3-.1.7-.1,1v1c0,.6,0,1.1.1,1.4.1.4.1.8.1,1.4v.1c0,.3,0,.6-.1,1s-.3.8-.6,1.1c-.3.3-.8.6-1.7.6h-1.9c-.6,0-1.3-.1-1.9-.1s-1.1,0-1.7.1h-1.7c-1.1,0-1.7-.3-1.9-.8-.3-.6-.4-1-.4-1.4,0-1,0-1.9.1-2.8.1-.8.1-1.7.1-2.8,0-1.9,0-3.5-.1-4.9-.1-1.5-.1-3.2,0-4.9,0-1.4,0-2.6.1-3.6.1-1.1.1-2.4.1-3.6,0-1.3,0-2.5-.1-3.3,0-1.1-.1-2.2-.1-3.5v-9.8c0-1.5.3-2.4.8-2.8.6-.4,1.3-.6,2.1-.6h5.3c1,0,1.9-.1,3.2-.1.6,0,1.1,0,1.7.1h7c.3,0,.7.1,1.1.1.6.1.7.6.7,1.5v4.2c-.4-.5-.4.2-.4.7Z"/>
        <path class="cls-4" d="M83.93,424.11c0,.6,0,1-.1,1.4v4.4c0,.4-.1,1-.4,1.5-.3.7-1,1-2.1,1h-17.9c-.3,0-.6,0-.8.1h-.8c-.4,0-1-.1-1.7-.6-.7-.3-1-1.1-1-2.2,0-.8,0-1.7.1-2.4s.1-1.4.1-2.2v-4.2c0-.6,0-1.1.1-1.5s.1-1,.1-1.5v-18c.1-1.1.1-2.2.1-3.5v-5c0-1.9.1-3.2.6-3.8.4-.7,1.3-1,2.8-1,.8,0,1.7,0,2.4.1.7.1,1.4.1,2.2.1h2.6c1,0,1.9,0,2.8.1.8,0,1.8.1,2.8.1h6c1,0,1.5.3,1.8.8.3.6.3,1,.3,1.4,0,.6,0,1.1-.1,1.7,0,.6-.1,1.1-.1,1.7v2.1c0,.8-.1,1.4-.4,1.9-.3.6-1,.8-2.1.8h-3c-.6,0-1,0-1.4-.1s-.8-.1-1.4-.1c-1.8,0-2.8.3-3.2.8-.3.6-.6,1.4-.6,2.5,0,2.2.7,3.3,2.2,3.3h6.8c1,0,1.5.1,1.9.6.3.3.6.7.6,1.1v6.5c0,.8-.1,1.4-.6,1.8-.3.4-.7.7-1.1.7-.4.1-.7.1-1.1.1-1,0-1.9,0-2.6-.1-.8-.1-1.7-.1-2.6-.1-1.1,0-1.9.1-2.5.6-.4.4-.7.8-.7,1.4s-.1,1.1-.1,1.5v1.8c0,.4,0,.8.1,1,.4,1,1,1.4,1.5,1.4.6,0,1.4.1,2.6.1.6,0,1.1.1,1.5.1s1,.1,1.5.1,1,0,1.4-.1.8-.1,1.4-.1c.3,0,.8.1,1.4.4.3-.1.7.6.7,1.5Z"/>
        <path class="cls-4" d="M147.02,419.01c0,2.8-.3,4.9-.8,6.5-.4,1.7-1.5,3.1-3.1,4.2-.7.6-1.4,1.1-2.2,1.4-.8.4-1.5.7-2.2,1-.7.1-1.4.3-2.5.4-1,.1-1.9.3-2.9.3h-4.3c-.8,0-1.7-.1-2.6-.3-1-.1-1.8-.4-2.6-.6-.8-.3-1.4-.6-1.7-1.1-.3-.4-.4-1-.4-1.7v-6.6c0-.3,0-.6.1-1.1,0-.6.3-1,.7-1.4s1-.7,1.9-.6c.6,0,1,.1,1.3.3.3.1.6.3,1,.6.1,0,.1.1.1.1l.1.1c.1.1.3.3.4.3.1.1.3.3.4.3.4.3,1,.4,1.5.6.6.1,1.1.1,1.5.1,2.4,0,3.6-.7,3.8-2.1.1-1-.3-1.9-1.3-2.9-.8-.8-1.8-1.7-2.6-2.5-.6-.6-1.1-1.1-1.5-1.5s-1-1-1.5-1.5c-.1-.1-.6-.6-1.1-1-.6-.6-1.1-1.1-1.7-1.7-1.4-1.7-2.1-3.2-2.5-4.3-.3-1.4-.4-2.9-.4-4.3,0-4.7,1.1-8.2,3.5-10.3,2.4-2.1,5.8-3.2,10.4-3.2h4.2c1.4,0,2.5.3,3.5.7,1,.4,1.4,1.1,1.4,2.1,0,.7,0,1.3-.1,1.8v4.8c0,.3,0,.6-.1,1s-.3.8-.6,1.3c-.3.4-.8.6-1.7.6-.6,0-1.1-.1-1.7-.3-.6-.1-1-.3-1.1-.3-.3-.1-.7-.1-1.1-.3s-1-.1-1.5-.1c-.1,0-.4,0-.8.1-.4,0-.8.3-1.3.6-.4.3-.7.8-.7,1.7,0,.7.1,1.4.6,1.9.3.3.8,1.1,2.1,2.1,1.1,1.1,2.4,2.2,3.6,3.3.4.4,1,.8,1.4,1.3s.8.8,1.3,1.4c1.5,1.7,2.5,3.3,3.1,4.5.5,1,.7,2.6.7,4.3Z"/>
        <path class="cls-4" d="M208.12,396.41c0,.3-.1.7-.3,1.4-.1.6-.7,1-1.7,1h-1.6c-1,0-1.7.3-1.9.7-.3.6-.6,1.4-.6,2.6,0,1.1,0,2.1.1,2.9s.1,1.8.1,2.9v18.9c0,.4,0,1,.1,1.5,0,.3.1.7.1,1v1c0,.7-.1,1.1-.6,1.5-.3.3-.7.6-1.1.6-.4-.3-.7-.3-.8-.3h-1.1c-.3,0-.7-.1-1.1-.1h-5.4c-.7,0-1.3-.1-1.7-.6-.6-.3-.8-1-.8-2.1s0-2.1.1-2.8c.1-.8.1-1.8.1-2.8s0-1.9-.1-2.8c0-.8-.1-1.7-.1-2.8s0-2.2.1-3.2.1-1.9.1-3.2c0-.8,0-1.7-.1-2.2,0-.7-.1-1.4-.1-2.2,0-1.4,0-2.5.1-3.6s.1-2.1.1-3.1c0-.8-.3-1.5-.8-2.1-.1-.1-.3-.3-.4-.3s-.1,0-.1-.1c-.3-.1-.4-.1-.8-.1h-2.2c-.8,0-1.4-.3-1.7-.7-.3-.4-.4-.8-.4-1.3v-7.4c0-.8.1-1.4.6-1.7.3-.3,1-.6,1.8-.6h3.8c1.1,0,2.2,0,3.3-.1s2.2-.1,3.3-.1h1c1,0,1.7,0,2.5.1h4c.4,0,1-.1,1.5-.1,1.3,0,1.9.4,2.2,1.1.3.7.3,1.5.3,2.4v4.5c.1,1.5.2,1.9.2,2.3Z"/>
        <path class="cls-4" d="M258.29,430.11c0,.4-.1.8-.3,1.3-.1.4-.8.7-1.7.7h-1.4c-.4,0-.8-.1-1.4-.1-.8,0-1.5,0-2.2.1-.6,0-1.3.1-2.1.1-1.1,0-1.8-.1-2.2-.4-.4-.3-.7-.7-.7-1.1s-.1-1-.1-1.5v-2.6c0-.7,0-1.4.1-2.1s.1-1.3.1-2.1v-2.6c0-1.7,0-3.1-.1-4.3,0-1.3-.1-2.8-.1-4.2v-7.9c0-1.3,0-2.5.1-3.3.1-1,.1-2.2.1-3.3v-4.3c0-.6,0-1.1-.1-1.5,0-.4-.1-1-.1-1.5,0-1.1.3-1.7.8-1.9.6-.1,1.3-.3,2.1-.3h5.9c.6,0,1.1-.1,1.8-.1s1.1.3,1.3,1c.1.6.3,1.1.3,1.5v1.4c0,.4-.1.8-.1,1.4v21.5c0,1.3,0,2.5.1,3.3.1,1,.1,2.2.1,3.3,0,1,0,1.8-.1,2.6,0,.8-.1,1.7-.1,2.6s0,1.7.1,2.5c-.1.2-.1,1-.1,1.8Z"/>
        <path class="cls-4" d="M326.67,388.91c0,.8-.1,1.7-.4,2.5s-.4,1.7-.7,2.5c-.1,1-.3,1.8-.3,2.5s-.1,1.7-.1,2.5c0,.3-.1.7-.1,1s-.1.6-.1.8v1.6c-.1.8-.3,1.7-.4,2.4-.1.7-.4,1.5-.6,2.4-.1.8-.3,1.7-.4,2.4s-.1,1.5-.3,2.4c-.1.7-.1,1.3-.3,1.9-.1.6-.3,1.3-.4,1.9-.1.8-.3,1.7-.3,2.4s-.1,1.5-.4,2.4c-.3,1-.4,1.9-.7,2.6-.3.8-.4,1.7-.7,2.8-.3,1.5-.6,2.8-.8,4-.1,1.3-.6,2.1-1.1,2.6-.3.3-.7.4-1.1.6h-12c-.4,0-.8,0-1-.1-.1-.1-.4-.3-.6-.6-.1-.1-.4-.7-.6-1.5-.3-1-.4-1.9-.7-3.2s-.6-2.5-.7-3.6c-.3-1.3-.4-2.4-.6-3.2-.1-1-.3-1.4-.3-1.7-.3-1.7-.6-3.1-1-4.2-.3-1.3-.6-2.6-.7-4.2,0-.4-.1-.8-.1-1.1s-.1-.7-.1-1.1c-.3-1.1-.4-2.2-.7-3.1-.3-1-.4-1.9-.7-3.1-.1-1.3-.3-2.4-.4-3.3-.1-1-.3-2.1-.6-3.3-.1-1.1-.3-1.8-.4-2.4s-.1-1-.3-1.4c0-.4-.1-1-.1-1.5,0-.4.1-1,.1-1.7.1-.6.7-.8,1.5-.8h8.6c.8,0,1.3.1,1.5.6s.4,1,.4,1.7,0,1.5.1,2.5c.1,1.3.3,2.2.4,3.2s.3,2.1.4,3.3c.1,1,.1,1.8.1,2.5s0,1.5.1,2.5.3,1.9.3,2.8c.1.8.3,1.7.4,2.8.1.7.1,1.4.1,1.9,0,.6.1,1.3.1,1.9,0,0,0,.3.1.8,0,.6.1,1.1.3,1.7.1.6.3.8.6.8s.4-.4.6-1.3c.1-.8.1-1.7.3-2.8s.1-1.9.3-2.8c.1-1,.3-1.7.4-2.4s.3-1.5.4-2.4c.1-1.3.1-2.4.1-3.3,0-1,0-2.2.1-3.3s.3-2.1.4-2.9.3-1.8.4-2.9c.1-.7.1-1.5.1-2.2.1-.8.1-1.3.1-1.4.1-.3.3-.6.6-.8.1-.3.6-.4,1.1-.4.8,0,1.5,0,2.1.1.7,0,1.4.1,2.1.1h4.8c.7,0,1.3.1,1.4.6.4-.5.4-.2.4,0Z"/>
        <path class="cls-4" d="M394.13,429.71s0,.3-.1.7-.3.8-.6,1.3c-.3.4-.8.7-1.4.7-.8,0-1.5,0-2.1-.1s-1.3-.1-2.1-.1c-.7,0-1.3,0-1.7.1h-1.7c-.8,0-1.3-.1-1.5-.4s-.4-.7-.4-1.1,0-.7-.1-1c0-.3,0-.7-.1-1.4,0-.7-.1-1.4-.3-2.1-.1-.7-.3-1.1-.4-1.4l-.3-.3-.3-.1s-.6,0-1.5-.1h-2.5c-1.3,0-1.9.1-2.1.6-.1.3-.3.8-.4,1.5,0,.1,0,.6-.1,1.4,0,.7-.1,1.4-.1,2.1-.1.7-.1,1.1-.3,1.4-.3.3-.4.6-.7.7-.3.1-.7.1-1.1.1h-7.2c-.6,0-1.1-.1-1.7-.3-.6-.1-.8-.7-.8-1.5,0-.3,0-.7.1-1.3s.3-1.3.4-1.9c.1-.8.1-1.7.3-2.2.1-.7.1-1.4.4-2.2.1-.7.3-1.4.4-1.9.1-.6.3-1.3.4-1.9.3-1.1.4-2.1.4-2.9.1-.8.3-1.8.4-2.9.1-1.1.3-2.1.6-2.8.1-.8.3-1.8.4-2.8.1-.7.1-1.4.3-2.1,0-.7.1-1.4.3-2.1.1-.8.3-1.7.6-2.4.1-.7.3-1.5.6-2.4.3-1.4.4-2.6.6-3.5.1-1.1.3-2.2.7-3.5.3-.8.4-1.7.7-2.4.3-.7.6-1.3.8-1.5.6-.4,1.5-.7,2.8-.7,1.1,0,2.1,0,3.1.1h7.7c.8,0,1.5.1,1.8.3.4.1.7.6,1,1.1.1,0,.1.1.1.3s.1.3.1.4c0,0,0,.3.1,1,.1.6.3,1.4.4,2.1.1.8.3,1.5.4,2.1s.1,1,.1,1c.1,1.1.3,1.9.4,2.8s.3,1.8.4,2.8c.3,1.3.4,2.4.6,3.3.1,1,.4,2.1.7,3.3.3,1,.4,1.9.6,2.8.1.8.3,1.7.4,2.8.3,1.4.3,2.5.4,3.5,0,1.1.1,2.2.3,3.5.3,1.3.4,2.6.7,3.9.3,1.3.6,2.6.7,3.5.2,1.1.4,1.8.4,2.1ZM380.13,411.61c0-1.1-.1-2.4-.3-3.3-.1-1.1-.3-2.1-.4-2.9s-.3-1.4-.3-1.8c0-.6-.1-1-.1-1.5,0-.6-.1-.8-.3-1-.1-.4-.3-.7-.7-.7-.3,0-.4.3-.6.7,0,.1-.1.3-.1.7-.1.4-.1.8-.3,1.3,0,.4-.1.7-.1.8-.1.4-.1.7-.3,1.1-.1.3-.1.7-.3,1.1,0,.1,0,.6-.1,1.1-.1.6-.1,1.3-.3,1.9-.1.7-.1,1.4-.3,1.9s-.1,1-.1,1.1c0,1,.1,1.7.6,1.8.4.3.8.3,1.4.3.4,0,1-.1,1.5-.3.9-.6,1.1-1.2,1.1-2.3Z"/>
        <path class="cls-4" d="M454.32,426.91v3.7c0,.4-.1.8-.4,1.3-.3.4-.8.6-1.7.6h-17.9c-1.1,0-1.9-.3-2.1-1-.3-.7-.3-1.1-.3-1.5v-.6c0-1.3,0-2.2.1-3.2s.1-2.1.1-3.2c0-1.3,0-2.5-.1-3.3,0-1.1-.1-2.2-.1-3.3,0-1,0-1.9.1-2.8.1-.8.1-1.8.1-2.8,0-.8,0-1.5-.1-2.1v-3.6c0-.5.1-1.1.1-1.5,0-.8,0-1.5-.1-2.2v-2.2c0-.8.1-1.5.1-2.1v-7.4c0-.3,0-.6.1-1,0-.4.3-.8.6-1.3.3-.3.8-.6,1.7-.6.6,0,1.1,0,1.5.1.4,0,1,.1,1.7.1h1.8c.6,0,1.1-.1,1.7-.1s1.3.1,1.8.3c.7.1,1,.7,1,1.7v1.1c0,.3-.1.7-.1,1.1,0,1-.1,1.7-.1,2.5v2.4c0,.9,0,1.7.1,2.4v6.2c0,.6,0,1.1.1,1.5,0,.6.1,1.1.1,1.5v9.8c0,1.1.3,1.9.7,2.5s1,.8,1.5,1c.6.1,1.1.1,1.4.1h4.3c.3,0,.6,0,1,.1.3,0,.7.3,1,.6s.4.7.6,1.5c.1.7.1,1.5.1,2.2-.4.8-.4,1.1-.4,1.5Z"/>
      </g>
      <path class="cls-1" d="M268.43,269.47c0,.7-.3,1.8-.7,3.5-.4,1.7-1.9,2.5-4.6,2.5-.8,0-1.5,0-2.2-.1-.7,0-1.5-.1-2.4-.1-2.5,0-4.2.7-5.2,1.9s-1.4,3.6-1.4,7.1c0,2.8.1,5.4.3,7.7.1,2.2.3,4.9.3,7.8,0,3.5,0,6.7-.1,9.3-.1,2.6-.1,5.8-.1,9.3,0,3.2,0,6,.1,8.5s.1,5.3.1,8.5c0,1.8,0,3.6-.1,5.4,0,1.8-.1,3.6-.1,5.4,0,1.5,0,2.8.1,4,0,1.3.1,2.6.3,4.2.1,1,.3,1.7.3,2.5.1.7.1,1.5.1,2.5,0,1.8-.4,3.1-1.3,3.9-.8.8-1.8,1.3-2.8,1.5-1,.3-1.8.3-2.4.3-1,0-1.9,0-2.8-.1-.8,0-1.7-.1-2.8-.3-1.5-.1-2.8-.1-3.9-.1h-3.9c-1.1,0-2.2,0-3.2.1s-2.2.1-3.3.1c-1.8,0-3.2-.4-4.3-1.4-1.1-1-1.7-2.8-1.7-5.6s.1-5.3.4-7.5.4-4.7.4-7.5c0-2.6-.1-5-.3-7.1-.1-2.2-.3-4.6-.3-7.1,0-3.1.1-5.8.4-8.4.3-2.5.4-5.3.4-8.4,0-2.2-.1-4.3-.3-6-.1-1.8-.3-3.8-.4-5.8-.1-3.5,0-6.8.3-9.7.3-3.1.4-5.7.3-8.1-.1-2.4-.8-4.2-2.4-5.4-.3-.4-.7-.7-1-.8s-.6-.1-.6-.3c-.6-.3-1.3-.6-2.1-.6s-1.5-.1-2.1-.1c-.7,0-1.4,0-1.9.1-.6,0-1.1.1-1.7.1-2.2,0-3.8-.6-4.6-1.8-.8-1.3-1.3-2.4-1.3-3.3,0-2.2,0-4,.1-5.8.1-1.7.1-3.6.1-5.8,0-1.5,0-2.8-.1-3.9s-.1-2.5-.1-3.9c0-2.1.4-3.6,1.4-4.5s2.5-1.3,4.6-1.3c1.9,0,3.8,0,5.3.1,1.8.3,3.6.3,5.6.3,2.9,0,5.8-.1,8.8-.3,3.3.3,6.3.1,9,.1h1.9c2.4,0,4.6,0,6.4.1,1.9.1,4.2.1,6.7.1,1.5,0,2.9,0,4.2-.1,1.3-.1,2.5-.1,4-.1,3.3,0,5.2,1,5.7,2.9.6,1.9.8,4,.8,6.4,0,1.7,0,3.2-.1,4.5,0,1.3-.1,2.8-.1,4.3,0,1.1,0,2.2.1,3.1.2,1,.2,2.1.2,3.2Z"/>
      <path class="cls-1" d="M335.91,360.07c0,1-.3,2.2-.8,3.5-.6,1.3-1.9,1.8-4.5,1.8-1.3,0-2.4,0-3.5-.1s-2.2-.1-3.5-.1c-2.2,0-4,.1-5.7.3s-3.5.3-5.6.3c-2.8,0-4.7-.4-5.8-1.1-1.1-.7-1.7-1.7-1.9-2.9-.1-1.3-.3-2.5-.3-3.9v-7c0-1.9.1-3.8.3-5.4.1-1.7.3-3.5.3-5.4v-7c0-4.3-.1-8.2-.3-11.7-.1-3.5-.3-7.2-.3-11.4v-21.3c0-3.3.1-6.4.3-9,.1-2.6.3-5.7.3-8.9v-11.8c0-1.5-.1-2.8-.3-3.9s-.3-2.5-.3-3.9c0-2.8.8-4.5,2.4-5,1.7-.6,3.3-.7,5.3-.7s3.8,0,5.3.1h5.4c1.5,0,3.1,0,4.5-.1s2.9-.1,4.6-.1c1.8,0,2.9.8,3.3,2.4s.7,2.9.7,3.9c0,1.4,0,2.5-.1,3.6s-.3,2.4-.3,3.6c-.1,2.2-.1,4-.1,5.7s.1,3.6.1,5.7v26.4c0,1.9,0,3.8-.1,5.3s-.1,3.3-.1,5.3v8.4c0,3.3.1,6.4.3,9,.3,2.6.3,5.7.3,9,0,2.5-.1,4.7-.3,6.8-.1,2.1-.3,4.3-.3,6.8s.1,4.5.3,6.4c.2,1.8.4,4,.4,6.4Z"/>
      <path class="cls-1" d="M455,361.07c0,1.9-.7,3.1-2.1,3.5s-2.6.6-3.8.6c-1.5,0-2.8,0-4-.1-1.1-.1-2.5-.1-4.2-.1-2.4-.1-4.6-.1-6.4.1-1.8.1-3.9.3-6.3.3-1.8,0-3.1-1-3.6-2.8-.6-1.8-1.4-4-2.2-6.4-.8-1.9-1.5-3.6-2.4-5.2-.8-1.5-1.5-3.2-2.4-5.2-.8-1.9-1.4-3.6-1.9-5.2-.4-1.5-1.1-3.2-1.8-5-.6-1.5-1.3-2.8-1.9-3.9s-1.3-2.5-1.8-3.9c-.6-1.4-1-2.6-1.4-3.6-.3-1.1-.8-2.4-1.4-3.9-.4-1.5-1.1-3.3-1.8-5.3-.7-1.9-1.3-2.8-1.5-2.8-.4,0-.7.6-.7,1.5,0,1.1.1,2.1.3,2.9.1.8.3,1.8.4,2.9.4,3.8.7,7.7.7,11.7,0,2.8-.1,5.3-.3,7.5-.3,2.1-.3,4.6-.1,7.5,0,2.6.1,5,.4,7.1.3,2.1.4,4.5.4,7.1,0,2.1-.6,3.5-1.7,4-1.1.6-2.5.8-4.3.8-2.1,0-4,0-5.8-.1-1.7-.1-3.6-.1-6-.1-1.5,0-2.8.1-4,.3-1.3.1-2.6.3-4.3.3s-2.9-.4-3.5-1.4-1-1.9-1-2.9-.1-1.5-.1-1.7c0-3.6.1-6.8.6-9.7.4-2.9.6-6.1.4-9.6,0-1.1,0-2.1-.1-2.9,0-.8-.1-1.7-.1-2.8,0-2.4,0-4.5-.1-6.4,0-1.8-.1-3.9-.1-6.3v-5.6c0-1.7,0-3.5.1-5.6.1-1.5.3-3.1.3-4.3.1-1.3.1-2.8.1-4.3,0-1.7-.1-3.1-.3-4.3.1-1.3.1-2.6.1-4v-8.9c0-3.2,0-6,.1-8.5,0-2.5.1-5.3.3-8.5.1-3.3,0-6.3-.1-8.9-.3-2.6-.3-5.6-.3-8.9,0-.4.1-1.3.6-2.5.3-1.3,1.5-2.1,3.5-2.4h.8c.7,0,1.3,0,1.8.1.6.1,1.3.1,2.1.1,1.1.1,2.1.1,3.1.1h3.1c1.8,0,3.5-.1,4.9-.3,1.5-.1,3.2-.3,5-.3,1,0,1.7.1,2.1.4.6.3,1,.7,1.4,1.1.8.6,1.7,2.1,2.8,4.5,1,2.4,1.9,4.7,2.9,7.1,1,2.4,1.5,3.8,1.8,4.5.6,1.1,1.1,2.2,1.4,3.1.4,1,.8,1.9,1.3,3.2.4.8.8,1.5,1.3,2.2.4.7.8,1.5,1.1,2.4.3.8.6,1.5.8,2.4.3.8.6,1.7,1,2.5.3.7.6,1.3.8,1.8.3.6.7,1.1.8,1.8.6,1.1,1,2.1,1.3,3.1s.7,1.9,1.1,3.2c.6,1.5,1.1,3.5,1.8,5.6s1.3,3.1,1.7,2.9c.4-.1.7-1,.7-2.4,0-1.5.1-2.8.1-3.9,0-1.3-.1-2.4-.3-3.5-.1-1.1-.3-2.4-.3-3.6s0-2.4.1-3.5.1-2.4.1-3.6c0-3.6-.1-7-.4-9.9-.3-3.1-.4-6.4-.4-10.2,0-.7,0-1.9.1-4,0-1.9.3-3.3.7-4.2.3-.4.7-.8,1-1,.3-.3.6-.4.8-.6.3-.3.8-.4,1.7-.8.8-.3,1.7-.6,2.8-.6,1.3,0,2.4,0,3.3.1s1.9.1,3.2.1h6.4c1,0,1.9,0,2.8-.1.8,0,1.7-.1,2.8-.1,3.1,0,4.6,1.5,4.6,4.7,0,2.5-.1,4.7-.3,7-.3,2.1-.3,4.5-.3,7.1,0,3.8,0,7.1.1,10,.1,2.9.1,6.3.1,10,0,4-.1,7.7-.3,10.9-.1,3.2-.3,6.8-.3,10.9s.1,7.5.3,10.7c.3,3.2.3,6.7.3,10.7,0,3.5-.1,6.8-.3,9.7-.3,2.9-.3,6.3-.3,9.9v5c0,1.5.1,3.1.3,4.9,0,.8.1,1.5.3,2.1-.1,1-.1,1.7-.1,2.6Z"/>
      <path class="cls-1" d="M174.5,353.2c-.6-2.8-1.3-6-1.9-9.7s-1.4-7.2-1.9-10.7c-.4-3.5-.8-6.7-1-9.5-.1-2.8-.6-6-1.1-9.5-.3-2.6-.7-5-1.3-7.2-.4-2.2-1-4.6-1.5-7.2-.7-3.3-1.3-6.3-1.8-8.9-.6-2.6-1-5.7-1.5-8.9-.4-2.8-.8-5.2-1-7.4-.3-2.2-.6-4.7-1-7.4,0,0-.1-.8-.4-2.5-.3-1.7-.7-3.5-1.1-5.6-.4-2.1-.8-3.9-1.1-5.6s-.4-2.5-.4-2.5c-.1-.3-.3-.6-.3-1.1-.1-.6-.3-.8-.6-1-.8-1.5-1.7-2.5-2.6-2.9-1-.4-2.5-.7-4.9-.7h-.7c-2.2,0-4.3,0-6.5.1-2.1,0-4.3.1-6.4.1-2.8,0-5.4-.1-7.8-.3-2.4-.3-5-.3-7.9-.3-3.3,0-5.8.6-7.5,1.8-.8.8-1.5,2.2-2.1,4-.6,1.9-1.3,4-1.8,6.3-.8,3.5-1.4,6.7-1.7,9.6-.3,2.8-.8,6-1.4,9.7-.4,2.2-.8,4.5-1.4,6.3-.4,1.9-.8,4-1.4,6.3-.3,2.1-.6,3.9-.7,5.6s-.4,3.5-.6,5.3c-.3,2.8-.7,5.3-1.3,7.5-.4,2.1-.8,4.6-1.4,7.5-.4,2.8-.8,5.4-1,7.7-.3,2.2-.7,4.7-1.3,7.5-.3,1.9-.7,3.8-1.1,5.3-.3,1.5-.7,3.3-1,5.3-.4,2.1-.7,4-1,5.8-.1,1.7-.4,3.6-.7,6-.3,1.8-.7,3.5-1,5s-.4,2.5-.4,3.2c0,2.2.7,3.6,2.1,4.2s2.9.7,4.3.7c1.7,0,3.3,0,5.2-.1,1.7,0,3.3-.1,5.2-.1,1.5,0,3.1,0,4.3.1,1.3,0,2.8.1,4.3.1,1.4,0,2.4-.1,3.1-.6.7-.3,1.3-1,1.9-1.7.3-.6.6-1.8.8-3.6.3-1.8.4-3.6.6-5.6.1-1.8.1-3.1.1-3.5.3-1.9.7-3.3,1.1-4.2.4-.8,2.2-1.3,5.4-1.3,1.9,0,4.2,0,6.7.1,2.5,0,3.9.1,4,.3.6.3.8.6.7.4l.6.6c.6.4,1,1.7,1.1,3.5.3,1.8.4,3.8.6,5.6.1,1.8.3,3.1.3,3.6.1.6.1,1.4.3,2.4,0,1,.4,1.9,1.3,2.8.7.8,2.1,1.3,4.2,1.3,1.7,0,3.2,0,4.6-.1s2.9-.1,4.6-.1c2.1,0,3.9.1,5.6.3,1.7.1,3.5.3,5.6.3,1.7,0,2.9-.6,3.8-1.7.8-1.1,1.3-2.2,1.5-3.5.3-1.1.3-1.7.3-1.7.2-1-.1-2.8-.7-5.5ZM141.3,300.7l1.5,11.3-9.9-5.6-10.2,5,2.2-11.1-7.9-8.2,11.3-1.3,5.3-10,4.7,10.3,11.1,1.9-8.1,7.7Z"/>
      <path class="cls-1" d="M57.3,337c-.8-1-1.7-1.4-2.6-1.5-1-.1-1.8-.3-2.5-.3s-1.3,0-1.9.1h-1.8c-1.5.1-2.8.1-3.9.1s-2.4-.1-3.9-.1c-1,0-2.4-.1-3.9-.6-1.5-.3-2.9-1.3-4-2.6-1.3-1.4-1.8-3.6-1.8-6.5,0-.8,0-1.5.1-2.2,0-.7.1-1.5.1-2.1,0-1.5,0-3.1-.1-4.3-.1-1.3-.1-2.6-.1-4.2,0-2.5,0-4.7.1-6.7s.1-4.2.1-6.7c0-1.4-.1-2.8-.3-4.2s-.3-2.8-.3-4.2c0-1.8,0-3.6.1-5.3.1-1.7.1-3.3.1-5.2.1-2.2.1-4.3-.1-6.3-.1-1.8-.3-3.9-.3-6.3s0-4.3.1-6.3.3-4,.3-6.4c.1-.7.1-4.7-.1-5.2-.3-.4-.7,0-1.4.1-.7,0-9,1.4-9.7,1.9-5.7,1.7-12,2.1-12.4,2.5s-5,1-5,1c0,0-1.3,0-1.4.4s0,7.5,0,8.8c0,2.1,0,3.9-.1,5.6s-.3,3.6-.3,5.7,0,4,.1,5.8c.1,1.7.1,3.6.1,5.7,0,1.4,0,2.8-.1,4.2-.1,1.4-.1,2.6-.1,4,0,2.1,0,3.9.1,5.6s.1,3.6.1,5.7c0,2.6-.1,5-.3,7.1-.3,2.1-.3,4.6-.3,7.2,0,3.3.1,6.4.3,9.2s.3,5.8.3,9.2c0,3.2-.1,6-.3,8.5-.1,2.5-.3,5.3-.3,8.5v1.4c0,1.1.3,2.5,1,4.2.6,1.7,2.5,2.5,5.6,2.5,1.9,0,3.6,0,5.2-.1,1.5-.1,3.1-.1,4.9-.1h12.8c1.4,0,2.5,0,3.6.1,1.1,0,2.4.1,3.9.1s2.8,0,3.9-.1c1.1,0,2.5-.1,3.9-.1,1.5,0,3.1,0,4.3.1,1.3.1,2.6.1,4.3.1,2.2,0,3.8-.4,4.5-1.4s1.1-2.1,1.1-3.2v-3c0-1.3,0-2.4.1-3.5.1-1,.1-2.1.1-3.2v-4c0-1.9-.1-3.9-.3-5.8-.5-1.7-.9-3-1.6-3.7Z"/>
      <path class="cls-3" d="M44.17,193.53l1,38.8-11.4,2.6-.4-18-7.4,15.9-5.4,1.3-8.6-12,.4,17.7-11.4,2.6v-39l9.3-2.2,12.4,17.9,11-23,10.5-2.6Z"/>
      <path class="cls-3" d="M62.58,199.26l.1,4.5,15.6-3.5.3,9.3-15.6,3.5.1,5,18.4-4.2v10.2l-30.3,7-.8-39,29.9-6.7.1,9.7-17.8,4.2Z"/>
      <path class="cls-3" d="M120.14,189.18c.7,3.2.6,6.3-.7,9.2-1.1,2.8-3.2,5.2-6.1,7.1l8.5,9.3-12.8,2.9-7.2-8.1-3.1.7.3,9.6-12.4,2.8-.8-38.4,16.4-3.8c4.9-1.1,8.9-.8,12,.7s5.1,4.2,5.9,8ZM107.74,193.18c-.6-2.5-2.4-3.3-5.4-2.6l-4.2,1,.1,9,5.2-1.1c1.7-.4,2.9-1.1,3.8-2.2.8-1.2,1-2.6.5-4.1Z"/>
      <path class="cls-3" d="M140.44,211.54c-3.2.7-6.3,1.1-9.2,1-2.9,0-5.4-.4-7.5-1.1l2.8-10.2c4.5,1.4,8.9,1.5,13.2.6,1.5-.3,2.8-.8,3.5-1.4.8-.6,1.1-1.3,1-1.8-.1-.6-.7-1-1.7-1.3-1-.1-2.4-.3-4.3-.3-2.6-.1-4.7-.3-6.5-.6s-3.3-1-4.9-2.1c-1.5-1.1-2.5-2.8-3.1-5-.6-2.8-.4-5.3.6-7.8s2.8-4.6,5.3-6.3c2.5-1.8,5.7-3.1,9.6-3.9,2.8-.6,5.3-1,7.8-.8,2.5,0,4.7.3,6.7,1l-2.4,10c-1.7-.6-3.5-1-5.3-1s-3.6.1-5.4.6c-1.7.4-3.1,1-3.9,1.7s-1.3,1.4-1.1,2.1c.1.7.7,1.1,1.7,1.3,1,.1,2.5.3,4.5.3,2.5,0,4.6.1,6.4.4,1.8.3,3.3,1,4.9,1.9,1.5,1.1,2.5,2.6,2.9,4.9.6,2.8.4,5.3-.7,7.7-1.1,2.4-2.8,4.5-5.4,6.3-2.5,1.5-5.7,2.9-9.5,3.8Z"/>
      <path class="cls-3" d="M170.44,174.96l.1,4.5,15.6-3.6.3,9.3-15.6,3.5.1,5,18.4-4.1.3,9.7-30.6,7-.8-38.8,29.9-6.8.1,10-17.8,4.3Z"/>
      <path class="cls-3" d="M217.1,179.28l.3,13.9-12.4,2.8-.4-14.1-14.5-21.4,12.4-2.8,8.1,12,7.7-15.6,12.1-2.8-13.3,28Z"/>
      <path class="cls-3" d="M247.61,186.86c-3.2.7-6.3,1.1-9.2,1-2.9,0-5.4-.4-7.5-1.1l2.8-10.2c4.5,1.4,8.9,1.5,13.2.6,1.5-.3,2.8-.8,3.5-1.4.8-.6,1.1-1.3,1-1.8-.1-.6-.7-1-1.7-1.3-1-.1-2.4-.3-4.3-.3-2.6-.1-4.7-.3-6.5-.6-1.8-.3-3.3-1-4.9-2.1-1.5-1.1-2.5-2.8-3.1-5-.6-2.8-.4-5.3.6-7.8,1-2.4,2.8-4.6,5.3-6.3,2.5-1.8,5.7-3.1,9.6-3.9,2.8-.6,5.3-1,7.8-.8,2.5,0,4.7.3,6.7,1l-2.4,10.1c-1.7-.6-3.5-1-5.3-1s-3.6.1-5.4.6c-1.7.4-3.1,1-3.9,1.7s-1.3,1.4-1.1,2.1.7,1.1,1.7,1.3c1,.1,2.5.3,4.5.3,2.5,0,4.6.1,6.4.4,1.8.3,3.3,1,4.9,1.9,1.5,1.1,2.5,2.6,2.9,4.9.6,2.8.4,5.3-.7,7.7s-2.8,4.5-5.4,6.3c-2.5,1.5-5.6,2.8-9.5,3.7Z"/>
      <path class="cls-3" d="M266.61,143.58l12.3-2.7.8,38.4-12.4,2.8-.7-38.5Z"/>
      <path class="cls-3" d="M284.92,139.45l16.6-3.8c3.9-.8,7.4-1,10.4-.3,3.1.6,5.7,1.9,7.7,3.9,2.1,1.9,3.5,4.6,4.2,7.8,1,4.3.8,8.2-.4,11.8-1.3,3.6-3.5,6.7-6.5,9.2s-6.8,4.3-11.3,5.3l-19.6,4.5-1.1-38.4ZM303.72,163.75c3.2-.7,5.4-2.2,6.7-4.7,1.4-2.4,1.7-5.2,1-8.4-.4-2.1-1.5-3.6-3.1-4.5-1.5-.8-3.6-1-6.1-.6l-4.7,1.1.4,18.2,5.8-1.1Z"/>
      <path class="cls-3" d="M340.71,136.3l.1,4.5,15.6-3.5.3,9.3-15.6,3.5.1,5,18.4-4.2.3,9.7-30.6,6.8-.8-38.4,29.9-6.6.1,9.7-17.8,4.2Z"/>
      <polygon class="cls-2" points="1.06 186.81 308 105.2 312.8 0 370 87.4 471.2 60.3 406 142.1 453.5 232.2 356.3 191.5 76.61 237.37 359.5 170.7 410.2 193.3 383.2 141.1 421.5 93.3 362.3 109.6 328.6 58 326 119.6 1.06 186.81"/>
    </g>
  </g>
</svg>