<?xml version="1.0" encoding="utf-8"?>
<!-- Generator: Adobe Illustrator 27.8.0, SVG Export Plug-In . SVG Version: 6.00 Build 0)  -->
<svg version="1.1" xmlns="http://www.w3.org/2000/svg" xmlns:xlink="http://www.w3.org/1999/xlink" x="0px" y="0px"
	 viewBox="0 0 500 500" style="enable-background:new 0 0 500 500;" xml:space="preserve">
<style type="text/css">
	.st0{display:none;}
	.st1{display:inline;}
	.st2{fill:#FFFFFF;}
</style>
<g id="Layer_3" class="st0">
	<rect class="st1" width="500" height="500"/>
</g>
<g id="Layer_2">
	<g>
		<g>
			<g transform="translate(61.594037, 298.312385)">
				<g>
					<path class="st2" d="M38.1,72.4c0,0.6-0.1,1.1-0.2,1.6c-0.1,0.5-0.6,0.7-1.5,0.7c-0.2,0-0.4,0-0.6,0c-0.2,0-0.4,0-0.6,0h-1.3
						c-0.3,0-0.6,0-0.9,0c-0.3,0-0.6,0-0.9,0H32c-0.6,0-0.9,0.1-1.1,0.4c-0.2,0.2-0.3,0.5-0.3,0.8v1c0,0.2,0,0.5,0,0.7
						c0,0.2,0,0.4,0,0.7c0,0.5,0.1,0.8,0.4,1c0.3,0.2,0.5,0.3,0.8,0.4c0.3,0,0.5,0,0.5,0c0.2,0,0.5,0,0.7,0c0.2,0,0.5,0,0.7,0
						c0.2,0,0.4,0,0.5,0c0.1,0,0.3,0,0.5,0c0.2,0,0.4,0,0.6-0.1c0.2,0,0.4,0,0.6,0c0.6,0,1,0.2,1.2,0.6c0.2,0.3,0.3,0.6,0.3,0.9
						s0,0.5,0,0.7c0,0.2,0,0.4,0,0.6v0.9c0,0.9,0,1.6,0,2.2c0,0.6-0.2,1.1-0.4,1.4c-0.2,0.3-0.8,0.5-1.5,0.5c-0.5,0-0.9,0-1.3-0.1
						c-0.4-0.1-0.8-0.1-1.3-0.1c-0.6,0-1,0.1-1.3,0.4c-0.3,0.2-0.5,0.5-0.5,0.9c-0.1,0.3-0.1,0.6-0.1,0.8v2.3c0,0.6,0,1.1,0,1.5
						c0,0.4,0,0.9,0,1.5c0,0.2-0.1,0.5-0.1,0.7c0,0.2,0,0.4,0,0.7c0,0.4,0,0.8,0.1,1c0.1,0.3,0.1,0.6,0.1,1v0.1c0,0.2,0,0.4-0.1,0.7
						c-0.1,0.3-0.2,0.6-0.4,0.8c-0.2,0.2-0.6,0.4-1.2,0.4c-0.5,0-0.9,0-1.4,0c-0.4,0-0.9-0.1-1.4-0.1c-0.4,0-0.8,0-1.2,0.1
						c-0.3,0-0.7,0-1.2,0c-0.8,0-1.2-0.2-1.4-0.6c-0.2-0.4-0.3-0.7-0.3-1c0-0.7,0-1.4,0.1-2c0.1-0.6,0.1-1.2,0.1-2
						c0-1.4,0-2.6-0.1-3.6c-0.1-1.1-0.1-2.3,0-3.6c0-1,0-1.9,0.1-2.7c0.1-0.8,0.1-1.7,0.1-2.7c0-1,0-1.8-0.1-2.5
						c0-0.8-0.1-1.6-0.1-2.6c0-0.8,0-1.5,0-2.2c0-0.7,0-1.4,0-2.2c0-0.5,0-0.9,0-1.3c0-0.4,0-0.8,0-1.3c0-1.1,0.2-1.7,0.6-2
						c0.4-0.3,0.9-0.4,1.5-0.4h1.5c0.8,0,1.6,0,2.3,0c0.7,0,1.4-0.1,2.3-0.1c0.4,0,0.8,0,1.2,0.1c0.4,0,0.8,0,1.3,0
						c0.7,0,1.3,0,1.9,0c0.6,0,1.2,0,1.9,0c0.2,0,0.5,0.1,0.8,0.1c0.4,0.1,0.5,0.4,0.5,1.1c0,0.2,0,0.3,0,0.5c0,0.1,0,0.3,0,0.5v0.8
						c0,0.5,0,0.9,0,1.2C38.1,71.5,38.1,72,38.1,72.4z"/>
				</g>
			</g>
		</g>
		<g>
			<g transform="translate(93.828917, 298.312385)">
				<g>
					<path class="st2" d="M50.6,93.8c0,0.4,0,0.7-0.1,1c0,0.3,0,0.6,0,1c0,0.4,0,0.8,0,1.1c0,0.3,0,0.7,0,1.1c0,0.3-0.1,0.7-0.3,1.1
						c-0.2,0.5-0.7,0.7-1.5,0.7c-0.3,0-0.6,0-0.9,0c-0.3,0-0.6,0-0.9,0h-1.1c-0.6,0-1.1,0-1.5,0c-0.4,0-0.9,0-1.5,0
						c-0.3,0-0.6,0-0.9,0c-0.3,0-0.6,0-0.9,0h-5c-0.2,0-0.4,0-0.6,0.1c-0.2,0-0.4,0-0.6,0c-0.3,0-0.7-0.1-1.2-0.4
						c-0.5-0.2-0.7-0.8-0.7-1.6c0-0.6,0-1.2,0.1-1.7c0.1-0.5,0.1-1,0.1-1.6c0-0.6,0-1,0-1.5c0-0.4,0-0.9,0-1.5c0-0.4,0-0.8,0.1-1.1
						c0.1-0.3,0.1-0.7,0.1-1.1c0-0.4,0-0.8,0-1.1c0-0.3,0-0.7,0-1.1c0-0.8,0-1.5,0-2.1c0-0.6,0-1.3,0-2.1c0-0.7,0-1.4,0-2.1
						c0-0.7,0-1.4,0-2c0-1,0-1.8,0-2.6c0.1-0.8,0.1-1.6,0.1-2.6c0-0.7,0-1.3,0-1.8c0-0.5,0-1.1,0-1.8c0-1.4,0.1-2.3,0.4-2.8
						c0.3-0.5,0.9-0.7,2-0.7c0.6,0,1.2,0,1.7,0.1c0.5,0.1,1,0.1,1.6,0.1c0.3,0,0.6,0,0.9,0c0.3,0,0.6,0,0.9,0c0.7,0,1.4,0,2,0.1
						c0.6,0,1.3,0.1,2,0.1c0.3,0,0.6,0,0.9,0c0.3,0,0.5,0,0.9,0h0.9c0.2,0,0.5,0,0.7,0c0.2,0,0.5,0,0.8,0c0.7,0,1.1,0.2,1.3,0.6
						c0.2,0.4,0.2,0.7,0.2,1c0,0.4,0,0.8-0.1,1.2c0,0.4-0.1,0.8-0.1,1.2c0,0.4,0,0.9,0,1.5c0,0.6-0.1,1-0.3,1.4
						c-0.2,0.4-0.7,0.6-1.5,0.6h-0.5c-0.3,0-0.5,0-0.8,0c-0.2,0-0.5,0-0.8,0c-0.4,0-0.7,0-1-0.1c-0.3-0.1-0.6-0.1-1-0.1
						c-1.3,0-2,0.2-2.3,0.6c-0.2,0.4-0.4,1-0.4,1.8c0,1.6,0.5,2.4,1.6,2.4c0.2,0,0.5,0,0.7,0c0.2,0,0.4,0,0.7,0h0.1
						c0.3,0,0.6,0,0.9,0c0.3,0,0.6,0,0.9,0c0.3,0,0.5,0,0.8,0c0.2,0,0.5,0,0.7,0c0.7,0,1.1,0.1,1.4,0.4c0.2,0.2,0.4,0.5,0.4,0.8
						c0,0.3,0,0.6,0,0.8c0,0.4,0,0.7,0,1c0,0.3,0,0.6,0,1c0,0.3,0,0.7,0,0.9c0,0.3,0,0.6,0,0.9c0,0.6-0.1,1-0.4,1.3
						c-0.2,0.3-0.5,0.5-0.8,0.5c-0.3,0.1-0.5,0.1-0.8,0.1c-0.7,0-1.4,0-1.9-0.1c-0.6-0.1-1.2-0.1-1.9-0.1c-0.8,0-1.4,0.1-1.8,0.4
						c-0.3,0.3-0.5,0.6-0.5,1c0,0.4-0.1,0.8-0.1,1.1v0.6c0,0.1,0,0.4,0,0.7c0,0.3,0,0.6,0.1,0.7c0.3,0.7,0.7,1,1.1,1
						c0.4,0,1,0.1,1.9,0.1c0.4,0,0.8,0.1,1.1,0.1c0.3,0,0.7,0.1,1.1,0.1c0.4,0,0.7,0,1-0.1c0.3-0.1,0.6-0.1,1-0.1
						c0.2,0,0.6,0.1,1,0.3C50.3,92.6,50.6,93.1,50.6,93.8z"/>
				</g>
			</g>
		</g>
		<g>
			<g transform="translate(128.223755, 298.312385)">
				<g>
					<path class="st2" d="M61.7,90c0,2-0.2,3.6-0.6,4.8C60.8,96,60,97,58.9,97.9c-0.5,0.4-1,0.8-1.6,1c-0.6,0.3-1.1,0.5-1.6,0.7
						c-0.5,0.1-1,0.2-1.8,0.3c-0.7,0.1-1.4,0.2-2.1,0.2c-0.7,0-1.3,0-1.8,0c-0.3,0-0.7,0-1.3,0c-0.6,0-1.2-0.1-1.9-0.2
						c-0.7-0.1-1.3-0.3-1.9-0.4c-0.6-0.2-1-0.4-1.2-0.8c-0.2-0.3-0.3-0.7-0.3-1.2c0-0.5,0-1,0-1.4c0-0.4,0-0.8,0-1.3
						c0-0.4,0-0.8,0-1c0-0.3,0-0.7,0-1.1c0-0.2,0-0.4,0.1-0.8c0-0.4,0.2-0.7,0.5-1c0.3-0.3,0.7-0.5,1.4-0.4c0.4,0,0.7,0.1,0.9,0.2
						c0.2,0.1,0.4,0.2,0.7,0.4c0.1,0,0.1,0.1,0.1,0.1c0,0,0.1,0.1,0.1,0.1c0.1,0.1,0.2,0.2,0.3,0.2c0.1,0.1,0.2,0.2,0.3,0.2
						c0.3,0.2,0.7,0.3,1.1,0.4c0.4,0.1,0.8,0.1,1.1,0.1c1.7,0,2.6-0.5,2.7-1.5c0.1-0.7-0.2-1.4-0.9-2.1c-0.6-0.6-1.3-1.2-1.9-1.8
						c-0.4-0.4-0.8-0.8-1.1-1.1c-0.3-0.3-0.7-0.7-1.1-1.1c-0.1-0.1-0.4-0.4-0.8-0.7c-0.4-0.4-0.8-0.8-1.2-1.2
						c-1-1.2-1.5-2.3-1.8-3.2c-0.2-1-0.3-2.1-0.3-3.2c0-3.5,0.8-6,2.5-7.6c1.7-1.5,4.2-2.3,7.5-2.3c1,0,2,0,3,0c1,0,1.8,0.2,2.5,0.5
						c0.7,0.3,1,0.8,1,1.5c0,0.5,0,0.9-0.1,1.3c0,0.4,0,0.9,0,1.4v0.2c0,0.3,0,0.6,0,0.9c0,0.2,0,0.5,0,0.9c0,0.2,0,0.4-0.1,0.7
						c-0.1,0.3-0.2,0.6-0.4,0.9c-0.2,0.3-0.6,0.4-1.2,0.4c-0.4,0-0.8-0.1-1.2-0.2c-0.4-0.1-0.7-0.2-0.8-0.2
						c-0.2-0.1-0.5-0.1-0.8-0.2c-0.3-0.1-0.7-0.1-1.1-0.1c-0.1,0-0.3,0-0.6,0.1c-0.3,0-0.6,0.2-0.9,0.4c-0.3,0.2-0.5,0.6-0.5,1.2
						c0,0.5,0.1,1,0.4,1.4c0.2,0.2,0.6,0.8,1.5,1.5c0.8,0.8,1.7,1.6,2.6,2.5c0.3,0.3,0.7,0.6,1,0.9c0.3,0.3,0.6,0.6,0.9,1
						c1.1,1.2,1.8,2.4,2.2,3.3C61.6,87.6,61.7,88.8,61.7,90z"/>
				</g>
			</g>
		</g>
		<g>
			<g transform="translate(161.921827, 298.312385)">
				<g>
					<path class="st2" d="M72,73.5c0,0.2-0.1,0.5-0.2,1c-0.1,0.4-0.5,0.7-1.2,0.7c-0.2,0-0.4,0-0.6,0c-0.2,0-0.4,0-0.6,0
						c-0.7,0-1.2,0.2-1.4,0.5c-0.2,0.4-0.4,1-0.4,1.9c0,0.8,0,1.5,0.1,2.1s0.1,1.3,0.1,2.1c0,1,0,1.8,0,2.6c0,0.7,0,1.6,0,2.5
						c0,0.9,0,1.6,0,2.3c0,0.7,0,1.5,0,2.3c0,0.5,0,1,0,1.5c0,0.5,0,1,0,1.5c0,0.4,0,0.8,0,1.1c0,0.3,0,0.7,0.1,1.1
						c0,0.2,0.1,0.5,0.1,0.7c0,0.2,0,0.4,0,0.7c0,0.5-0.1,0.8-0.4,1.1c-0.2,0.2-0.5,0.4-0.8,0.4c-0.3,0.1-0.5,0.1-0.6,0.1
						c-0.3,0-0.5,0-0.8,0c-0.2,0-0.5-0.1-0.8-0.1c-0.4,0-0.8,0-1,0c-0.3,0-0.6,0-1,0c-0.3,0-0.6,0-0.9,0c-0.3,0-0.6,0-0.9,0
						c-0.5,0-0.9-0.1-1.2-0.4C59.2,99,59,98.5,59,97.7c0-0.8,0-1.5,0.1-2c0.1-0.6,0.1-1.3,0.1-2c0-0.7,0-1.4-0.1-2
						c0-0.6-0.1-1.2-0.1-2c0-0.8,0-1.6,0.1-2.3c0.1-0.7,0.1-1.4,0.1-2.3c0-0.6,0-1.2-0.1-1.6c0-0.5-0.1-1-0.1-1.6c0-1,0-1.8,0.1-2.7
						c0.1-0.8,0.1-1.5,0.1-2.2c0-0.6-0.2-1.1-0.6-1.5c-0.1-0.1-0.2-0.2-0.3-0.2c-0.1,0-0.1,0-0.1-0.1c-0.2-0.1-0.3-0.1-0.6-0.1
						c-0.2,0-0.4,0-0.6,0c-0.2,0-0.3,0-0.5,0c-0.2,0-0.3,0-0.5,0c-0.6,0-1-0.2-1.2-0.5c-0.2-0.3-0.3-0.6-0.3-0.9c0-0.6,0-1.1,0-1.6
						c0-0.5,0-1,0-1.6c0-0.4,0-0.8,0-1.1c0-0.3,0-0.7,0-1.1c0-0.6,0.1-1,0.4-1.2c0.2-0.2,0.7-0.4,1.3-0.4c0.5,0,1,0,1.4,0
						c0.4,0,0.9,0,1.4,0c0.8,0,1.6,0,2.4-0.1c0.8-0.1,1.6-0.1,2.4-0.1h0.5c0.7,0,1.2,0,1.8,0.1c0.5,0,1.1,0,1.8,0c0.4,0,0.8,0,1.1,0
						c0.3,0,0.7-0.1,1.1-0.1c0.9,0,1.4,0.3,1.6,0.8c0.2,0.5,0.2,1.1,0.2,1.7c0,0.5,0,0.9,0,1.2c0,0.3,0,0.7,0,1.2c0,0.3,0,0.6,0,0.8
						C71.9,72.9,72,73.2,72,73.5z"/>
				</g>
			</g>
		</g>
		<g>
			<g transform="translate(194.888309, 298.312385)">
				<g>
					<path class="st2" d="M75.3,98.2c0,0.3-0.1,0.6-0.2,0.9c-0.1,0.3-0.6,0.5-1.2,0.5c-0.3,0-0.7,0-1,0c-0.3,0-0.6-0.1-1-0.1
						c-0.6,0-1.1,0-1.6,0.1c-0.4,0-0.9,0.1-1.5,0.1c-0.8,0-1.3-0.1-1.6-0.3c-0.3-0.2-0.5-0.5-0.5-0.8c0-0.3-0.1-0.7-0.1-1.1v-1.9
						c0-0.5,0-1,0.1-1.5c0.1-0.5,0.1-0.9,0.1-1.5v-1.9c0-1.2,0-2.2-0.1-3.2c0-0.9-0.1-2-0.1-3.1v-5.8c0-0.9,0-1.8,0.1-2.5
						c0.1-0.7,0.1-1.6,0.1-2.5v-3.2c0-0.4,0-0.8-0.1-1.1c0-0.3-0.1-0.7-0.1-1.1c0-0.8,0.2-1.2,0.6-1.4c0.4-0.1,0.9-0.2,1.5-0.2
						c0.5,0,1,0,1.5,0c0.4,0,0.9,0,1.5,0c0.4,0,0.8,0,1.2,0c0.4,0,0.8-0.1,1.3-0.1c0.5,0,0.8,0.2,0.9,0.7c0.1,0.4,0.2,0.8,0.2,1.1
						c0,0.4,0,0.7,0,1c0,0.3-0.1,0.6-0.1,1c0,0.6,0,1.1,0,1.6c0,0.4,0,1,0,1.5v7.2c0,0.5,0,1,0,1.5c0,0.4,0,0.9,0,1.4V86
						c0,0.9,0,1.8,0.1,2.5c0.1,0.7,0.1,1.6,0.1,2.5c0,0.7,0,1.3-0.1,1.9c0,0.6-0.1,1.2-0.1,1.9c0,0.7,0,1.2,0.1,1.8
						C75.3,97,75.3,97.6,75.3,98.2z"/>
				</g>
			</g>
		</g>
		<g>
			<g transform="translate(222.768425, 298.312385)">
				<g>
					<path class="st2" d="M96.6,68c0,0.6-0.1,1.2-0.3,1.8c-0.2,0.6-0.3,1.2-0.5,1.8c-0.1,0.7-0.2,1.3-0.2,1.8c0,0.5-0.1,1.2-0.1,1.8
						c0,0.2-0.1,0.5-0.1,0.7c0,0.2-0.1,0.4-0.1,0.6c0,0.2,0,0.4,0,0.6c0,0.2,0,0.3,0,0.6c-0.1,0.6-0.2,1.2-0.3,1.7s-0.3,1.1-0.4,1.7
						c-0.1,0.6-0.2,1.2-0.3,1.7c-0.1,0.5-0.1,1.1-0.2,1.7c-0.1,0.5-0.1,0.9-0.2,1.4c-0.1,0.4-0.2,0.9-0.3,1.4
						c-0.1,0.6-0.2,1.2-0.2,1.7c0,0.5-0.1,1.1-0.3,1.7c-0.2,0.7-0.3,1.4-0.5,1.9c-0.2,0.6-0.3,1.2-0.5,2c-0.2,1.1-0.4,2-0.6,3
						c-0.1,0.9-0.4,1.5-0.8,1.9c-0.2,0.2-0.5,0.3-0.8,0.4c-0.3,0-0.6,0-0.9,0h-7.7c-0.3,0-0.6,0-0.7-0.1c-0.1-0.1-0.3-0.2-0.4-0.4
						c-0.1-0.1-0.3-0.5-0.4-1.1c-0.2-0.7-0.3-1.4-0.5-2.3c-0.2-0.9-0.4-1.8-0.5-2.7c-0.2-0.9-0.3-1.7-0.4-2.3
						c-0.1-0.7-0.2-1-0.2-1.2c-0.2-1.2-0.4-2.2-0.7-3.1c-0.2-0.9-0.4-1.9-0.5-3.1c0-0.3-0.1-0.6-0.1-0.8c0-0.2-0.1-0.5-0.1-0.8
						c-0.2-0.8-0.3-1.6-0.5-2.2c-0.2-0.7-0.3-1.4-0.5-2.2c-0.1-0.9-0.2-1.7-0.3-2.4c-0.1-0.7-0.2-1.5-0.4-2.4
						c-0.1-0.8-0.2-1.3-0.3-1.7c-0.1-0.4-0.1-0.7-0.2-1c0-0.3-0.1-0.7-0.1-1.1c0-0.3,0.1-0.7,0.1-1.2c0.1-0.4,0.5-0.6,1.1-0.6
						c0.3,0,0.7,0,1,0c0.3,0,0.6,0,1,0c0.8,0,1.5,0,2.1,0c0.6,0,1.3,0,2.1,0c0.6,0,0.9,0.1,1.1,0.4c0.2,0.3,0.3,0.7,0.3,1.2
						c0,0.5,0,1.1,0.1,1.8c0.1,0.9,0.2,1.6,0.3,2.3c0.1,0.7,0.2,1.5,0.3,2.4c0.1,0.7,0.1,1.3,0.1,1.8c0,0.5,0,1.1,0.1,1.8
						c0.1,0.7,0.2,1.4,0.2,2c0.1,0.6,0.2,1.2,0.3,2c0.1,0.5,0.1,1,0.1,1.4c0,0.4,0.1,0.9,0.1,1.4c0,0,0,0.2,0.1,0.6
						c0,0.4,0.1,0.8,0.2,1.2c0.1,0.4,0.2,0.6,0.4,0.6c0.2,0,0.3-0.3,0.4-0.9c0.1-0.6,0.1-1.2,0.2-2c0.1-0.8,0.1-1.4,0.2-2
						c0.1-0.7,0.2-1.2,0.3-1.7c0.1-0.5,0.2-1.1,0.3-1.7c0.1-0.9,0.1-1.7,0.1-2.5c0-0.8,0-1.6,0.1-2.5c0.1-0.8,0.2-1.5,0.3-2.1
						c0.1-0.6,0.2-1.3,0.3-2.1c0.1-0.5,0.1-1.1,0.1-1.6c0.1-0.6,0.1-0.9,0.1-1c0.1-0.2,0.2-0.4,0.4-0.6c0.1-0.2,0.4-0.3,0.8-0.3
						c0.6,0,1.1,0,1.5,0.1c0.5,0,1,0.1,1.5,0.1c0.4,0,0.8,0,1.1,0c0.3,0,0.7,0,1.1,0c0.2,0,0.5,0,0.7,0c0.2,0,0.4,0,0.6,0
						c0.5,0,0.9,0.1,1,0.4C96.6,67.6,96.6,67.8,96.6,68z"/>
				</g>
			</g>
		</g>
		<g>
			<g transform="translate(258.626478, 298.312385)">
				<g>
					<path class="st2" d="M109.4,97.9c0,0,0,0.2-0.1,0.5c-0.1,0.3-0.2,0.6-0.4,0.9c-0.2,0.3-0.6,0.5-1,0.5c-0.6,0-1.1,0-1.5-0.1
						c-0.4-0.1-0.9-0.1-1.5-0.1c-0.5,0-0.9,0-1.2,0.1c-0.4,0-0.8,0-1.2,0c-0.6,0-0.9-0.1-1.1-0.3c-0.2-0.2-0.3-0.5-0.3-0.8
						c0-0.3,0-0.5-0.1-0.7c0-0.2,0-0.5-0.1-1c0-0.5-0.1-1-0.2-1.5c-0.1-0.5-0.2-0.8-0.3-1c-0.1-0.1-0.2-0.2-0.2-0.2c0,0,0,0-0.2-0.1
						c0,0-0.4,0-1.1-0.1c-0.7,0-1.3,0-1.8,0c-0.9,0-1.4,0.1-1.5,0.4c-0.1,0.2-0.2,0.6-0.3,1.1c0,0.1,0,0.4-0.1,1
						c0,0.5-0.1,1-0.1,1.5c-0.1,0.5-0.1,0.8-0.2,1c-0.2,0.2-0.3,0.4-0.5,0.5c-0.2,0.1-0.5,0.1-0.8,0.1c-0.4,0-0.8,0-1.2,0
						c-0.3,0-0.7,0-1.2,0c-0.5,0-0.9,0-1.4,0c-0.5,0-0.9,0-1.4,0c-0.4,0-0.8-0.1-1.2-0.2c-0.4-0.1-0.6-0.5-0.6-1.1
						c0-0.2,0-0.5,0.1-0.9c0.1-0.4,0.2-0.9,0.3-1.4c0.1-0.6,0.1-1.2,0.2-1.6c0.1-0.5,0.1-1,0.3-1.6c0.1-0.5,0.2-1,0.3-1.4
						c0.1-0.4,0.2-0.9,0.3-1.4c0.2-0.8,0.3-1.5,0.3-2.1c0.1-0.6,0.2-1.3,0.3-2.1c0.1-0.8,0.2-1.5,0.4-2c0.1-0.6,0.2-1.3,0.3-2
						c0.1-0.5,0.1-1,0.2-1.5c0-0.5,0.1-1,0.2-1.5c0.1-0.6,0.2-1.2,0.4-1.7c0.1-0.5,0.2-1.1,0.4-1.7c0.2-1,0.3-1.9,0.4-2.6
						c0.1-0.8,0.2-1.6,0.5-2.6c0.2-0.6,0.3-1.2,0.5-1.7c0.2-0.5,0.4-0.9,0.6-1.1c0.4-0.3,1.1-0.5,2-0.5c0.8,0,1.5,0,2.2,0.1
						C97,67,97.7,67,98.5,67c0.6,0,1.2,0,1.8,0c0.6,0,1.2,0,1.8,0h0.2c0.6,0,1.1,0.1,1.3,0.2c0.3,0.1,0.5,0.4,0.7,0.8
						c0.1,0,0.1,0.1,0.1,0.2c0,0.1,0.1,0.2,0.1,0.3c0,0,0,0.2,0.1,0.7c0.1,0.4,0.2,1,0.3,1.5c0.1,0.6,0.2,1.1,0.3,1.5
						c0.1,0.4,0.1,0.7,0.1,0.7c0.1,0.8,0.2,1.4,0.3,2c0.1,0.6,0.2,1.3,0.3,2c0.2,0.9,0.3,1.7,0.4,2.5c0.1,0.7,0.3,1.5,0.5,2.4
						c0.2,0.7,0.3,1.4,0.4,2c0.1,0.6,0.2,1.2,0.3,2c0.2,1,0.2,1.8,0.3,2.6c0,0.8,0.1,1.6,0.2,2.6c0.2,0.9,0.3,1.9,0.5,2.9
						c0.2,1,0.4,1.9,0.5,2.6C109.3,97.2,109.4,97.7,109.4,97.9z M99.4,84.6c0-0.8-0.1-1.7-0.2-2.5c-0.1-0.8-0.2-1.5-0.3-2.1
						c-0.1-0.6-0.2-1-0.2-1.3c0-0.4-0.1-0.7-0.1-1.1c0-0.4-0.1-0.6-0.2-0.7c-0.1-0.3-0.2-0.5-0.5-0.5c-0.2,0-0.3,0.2-0.4,0.5
						c0,0.1-0.1,0.2-0.1,0.5c-0.1,0.3-0.1,0.6-0.2,0.9c0,0.3-0.1,0.5-0.1,0.6c-0.1,0.3-0.1,0.5-0.2,0.8c-0.1,0.2-0.1,0.5-0.2,0.8
						c0,0.1,0,0.4-0.1,0.8c-0.1,0.4-0.1,0.9-0.2,1.4c-0.1,0.5-0.1,1-0.2,1.4c-0.1,0.4-0.1,0.7-0.1,0.8c0,0.7,0.1,1.2,0.4,1.3
						c0.3,0.2,0.6,0.2,1,0.2c0.3,0,0.7-0.1,1.1-0.2C99.2,85.9,99.4,85.4,99.4,84.6z"/>
				</g>
			</g>
		</g>
		<g>
			<g transform="translate(295.216129, 298.312385)">
				<g>
					<path class="st2" d="M116.2,95.9c0,0.3,0,0.6,0,0.9c0,0.3,0,0.6,0,0.9v0.1c0,0.2,0,0.4,0,0.7c0,0.3-0.1,0.6-0.3,0.9
						c-0.2,0.3-0.6,0.4-1.2,0.4c-0.4,0-0.8,0-1.2,0c-0.3,0-0.7,0-1.2,0c-0.4,0-0.8,0-1.1,0c-0.3,0-0.7,0-1.1,0c-0.4,0-0.8,0-1.1,0
						c-0.3,0-0.6,0-1,0h-3.5c-0.5,0-0.9,0-1.3,0c-0.4,0-0.9,0-1.4,0c-0.8,0-1.4-0.2-1.5-0.7c-0.2-0.5-0.2-0.8-0.2-1.1v-0.4
						c0-0.9,0-1.6,0.1-2.3c0.1-0.7,0.1-1.5,0.1-2.3c0-0.9,0-1.8-0.1-2.5c0-0.8-0.1-1.6-0.1-2.5c0-0.7,0-1.4,0.1-2
						c0.1-0.6,0.1-1.3,0.1-2c0-0.6,0-1.1-0.1-1.5c0-0.5,0-1,0-1.5c0-0.4,0-0.7,0-1.1c0-0.4,0.1-0.8,0.1-1.1c0-0.6,0-1.1-0.1-1.6
						c0-0.5,0-1,0-1.6c0-0.6,0.1-1.1,0.1-1.5c0-0.5,0-1,0-1.5c0-0.6,0-1.2,0-1.8c0-0.6,0-1.2,0-1.8v-0.2c0-0.2,0-0.4,0.1-0.7
						c0-0.3,0.2-0.6,0.4-0.9c0.2-0.2,0.6-0.4,1.2-0.4c0.4,0,0.8,0,1.1,0.1c0.3,0,0.7,0.1,1.2,0.1c0.4,0,0.9,0,1.3,0
						c0.4,0,0.8-0.1,1.2-0.1c0.4,0,0.9,0.1,1.3,0.2c0.5,0.1,0.7,0.5,0.7,1.2c0,0.3,0,0.6,0,0.8c0,0.2-0.1,0.5-0.1,0.8
						c0,0.7-0.1,1.2-0.1,1.8c0,0.5,0,1.1,0,1.7c0,0.6,0,1.2,0.1,1.7c0,0.5,0,1.1,0,1.7c0,0.5,0,0.9,0,1.4c0,0.5,0,0.9,0,1.4
						c0,0.4,0,0.8,0.1,1.1c0,0.4,0.1,0.8,0.1,1.1c0,0.7,0,1.3,0,1.8c0,0.5,0,1.2,0,1.8c0,0.4,0,0.8,0,1.1c0,0.3,0,0.7,0,1.2
						c0,0.2,0,0.4,0,0.6c0,0.2,0,0.4,0,0.6c0,0.8,0.2,1.4,0.5,1.8c0.3,0.4,0.7,0.6,1.1,0.7c0.4,0.1,0.8,0.1,1,0.1c0.4,0,0.8,0,1,0
						c0.3,0,0.7,0,1.1,0c0.2,0,0.3,0,0.5,0c0.2,0,0.3,0,0.5,0c0.2,0,0.4,0,0.7,0.1c0.2,0,0.5,0.2,0.7,0.4c0.2,0.2,0.3,0.5,0.4,1.1
						c0.1,0.5,0.1,1.1,0.1,1.6C116.2,95.3,116.2,95.6,116.2,95.9z"/>
				</g>
			</g>
		</g>
	</g>
	<g>
		<g>
			<g transform="translate(157.329136, 261.871007)">
				<g>
					<path class="st2" d="M117.6,18.5c0,0.5-0.2,1.3-0.5,2.5c-0.3,1.2-1.4,1.8-3.3,1.8c-0.6,0-1.1,0-1.6-0.1c-0.5,0-1.1-0.1-1.7-0.1
						c-1.8,0-3,0.5-3.7,1.4c-0.7,0.9-1,2.6-1,5.1c0,2,0.1,3.9,0.2,5.5c0.1,1.6,0.2,3.5,0.2,5.6c0,2.5,0,4.8-0.1,6.7
						c-0.1,1.9-0.1,4.2-0.1,6.7c0,2.3,0,4.3,0.1,6.1c0.1,1.8,0.1,3.8,0.1,6.1c0,1.3,0,2.6-0.1,3.9c0,1.3-0.1,2.6-0.1,3.9
						c0,1.1,0,2,0.1,2.9c0,0.9,0.1,1.9,0.2,3c0.1,0.7,0.2,1.2,0.2,1.8c0.1,0.5,0.1,1.1,0.1,1.8c0,1.3-0.3,2.2-0.9,2.8
						c-0.6,0.6-1.3,0.9-2,1.1c-0.7,0.2-1.3,0.2-1.7,0.2c-0.7,0-1.4,0-2-0.1c-0.6,0-1.2-0.1-2-0.2c-1.1-0.1-2-0.1-2.8-0.1
						c-0.8,0-1.7,0-2.8,0c-0.8,0-1.6,0-2.3,0.1c-0.7,0.1-1.6,0.1-2.4,0.1c-1.3,0-2.3-0.3-3.1-1c-0.8-0.7-1.2-2-1.2-4
						c0-2,0.1-3.8,0.3-5.4c0.2-1.6,0.3-3.4,0.3-5.4c0-1.9-0.1-3.6-0.2-5.1c-0.1-1.6-0.2-3.3-0.2-5.1c0-2.2,0.1-4.2,0.3-6
						c0.2-1.8,0.3-3.8,0.3-6c0-1.6-0.1-3.1-0.2-4.3c-0.1-1.3-0.2-2.7-0.3-4.2c-0.1-2.5,0-4.9,0.2-7c0.2-2.2,0.3-4.1,0.2-5.8
						c-0.1-1.7-0.6-3-1.7-3.9c-0.2-0.3-0.5-0.5-0.7-0.6s-0.4-0.1-0.4-0.2c-0.4-0.2-0.9-0.4-1.5-0.4c-0.6,0-1.1-0.1-1.5-0.1
						c-0.5,0-1,0-1.4,0.1c-0.4,0-0.8,0.1-1.2,0.1c-1.6,0-2.7-0.4-3.3-1.3c-0.6-0.9-0.9-1.7-0.9-2.4c0-1.6,0-2.9,0.1-4.2
						c0.1-1.2,0.1-2.6,0.1-4.2c0-1.1,0-2-0.1-2.8c-0.1-0.8-0.1-1.8-0.1-2.8c0-1.5,0.3-2.6,1-3.2c0.7-0.6,1.8-0.9,3.3-0.9
						c1.4,0,2.7,0,3.8,0.1c1.1,0.1,2.4,0.1,3.8,0.1c2.1,0,4.2-0.1,6.3-0.2C92.1,1.1,94.2,1,96.2,1h1.4c1.7,0,3.3,0,4.6,0.1
						c1.4,0.1,3,0.1,4.8,0.1c1.1,0,2.1,0,3-0.1c0.9-0.1,1.8-0.1,2.9-0.1c2.4,0,3.7,0.7,4.1,2.1c0.4,1.4,0.6,2.9,0.6,4.6
						c0,1.2,0,2.3-0.1,3.2c0,0.9-0.1,2-0.1,3.1c0,0.8,0,1.6,0.1,2.2C117.6,16.9,117.6,17.7,117.6,18.5z"/>
				</g>
			</g>
		</g>
		<g>
			<g transform="translate(208.710611, 261.871007)">
				<g>
					<path class="st2" d="M114.7,83.6c0,0.7-0.2,1.6-0.6,2.5c-0.4,0.9-1.4,1.3-3.2,1.3c-0.9,0-1.7,0-2.5-0.1
						c-0.8-0.1-1.6-0.1-2.5-0.1c-1.6,0-2.9,0.1-4.1,0.2c-1.2,0.1-2.5,0.2-4,0.2c-2,0-3.4-0.3-4.2-0.8c-0.8-0.5-1.2-1.2-1.4-2.1
						c-0.1-0.9-0.2-1.8-0.2-2.8v-5c0-1.4,0.1-2.7,0.2-3.9c0.1-1.2,0.2-2.5,0.2-3.9v-5c0-3.1-0.1-5.9-0.2-8.4
						c-0.1-2.5-0.2-5.2-0.2-8.2V32.3c0-2.4,0.1-4.6,0.2-6.5s0.2-4.1,0.2-6.4v-8.4c0-1.1-0.1-2-0.2-2.8c-0.1-0.8-0.2-1.8-0.2-2.8
						c0-2,0.6-3.2,1.7-3.6c1.2-0.4,2.4-0.5,3.8-0.5c1.4,0,2.7,0,3.8,0.1c1.2,0,2.5,0,3.9,0c1.1,0,2.2,0,3.2-0.1
						c1-0.1,2.1-0.1,3.3-0.1c1.3,0,2.1,0.6,2.4,1.7c0.3,1.1,0.5,2.1,0.5,2.8c0,1,0,1.8-0.1,2.6c-0.1,0.8-0.2,1.7-0.2,2.6
						c-0.1,1.6-0.1,2.9-0.1,4.1c0,1.2,0.1,2.6,0.1,4.1v19c0,1.4,0,2.7-0.1,3.8c-0.1,1.1-0.1,2.4-0.1,3.8v6c0,2.4,0.1,4.6,0.2,6.5
						c0.2,1.9,0.2,4.1,0.2,6.5c0,1.8-0.1,3.4-0.2,4.9c-0.1,1.5-0.2,3.1-0.2,4.9c0,1.7,0.1,3.2,0.2,4.6
						C114.6,80.3,114.7,81.9,114.7,83.6z"/>
				</g>
			</g>
		</g>
		<g>
			<g transform="translate(246.69652, 261.871007)">
				<g>
					<path class="st2" d="M162.3,84.3c0,1.4-0.5,2.2-1.5,2.5c-1,0.3-1.9,0.4-2.7,0.4c-1.1,0-2,0-2.9-0.1c-0.8-0.1-1.8-0.1-3-0.1
						c-1.7-0.1-3.3-0.1-4.6,0.1c-1.3,0.1-2.8,0.2-4.5,0.2c-1.3,0-2.2-0.7-2.6-2c-0.4-1.3-1-2.9-1.6-4.6c-0.6-1.4-1.1-2.6-1.7-3.7
						c-0.6-1.1-1.1-2.3-1.7-3.7c-0.6-1.4-1-2.6-1.4-3.7c-0.3-1.1-0.8-2.3-1.3-3.6c-0.4-1.1-0.9-2-1.4-2.8c-0.5-0.8-0.9-1.8-1.3-2.8
						c-0.4-1-0.7-1.9-1-2.6c-0.2-0.8-0.6-1.7-1-2.8c-0.3-1.1-0.8-2.4-1.3-3.8c-0.5-1.4-0.9-2-1.1-2c-0.3,0-0.5,0.4-0.5,1.1
						c0,0.8,0.1,1.5,0.2,2.1c0.1,0.6,0.2,1.3,0.3,2.1c0.3,2.7,0.5,5.5,0.5,8.4c0,2-0.1,3.8-0.2,5.4c-0.2,1.5-0.2,3.3-0.1,5.4
						c0,1.9,0.1,3.6,0.3,5.1c0.2,1.5,0.3,3.2,0.3,5.1c0,1.5-0.4,2.5-1.2,2.9c-0.8,0.4-1.8,0.6-3.1,0.6c-1.5,0-2.9,0-4.2-0.1
						c-1.2-0.1-2.6-0.1-4.3-0.1c-1.1,0-2,0.1-2.9,0.2c-0.9,0.1-1.9,0.2-3.1,0.2c-1.2,0-2.1-0.3-2.5-1c-0.4-0.7-0.7-1.4-0.7-2.1
						c0-0.7-0.1-1.1-0.1-1.2c0-2.6,0.1-4.9,0.4-7c0.3-2.1,0.4-4.4,0.3-6.9c0-0.8,0-1.5-0.1-2.1c0-0.6-0.1-1.2-0.1-2
						c0-1.7,0-3.2-0.1-4.6c0-1.3-0.1-2.8-0.1-4.5c0-1.5,0-2.8,0-4c0-1.2,0-2.5,0.1-4c0.1-1.1,0.2-2.2,0.2-3.1c0.1-0.9,0.1-2,0.1-3.1
						c0-1.2-0.1-2.2-0.2-3.1C105,38,105,37,105,36v-6.4c0-2.3,0-4.3,0.1-6.1c0-1.8,0.1-3.8,0.2-6.1c0.1-2.4,0-4.5-0.1-6.4
						c-0.2-1.9-0.2-4-0.2-6.4c0-0.3,0.1-0.9,0.4-1.8c0.2-0.9,1.1-1.5,2.5-1.7h0.6c0.5,0,0.9,0,1.3,0.1c0.4,0.1,0.9,0.1,1.5,0.1
						c0.8,0.1,1.5,0.1,2.2,0.1c0.7,0,1.4,0,2.2,0c1.3,0,2.5-0.1,3.5-0.2c1.1-0.1,2.3-0.2,3.6-0.2c0.7,0,1.2,0.1,1.5,0.3
						c0.4,0.2,0.7,0.5,1,0.8c0.6,0.4,1.2,1.5,2,3.2c0.7,1.7,1.4,3.4,2.1,5.1c0.7,1.7,1.1,2.7,1.3,3.2c0.4,0.8,0.8,1.6,1,2.2
						c0.3,0.7,0.6,1.4,0.9,2.3c0.3,0.6,0.6,1.1,0.9,1.6c0.3,0.5,0.6,1.1,0.8,1.7c0.2,0.6,0.4,1.1,0.6,1.7c0.2,0.6,0.4,1.2,0.7,1.8
						c0.2,0.5,0.4,0.9,0.6,1.3c0.2,0.4,0.5,0.8,0.6,1.3c0.4,0.8,0.7,1.5,0.9,2.2c0.2,0.7,0.5,1.4,0.8,2.3c0.4,1.1,0.8,2.5,1.3,4
						c0.5,1.5,0.9,2.2,1.2,2.1c0.3-0.1,0.5-0.7,0.5-1.7c0-1.1,0.1-2,0.1-2.8c0-0.9-0.1-1.7-0.2-2.5c-0.1-0.8-0.2-1.7-0.2-2.6
						c0-0.9,0-1.7,0.1-2.5c0.1-0.8,0.1-1.7,0.1-2.6c0-2.6-0.1-5-0.3-7.1c-0.2-2.2-0.3-4.6-0.3-7.3c0-0.5,0-1.4,0.1-2.9
						c0-1.4,0.2-2.4,0.5-3c0.2-0.3,0.5-0.6,0.7-0.7c0.2-0.2,0.4-0.3,0.6-0.4c0.2-0.2,0.6-0.3,1.2-0.6c0.6-0.2,1.2-0.4,2-0.4
						c0.9,0,1.7,0,2.4,0.1c0.7,0.1,1.4,0.1,2.3,0.1h4.6c0.7,0,1.4,0,2-0.1c0.6,0,1.2-0.1,2-0.1c2.2,0,3.3,1.1,3.3,3.4
						c0,1.8-0.1,3.4-0.2,5c-0.2,1.5-0.2,3.2-0.2,5.1c0,2.7,0,5.1,0.1,7.2c0.1,2.1,0.1,4.5,0.1,7.2c0,2.9-0.1,5.5-0.2,7.8
						c-0.1,2.3-0.2,4.9-0.2,7.8c0,2.8,0.1,5.4,0.2,7.7c0.2,2.3,0.2,4.8,0.2,7.7c0,2.5-0.1,4.9-0.2,7c-0.2,2.1-0.2,4.5-0.2,7.1
						c0,1.3,0,2.5,0,3.6c0,1.1,0.1,2.2,0.2,3.5c0,0.6,0.1,1.1,0.2,1.5C162.3,83.2,162.3,83.7,162.3,84.3z"/>
				</g>
			</g>
		</g>
		<path class="st2" d="M206.8,339.6c-0.4-2-0.9-4.3-1.4-7c-0.5-2.7-1-5.2-1.4-7.7c-0.3-2.5-0.6-4.8-0.7-6.8c-0.1-2-0.4-4.3-0.8-6.8
			c-0.2-1.9-0.5-3.6-0.9-5.2c-0.3-1.6-0.7-3.3-1.1-5.2c-0.5-2.4-0.9-4.5-1.3-6.4c-0.4-1.9-0.7-4.1-1.1-6.4c-0.3-2-0.6-3.7-0.7-5.3
			c-0.2-1.6-0.4-3.4-0.7-5.3c0,0-0.1-0.6-0.3-1.8c-0.2-1.2-0.5-2.5-0.8-4c-0.3-1.5-0.6-2.8-0.8-4c-0.2-1.2-0.3-1.8-0.3-1.8
			c-0.1-0.2-0.2-0.4-0.2-0.8c-0.1-0.4-0.2-0.6-0.4-0.7c-0.6-1.1-1.2-1.8-1.9-2.1c-0.7-0.3-1.8-0.5-3.5-0.5H188c-1.6,0-3.1,0-4.7,0.1
			c-1.5,0-3.1,0.1-4.6,0.1c-2,0-3.9-0.1-5.6-0.2c-1.7-0.2-3.6-0.2-5.7-0.2c-2.4,0-4.2,0.4-5.4,1.3c-0.6,0.6-1.1,1.6-1.5,2.9
			c-0.4,1.4-0.9,2.9-1.3,4.5c-0.6,2.5-1,4.8-1.2,6.9c-0.2,2-0.6,4.3-1,7c-0.3,1.6-0.6,3.2-1,4.5c-0.3,1.4-0.6,2.9-1,4.5
			c-0.2,1.5-0.4,2.8-0.5,4c-0.1,1.2-0.3,2.5-0.4,3.8c-0.2,2-0.5,3.8-0.9,5.4c-0.3,1.5-0.6,3.3-1,5.4c-0.3,2-0.6,3.9-0.7,5.5
			c-0.2,1.6-0.5,3.4-0.9,5.4c-0.2,1.4-0.5,2.7-0.8,3.8c-0.2,1.1-0.5,2.4-0.7,3.8c-0.3,1.5-0.5,2.9-0.7,4.2c-0.1,1.2-0.3,2.6-0.5,4.3
			c-0.2,1.3-0.5,2.5-0.7,3.6c-0.2,1.1-0.3,1.8-0.3,2.3c0,1.6,0.5,2.6,1.5,3c1,0.4,2.1,0.5,3.1,0.5c1.2,0,2.4,0,3.7-0.1
			c1.2,0,2.4-0.1,3.7-0.1c1.1,0,2.2,0,3.1,0.1c0.9,0,2,0.1,3.1,0.1c1,0,1.7-0.1,2.2-0.4c0.5-0.2,0.9-0.7,1.4-1.2
			c0.2-0.4,0.4-1.3,0.6-2.6c0.2-1.3,0.3-2.6,0.4-4c0.1-1.3,0.1-2.2,0.1-2.5c0.2-1.4,0.5-2.4,0.8-3c0.3-0.6,1.6-0.9,3.9-0.9
			c1.4,0,3,0,4.8,0.1c1.8,0,2.8,0.1,2.9,0.2c0.4,0.2,0.6,0.4,0.5,0.3c0,0,0.1,0.1,0.4,0.4c0.4,0.3,0.7,1.2,0.8,2.5
			c0.2,1.3,0.3,2.7,0.4,4c0.1,1.3,0.2,2.2,0.2,2.6c0.1,0.4,0.1,1,0.2,1.7c0,0.7,0.3,1.4,0.9,2c0.5,0.6,1.5,0.9,3,0.9
			c1.2,0,2.3,0,3.3-0.1c1-0.1,2.1-0.1,3.3-0.1c1.5,0,2.8,0.1,4,0.2c1.2,0.1,2.5,0.2,4,0.2c1.2,0,2.1-0.4,2.7-1.2
			c0.6-0.8,0.9-1.6,1.1-2.5c0.2-0.8,0.2-1.2,0.2-1.2C207.4,342.9,207.2,341.6,206.8,339.6z M182.9,301.9l1.1,8.1l-7.1-4l-7.3,3.6
			l1.6-8l-5.7-5.9l8.1-0.9l3.8-7.2l3.4,7.4l8,1.4L182.9,301.9z"/>
		<path class="st2" d="M123.5,329.3c-0.6-0.7-1.2-1-1.9-1.1c-0.7-0.1-1.3-0.2-1.8-0.2c-0.5,0-0.9,0-1.4,0.1c-0.4,0-0.8,0-1.3,0
			c-1.1,0.1-2,0.1-2.8,0.1c-0.8,0-1.7-0.1-2.8-0.1c-0.7,0-1.7-0.1-2.8-0.4c-1.1-0.2-2.1-0.9-2.9-1.9c-0.9-1-1.3-2.6-1.3-4.7
			c0-0.6,0-1.1,0.1-1.6c0-0.5,0.1-1.1,0.1-1.5c0-1.1,0-2.2-0.1-3.1c-0.1-0.9-0.1-1.9-0.1-3c0-1.8,0-3.4,0.1-4.8
			c0.1-1.4,0.1-3,0.1-4.8c0-1-0.1-2-0.2-3c-0.1-1-0.2-2-0.2-3c0-1.3,0-2.6,0.1-3.8c0.1-1.2,0.1-2.4,0.1-3.7c0.1-1.6,0.1-3.1-0.1-4.5
			c-0.1-1.3-0.2-2.8-0.2-4.5s0-3.1,0.1-4.5c0.1-1.4,0.2-2.9,0.2-4.6c0.1-0.5,0.1-0.9,0.2-1.4L82.9,275c0,0.8,0,1.7,0,2.6
			c0,1.5,0,2.8-0.1,4c-0.1,1.2-0.2,2.6-0.2,4.1c0,1.5,0,2.9,0.1,4.2c0.1,1.2,0.1,2.6,0.1,4.1c0,1,0,2-0.1,3c-0.1,1-0.1,1.9-0.1,2.9
			c0,1.5,0,2.8,0.1,4c0.1,1.2,0.1,2.6,0.1,4.1c0,1.9-0.1,3.6-0.2,5.1c-0.2,1.5-0.2,3.3-0.2,5.2c0,2.4,0.1,4.6,0.2,6.6
			c0.1,2,0.2,4.2,0.2,6.6c0,2.3-0.1,4.3-0.2,6.1c-0.1,1.8-0.2,3.8-0.2,6.1v1c0,0.8,0.2,1.8,0.7,3c0.4,1.2,1.8,1.8,4,1.8
			c1.4,0,2.6,0,3.7-0.1c1.1-0.1,2.2-0.1,3.5-0.1h9.2c1,0,1.8,0,2.6,0.1c0.8,0,1.7,0.1,2.8,0.1c1.1,0,2,0,2.8-0.1
			c0.8,0,1.8-0.1,2.8-0.1c1.1,0,2.2,0,3.1,0.1c0.9,0.1,1.9,0.1,3.1,0.1c1.6,0,2.7-0.3,3.2-1c0.5-0.7,0.8-1.5,0.8-2.3
			c0-0.9,0-1.5,0-1.9V344c0-0.9,0-1.7,0.1-2.5c0.1-0.7,0.1-1.5,0.1-2.3c0-0.6,0-1.5,0-2.9c0-1.4-0.1-2.8-0.2-4.2
			C124.3,330.7,124,329.8,123.5,329.3z"/>
	</g>
	<g>
		<g>
			<g transform="translate(62.068865, 195.428199)">
				<g>
					<path class="st2" d="M51.8,30.4L52.5,58l-8.1,1.8L44,47.3l-5.3,11.4l-3.9,0.9l-6.2-8.6l0.3,12.4l-8.1,1.8l-0.6-27.6l7.2-1.6
						l8.9,12.8l7.9-16.5L51.8,30.4z"/>
				</g>
			</g>
		</g>
		<g>
			<g transform="translate(89.084076, 189.359271)">
				<g>
					<path class="st2" d="M38,40.6l0.1,3.2l11.2-2.5l0.2,6.7l-11.2,2.5l0.1,3.6l13.2-3l0.2,7l-22,4.9l-0.6-27.6l21.5-4.8l0.1,7
						L38,40.6z"/>
				</g>
			</g>
		</g>
		<g>
			<g transform="translate(108.14197, 185.077942)">
				<g>
					<path class="st2" d="M60.3,37.6c0.5,2.3,0.4,4.5-0.5,6.6c-0.8,2-2.3,3.7-4.4,5.1l6.1,6.7l-9.2,2.1l-5.2-5.8l-2.2,0.5l0.2,6.9
						l-8.9,2l-0.6-27.6l11.8-2.7c3.5-0.8,6.4-0.6,8.6,0.5C58.2,33,59.7,34.9,60.3,37.6z M51.4,40.5c-0.4-1.8-1.7-2.4-3.9-1.9l-3,0.7
						l0.1,6.5l3.7-0.8c1.2-0.3,2.1-0.8,2.7-1.6C51.6,42.6,51.7,41.6,51.4,40.5z"/>
				</g>
			</g>
		</g>
		<g>
			<g transform="translate(129.238747, 180.338581)">
				<g>
					<path class="st2" d="M53.8,58.4c-2.3,0.5-4.5,0.8-6.6,0.7c-2.1,0-3.9-0.3-5.4-0.8l2-7.3c3.2,1,6.4,1.1,9.5,0.4
						c1.1-0.2,2-0.6,2.5-1c0.6-0.4,0.8-0.9,0.7-1.3c-0.1-0.4-0.5-0.7-1.2-0.9c-0.7-0.1-1.7-0.2-3.1-0.2c-1.9-0.1-3.4-0.2-4.7-0.4
						c-1.3-0.2-2.4-0.7-3.5-1.5c-1.1-0.8-1.8-2-2.2-3.6c-0.4-2-0.3-3.8,0.4-5.6c0.7-1.8,2-3.3,3.8-4.5c1.8-1.3,4.1-2.2,6.9-2.8
						c2-0.4,3.8-0.7,5.6-0.6c1.8,0,3.4,0.2,4.8,0.7l-1.7,7.2c-1.2-0.4-2.5-0.7-3.8-0.7c-1.3,0-2.6,0.1-3.9,0.4
						c-1.2,0.3-2.2,0.7-2.8,1.2c-0.6,0.5-0.9,1-0.8,1.5c0.1,0.5,0.5,0.8,1.2,0.9c0.7,0.1,1.8,0.2,3.2,0.2c1.8,0,3.3,0.1,4.6,0.3
						c1.3,0.2,2.4,0.7,3.5,1.4c1.1,0.8,1.8,1.9,2.1,3.5c0.4,2,0.3,3.8-0.5,5.5c-0.8,1.7-2,3.2-3.9,4.5
						C58.8,56.8,56.5,57.8,53.8,58.4z"/>
				</g>
			</g>
		</g>
		<g>
			<g transform="translate(147.843555, 176.159038)">
				<g>
					<path class="st2" d="M57.6,36.2l0.1,3.2l11.2-2.5l0.2,6.7l-11.2,2.5l0.1,3.6l13.2-3l0.2,7l-22,4.9l-0.6-27.6l21.5-4.8l0.1,7
						L57.6,36.2z"/>
				</g>
			</g>
		</g>
		<g>
			<g transform="translate(166.901449, 171.877709)">
				<g>
					<path class="st2" d="M71.2,43.7l0.2,10l-8.9,2l-0.3-10.1L51.9,30.4l9-2l5.6,8.3l5.3-10.8l8.9-2L71.2,43.7z"/>
				</g>
			</g>
		</g>
		<g>
			<g transform="translate(187.00711, 167.361001)">
				<g>
					<path class="st2" d="M73,54.1c-2.3,0.5-4.5,0.8-6.6,0.7c-2.1,0-3.9-0.3-5.4-0.8l2-7.3c3.2,1,6.4,1.1,9.5,0.4
						c1.1-0.2,2-0.6,2.5-1c0.6-0.4,0.8-0.9,0.7-1.3c-0.1-0.4-0.5-0.7-1.2-0.9c-0.7-0.1-1.7-0.2-3.1-0.2c-1.9-0.1-3.4-0.2-4.7-0.4
						c-1.3-0.2-2.4-0.7-3.5-1.5c-1.1-0.8-1.8-2-2.2-3.6c-0.4-2-0.3-3.8,0.4-5.6c0.7-1.7,2-3.3,3.8-4.5c1.8-1.3,4.1-2.2,6.9-2.8
						c2-0.4,3.8-0.7,5.6-0.6c1.8,0,3.4,0.2,4.8,0.7l-1.7,7.2c-1.2-0.4-2.5-0.7-3.8-0.7c-1.3,0-2.6,0.1-3.9,0.4
						c-1.2,0.3-2.2,0.7-2.8,1.2c-0.6,0.5-0.9,1-0.8,1.5c0.1,0.5,0.5,0.8,1.2,0.9c0.7,0.1,1.8,0.2,3.2,0.2c1.8,0,3.3,0.1,4.6,0.3
						c1.3,0.2,2.4,0.7,3.5,1.4c1.1,0.8,1.8,1.9,2.1,3.5c0.4,2,0.3,3.8-0.5,5.5c-0.8,1.7-2,3.2-3.9,4.5C78,52.5,75.8,53.4,73,54.1z"
						/>
				</g>
			</g>
		</g>
		<g>
			<g transform="translate(205.611919, 163.181458)">
				<g>
					<path class="st2" d="M68,26.8l8.9-2l0.6,27.6l-8.9,2L68,26.8z"/>
				</g>
			</g>
		</g>
		<g>
			<g transform="translate(215.523163, 160.954911)">
				<g>
					<path class="st2" d="M71.3,26l11.9-2.7c2.8-0.6,5.3-0.7,7.5-0.2c2.2,0.4,4.1,1.4,5.5,2.8c1.5,1.4,2.5,3.3,3,5.6
						c0.7,3.1,0.6,5.9-0.3,8.5c-0.9,2.6-2.5,4.8-4.7,6.6c-2.2,1.8-4.9,3.1-8.1,3.8l-14.1,3.2L71.3,26z M84.8,43.5
						c2.3-0.5,3.9-1.6,4.8-3.4c1-1.7,1.2-3.7,0.7-6c-0.3-1.5-1.1-2.6-2.2-3.2c-1.1-0.6-2.6-0.7-4.4-0.4l-3.4,0.8l0.3,13.1L84.8,43.5
						z"/>
				</g>
			</g>
		</g>
		<g>
			<g transform="translate(238.913692, 155.700262)">
				<g>
					<path class="st2" d="M88,29.4l0.1,3.2l11.2-2.5l0.2,6.7l-11.2,2.5l0.1,3.6l13.2-3l0.2,7l-22,4.9l-0.6-27.6l21.5-4.8l0.1,7
						L88,29.4z"/>
				</g>
			</g>
		</g>
	</g>
	<g>
		<g transform="translate(63.640564, 153.287512)">
			<g>
				<path class="st2" d="M26.8,49.9l12.4-2.8l0.1,4.4L19.5,56l-0.1-3.5l10.4-12.9c1.3-1.7,2.2-3.1,2.6-4.1c0.4-1.1,0.5-2.1,0.3-3.1
					c-0.2-1.1-0.8-1.9-1.7-2.3c-0.9-0.4-2.1-0.5-3.7-0.1c-1.2,0.3-2.3,0.8-3.3,1.5c-1,0.8-1.8,1.7-2.4,2.8l-4-1.9
					c0.8-1.6,2.1-3,3.7-4.3c1.7-1.2,3.6-2.1,5.7-2.6c1.9-0.4,3.5-0.5,5-0.2c1.5,0.3,2.7,0.9,3.7,1.8c0.9,0.9,1.6,2,1.9,3.4
					c0.4,1.6,0.3,3.3-0.3,5c-0.6,1.6-1.8,3.6-3.6,5.9L26.8,49.9z"/>
			</g>
		</g>
	</g>
	<g>
		<g transform="translate(80.237706, 148.85967)">
			<g>
				<path class="st2" d="M37.4,53c-2.9,0.7-5.4,0.3-7.5-1.1c-2.1-1.4-3.5-3.6-4.2-6.8c-0.7-3.2-0.8-6.2-0.2-9.2
					c0.5-3,1.7-5.5,3.4-7.5c1.7-2.1,4-3.4,6.7-4c2.9-0.6,5.4-0.3,7.5,1.1c2.1,1.4,3.4,3.7,4.2,6.8c0.7,3.2,0.8,6.2,0.3,9.2
					c-0.5,3-1.7,5.5-3.4,7.5C42.3,51.1,40,52.4,37.4,53z M36.8,48.6c1.7-0.4,3-1.4,4-3c1-1.6,1.5-3.6,1.7-5.7
					c0.2-2.2,0.1-4.3-0.3-6.3c-0.4-1.9-1.2-3.2-2.2-4c-1.1-0.8-2.3-1-3.8-0.7c-1.7,0.4-3,1.4-4,3c-1,1.6-1.6,3.6-1.8,5.8
					c-0.2,2.2-0.1,4.3,0.4,6.2c0.4,1.9,1.2,3.3,2.3,4.1C34,48.7,35.3,48.9,36.8,48.6z"/>
			</g>
		</g>
	</g>
	<g>
		<g transform="translate(99.401417, 143.74711)">
			<g>
				<path class="st2" d="M39.2,48.6l12.4-2.8l0.1,4.4l-19.8,4.5l-0.1-3.5l10.4-12.9c1.3-1.7,2.2-3.1,2.6-4.1
					c0.4-1.1,0.5-2.1,0.3-3.1c-0.2-1.1-0.8-1.9-1.7-2.3c-0.9-0.4-2.1-0.5-3.7-0.1c-1.2,0.3-2.3,0.8-3.3,1.5c-1,0.8-1.8,1.7-2.4,2.8
					l-4-1.9c0.8-1.6,2.1-3,3.7-4.3c1.7-1.2,3.6-2.1,5.7-2.6c1.9-0.4,3.5-0.5,5-0.2c1.5,0.3,2.7,0.9,3.7,1.8c0.9,0.9,1.6,2,1.9,3.4
					c0.4,1.6,0.3,3.3-0.3,5c-0.6,1.6-1.8,3.6-3.6,5.9L39.2,48.6z"/>
			</g>
		</g>
	</g>
	<g>
		<g transform="translate(115.99856, 139.319268)">
			<g>
				<path class="st2" d="M61.8,42.2L57,43.3l0.1,6.4l-4.9,1.1l-0.1-6.4l-14.7,3.3l-0.1-3.6l12.6-21l5.5-1.2l-11.8,20l8.6-1.9
					l-0.1-5.7l4.6-1l0.2,5.7l4.8-1.1L61.8,42.2z"/>
			</g>
		</g>
	</g>
	<polygon class="st2" points="82.7,223 303.4,162.4 306.8,86.8 347.9,149.6 420.6,130.1 373.8,188.9 407.9,253.6 344.8,225.6 
		154.4,255.6 340.4,209.4 374.1,226.6 357.4,188.2 384.9,153.8 342.4,165.5 318.2,128.5 316.3,172.7 	"/>
</g>
</svg>
