<?xml version="1.0" encoding="utf-8"?>
<!-- Generator: Adobe Illustrator 27.8.0, SVG Export Plug-In . SVG Version: 6.00 Build 0)  -->
<svg version="1.1" id="Layer_1" xmlns="http://www.w3.org/2000/svg" xmlns:xlink="http://www.w3.org/1999/xlink" x="0px" y="0px"
	 viewBox="0 0 500 500" style="enable-background:new 0 0 500 500;" xml:space="preserve">
<style type="text/css">
	.st0{display:none;}
	.st1{display:inline;stroke:#000000;stroke-miterlimit:10;}
	.st2{display:inline;}
	.st3{fill:#FFDC6E;}
	.st4{fill:#DD3E00;}
	.st5{fill:#00AAE8;}
	.st6{fill:#FFFFFF;}
</style>
<g id="Layer_2_00000011008780053154752740000009714190023984586419_">
</g>
<g id="Layer_3_00000111899492719839367480000014359999223147839935_" class="st0">
	<rect x="-20" y="1" class="st1" width="520" height="520"/>
</g>
<g id="Layer_1_00000040561791601891384910000013257122422596955322_">
	<g id="Layer_3" class="st0">
		<rect x="-92.8" y="-100.5" class="st2" width="696" height="696"/>
	</g>
	<g>
		<g>
			<g transform="translate(61.594037, 298.312385)">
				<g>
					<path class="st3" d="M-18.3,116.9c0,0.8-0.1,1.5-0.3,2.2c-0.1,0.7-0.8,1-2.1,1c-0.3,0-0.6,0-0.8,0s-0.6,0-0.8,0h-1.8
						c-0.4,0-0.8,0-1.3,0s-0.8,0-1.3,0h-0.1c-0.8,0-1.3,0.1-1.5,0.6c-0.3,0.3-0.4,0.7-0.4,1.1v1.4c0,0.3,0,0.7,0,1c0,0.3,0,0.6,0,1
						c0,0.7,0.1,1.1,0.6,1.4c0.4,0.3,0.7,0.4,1.1,0.6c0.4,0,0.7,0,0.7,0c0.3,0,0.7,0,1,0c0.3,0,0.7,0,1,0c0.3,0,0.6,0,0.7,0
						c0.1,0,0.4,0,0.7,0c0.3,0,0.6,0,0.8-0.1c0.3,0,0.6,0,0.8,0c0.8,0,1.4,0.3,1.7,0.8c0.3,0.4,0.4,0.8,0.4,1.3s0,0.7,0,1
						s0,0.6,0,0.8v1.3c0,1.3,0,2.2,0,3.1s-0.3,1.5-0.6,1.9c-0.3,0.4-1.1,0.7-2.1,0.7c-0.7,0-1.3,0-1.8-0.1c-0.6-0.1-1.1-0.1-1.8-0.1
						c-0.8,0-1.4,0.1-1.8,0.6c-0.4,0.3-0.7,0.7-0.7,1.3c-0.1,0.4-0.1,0.8-0.1,1.1v2.6c0,0.8,0,1.5,0,2.1c0,0.6,0,1.3,0,2.1
						c0,0.3-0.1,0.7-0.1,1s0,0.6,0,1c0,0.6,0,1.1,0.1,1.4c0.1,0.4,0.1,0.8,0.1,1.4v0.1c0,0.3,0,0.6-0.1,1c-0.1,0.4-0.3,0.8-0.6,1.1
						c-0.3,0.3-0.8,0.6-1.7,0.6c-0.7,0-1.3,0-1.9,0c-0.6,0-1.3-0.1-1.9-0.1c-0.6,0-1.1,0-1.7,0.1c-0.4,0-1,0-1.7,0
						c-1.1,0-1.7-0.3-1.9-0.8c-0.3-0.6-0.4-1-0.4-1.4c0-1,0-1.9,0.1-2.8c0.1-0.8,0.1-1.7,0.1-2.8c0-1.9,0-3.5-0.1-4.9
						c-0.1-1.5-0.1-3.2,0-4.9c0-1.4,0-2.6,0.1-3.6c0.1-1.1,0.1-2.4,0.1-3.6c0-1.3,0-2.5-0.1-3.3c0-1.1-0.1-2.2-0.1-3.5
						c0-1.1,0-2.1,0-3.1s0-1.9,0-3.1c0-0.7,0-1.3,0-1.8c0-0.6,0-1.1,0-1.8c0-1.5,0.3-2.4,0.8-2.8c0.6-0.4,1.3-0.6,2.1-0.6h2.1
						c1.1,0,2.2,0,3.2,0c1,0,1.9-0.1,3.2-0.1c0.6,0,1.1,0,1.7,0.1c0.6,0,1.1,0,1.8,0c1,0,1.8,0,2.6,0s1.7,0,2.6,0
						c0.3,0,0.7,0.1,1.1,0.1c0.6,0.1,0.7,0.6,0.7,1.5c0,0.3,0,0.4,0,0.7c0,0.1,0,0.4,0,0.7v1.1c0,0.7,0,1.3,0,1.7
						C-18.3,115.7-18.3,116.4-18.3,116.9z"/>
				</g>
			</g>
		</g>
		<g>
			<g transform="translate(93.828917, 298.312385)">
				<g>
					<path class="st3" d="M11.6,146.1c0,0.6,0,1-0.1,1.4c0,0.4,0,0.8,0,1.4c0,0.6,0,1.1,0,1.5c0,0.4,0,1,0,1.5c0,0.4-0.1,1-0.4,1.5
						c-0.3,0.7-1,1-2.1,1c-0.4,0-0.8,0-1.3,0c-0.4,0-0.8,0-1.3,0H4.9c-0.8,0-1.5,0-2.1,0s-1.3,0-2.1,0c-0.4,0-0.8,0-1.3,0
						c-0.4,0-0.8,0-1.3,0h-7c-0.3,0-0.6,0-0.8,0.1c-0.3,0-0.6,0-0.8,0c-0.4,0-1-0.1-1.7-0.6c-0.7-0.3-1-1.1-1-2.2
						c0-0.8,0-1.7,0.1-2.4c0.1-0.7,0.1-1.4,0.1-2.2c0-0.8,0-1.4,0-2.1c0-0.6,0-1.3,0-2.1c0-0.6,0-1.1,0.1-1.5c0.1-0.4,0.1-1,0.1-1.5
						c0-0.6,0-1.1,0-1.5c0-0.4,0-1,0-1.5c0-1.1,0-2.1,0-2.9c0-0.8,0-1.8,0-2.9c0-1,0-1.9,0-2.9s0-1.9,0-2.8c0-1.4,0-2.5,0-3.5
						c0.1-1.1,0.1-2.2,0.1-3.5c0-1,0-1.8,0-2.5c0-0.7,0-1.5,0-2.5c0-1.9,0.1-3.2,0.6-3.8c0.4-0.7,1.3-1,2.8-1c0.8,0,1.7,0,2.4,0.1
						c0.7,0.1,1.4,0.1,2.2,0.1c0.4,0,0.8,0,1.3,0s0.8,0,1.3,0c1,0,1.9,0,2.8,0.1c0.8,0,1.8,0.1,2.8,0.1c0.4,0,0.8,0,1.3,0
						c0.4,0,0.7,0,1.3,0h1.3c0.3,0,0.7,0,1,0c0.3,0,0.7,0,1.1,0c1,0,1.5,0.3,1.8,0.8c0.3,0.6,0.3,1,0.3,1.4c0,0.6,0,1.1-0.1,1.7
						c0,0.6-0.1,1.1-0.1,1.7c0,0.6,0,1.3,0,2.1s-0.1,1.4-0.4,1.9c-0.3,0.6-1,0.8-2.1,0.8H8.1c-0.4,0-0.7,0-1.1,0c-0.3,0-0.7,0-1.1,0
						c-0.6,0-1,0-1.4-0.1c-0.4-0.1-0.8-0.1-1.4-0.1c-1.8,0-2.8,0.3-3.2,0.8c-0.3,0.6-0.6,1.4-0.6,2.5c0,2.2,0.7,3.3,2.2,3.3
						c0.3,0,0.7,0,1,0s0.6,0,1,0h0.1c0.4,0,0.8,0,1.3,0c0.4,0,0.8,0,1.3,0c0.4,0,0.7,0,1.1,0c0.3,0,0.7,0,1,0c1,0,1.5,0.1,1.9,0.6
						c0.3,0.3,0.6,0.7,0.6,1.1c0,0.4,0,0.8,0,1.1c0,0.6,0,1,0,1.4s0,0.8,0,1.4c0,0.4,0,1,0,1.3c0,0.4,0,0.8,0,1.3
						c0,0.8-0.1,1.4-0.6,1.8c-0.3,0.4-0.7,0.7-1.1,0.7c-0.4,0.1-0.7,0.1-1.1,0.1c-1,0-1.9,0-2.6-0.1c-0.8-0.1-1.7-0.1-2.6-0.1
						c-1.1,0-1.9,0.1-2.5,0.6c-0.4,0.4-0.7,0.8-0.7,1.4c0,0.6-0.1,1.1-0.1,1.5v0.8c0,0.1,0,0.6,0,1c0,0.4,0,0.8,0.1,1
						c0.4,1,1,1.4,1.5,1.4c0.6,0,1.4,0.1,2.6,0.1c0.6,0,1.1,0.1,1.5,0.1c0.4,0,1,0.1,1.5,0.1s1,0,1.4-0.1c0.4-0.1,0.8-0.1,1.4-0.1
						c0.3,0,0.8,0.1,1.4,0.4C11.2,144.5,11.6,145.2,11.6,146.1z"/>
				</g>
			</g>
		</g>
		<g>
			<g transform="translate(128.223755, 298.312385)">
				<g>
					<path class="st3" d="M40.3,141c0,2.8-0.3,4.9-0.8,6.5c-0.4,1.7-1.5,3.1-3.1,4.2c-0.7,0.6-1.4,1.1-2.2,1.4
						c-0.8,0.4-1.5,0.7-2.2,1c-0.7,0.1-1.4,0.3-2.5,0.4c-1,0.1-1.9,0.3-2.9,0.3s-1.8,0-2.5,0c-0.4,0-1,0-1.8,0s-1.7-0.1-2.6-0.3
						c-1-0.1-1.8-0.4-2.6-0.6c-0.8-0.3-1.4-0.6-1.7-1.1c-0.3-0.4-0.4-1-0.4-1.7s0-1.4,0-1.9c0-0.6,0-1.1,0-1.8c0-0.6,0-1.1,0-1.4
						c0-0.4,0-1,0-1.5c0-0.3,0-0.6,0.1-1.1c0-0.6,0.3-1,0.7-1.4c0.4-0.4,1-0.7,1.9-0.6c0.6,0,1,0.1,1.3,0.3c0.3,0.1,0.6,0.3,1,0.6
						c0.1,0,0.1,0.1,0.1,0.1l0.1,0.1c0.1,0.1,0.3,0.3,0.4,0.3c0.1,0.1,0.3,0.3,0.4,0.3c0.4,0.3,1,0.4,1.5,0.6
						c0.6,0.1,1.1,0.1,1.5,0.1c2.4,0,3.6-0.7,3.8-2.1c0.1-1-0.3-1.9-1.3-2.9c-0.8-0.8-1.8-1.7-2.6-2.5c-0.6-0.6-1.1-1.1-1.5-1.5
						s-1-1-1.5-1.5c-0.1-0.1-0.6-0.6-1.1-1c-0.6-0.6-1.1-1.1-1.7-1.7c-1.4-1.7-2.1-3.2-2.5-4.3c-0.3-1.4-0.4-2.9-0.4-4.3
						c0-4.7,1.1-8.2,3.5-10.3c2.4-2.1,5.8-3.2,10.4-3.2c1.4,0,2.8,0,4.2,0c1.4,0,2.5,0.3,3.5,0.7c1,0.4,1.4,1.1,1.4,2.1
						c0,0.7,0,1.3-0.1,1.8c0,0.6,0,1.3,0,1.9v0.3c0,0.4,0,0.8,0,1.3c0,0.3,0,0.7,0,1.3c0,0.3,0,0.6-0.1,1c-0.1,0.4-0.3,0.8-0.6,1.3
						c-0.3,0.4-0.8,0.6-1.7,0.6c-0.6,0-1.1-0.1-1.7-0.3c-0.6-0.1-1-0.3-1.1-0.3c-0.3-0.1-0.7-0.1-1.1-0.3s-1-0.1-1.5-0.1
						c-0.1,0-0.4,0-0.8,0.1c-0.4,0-0.8,0.3-1.3,0.6c-0.4,0.3-0.7,0.8-0.7,1.7c0,0.7,0.1,1.4,0.6,1.9c0.3,0.3,0.8,1.1,2.1,2.1
						c1.1,1.1,2.4,2.2,3.6,3.3c0.4,0.4,1,0.8,1.4,1.3s0.8,0.8,1.3,1.4c1.5,1.7,2.5,3.3,3.1,4.5C40.1,137.7,40.3,139.3,40.3,141z"/>
				</g>
			</g>
		</g>
		<g>
			<g transform="translate(161.921827, 298.312385)">
				<g>
					<path class="st3" d="M67.7,118.4c0,0.3-0.1,0.7-0.3,1.4c-0.1,0.6-0.7,1-1.7,1c-0.3,0-0.6,0-0.8,0c-0.3,0-0.6,0-0.8,0
						c-1,0-1.7,0.3-1.9,0.7c-0.3,0.6-0.6,1.4-0.6,2.6c0,1.1,0,2.1,0.1,2.9s0.1,1.8,0.1,2.9c0,1.4,0,2.5,0,3.5s0,2.2,0,3.3
						c0,1.3,0,2.2,0,3.2c0,1,0,2.1,0,3.2c0,0.7,0,1.4,0,2.1s0,1.4,0,2.1c0,0.6,0,1.1,0,1.5c0,0.4,0,1,0.1,1.5c0,0.3,0.1,0.7,0.1,1
						s0,0.6,0,1c0,0.7-0.1,1.1-0.6,1.5c-0.3,0.3-0.7,0.6-1.1,0.6c-0.4-0.3-0.7-0.3-0.8-0.3c-0.4,0-0.7,0-1.1,0
						c-0.3,0-0.7-0.1-1.1-0.1c-0.6,0-1.1,0-1.4,0c-0.4,0-0.8,0-1.4,0c-0.4,0-0.8,0-1.3,0c-0.4,0-0.8,0-1.3,0c-0.7,0-1.3-0.1-1.7-0.6
						c-0.6-0.3-0.8-1-0.8-2.1c0-1.1,0-2.1,0.1-2.8c0.1-0.8,0.1-1.8,0.1-2.8s0-1.9-0.1-2.8c0-0.8-0.1-1.7-0.1-2.8s0-2.2,0.1-3.2
						c0.1-1,0.1-1.9,0.1-3.2c0-0.8,0-1.7-0.1-2.2c0-0.7-0.1-1.4-0.1-2.2c0-1.4,0-2.5,0.1-3.6c0.1-1.1,0.1-2.1,0.1-3.1
						c0-0.8-0.3-1.5-0.8-2.1c-0.1-0.1-0.3-0.3-0.4-0.3s-0.1,0-0.1-0.1c-0.3-0.1-0.4-0.1-0.8-0.1c-0.3,0-0.6,0-0.8,0
						c-0.3,0-0.4,0-0.7,0s-0.4,0-0.7,0c-0.8,0-1.4-0.3-1.7-0.7c-0.3-0.4-0.4-0.8-0.4-1.3c0-0.8,0-1.5,0-2.2s0-1.4,0-2.2
						c0-0.6,0-1.1,0-1.5c0-0.4,0-1,0-1.5c0-0.8,0.1-1.4,0.6-1.7c0.3-0.3,1-0.6,1.8-0.6c0.7,0,1.4,0,1.9,0c0.6,0,1.3,0,1.9,0
						c1.1,0,2.2,0,3.3-0.1c1.1-0.1,2.2-0.1,3.3-0.1H57c1,0,1.7,0,2.5,0.1c0.7,0,1.5,0,2.5,0c0.6,0,1.1,0,1.5,0c0.4,0,1-0.1,1.5-0.1
						c1.3,0,1.9,0.4,2.2,1.1c0.3,0.7,0.3,1.5,0.3,2.4c0,0.7,0,1.3,0,1.7c0,0.4,0,1,0,1.7c0,0.4,0,0.8,0,1.1
						C67.6,117.6,67.7,118,67.7,118.4z"/>
				</g>
			</g>
		</g>
		<g>
			<g transform="translate(194.888309, 298.312385)">
				<g>
					<path class="st3" d="M84.9,152.1c0,0.4-0.1,0.8-0.3,1.3c-0.1,0.4-0.8,0.7-1.7,0.7c-0.4,0-1,0-1.4,0s-0.8-0.1-1.4-0.1
						c-0.8,0-1.5,0-2.2,0.1c-0.6,0-1.3,0.1-2.1,0.1c-1.1,0-1.8-0.1-2.2-0.4c-0.4-0.3-0.7-0.7-0.7-1.1c0-0.4-0.1-1-0.1-1.5v-2.6
						c0-0.7,0-1.4,0.1-2.1s0.1-1.3,0.1-2.1v-2.6c0-1.7,0-3.1-0.1-4.3c0-1.3-0.1-2.8-0.1-4.2v-7.9c0-1.3,0-2.5,0.1-3.3
						c0.1-1,0.1-2.2,0.1-3.3v-4.3c0-0.6,0-1.1-0.1-1.5c0-0.4-0.1-1-0.1-1.5c0-1.1,0.3-1.7,0.8-1.9c0.6-0.1,1.3-0.3,2.1-0.3
						c0.7,0,1.4,0,2.1,0c0.6,0,1.3,0,2.1,0c0.6,0,1.1,0,1.7,0c0.6,0,1.1-0.1,1.8-0.1s1.1,0.3,1.3,1c0.1,0.6,0.3,1.1,0.3,1.5
						c0,0.6,0,1,0,1.4c0,0.4-0.1,0.8-0.1,1.4c0,0.8,0,1.5,0,2.2c0,0.6,0,1.4,0,2.1v9.9c0,0.7,0,1.4,0,2.1c0,0.6,0,1.3,0,1.9v3.3
						c0,1.3,0,2.5,0.1,3.3c0.1,1,0.1,2.2,0.1,3.3c0,1,0,1.8-0.1,2.6c0,0.8-0.1,1.7-0.1,2.6s0,1.7,0.1,2.5
						C84.9,150.5,84.9,151.3,84.9,152.1z"/>
				</g>
			</g>
		</g>
		<g>
			<g transform="translate(222.768425, 298.312385)">
				<g>
					<path class="st3" d="M125.4,110.9c0,0.8-0.1,1.7-0.4,2.5c-0.3,0.8-0.4,1.7-0.7,2.5c-0.1,1-0.3,1.8-0.3,2.5
						c0,0.7-0.1,1.7-0.1,2.5c0,0.3-0.1,0.7-0.1,1s-0.1,0.6-0.1,0.8s0,0.6,0,0.8s0,0.4,0,0.8c-0.1,0.8-0.3,1.7-0.4,2.4
						c-0.1,0.7-0.4,1.5-0.6,2.4c-0.1,0.8-0.3,1.7-0.4,2.4c-0.1,0.7-0.1,1.5-0.3,2.4c-0.1,0.7-0.1,1.3-0.3,1.9
						c-0.1,0.6-0.3,1.3-0.4,1.9c-0.1,0.8-0.3,1.7-0.3,2.4s-0.1,1.5-0.4,2.4c-0.3,1-0.4,1.9-0.7,2.6c-0.3,0.8-0.4,1.7-0.7,2.8
						c-0.3,1.5-0.6,2.8-0.8,4c-0.1,1.3-0.6,2.1-1.1,2.6c-0.3,0.3-0.7,0.4-1.1,0.6c-0.4,0-0.8,0-1.3,0h-10.7c-0.4,0-0.8,0-1-0.1
						c-0.1-0.1-0.4-0.3-0.6-0.6c-0.1-0.1-0.4-0.7-0.6-1.5c-0.3-1-0.4-1.9-0.7-3.2s-0.6-2.5-0.7-3.6c-0.3-1.3-0.4-2.4-0.6-3.2
						c-0.1-1-0.3-1.4-0.3-1.7c-0.3-1.7-0.6-3.1-1-4.2c-0.3-1.3-0.6-2.6-0.7-4.2c0-0.4-0.1-0.8-0.1-1.1s-0.1-0.7-0.1-1.1
						c-0.3-1.1-0.4-2.2-0.7-3.1c-0.3-1-0.4-1.9-0.7-3.1c-0.1-1.3-0.3-2.4-0.4-3.3c-0.1-1-0.3-2.1-0.6-3.3c-0.1-1.1-0.3-1.8-0.4-2.4
						c-0.1-0.6-0.1-1-0.3-1.4c0-0.4-0.1-1-0.1-1.5c0-0.4,0.1-1,0.1-1.7c0.1-0.6,0.7-0.8,1.5-0.8c0.4,0,1,0,1.4,0c0.4,0,0.8,0,1.4,0
						c1.1,0,2.1,0,2.9,0s1.8,0,2.9,0c0.8,0,1.3,0.1,1.5,0.6s0.4,1,0.4,1.7s0,1.5,0.1,2.5c0.1,1.3,0.3,2.2,0.4,3.2
						c0.1,1,0.3,2.1,0.4,3.3c0.1,1,0.1,1.8,0.1,2.5c0,0.7,0,1.5,0.1,2.5c0.1,1,0.3,1.9,0.3,2.8c0.1,0.8,0.3,1.7,0.4,2.8
						c0.1,0.7,0.1,1.4,0.1,1.9c0,0.6,0.1,1.3,0.1,1.9c0,0,0,0.3,0.1,0.8c0,0.6,0.1,1.1,0.3,1.7c0.1,0.6,0.3,0.8,0.6,0.8
						c0.3,0,0.4-0.4,0.6-1.3c0.1-0.8,0.1-1.7,0.3-2.8s0.1-1.9,0.3-2.8c0.1-1,0.3-1.7,0.4-2.4c0.1-0.7,0.3-1.5,0.4-2.4
						c0.1-1.3,0.1-2.4,0.1-3.3c0-1,0-2.2,0.1-3.3s0.3-2.1,0.4-2.9c0.1-0.8,0.3-1.8,0.4-2.9c0.1-0.7,0.1-1.5,0.1-2.2
						c0.1-0.8,0.1-1.3,0.1-1.4c0.1-0.3,0.3-0.6,0.6-0.8c0.1-0.3,0.6-0.4,1.1-0.4c0.8,0,1.5,0,2.1,0.1c0.7,0,1.4,0.1,2.1,0.1
						c0.6,0,1.1,0,1.5,0c0.4,0,1,0,1.5,0c0.3,0,0.7,0,1,0c0.3,0,0.6,0,0.8,0c0.7,0,1.3,0.1,1.4,0.6
						C125.4,110.4,125.4,110.7,125.4,110.9z"/>
				</g>
			</g>
		</g>
		<g>
			<g transform="translate(258.626478, 298.312385)">
				<g>
					<path class="st3" d="M157,151.7c0,0,0,0.3-0.1,0.7c-0.1,0.4-0.3,0.8-0.6,1.3c-0.3,0.4-0.8,0.7-1.4,0.7c-0.8,0-1.5,0-2.1-0.1
						c-0.6-0.1-1.3-0.1-2.1-0.1c-0.7,0-1.3,0-1.7,0.1c-0.6,0-1.1,0-1.7,0c-0.8,0-1.3-0.1-1.5-0.4s-0.4-0.7-0.4-1.1
						c0-0.4,0-0.7-0.1-1c0-0.3,0-0.7-0.1-1.4c0-0.7-0.1-1.4-0.3-2.1c-0.1-0.7-0.3-1.1-0.4-1.4c-0.1-0.1-0.3-0.3-0.3-0.3s0,0-0.3-0.1
						c0,0-0.6,0-1.5-0.1c-1,0-1.8,0-2.5,0c-1.3,0-1.9,0.1-2.1,0.6c-0.1,0.3-0.3,0.8-0.4,1.5c0,0.1,0,0.6-0.1,1.4
						c0,0.7-0.1,1.4-0.1,2.1c-0.1,0.7-0.1,1.1-0.3,1.4c-0.3,0.3-0.4,0.6-0.7,0.7c-0.3,0.1-0.7,0.1-1.1,0.1c-0.6,0-1.1,0-1.7,0
						c-0.4,0-1,0-1.7,0s-1.3,0-1.9,0s-1.3,0-1.9,0c-0.6,0-1.1-0.1-1.7-0.3c-0.6-0.1-0.8-0.7-0.8-1.5c0-0.3,0-0.7,0.1-1.3
						c0.1-0.6,0.3-1.3,0.4-1.9c0.1-0.8,0.1-1.7,0.3-2.2c0.1-0.7,0.1-1.4,0.4-2.2c0.1-0.7,0.3-1.4,0.4-1.9c0.1-0.6,0.3-1.3,0.4-1.9
						c0.3-1.1,0.4-2.1,0.4-2.9c0.1-0.8,0.3-1.8,0.4-2.9c0.1-1.1,0.3-2.1,0.6-2.8c0.1-0.8,0.3-1.8,0.4-2.8c0.1-0.7,0.1-1.4,0.3-2.1
						c0-0.7,0.1-1.4,0.3-2.1c0.1-0.8,0.3-1.7,0.6-2.4c0.1-0.7,0.3-1.5,0.6-2.4c0.3-1.4,0.4-2.6,0.6-3.5c0.1-1.1,0.3-2.2,0.7-3.5
						c0.3-0.8,0.4-1.7,0.7-2.4c0.3-0.7,0.6-1.3,0.8-1.5c0.6-0.4,1.5-0.7,2.8-0.7c1.1,0,2.1,0,3.1,0.1c0.3,0,1.3,0,2.4,0
						c0.8,0,1.7,0,2.5,0c0.8,0,1.7,0,2.5,0h0.3c0.8,0,1.5,0.1,1.8,0.3c0.4,0.1,0.7,0.6,1,1.1c0.1,0,0.1,0.1,0.1,0.3s0.1,0.3,0.1,0.4
						c0,0,0,0.3,0.1,1c0.1,0.6,0.3,1.4,0.4,2.1c0.1,0.8,0.3,1.5,0.4,2.1s0.1,1,0.1,1c0.1,1.1,0.3,1.9,0.4,2.8s0.3,1.8,0.4,2.8
						c0.3,1.3,0.4,2.4,0.6,3.3c0.1,1,0.4,2.1,0.7,3.3c0.3,1,0.4,1.9,0.6,2.8c0.1,0.8,0.3,1.7,0.4,2.8c0.3,1.4,0.3,2.5,0.4,3.5
						c0,1.1,0.1,2.2,0.3,3.5c0.3,1.3,0.4,2.6,0.7,3.9c0.3,1.3,0.6,2.6,0.7,3.5C156.8,150.7,157,151.4,157,151.7z M143,133.6
						c0-1.1-0.1-2.4-0.3-3.3c-0.1-1.1-0.3-2.1-0.4-2.9s-0.3-1.4-0.3-1.8c0-0.6-0.1-1-0.1-1.5c0-0.6-0.1-0.8-0.3-1
						c-0.1-0.4-0.3-0.7-0.7-0.7c-0.3,0-0.4,0.3-0.6,0.7c0,0.1-0.1,0.3-0.1,0.7c-0.1,0.4-0.1,0.8-0.3,1.3c0,0.4-0.1,0.7-0.1,0.8
						c-0.1,0.4-0.1,0.7-0.3,1.1c-0.1,0.3-0.1,0.7-0.3,1.1c0,0.1,0,0.6-0.1,1.1c-0.1,0.6-0.1,1.3-0.3,1.9c-0.1,0.7-0.1,1.4-0.3,1.9
						s-0.1,1-0.1,1.1c0,1,0.1,1.7,0.6,1.8c0.4,0.3,0.8,0.3,1.4,0.3c0.4,0,1-0.1,1.5-0.3C142.8,135.3,143,134.7,143,133.6z"/>
				</g>
			</g>
		</g>
		<g>
			<g transform="translate(295.216129, 298.312385)">
				<g>
					<path class="st3" d="M180.6,148.9c0,0.4,0,0.8,0,1.3s0,0.8,0,1.3v0.1c0,0.3,0,0.6,0,1c0,0.4-0.1,0.8-0.4,1.3
						c-0.3,0.4-0.8,0.6-1.7,0.6c-0.6,0-1.1,0-1.7,0c-0.4,0-1,0-1.7,0c-0.6,0-1.1,0-1.5,0c-0.4,0-1,0-1.5,0c-0.6,0-1.1,0-1.5,0
						s-0.8,0-1.4,0h-4.9c-0.7,0-1.3,0-1.8,0c-0.6,0-1.3,0-1.9,0c-1.1,0-1.9-0.3-2.1-1c-0.3-0.7-0.3-1.1-0.3-1.5v-0.6
						c0-1.3,0-2.2,0.1-3.2c0.1-1,0.1-2.1,0.1-3.2c0-1.3,0-2.5-0.1-3.3c0-1.1-0.1-2.2-0.1-3.3c0-1,0-1.9,0.1-2.8
						c0.1-0.8,0.1-1.8,0.1-2.8c0-0.8,0-1.5-0.1-2.1c0-0.7,0-1.4,0-2.1c0-0.6,0-1,0-1.5s0.1-1.1,0.1-1.5c0-0.8,0-1.5-0.1-2.2
						c0-0.7,0-1.4,0-2.2s0.1-1.5,0.1-2.1c0-0.7,0-1.4,0-2.1c0-0.8,0-1.7,0-2.5c0-0.8,0-1.7,0-2.5v-0.3c0-0.3,0-0.6,0.1-1
						c0-0.4,0.3-0.8,0.6-1.3c0.3-0.3,0.8-0.6,1.7-0.6c0.6,0,1.1,0,1.5,0.1c0.4,0,1,0.1,1.7,0.1c0.6,0,1.3,0,1.8,0
						c0.6,0,1.1-0.1,1.7-0.1s1.3,0.1,1.8,0.3c0.7,0.1,1,0.7,1,1.7c0,0.4,0,0.8,0,1.1c0,0.3-0.1,0.7-0.1,1.1c0,1-0.1,1.7-0.1,2.5
						c0,0.7,0,1.5,0,2.4s0,1.7,0.1,2.4c0,0.7,0,1.5,0,2.4c0,0.7,0,1.3,0,1.9c0,0.7,0,1.3,0,1.9c0,0.6,0,1.1,0.1,1.5
						c0,0.6,0.1,1.1,0.1,1.5c0,1,0,1.8,0,2.5s0,1.7,0,2.5c0,0.6,0,1.1,0,1.5c0,0.4,0,1,0,1.7c0,0.3,0,0.6,0,0.8s0,0.6,0,0.8
						c0,1.1,0.3,1.9,0.7,2.5c0.4,0.6,1,0.8,1.5,1c0.6,0.1,1.1,0.1,1.4,0.1c0.6,0,1.1,0,1.4,0c0.4,0,1,0,1.5,0c0.3,0,0.4,0,0.7,0
						s0.4,0,0.7,0s0.6,0,1,0.1c0.3,0,0.7,0.3,1,0.6c0.3,0.3,0.4,0.7,0.6,1.5c0.1,0.7,0.1,1.5,0.1,2.2
						C180.6,148.2,180.6,148.5,180.6,148.9z"/>
				</g>
			</g>
		</g>
	</g>
	<g>
		<g transform="translate(157.329136, 261.871007)">
			<g>
				<path class="st4" d="M132.6,27.9c0,0.7-0.3,1.8-0.7,3.5s-1.9,2.5-4.6,2.5c-0.8,0-1.5,0-2.2-0.1c-0.7,0-1.5-0.1-2.4-0.1
					c-2.5,0-4.2,0.7-5.2,1.9s-1.4,3.6-1.4,7.1c0,2.8,0.1,5.4,0.3,7.7c0.1,2.2,0.3,4.9,0.3,7.8c0,3.5,0,6.7-0.1,9.3
					c-0.1,2.6-0.1,5.8-0.1,9.3c0,3.2,0,6,0.1,8.5s0.1,5.3,0.1,8.5c0,1.8,0,3.6-0.1,5.4c0,1.8-0.1,3.6-0.1,5.4c0,1.5,0,2.8,0.1,4
					c0,1.3,0.1,2.6,0.3,4.2c0.1,1,0.3,1.7,0.3,2.5c0.1,0.7,0.1,1.5,0.1,2.5c0,1.8-0.4,3.1-1.3,3.9c-0.8,0.8-1.8,1.3-2.8,1.5
					c-1,0.3-1.8,0.3-2.4,0.3c-1,0-1.9,0-2.8-0.1c-0.8,0-1.7-0.1-2.8-0.3c-1.5-0.1-2.8-0.1-3.9-0.1s-2.4,0-3.9,0
					c-1.1,0-2.2,0-3.2,0.1c-1,0.1-2.2,0.1-3.3,0.1c-1.8,0-3.2-0.4-4.3-1.4c-1.1-1-1.7-2.8-1.7-5.6c0-2.8,0.1-5.3,0.4-7.5
					c0.3-2.2,0.4-4.7,0.4-7.5c0-2.6-0.1-5-0.3-7.1c-0.1-2.2-0.3-4.6-0.3-7.1c0-3.1,0.1-5.8,0.4-8.4c0.3-2.5,0.4-5.3,0.4-8.4
					c0-2.2-0.1-4.3-0.3-6c-0.1-1.8-0.3-3.8-0.4-5.8c-0.1-3.5,0-6.8,0.3-9.7c0.3-3.1,0.4-5.7,0.3-8.1c-0.1-2.4-0.8-4.2-2.4-5.4
					c-0.3-0.4-0.7-0.7-1-0.8c-0.3-0.1-0.6-0.1-0.6-0.3c-0.6-0.3-1.3-0.6-2.1-0.6s-1.5-0.1-2.1-0.1c-0.7,0-1.4,0-1.9,0.1
					c-0.6,0-1.1,0.1-1.7,0.1c-2.2,0-3.8-0.6-4.6-1.8c-0.8-1.3-1.3-2.4-1.3-3.3c0-2.2,0-4,0.1-5.8c0.1-1.7,0.1-3.6,0.1-5.8
					c0-1.5,0-2.8-0.1-3.9s-0.1-2.5-0.1-3.9c0-2.1,0.4-3.6,1.4-4.5s2.5-1.3,4.6-1.3c1.9,0,3.8,0,5.3,0.1C81.2,3.7,83,3.7,85,3.7
					c2.9,0,5.8-0.1,8.8-0.3c3.3,0.3,6.3,0.1,9,0.1h1.9c2.4,0,4.6,0,6.4,0.1c1.9,0.1,4.2,0.1,6.7,0.1c1.5,0,2.9,0,4.2-0.1
					c1.3-0.1,2.5-0.1,4-0.1c3.3,0,5.2,1,5.7,2.9c0.6,1.9,0.8,4,0.8,6.4c0,1.7,0,3.2-0.1,4.5c0,1.3-0.1,2.8-0.1,4.3
					c0,1.1,0,2.2,0.1,3.1C132.6,25.7,132.6,26.8,132.6,27.9z"/>
			</g>
		</g>
	</g>
	<g>
		<g transform="translate(208.710611, 261.871007)">
			<g>
				<path class="st4" d="M148.7,118.5c0,1-0.3,2.2-0.8,3.5c-0.6,1.3-1.9,1.8-4.5,1.8c-1.3,0-2.4,0-3.5-0.1s-2.2-0.1-3.5-0.1
					c-2.2,0-4,0.1-5.7,0.3s-3.5,0.3-5.6,0.3c-2.8,0-4.7-0.4-5.8-1.1c-1.1-0.7-1.7-1.7-1.9-2.9c-0.1-1.3-0.3-2.5-0.3-3.9v-7
					c0-1.9,0.1-3.8,0.3-5.4c0.1-1.7,0.3-3.5,0.3-5.4v-7c0-4.3-0.1-8.2-0.3-11.7c-0.1-3.5-0.3-7.2-0.3-11.4V47.1c0-3.3,0.1-6.4,0.3-9
					c0.1-2.6,0.3-5.7,0.3-8.9V17.4c0-1.5-0.1-2.8-0.3-3.9s-0.3-2.5-0.3-3.9c0-2.8,0.8-4.5,2.4-5c1.7-0.6,3.3-0.7,5.3-0.7
					c1.9,0,3.8,0,5.3,0.1c1.7,0,3.5,0,5.4,0c1.5,0,3.1,0,4.5-0.1s2.9-0.1,4.6-0.1c1.8,0,2.9,0.8,3.3,2.4s0.7,2.9,0.7,3.9
					c0,1.4,0,2.5-0.1,3.6c-0.1,1.1-0.3,2.4-0.3,3.6c-0.1,2.2-0.1,4-0.1,5.7c0,1.7,0.1,3.6,0.1,5.7v26.4c0,1.9,0,3.8-0.1,5.3
					c-0.1,1.5-0.1,3.3-0.1,5.3v8.4c0,3.3,0.1,6.4,0.3,9c0.3,2.6,0.3,5.7,0.3,9c0,2.5-0.1,4.7-0.3,6.8c-0.1,2.1-0.3,4.3-0.3,6.8
					c0,2.4,0.1,4.5,0.3,6.4C148.5,113.9,148.7,116.1,148.7,118.5z"/>
			</g>
		</g>
	</g>
	<g>
		<g transform="translate(246.69652, 261.871007)">
			<g>
				<path class="st4" d="M229.8,119.5c0,1.9-0.7,3.1-2.1,3.5s-2.6,0.6-3.8,0.6c-1.5,0-2.8,0-4-0.1c-1.1-0.1-2.5-0.1-4.2-0.1
					c-2.4-0.1-4.6-0.1-6.4,0.1c-1.8,0.1-3.9,0.3-6.3,0.3c-1.8,0-3.1-1-3.6-2.8c-0.6-1.8-1.4-4-2.2-6.4c-0.8-1.9-1.5-3.6-2.4-5.2
					c-0.8-1.5-1.5-3.2-2.4-5.2c-0.8-1.9-1.4-3.6-1.9-5.2c-0.4-1.5-1.1-3.2-1.8-5c-0.6-1.5-1.3-2.8-1.9-3.9s-1.3-2.5-1.8-3.9
					c-0.6-1.4-1-2.6-1.4-3.6c-0.3-1.1-0.8-2.4-1.4-3.9c-0.4-1.5-1.1-3.3-1.8-5.3c-0.7-1.9-1.3-2.8-1.5-2.8c-0.4,0-0.7,0.6-0.7,1.5
					c0,1.1,0.1,2.1,0.3,2.9c0.1,0.8,0.3,1.8,0.4,2.9c0.4,3.8,0.7,7.7,0.7,11.7c0,2.8-0.1,5.3-0.3,7.5c-0.3,2.1-0.3,4.6-0.1,7.5
					c0,2.6,0.1,5,0.4,7.1c0.3,2.1,0.4,4.5,0.4,7.1c0,2.1-0.6,3.5-1.7,4c-1.1,0.6-2.5,0.8-4.3,0.8c-2.1,0-4,0-5.8-0.1
					c-1.7-0.1-3.6-0.1-6-0.1c-1.5,0-2.8,0.1-4,0.3c-1.3,0.1-2.6,0.3-4.3,0.3s-2.9-0.4-3.5-1.4s-1-1.9-1-2.9s-0.1-1.5-0.1-1.7
					c0-3.6,0.1-6.8,0.6-9.7c0.4-2.9,0.6-6.1,0.4-9.6c0-1.1,0-2.1-0.1-2.9c0-0.8-0.1-1.7-0.1-2.8c0-2.4,0-4.5-0.1-6.4
					c0-1.8-0.1-3.9-0.1-6.3c0-2.1,0-3.9,0-5.6s0-3.5,0.1-5.6c0.1-1.5,0.3-3.1,0.3-4.3c0.1-1.3,0.1-2.8,0.1-4.3
					c0-1.7-0.1-3.1-0.3-4.3c0.1-1.3,0.1-2.6,0.1-4v-8.9c0-3.2,0-6,0.1-8.5c0-2.5,0.1-5.3,0.3-8.5c0.1-3.3,0-6.3-0.1-8.9
					c-0.3-2.6-0.3-5.6-0.3-8.9c0-0.4,0.1-1.3,0.6-2.5c0.3-1.3,1.5-2.1,3.5-2.4h0.8c0.7,0,1.3,0,1.8,0.1c0.6,0.1,1.3,0.1,2.1,0.1
					c1.1,0.1,2.1,0.1,3.1,0.1s1.9,0,3.1,0c1.8,0,3.5-0.1,4.9-0.3c1.5-0.1,3.2-0.3,5-0.3c1,0,1.7,0.1,2.1,0.4c0.6,0.3,1,0.7,1.4,1.1
					c0.8,0.6,1.7,2.1,2.8,4.5c1,2.4,1.9,4.7,2.9,7.1s1.5,3.8,1.8,4.5c0.6,1.1,1.1,2.2,1.4,3.1c0.4,1,0.8,1.9,1.3,3.2
					c0.4,0.8,0.8,1.5,1.3,2.2c0.4,0.7,0.8,1.5,1.1,2.4c0.3,0.8,0.6,1.5,0.8,2.4c0.3,0.8,0.6,1.7,1,2.5c0.3,0.7,0.6,1.3,0.8,1.8
					c0.3,0.6,0.7,1.1,0.8,1.8c0.6,1.1,1,2.1,1.3,3.1c0.3,1,0.7,1.9,1.1,3.2c0.6,1.5,1.1,3.5,1.8,5.6c0.7,2.1,1.3,3.1,1.7,2.9
					c0.4-0.1,0.7-1,0.7-2.4c0-1.5,0.1-2.8,0.1-3.9c0-1.3-0.1-2.4-0.3-3.5c-0.1-1.1-0.3-2.4-0.3-3.6s0-2.4,0.1-3.5
					c0.1-1.1,0.1-2.4,0.1-3.6c0-3.6-0.1-7-0.4-9.9c-0.3-3.1-0.4-6.4-0.4-10.2c0-0.7,0-1.9,0.1-4c0-1.9,0.3-3.3,0.7-4.2
					c0.3-0.4,0.7-0.8,1-1c0.3-0.3,0.6-0.4,0.8-0.6c0.3-0.3,0.8-0.4,1.7-0.8c0.8-0.3,1.7-0.6,2.8-0.6c1.3,0,2.4,0,3.3,0.1
					s1.9,0.1,3.2,0.1h6.4c1,0,1.9,0,2.8-0.1c0.8,0,1.7-0.1,2.8-0.1c3.1,0,4.6,1.5,4.6,4.7c0,2.5-0.1,4.7-0.3,7
					c-0.3,2.1-0.3,4.5-0.3,7.1c0,3.8,0,7.1,0.1,10c0.1,2.9,0.1,6.3,0.1,10c0,4-0.1,7.7-0.3,10.9c-0.1,3.2-0.3,6.8-0.3,10.9
					c0,3.9,0.1,7.5,0.3,10.7c0.3,3.2,0.3,6.7,0.3,10.7c0,3.5-0.1,6.8-0.3,9.7c-0.3,2.9-0.3,6.3-0.3,9.9c0,1.8,0,3.5,0,5
					c0,1.5,0.1,3.1,0.3,4.9c0,0.8,0.1,1.5,0.3,2.1C229.8,117.9,229.8,118.6,229.8,119.5z"/>
			</g>
		</g>
	</g>
	<path class="st4" d="M196,373.5c-0.6-2.8-1.3-6-1.9-9.7s-1.4-7.2-1.9-10.7c-0.4-3.5-0.8-6.7-1-9.5c-0.1-2.8-0.6-6-1.1-9.5
		c-0.3-2.6-0.7-5-1.3-7.2c-0.4-2.2-1-4.6-1.5-7.2c-0.7-3.3-1.3-6.3-1.8-8.9c-0.6-2.6-1-5.7-1.5-8.9c-0.4-2.8-0.8-5.2-1-7.4
		c-0.3-2.2-0.6-4.7-1-7.4c0,0-0.1-0.8-0.4-2.5c-0.3-1.7-0.7-3.5-1.1-5.6c-0.4-2.1-0.8-3.9-1.1-5.6s-0.4-2.5-0.4-2.5
		c-0.1-0.3-0.3-0.6-0.3-1.1c-0.1-0.6-0.3-0.8-0.6-1c-0.8-1.5-1.7-2.5-2.6-2.9c-1-0.4-2.5-0.7-4.9-0.7h-0.7c-2.2,0-4.3,0-6.5,0.1
		c-2.1,0-4.3,0.1-6.4,0.1c-2.8,0-5.4-0.1-7.8-0.3c-2.4-0.3-5-0.3-7.9-0.3c-3.3,0-5.8,0.6-7.5,1.8c-0.8,0.8-1.5,2.2-2.1,4
		c-0.6,1.9-1.3,4-1.8,6.3c-0.8,3.5-1.4,6.7-1.7,9.6c-0.3,2.8-0.8,6-1.4,9.7c-0.4,2.2-0.8,4.5-1.4,6.3c-0.4,1.9-0.8,4-1.4,6.3
		c-0.3,2.1-0.6,3.9-0.7,5.6c-0.1,1.7-0.4,3.5-0.6,5.3c-0.3,2.8-0.7,5.3-1.3,7.5c-0.4,2.1-0.8,4.6-1.4,7.5c-0.4,2.8-0.8,5.4-1,7.7
		c-0.3,2.2-0.7,4.7-1.3,7.5c-0.3,1.9-0.7,3.8-1.1,5.3c-0.3,1.5-0.7,3.3-1,5.3c-0.4,2.1-0.7,4-1,5.8c-0.1,1.7-0.4,3.6-0.7,6
		c-0.3,1.8-0.7,3.5-1,5s-0.4,2.5-0.4,3.2c0,2.2,0.7,3.6,2.1,4.2c1.4,0.6,2.9,0.7,4.3,0.7c1.7,0,3.3,0,5.2-0.1c1.7,0,3.3-0.1,5.2-0.1
		c1.5,0,3.1,0,4.3,0.1c1.3,0,2.8,0.1,4.3,0.1c1.4,0,2.4-0.1,3.1-0.6c0.7-0.3,1.3-1,1.9-1.7c0.3-0.6,0.6-1.8,0.8-3.6
		c0.3-1.8,0.4-3.6,0.6-5.6c0.1-1.8,0.1-3.1,0.1-3.5c0.3-1.9,0.7-3.3,1.1-4.2c0.4-0.8,2.2-1.3,5.4-1.3c1.9,0,4.2,0,6.7,0.1
		c2.5,0,3.9,0.1,4,0.3c0.6,0.3,0.8,0.6,0.7,0.4c0,0,0.1,0.1,0.6,0.6c0.6,0.4,1,1.7,1.1,3.5c0.3,1.8,0.4,3.8,0.6,5.6
		c0.1,1.8,0.3,3.1,0.3,3.6c0.1,0.6,0.1,1.4,0.3,2.4c0,1,0.4,1.9,1.3,2.8c0.7,0.8,2.1,1.3,4.2,1.3c1.7,0,3.2,0,4.6-0.1
		s2.9-0.1,4.6-0.1c2.1,0,3.9,0.1,5.6,0.3c1.7,0.1,3.5,0.3,5.6,0.3c1.7,0,2.9-0.6,3.8-1.7c0.8-1.1,1.3-2.2,1.5-3.5
		c0.3-1.1,0.3-1.7,0.3-1.7C196.9,378,196.6,376.2,196,373.5z M162.8,321l1.5,11.3l-9.9-5.6l-10.2,5l2.2-11.1l-7.9-8.2l11.3-1.3
		l5.3-10l4.7,10.3l11.1,1.9L162.8,321z"/>
	<path class="st4" d="M78.8,357.3c-0.8-1-1.7-1.4-2.6-1.5c-1-0.1-1.8-0.3-2.5-0.3s-1.3,0-1.9,0.1c-0.6,0-1.1,0-1.8,0
		c-1.5,0.1-2.8,0.1-3.9,0.1c-1.1,0-2.4-0.1-3.9-0.1c-1,0-2.4-0.1-3.9-0.6c-1.5-0.3-2.9-1.3-4-2.6c-1.3-1.4-1.8-3.6-1.8-6.5
		c0-0.8,0-1.5,0.1-2.2c0-0.7,0.1-1.5,0.1-2.1c0-1.5,0-3.1-0.1-4.3c-0.1-1.3-0.1-2.6-0.1-4.2c0-2.5,0-4.7,0.1-6.7s0.1-4.2,0.1-6.7
		c0-1.4-0.1-2.8-0.3-4.2s-0.3-2.8-0.3-4.2c0-1.8,0-3.6,0.1-5.3c0.1-1.7,0.1-3.3,0.1-5.2c0.1-2.2,0.1-4.3-0.1-6.3
		c-0.1-1.8-0.3-3.9-0.3-6.3c0-2.4,0-4.3,0.1-6.3s0.3-4,0.3-6.4c0.1-0.7,0.1-4.7-0.1-5.2c-0.3-0.4-0.7,0-1.4,0.1
		c-0.7,0-9,1.4-9.7,1.9c-5.7,1.7-12,2.1-12.4,2.5c-0.4,0.4-5,1-5,1s-1.3,0-1.4,0.4s0,7.5,0,8.8c0,2.1,0,3.9-0.1,5.6
		c-0.1,1.7-0.3,3.6-0.3,5.7c0,2.1,0,4,0.1,5.8c0.1,1.7,0.1,3.6,0.1,5.7c0,1.4,0,2.8-0.1,4.2c-0.1,1.4-0.1,2.6-0.1,4
		c0,2.1,0,3.9,0.1,5.6c0.1,1.7,0.1,3.6,0.1,5.7c0,2.6-0.1,5-0.3,7.1c-0.3,2.1-0.3,4.6-0.3,7.2c0,3.3,0.1,6.4,0.3,9.2
		s0.3,5.8,0.3,9.2c0,3.2-0.1,6-0.3,8.5c-0.1,2.5-0.3,5.3-0.3,8.5v1.4c0,1.1,0.3,2.5,1,4.2c0.6,1.7,2.5,2.5,5.6,2.5
		c1.9,0,3.6,0,5.2-0.1c1.5-0.1,3.1-0.1,4.9-0.1H51c1.4,0,2.5,0,3.6,0.1c1.1,0,2.4,0.1,3.9,0.1c1.5,0,2.8,0,3.9-0.1
		c1.1,0,2.5-0.1,3.9-0.1c1.5,0,3.1,0,4.3,0.1c1.3,0.1,2.6,0.1,4.3,0.1c2.2,0,3.8-0.4,4.5-1.4c0.7-1,1.1-2.1,1.1-3.2
		c0-1.3,0-2.1,0-2.6v-0.4c0-1.3,0-2.4,0.1-3.5c0.1-1,0.1-2.1,0.1-3.2c0-0.8,0-2.1,0-4s-0.1-3.9-0.3-5.8
		C79.9,359.3,79.5,358,78.8,357.3z"/>
	<g>
		<g transform="translate(62.068865, 195.428199)">
			<g>
				<path class="st5" d="M3.6,18.4l1,38.8l-11.4,2.6l-0.4-18l-7.4,15.9L-20,59l-8.6-12l0.4,17.7l-11.4,2.6v-39l9.3-2.2L-17.9,44
					l11-23L3.6,18.4z"/>
			</g>
		</g>
	</g>
	<g>
		<g transform="translate(89.084076, 189.359271)">
			<g>
				<path class="st5" d="M-5,30.2l0.1,4.5l15.6-3.5l0.3,9.3L-4.6,44l0.1,5l18.4-4.2V55l-30.3,7l-0.8-39l29.9-6.7l0.1,9.7L-5,30.2z"
					/>
			</g>
		</g>
	</g>
	<g>
		<g transform="translate(108.14197, 185.077942)">
			<g>
				<path class="st5" d="M33.5,24.4c0.7,3.2,0.6,6.3-0.7,9.2c-1.1,2.8-3.2,5.2-6.1,7.1l8.5,9.3l-12.8,2.9l-7.2-8.1l-3.1,0.7l0.3,9.6
					L0,57.9l-0.8-38.4l16.4-3.8c4.9-1.1,8.9-0.8,12,0.7S32.7,20.6,33.5,24.4z M21.1,28.4c-0.6-2.5-2.4-3.3-5.4-2.6l-4.2,1l0.1,9
					l5.2-1.1c1.7-0.4,2.9-1.1,3.8-2.2C21.4,31.3,21.6,29.9,21.1,28.4z"/>
			</g>
		</g>
	</g>
	<g>
		<g transform="translate(129.238747, 180.338581)">
			<g>
				<path class="st5" d="M32.7,51.5c-3.2,0.7-6.3,1.1-9.2,1c-2.9,0-5.4-0.4-7.5-1.1l2.8-10.2c4.5,1.4,8.9,1.5,13.2,0.6
					c1.5-0.3,2.8-0.8,3.5-1.4c0.8-0.6,1.1-1.3,1-1.8c-0.1-0.6-0.7-1-1.7-1.3c-1-0.1-2.4-0.3-4.3-0.3c-2.6-0.1-4.7-0.3-6.5-0.6
					s-3.3-1-4.9-2.1c-1.5-1.1-2.5-2.8-3.1-5c-0.6-2.8-0.4-5.3,0.6-7.8s2.8-4.6,5.3-6.3c2.5-1.8,5.7-3.1,9.6-3.9
					c2.8-0.6,5.3-1,7.8-0.8c2.5,0,4.7,0.3,6.7,1l-2.4,10c-1.7-0.6-3.5-1-5.3-1c-1.8,0-3.6,0.1-5.4,0.6c-1.7,0.4-3.1,1-3.9,1.7
					c-0.8,0.7-1.3,1.4-1.1,2.1c0.1,0.7,0.7,1.1,1.7,1.3c1,0.1,2.5,0.3,4.5,0.3c2.5,0,4.6,0.1,6.4,0.4c1.8,0.3,3.3,1,4.9,1.9
					c1.5,1.1,2.5,2.6,2.9,4.9c0.6,2.8,0.4,5.3-0.7,7.7c-1.1,2.4-2.8,4.5-5.4,6.3C39.7,49.2,36.5,50.6,32.7,51.5z"/>
			</g>
		</g>
	</g>
	<g>
		<g transform="translate(147.843555, 176.159038)">
			<g>
				<path class="st5" d="M44.1,19.1l0.1,4.5L59.8,20l0.3,9.3l-15.6,3.5l0.1,5L63,33.7l0.3,9.7l-30.6,7l-0.8-38.8l29.9-6.8l0.1,10
					L44.1,19.1z"/>
			</g>
		</g>
	</g>
	<g>
		<g transform="translate(166.901449, 171.877709)">
			<g>
				<path class="st5" d="M71.7,27.7L72,41.6l-12.4,2.8l-0.4-14.1L44.7,8.9l12.4-2.8l8.1,12l7.7-15.6L85-0.3L71.7,27.7z"/>
			</g>
		</g>
	</g>
	<g>
		<g transform="translate(187.00711, 167.361001)">
			<g>
				<path class="st5" d="M82.1,39.8c-3.2,0.7-6.3,1.1-9.2,1c-2.9,0-5.4-0.4-7.5-1.1l2.8-10.2c4.5,1.4,8.9,1.5,13.2,0.6
					c1.5-0.3,2.8-0.8,3.5-1.4c0.8-0.6,1.1-1.3,1-1.8c-0.1-0.6-0.7-1-1.7-1.3c-1-0.1-2.4-0.3-4.3-0.3c-2.6-0.1-4.7-0.3-6.5-0.6
					c-1.8-0.3-3.3-1-4.9-2.1c-1.5-1.1-2.5-2.8-3.1-5c-0.6-2.8-0.4-5.3,0.6-7.8c1-2.4,2.8-4.6,5.3-6.3c2.5-1.8,5.7-3.1,9.6-3.9
					c2.8-0.6,5.3-1,7.8-0.8c2.5,0,4.7,0.3,6.7,1L93,9.9c-1.7-0.6-3.5-1-5.3-1s-3.6,0.1-5.4,0.6c-1.7,0.4-3.1,1-3.9,1.7
					c-0.8,0.7-1.3,1.4-1.1,2.1s0.7,1.1,1.7,1.3c1,0.1,2.5,0.3,4.5,0.3c2.5,0,4.6,0.1,6.4,0.4c1.8,0.3,3.3,1,4.9,1.9
					c1.5,1.1,2.5,2.6,2.9,4.9c0.6,2.8,0.4,5.3-0.7,7.7c-1.1,2.4-2.8,4.5-5.4,6.3C89.1,37.6,86,38.9,82.1,39.8z"/>
			</g>
		</g>
	</g>
	<g>
		<g transform="translate(205.611919, 163.181458)">
			<g>
				<path class="st5" d="M82.5,0.7L94.8-2l0.8,38.4l-12.4,2.8L82.5,0.7z"/>
			</g>
		</g>
	</g>
	<g>
		<g transform="translate(215.523163, 160.954911)">
			<g>
				<path class="st5" d="M90.9-1.2L107.5-5c3.9-0.8,7.4-1,10.4-0.3c3.1,0.6,5.7,1.9,7.7,3.9c2.1,1.9,3.5,4.6,4.2,7.8
					c1,4.3,0.8,8.2-0.4,11.8c-1.3,3.6-3.5,6.7-6.5,9.2s-6.8,4.3-11.3,5.3l-19.6,4.5L90.9-1.2z M109.7,23.1c3.2-0.7,5.4-2.2,6.7-4.7
					c1.4-2.4,1.7-5.2,1-8.4c-0.4-2.1-1.5-3.6-3.1-4.5c-1.5-0.8-3.6-1-6.1-0.6l-4.7,1.1l0.4,18.2L109.7,23.1z"/>
			</g>
		</g>
	</g>
	<g>
		<g transform="translate(238.913692, 155.700262)">
			<g>
				<path class="st5" d="M123.3,0.9l0.1,4.5l15.6-3.5l0.3,9.3l-15.6,3.5l0.1,5l18.4-4.2l0.3,9.7l-30.6,6.8l-0.8-38.4L141-13l0.1,9.7
					L123.3,0.9z"/>
			</g>
		</g>
	</g>
	<g>
		<g transform="translate(63.640564, 153.287512)">
			<g>
				<path class="st6" d="M-28.9,33.5l17.3-3.9l0.1,6.1L-39,42l-0.1-4.9l14.5-18c1.8-2.4,3.1-4.3,3.6-5.7c0.6-1.5,0.7-2.9,0.4-4.3
					c-0.3-1.5-1.1-2.6-2.4-3.2c-1.3-0.6-2.9-0.7-5.2-0.1c-1.7,0.4-3.2,1.1-4.6,2.1c-1.4,1.1-2.5,2.4-3.3,3.9l-5.6-2.6
					c1.1-2.2,2.9-4.2,5.2-6c2.4-1.7,5-2.9,7.9-3.6c2.6-0.6,4.9-0.7,7-0.3s3.8,1.3,5.2,2.5c1.3,1.3,2.2,2.8,2.6,4.7
					c0.6,2.2,0.4,4.6-0.4,7c-0.8,2.2-2.5,5-5,8.2L-28.9,33.5z"/>
			</g>
		</g>
	</g>
	<g>
		<g transform="translate(80.237706, 148.85967)">
			<g>
				<path class="st6" d="M-7.6,36.1c-4,1-7.5,0.4-10.4-1.5c-2.9-1.9-4.9-5-5.8-9.5c-1-4.5-1.1-8.6-0.3-12.8
					c0.7-4.2,2.4-7.7,4.7-10.4c2.4-2.9,5.6-4.7,9.3-5.6c4-0.8,7.5-0.4,10.4,1.5S5,2.9,6.2,7.2c1,4.5,1.1,8.6,0.4,12.8
					s-2.4,7.7-4.7,10.4C-0.8,33.4-4,35.2-7.6,36.1z M-8.5,29.9c2.4-0.6,4.2-1.9,5.6-4.2s2.1-5,2.4-7.9c0.3-3.1,0.1-6-0.4-8.8
					C-1.5,6.4-2.6,4.6-4,3.5c-1.5-1.1-3.2-1.4-5.3-1c-2.4,0.6-4.2,1.9-5.6,4.2s-2.2,5-2.5,8.1c-0.3,3.1-0.1,6,0.6,8.6
					c0.6,2.6,1.7,4.6,3.2,5.7C-12.4,30.1-10.5,30.4-8.5,29.9z"/>
			</g>
		</g>
	</g>
	<g>
		<g transform="translate(99.401417, 143.74711)">
			<g>
				<path class="st6" d="M2.4,27.9L19.7,24l0.1,6.1l-27.6,6.3l-0.1-4.9l14.5-18c1.8-2.4,3.1-4.3,3.6-5.7c0.6-1.5,0.7-2.9,0.4-4.3
					C10.3,2,9.5,0.9,8.2,0.4C7-0.2,5.3-0.3,3.1,0.2C1.4,0.6-0.1,1.3-1.5,2.3C-2.9,3.4-4,4.7-4.8,6.2l-5.6-2.6c1.1-2.2,2.9-4.2,5.2-6
					c2.4-1.7,5-2.9,7.9-3.6c2.6-0.6,4.9-0.7,7-0.3c2.1,0.4,3.8,1.3,5.2,2.5C16-2.6,17-1,17.4,0.9c0.6,2.2,0.4,4.6-0.4,7
					c-0.8,2.2-2.5,5-5,8.2L2.4,27.9z"/>
			</g>
		</g>
	</g>
	<g>
		<g transform="translate(115.99856, 139.319268)">
			<g>
				<path class="st6" d="M40.4,17.3l-6.7,1.5l0.1,8.9L27,29.3l-0.1-8.9L6.4,24.9l-0.1-5L23.8-9.3l7.7-1.7L15,16.9l12-2.6l-0.1-7.9
					l6.4-1.4l0.3,7.9l6.7-1.5L40.4,17.3z"/>
			</g>
		</g>
	</g>
	<polygon class="st6" points="22.3,214.6 329.5,125.5 334.3,20.3 391.5,107.7 492.7,80.6 427.5,162.4 475,252.5 377.8,211.8 
		98.2,255.3 381,191 431.7,213.6 404.7,161.4 443,113.6 383.8,129.9 350.1,78.3 347.5,139.9 	"/>
</g>
</svg>
