<?xml version="1.0" encoding="UTF-8"?>
<svg id="Layer_2" data-name="Layer 2" xmlns="http://www.w3.org/2000/svg" xmlns:xlink="http://www.w3.org/1999/xlink" viewBox="0 0 513 388.66">
  <defs>
    <style>
      .cls-1 {
        fill: #ffcb05;
      }

      .cls-2 {
        filter: url(#outer-glow-1);
      }

      .cls-3 {
        fill: #ed1c24;
      }

      .cls-4 {
        fill: #fff;
      }

      .cls-5 {
        fill: #6dcff6;
      }
    </style>
    <filter id="outer-glow-1" x="0" y="0" width="513" height="278" filterUnits="userSpaceOnUse">
      <feOffset dx="0" dy="0"/>
      <feGaussianBlur result="blur" stdDeviation="8"/>
      <feFlood flood-color="#fff" flood-opacity=".51"/>
      <feComposite in2="blur" operator="in"/>
      <feComposite in="SourceGraphic"/>
    </filter>
  </defs>
  <g id="Layer_28" data-name="Layer 28">
    <g id="Layer_40" data-name="Layer 40">
      <g id="LATIN">
        <path class="cls-3" d="M107.12,246.6c0,3.75.42,6.39.28,10.15,0,2.78-.28,5.56-.28,8.48,0,2.22.42,4.59.42,6.81,0,4.03-.28,6.95-.28,10.98,0,2.5.28,4.31.28,6.95,0,1.11-.14,2.36-.14,3.61,0,7.37,5.28,7.92,7.92,7.92,2.36,0,3.89.14,6.25,0,1.11,0,1.95-.14,3.06-.14,1.25,0,2.92.14,4.17,1.53,1.67,1.67,1.39,9.45,1.39,11.26,0,1.95-.28,3.34-.28,5.42v.28c0,1.53.83,5.98-4.59,5.98-2.64,0-4.45-.28-6.95-.28-2.36,0-4.03.14-6.39.14s-3.89-.14-6.12-.14h-10.43c-3.06,0-5.14.28-8.2.28-5,0-5.28-3.61-5.28-5.42v-1.11c0-5.14.42-8.76.42-13.9,0-5.56-.42-9.45-.42-15.01,0-4.45.56-7.51.56-11.82,0-3.47-.28-5.84-.28-9.17,0-2.22.28-4.45.28-6.67,0-3.48-.28-5.98-.28-9.45.14-3.48.42-5.84.42-9.17"/>
        <path class="cls-3" d="M275.04,252.26c-1.39,0-2.36-.14-3.75-.14-4.03,0-5.28,1.81-5.28,7.37,0,4.73.42,7.92.42,12.65,0,5.7-.28,9.59-.28,15.29,0,5.14.28,8.76.28,13.9,0,2.92-.14,5.84-.14,8.76,0,2.5,0,4.31.28,6.81.14,1.53.42,2.5.42,4.03,0,4.45-4.03,4.73-5.28,4.73-1.67,0-2.78-.14-4.45-.28-2.36-.14-3.89-.14-6.25-.14-1.95,0-3.48.28-5.42.28-2.92,0-4.87-.97-4.87-5.7s.69-7.65.69-12.23c0-4.31-.42-7.37-.42-11.68,0-5,.7-8.62.7-13.62,0-3.61-.42-6.12-.56-9.73-.28-8.62,2.08-15.71-1.39-18.91-.56-.69-1.11-.69-1.25-.83-.97-.56-2.64-.56-3.48-.56-1.11,0-1.95.14-2.92.14-3.75,0-4.73-2.5-4.73-4.17,0-3.48.28-5.98.28-9.45,0-2.36-.28-4.03-.28-6.39,0-3.48,1.39-4.73,4.87-4.73,3.2,0,5.42.28,8.62.28,4.73,0,9.45-.42,14.18-.42h1.53c3.89,0,6.67.28,10.7.28,2.5,0,4.17-.28,6.67-.28,5.42,0,5.42,4.03,5.42,7.65,0,2.78-.14,4.59-.14,7.23,0,1.95.14,3.2.14,5,0,1.11-.14,4.87-4.31,4.87Z"/>
        <path class="cls-3" d="M319.51,325.44c-2.08,0-3.61-.28-5.7-.28-3.47,0-5.84.42-9.17.42-6.95,0-6.53-3.06-6.53-6.39v-5.7c0-3.2.42-5.56.42-8.76v-5.7c0-7.09-.42-11.96-.42-18.91v-17.24c0-5.56.42-9.31.42-14.74v-9.59c0-2.36-.42-4.03-.42-6.39,0-4.59,3.06-4.73,6.26-4.73s5.56.14,8.76.14c2.64,0,4.59-.28,7.37-.28,2.92,0,3.34,3.48,3.34,5.14,0,2.22-.28,3.75-.42,5.98-.14,3.48,0,5.84,0,9.31v21.55c0,3.2-.28,5.42-.28,8.62v6.81c0,5.56.56,9.31.56,14.87,0,4.17-.42,7.09-.42,11.12s.56,6.53.56,10.43c0,1.67-.28,4.31-4.31,4.31Z"/>
        <path class="cls-3" d="M210.54,299.29c-.83-5.7-.83-9.73-1.67-15.43-.56-4.31-1.39-7.51-2.22-11.82-1.11-5.42-1.81-9.17-2.78-14.6-.7-4.45-.97-7.65-1.67-12.09,0-.14-2.5-12.93-2.5-13.07-.14-.28-.42-1.39-.7-1.67-1.39-2.36-2.5-2.92-6.12-2.92h-.56c-3.47,0-7.09.14-10.56.14-4.73,0-8.06-.56-12.79-.56-3.06,0-4.73.42-6.12,1.53-1.25,1.25-2.36,4.73-3.2,8.48-1.39,5.7-1.39,9.87-2.5,15.71-.69,3.75-1.53,6.53-2.22,10.29-.56,3.34-.7,5.7-1.11,8.9-.56,4.59-1.39,7.65-2.08,12.23-.83,4.59-.97,7.78-1.81,12.37-.56,3.2-1.11,5.42-1.67,8.62-.69,3.61-.83,5.98-1.39,9.59-.56,2.92-1.11,5.56-1.11,6.67,0,3.75,2.78,4.03,5.28,4.03,2.78,0,5.56-.14,8.34-.14s4.45.14,7.09.14c2.22,0,3.06-.56,4.03-1.81.83-1.25,1.11-9.17,1.25-10.29.56-3.06.14-4.45,5.42-4.45,3.2,0,8.48.14,8.76.28.83.56.42.14,1.11.83,1.25,1.25,1.53,9.04,1.67,10.29.28,1.39-.42,5.14,4.59,5.14,2.78,0,4.73-.28,7.51-.28,3.34,0,5.7.42,9.04.42,4.17,0,4.59-5.42,4.59-5.56,0-1.95-2.5-12.51-3.89-20.99ZM186.27,273.54l3.19,9.83-8.36-6.07-8.36,6.07,3.19-9.83-8.36-6.08h10.34l3.19-9.82,3.19,9.82h10.33l-8.36,6.08Z"/>
        <path class="cls-3" d="M82.79,253.63c0-3.61-.28-7.09-.28-10.56v-.56c0-1.5-.14-5.42,5.14-6.19,2.5-.45,4.31-.51,6.95-1.23,2.5-.68,5.01-1.66,7.51-2.14,2.5-.56,5.98-.69,5.98,3.39,0,1.81-.28,3.06-.42,4.73-.28,3.9-.42,6.68-.42,10.44"/>
      </g>
      <g>
        <path class="cls-1" d="M103.48,351.33c-.61,0-1.22-.07-1.84-.07h-1.9c-.95,0-1.63-.07-2.58-.07h-.14c-1.63,0-2.04.88-2.04,1.77v1.43c0,.75-.07,1.22-.07,1.97,0,2.24,2.24,2.11,2.58,2.11.75,0,1.36-.07,2.11,0,.54,0,.88.07,1.43.07.54-.07,1.09-.14,1.63-.14,1.84.07,2.18,1.43,2.18,2.11,0,.75-.14,1.22-.14,1.97v1.29c0,3.81.41,5.98-2.92,5.98-1.43,0-2.45-.27-3.88-.27-2.65,0-2.79,2.11-2.79,2.92v3.33c0,1.63.07,2.72.07,4.35-.07.75-.14,1.22-.14,1.97,0,1.16.27,1.9.27,2.99v.2c0,.68-.14,2.65-2.52,2.65-1.5,0-2.52-.14-4.08-.14-1.29,0-2.18.14-3.47.14-2.18,0-2.45-1.56-2.45-2.38,0-2.11.2-3.6.2-5.78.07-3.94-.2-6.66-.14-10.61,0-2.92.27-4.96.27-7.82s-.2-4.69-.2-7.48c0-2.38.14-4.08.14-6.53,0-1.36-.14-2.38-.14-3.74,0-3.06,1.43-3.6,3.13-3.6h2.24c2.45,0,4.22-.14,6.66-.14,1.29,0,2.24.14,3.6.14,1.97,0,3.4-.07,5.44-.07.54,0,1.97,0,1.97,1.77,0,.54-.07.88-.07,1.43v1.22c0,1.36.07,2.31.07,3.67,0,1.77.14,3.33-2.52,3.33Z"/>
        <path class="cls-1" d="M149.79,382.26c0,1.16.07,1.97.07,3.13,0,.82-.27,2.65-2.65,2.65-.95,0-1.63-.07-2.58-.07h-1.63c-1.63,0-2.79-.14-4.42-.14-.95,0-1.63.07-2.58.07h-7.28c-.68.07-1.16.14-1.83.14-.82,0-2.79-.48-2.79-2.86,0-1.77.2-3.06.2-4.83,0-1.63-.07-2.72-.07-4.35,0-1.16.2-2.04.2-3.2s-.14-1.97-.14-3.13c0-2.24.14-3.81.14-6.05,0-2.04-.14-4.01-.14-6.05-.07-2.79.14-4.76.14-7.55,0-1.97-.14-3.33-.14-5.24,0-3.94.48-5.1,3.54-5.1,1.77,0,3.06.27,4.83.27.82,0,1.7-.07,2.52-.07,2.18,0,3.74.2,5.92.2.95,0,1.63-.14,2.58-.14h1.36c.75,0,1.29-.07,2.11-.07,2.11,0,2.18,1.63,2.18,2.31,0,1.16-.2,2.31-.2,3.47,0,1.84.75,5.1-2.65,5.1h-.75c-.82,0-1.43.07-2.24.07-1.09,0-1.84-.2-2.99-.2-3.74,0-3.88,1.16-3.88,3.47s.82,3.54,2.38,3.54c.75,0,1.29-.14,2.04-.14h.14c1.02,0,1.7.14,2.65.14.82,0,1.43-.07,2.18-.07,2.79,0,2.65,1.9,2.65,2.86,0,1.09-.07,1.77-.07,2.86,0,1.02.07,1.7.07,2.72,0,2.65-1.97,2.79-2.86,2.79-2.11,0-3.54-.27-5.64-.27-3.74,0-3.47,2.24-3.47,3.67v.82c0,.34,0,1.63.14,2.04.95,1.9,1.9,1.43,4.42,1.63,1.22.14,2.04.27,3.26.27,1.09,0,1.84-.2,2.86-.2.68,0,2.52.34,2.58,2.52,0,1.09-.14,1.84-.14,2.99Z"/>
        <path class="cls-1" d="M190.25,385.33c-1.43,1.16-3.26,2.04-4.69,2.52-2.11.61-6.12.82-8.16.82-1.56,0-7.68-.27-9.11-2.11-.41-.54-.48-.82-.48-1.7,0-1.5.14-2.52.14-4.01,0-1.16-.14-1.9-.14-3.06,0-.68-.14-3.33,2.79-3.26,1.29.07,1.56.41,2.31.82.2.14.2.27.41.41.34.2.54.54.88.68.88.54,2.38.68,3.26.68,2.38,0,3.81-.68,3.94-2.24.2-2.18-2.31-4.01-4.01-5.58-1.16-1.16-1.97-2.04-3.2-3.26-.41-.34-1.77-1.5-2.92-2.86-2.79-3.47-2.99-5.98-2.99-9.45,0-10.2,4.76-14.41,14.55-14.41,4.49,0,9.45-.2,9.45,2.99,0,1.5-.14,2.52-.14,4.01v.27c0,.95.07,1.56.07,2.52,0,.68-.07,2.86-2.58,2.86-1.09,0-2.52-.54-2.79-.61-.68-.2-1.43-.41-2.79-.41-.41,0-2.99-.14-2.99,2.45,0,.68.14,1.29.61,2.04.48.75,3.33,3.33,5.98,5.85,1.02.95,1.84,1.63,2.79,2.72,3.26,3.67,3.94,6.05,3.94,9.79,0,5.98-.82,8.84-4.15,11.56Z"/>
        <path class="cls-1" d="M235.4,351.85c-.68,0-1.16-.07-1.83-.07-1.97,0-2.58.88-2.58,3.6,0,2.31.2,3.88.2,6.19,0,2.79-.14,4.69-.14,7.48,0,2.52.14,4.28.14,6.8,0,1.43-.07,2.86-.07,4.28,0,1.22,0,2.11.14,3.33.07.75.2,1.22.2,1.97,0,2.18-1.97,2.31-2.58,2.31-.82,0-1.36-.07-2.18-.14-1.16-.07-1.9-.07-3.06-.07-.95,0-1.7.14-2.65.14-1.43,0-2.38-.48-2.38-2.79s.34-3.74.34-5.98c0-2.11-.2-3.6-.2-5.71,0-2.45.34-4.22.34-6.66,0-1.77-.2-2.99-.27-4.76-.14-4.22,1.02-7.68-.68-9.25-.27-.34-.54-.34-.61-.41-.48-.27-1.29-.27-1.7-.27-.54,0-.95.07-1.43.07-1.84,0-2.31-1.22-2.31-2.04,0-1.7.14-2.92.14-4.62,0-1.16-.14-1.97-.14-3.13,0-1.7.68-2.31,2.38-2.31,1.56,0,2.65.14,4.22.14,2.31,0,4.62-.2,6.93-.2h.75c1.9,0,3.26.14,5.24.14,1.22,0,2.04-.14,3.26-.14,2.65,0,2.65,1.97,2.65,3.74,0,1.36-.07,2.24-.07,3.54,0,.95.07,1.56.07,2.45,0,.54-.07,2.38-2.11,2.38Z"/>
        <path class="cls-1" d="M266.41,387.84c-1.02,0-1.77-.14-2.79-.14-1.7,0-2.86.2-4.49.2-3.4,0-3.2-1.5-3.2-3.13v-2.79c0-1.56.2-2.72.2-4.28v-2.79c0-3.47-.2-5.85-.2-9.25v-8.43c0-2.72.2-4.55.2-7.21v-4.69c0-1.16-.2-1.97-.2-3.13,0-2.24,1.5-2.31,3.06-2.31s2.72.07,4.28.07c1.29,0,2.24-.14,3.6-.14,1.43,0,1.63,1.7,1.63,2.52,0,1.09-.14,1.83-.2,2.92-.07,1.7,0,2.86,0,4.56v10.54c0,1.56-.14,2.65-.14,4.22v3.33c0,2.72.27,4.55.27,7.28,0,2.04-.2,3.47-.2,5.44s.27,3.2.27,5.1c0,.82-.14,2.11-2.11,2.11Z"/>
        <path class="cls-1" d="M317.88,346.81c-.34,1.97-.34,3.4-.54,5.37-.07.75-.2,1.22-.34,1.9-.07.61,0,1.02-.07,1.63-.27,1.84-.68,3.06-1.09,4.9-.41,1.77-.48,3.06-.75,4.9-.2,1.5-.48,2.58-.75,4.08-.27,1.84-.34,3.13-.75,4.96-.48,2.11-.95,3.54-1.43,5.71-.75,3.13-.88,6.05-2.04,7.07-.75.61-1.63.54-2.45.54h-11.29c-1.02,0-1.22-.2-1.7-.68-.95-1.02-2.92-13.05-3.13-14.07-.68-3.33-1.29-5.64-1.77-9.04-.14-.88-.14-1.43-.27-2.31-.48-2.45-1.02-4.15-1.43-6.59-.41-2.58-.54-4.42-1.02-7-.54-3.33-.82-3.54-.82-5.58,0-.95.07-2.65,1.77-2.65,1.02,0,1.84.07,2.86.07,2.24,0,3.88-.07,6.12-.07,2.45,0,1.9,2.11,2.18,4.96.2,2.58.68,4.28.88,6.87.14,1.97.07,3.33.27,5.3.2,2.11.54,3.6.82,5.71.2,1.5.2,2.58.41,4.15,0,.07.2,3.74,1.02,3.67.82-.14.68-4.56,1.02-7.14.2-1.9.61-3.13.82-5.03.27-2.65.14-4.56.41-7.21.27-2.31.68-3.88.88-6.19.14-1.5.27-3.6.41-3.88.27-.54.54-1.29,1.7-1.29,1.63,0,2.79.2,4.42.2,1.16,0,1.97-.07,3.13-.07.75,0,1.22-.07,1.9-.07,1.56,0,1.7,1.02,1.7,1.63,0,1.63-.75,3.6-1.09,5.24Z"/>
        <path class="cls-1" d="M366.16,387.92c-1.63,0-2.79-.2-4.42-.2-1.36,0-2.31.14-3.67.14-2.45,0-2.11-1.84-2.24-2.52-.07-.61-.2-4.42-.82-5.03-.34-.34-.14-.14-.54-.41-.14-.07-2.72-.14-4.28-.14-2.58,0-2.38.68-2.65,2.18-.07.54-.2,4.42-.61,5.03-.48.61-.88.88-1.97.88-1.29,0-2.18-.07-3.47-.07-1.36,0-2.72.07-4.08.07-1.22,0-2.58-.14-2.58-1.97,0-.54.27-1.84.54-3.26.27-1.77.34-2.92.68-4.69.27-1.56.54-2.65.82-4.22.41-2.24.48-3.81.88-6.05.34-2.24.75-3.74,1.02-5.98.2-1.56.27-2.72.54-4.35.34-1.84.75-3.2,1.09-5.03.54-2.86.54-4.89,1.22-7.68.41-1.84.95-3.54,1.56-4.15.68-.54,1.5-.75,2.99-.75,2.31,0,3.94.27,6.26.27,1.7,0,3.47-.07,5.17-.07h.27c1.77,0,2.31.27,2.99,1.43.14.14.27.68.34.82,0,.07,1.22,6.32,1.22,6.39.34,2.18.48,3.74.82,5.92.48,2.65.82,4.49,1.36,7.14.41,2.11.82,3.67,1.09,5.78.41,2.79.41,4.76.82,7.55.68,4.15,1.9,9.31,1.9,10.27,0,.07-.2,2.72-2.24,2.72ZM352.77,357.12c-.14-1.09-.27-2.52-.41-2.72-.14-.48-.48-.75-.68-.75s-.48.34-.54.68c-.14.34-.54,2.52-.61,2.86-.2.82-.41,1.43-.54,2.24-.07.54-.88,5.98-.88,6.46,0,2.11,1.02,2.31,2.11,2.31.88,0,2.58,0,2.58-2.45,0-3.6-.88-7.68-1.02-8.63Z"/>
        <path class="cls-1" d="M409.62,384.92v.14c0,.75.41,2.92-2.24,2.92-1.29,0-2.18-.14-3.4-.14-1.16,0-1.97.07-3.13.07s-1.9-.07-2.99-.07h-5.1c-1.5,0-2.52.14-4.01.14-2.45,0-2.58-1.77-2.58-2.65v-.54c0-2.52.2-4.28.2-6.8,0-2.72-.2-4.62-.2-7.34,0-2.18.27-3.67.27-5.78,0-1.7-.14-2.86-.14-4.49,0-1.09.14-2.18.14-3.26,0-1.7-.14-2.92-.14-4.62.07-1.7.2-2.86.2-4.49,0-1.77-.14-3.47-.14-5.17v-.27c0-.68-.07-2.79,2.52-2.79,1.22,0,2.11.2,3.4.2,1.22,0,2.45-.14,3.67-.14s2.92,0,2.92,1.97c0,.88-.14,1.5-.2,2.31-.14,1.9-.2,3.26-.2,5.1s.2,3.13.14,4.96c0,1.36-.14,2.72-.14,4.15,0,1.09.2,2.24.2,3.33,0,1.97-.14,3.4-.14,5.37,0,1.22.14,2.11.14,3.4,0,.54-.07,1.16-.07,1.77,0,3.6,2.58,3.88,3.88,3.88,1.16,0,1.9.07,3.06,0,.54,0,.95-.07,1.5-.07.61,0,1.43.07,2.04.75.82.82.68,4.62.68,5.51,0,.95-.14,1.63-.14,2.65Z"/>
      </g>
      <path id="Star" class="cls-4" d="M24.63,212.55c84.58-41.14,204.56-78.74,302.75-97.59,3.81-30.13,7.76-60.36,11.83-90.67,17.44,25.43,33.59,52.38,48.3,80.74,33.09-4.08,66.79-6.88,101.08-8.28-26.47,21.12-51.42,42.23-74.95,63.19,9.81,30.29,18.33,61.62,25.47,93.9-23.66-21.32-48.92-40.67-75.52-57.86-82.87-2.9-236.39,15.04-310.17,45.86,77.9-35.71,229.73-59.13,315.19-63.92,14.08,9.29,27.78,19.19,41.06,29.66-5.07-17.81-10.56-35.29-16.47-52.42,13.56-12.36,27.6-24.79,42.14-37.25-19.39,1.56-38.57,3.55-57.55,5.97-8.57-16.68-17.64-32.87-27.18-48.55-2.56,17.86-5.07,35.69-7.54,53.49-102.5,11.78-227.7,44.14-318.45,83.74Z"/>
      <g class="cls-2">
        <path id="Star-2" data-name="Star" class="cls-4" d="M24.63,212.55c84.58-41.14,204.56-78.74,302.75-97.59,3.81-30.13,7.76-60.36,11.83-90.67,17.44,25.43,33.59,52.38,48.3,80.74,33.09-4.08,66.79-6.88,101.08-8.28-26.47,21.12-51.42,42.23-74.95,63.19,9.81,30.29,18.33,61.62,25.47,93.9-23.66-21.32-48.92-40.67-75.52-57.86-82.87-2.9-236.39,15.04-310.17,45.86,77.9-35.71,229.73-59.13,315.19-63.92,14.08,9.29,27.78,19.19,41.06,29.66-5.07-17.81-10.56-35.29-16.47-52.42,13.56-12.36,27.6-24.79,42.14-37.25-19.39,1.56-38.57,3.55-57.55,5.97-8.57-16.68-17.64-32.87-27.18-48.55-2.56,17.86-5.07,35.69-7.54,53.49-102.5,11.78-227.7,44.14-318.45,83.74Z"/>
      </g>
      <path class="cls-3" d="M391.52,227.56c-1.67,0-3.06.69-3.61,1.11-.42.28-.83.56-1.39,1.25-.69,1.25-.69,5.56-.69,6.67,0,6.12.69,10.43.69,16.4,0,2.22-.28,3.75-.28,5.84,0,2.22.42,3.75.42,5.84,0,1.95,0,5-.7,5.14-.7.14-1.95-4.31-2.78-6.95-.69-1.95-1.11-3.34-1.95-5.14-.42-1.11-.97-1.81-1.39-2.92-.7-1.53-.97-2.64-1.53-4.03-.56-1.39-1.25-2.36-1.95-3.75-.83-1.95-1.39-3.2-2.22-5.14-.7-1.53-4.31-11.54-6.12-13.07-.7-.7-1.39-1.25-2.92-1.25-3.06,0-5.14.42-8.06.42-1.81,0-3.2,0-5-.14-1.25,0-2.08-.28-3.2-.28h-.69c-3.2.56-3.2,3.34-3.2,4.03,0,5.42.56,9.04.42,14.46-.14,5.14-.28,8.76-.28,13.9v7.23c0,2.5.42,4.31.42,6.95s-.28,4.45-.42,7.09c-.14,3.34-.14,5.7-.14,9.04,0,3.75.14,6.39.14,10.29,0,1.67.14,2.78.14,4.59.14,5.84-.83,10.01-.83,15.85,0,.28-.42,4.87,3.75,4.87,2.5,0,4.31-.42,6.81-.42,3.61,0,6.12.28,9.59.28,2.92,0,4.87-.56,4.87-4.03,0-4.31-.7-7.23-.7-11.54-.14-4.59.42-7.65.42-12.23,0-3.61-.14-6.12-.56-9.59-.14-1.81-.56-3.06-.56-4.87,0-.56.28-1.25.56-1.25.56-.14,1.95,4.03,2.78,6.53.83,2.36,1.25,3.89,2.22,6.12.97,2.36,2.08,4.03,3.06,6.39,1.25,3.06,1.81,5.28,3.06,8.34,1.25,3.2,2.64,5.28,3.89,8.34,1.53,3.89,1.95,7.51,4.87,7.51,3.75,0,6.39-.42,10.29-.28,2.5,0,4.17.28,6.67.28,1.81,0,4.87-.14,4.87-3.34,0-1.25-.42-2.22-.42-3.48-.42-2.92-.28-5.14-.28-8.06,0-5.98.56-10.15.56-15.99,0-6.53-.56-10.98-.56-17.52s.42-11.12.42-17.65c0-6.12-.35-10.29-.28-16.4.02-1.35,0-2.57-.77-4.88-1.31-2.37-1.74-2.24-3.72-4.22-1.35-1.35-2.89-2.47-4.44-3.47-1.38-.89-1.51-1.93-4.07-2.58-3.48-.5-3.29-.28-5.21-.28Z"/>
      <g>
        <path class="cls-5" d="M100.87,217.68l.12-12.36-4.88,11.71-3.21,1.2-4.53-7.66-.17,11.82-6.53,2.43.39-26.71,5.89-2.34,6.79,11.62,7.12-17.14,6.11-2.42-.34,27.32-6.76,2.52Z"/>
        <path class="cls-5" d="M132.64,200.55l-.11,7.11-19.21,5.81.41-27.49,18.79-6.14-.11,7.11-11.2,3.59-.05,3.24,9.83-3.12-.1,6.78-9.82,3.06-.05,3.64,11.63-3.59Z"/>
        <path class="cls-5" d="M148.18,196.4l-2.22.59-.11,7.11-8.12,2.11.43-28.08,11.64-3.31c6.84-1.94,11.17.98,11.07,7.61-.06,4.13-1.82,7.7-4.81,10.25l5.07,7.45-8.89,2.31-4.04-6.04ZM149.16,182.34l-2.99.83-.1,6.63,2.99-.81c2.27-.62,3.37-2.17,3.4-4.24.03-2.07-1.03-3.03-3.3-2.4Z"/>
        <path class="cls-5" d="M164.44,197.08l2.85-7.7c2.36,1.05,5.55,1.33,8.37.68,2.46-.57,3.35-1.36,3.37-2.36.06-3.66-14.09,2.6-13.92-8.12.08-5.34,4.09-10.69,12.01-12.68,3.46-.87,7.05-.94,9.74.09l-2.76,7.8c-2.54-.83-4.93-.95-7.17-.4-2.53.62-3.35,1.65-3.36,2.64-.05,3.47,14.3-2.9,14.12,7.9-.09,5.36-4.22,10.8-12.22,12.61-4.27.97-8.53.74-11.03-.45Z"/>
        <path class="cls-5" d="M215.07,180.96l-.12,7.62-22.44,4.51.47-29.42,21.94-4.94-.12,7.62-13.09,2.87-.06,3.47,11.48-2.48-.12,7.27-11.48,2.41-.06,3.9,13.59-2.81Z"/>
        <path class="cls-5" d="M237.76,173.42l-.18,11.07-9.57,1.7.18-11.12-10.23-17.04,9.94-2.01,5.61,9.35,6.05-11.7,9.42-1.9-11.21,21.65Z"/>
        <path class="cls-5" d="M249.87,179.89l3.31-8.1c2.75,1.27,6.45,1.77,9.73,1.24,2.86-.47,3.9-1.26,3.92-2.33.07-3.93-16.38,1.93-16.19-9.56.1-5.73,4.75-11.23,13.96-12.9,4.03-.73,8.2-.59,11.34.68l-3.21,8.22c-2.95-1.05-5.74-1.32-8.35-.86-2.94.52-3.89,1.57-3.91,2.63-.06,3.73,16.65-2.26,16.45,9.34-.1,5.76-4.91,11.35-14.23,12.8-4.97.77-9.92.27-12.82-1.16Z"/>
        <path class="cls-5" d="M283.07,145.74l10.49-1.72-.55,31.88-10.48,1.47.54-31.62Z"/>
        <path class="cls-5" d="M301.49,142.67l15.86-2.3c10.98-1.59,18.52,3.55,18.34,13.76-.18,10.2-7.94,17.38-18.91,18.7l-15.85,1.91.56-32.07ZM316.47,164.36c4.62-.59,7.85-3.74,7.94-8.73.09-4.99-3.05-7.3-7.67-6.66l-4.59.63-.27,15.34,4.58-.58Z"/>
        <path class="cls-5" d="M371.42,158.64l-.16,8.59-28.77,2.65.59-33.09,28.13-3.27-.16,8.59-16.8,1.85-.07,3.91,14.73-1.58-.15,8.19-14.73,1.49-.08,4.38,17.45-1.71Z"/>
      </g>
    </g>
  </g>
</svg>