<?xml version="1.0" encoding="utf-8"?>
<!-- Generator: Adobe Illustrator 27.8.0, SVG Export Plug-In . SVG Version: 6.00 Build 0)  -->
<svg version="1.1" xmlns="http://www.w3.org/2000/svg" xmlns:xlink="http://www.w3.org/1999/xlink" x="0px" y="0px"
	 viewBox="0 0 500 500" style="enable-background:new 0 0 500 500;" xml:space="preserve">
<style type="text/css">
	.st0{display:none;}
	.st1{display:inline;stroke:#000000;stroke-miterlimit:10;}
	.st2{display:inline;}
	.st3{fill:#FFDC6E;}
	.st4{fill:#DD3E00;}
	.st5{fill:#00AAE8;}
	.st6{fill:#FFFFFF;}
</style>
<g id="Layer_2">
</g>
<g id="Layer_3_00000111899492719839367480000014359999223147839935_" class="st0">
	<rect x="-20" y="1" class="st1" width="520" height="520"/>
</g>
<g id="Layer_1">
	<g id="Layer_3" class="st0">
		<rect class="st2" width="500" height="500"/>
	</g>
	<g>
		<g>
			<g transform="translate(61.594037, 298.312385)">
				<g>
					<path class="st3" d="M36.2,72.2c0,0.6-0.1,1.1-0.2,1.6c-0.1,0.5-0.6,0.7-1.5,0.7c-0.2,0-0.4,0-0.6,0s-0.4,0-0.6,0H32
						c-0.3,0-0.6,0-0.9,0c-0.3,0-0.6,0-0.9,0h-0.1c-0.6,0-0.9,0.1-1.1,0.4c-0.2,0.2-0.3,0.5-0.3,0.8v1c0,0.2,0,0.5,0,0.7
						c0,0.2,0,0.4,0,0.7c0,0.5,0.1,0.8,0.4,1c0.3,0.2,0.5,0.3,0.8,0.4c0.3,0,0.5,0,0.5,0c0.2,0,0.5,0,0.7,0c0.2,0,0.5,0,0.7,0
						s0.4,0,0.5,0c0.1,0,0.3,0,0.5,0s0.4,0,0.6-0.1c0.2,0,0.4,0,0.6,0c0.6,0,1,0.2,1.2,0.6c0.2,0.3,0.3,0.6,0.3,0.9s0,0.5,0,0.7
						c0,0.2,0,0.4,0,0.6v0.9c0,0.9,0,1.6,0,2.2c0,0.6-0.2,1.1-0.4,1.4c-0.2,0.3-0.8,0.5-1.5,0.5c-0.5,0-0.9,0-1.3-0.1
						c-0.4-0.1-0.8-0.1-1.3-0.1c-0.6,0-1,0.1-1.3,0.4c-0.3,0.2-0.5,0.5-0.5,0.9c-0.1,0.3-0.1,0.6-0.1,0.8V91c0,0.6,0,1.1,0,1.5
						s0,0.9,0,1.5c0,0.2-0.1,0.5-0.1,0.7c0,0.2,0,0.4,0,0.7c0,0.4,0,0.8,0.1,1c0.1,0.3,0.1,0.6,0.1,1v0.1c0,0.2,0,0.4-0.1,0.7
						c-0.1,0.3-0.2,0.6-0.4,0.8c-0.2,0.2-0.6,0.4-1.2,0.4c-0.5,0-0.9,0-1.4,0c-0.4,0-0.9-0.1-1.4-0.1c-0.4,0-0.8,0-1.2,0.1
						c-0.3,0-0.7,0-1.2,0c-0.8,0-1.2-0.2-1.4-0.6c-0.2-0.4-0.3-0.7-0.3-1c0-0.7,0-1.4,0.1-2c0.1-0.6,0.1-1.2,0.1-2
						c0-1.4,0-2.5-0.1-3.5c-0.1-1.1-0.1-2.3,0-3.5c0-1,0-1.9,0.1-2.6c0.1-0.8,0.1-1.7,0.1-2.6s0-1.8-0.1-2.4c0-0.8-0.1-1.6-0.1-2.5
						c0-0.8,0-1.5,0-2.2c0-0.7,0-1.4,0-2.2c0-0.5,0-0.9,0-1.3s0-0.8,0-1.3c0-1.1,0.2-1.7,0.6-2c0.4-0.3,0.9-0.4,1.5-0.4h1.5
						c0.8,0,1.6,0,2.3,0c0.7,0,1.4-0.1,2.3-0.1c0.4,0,0.8,0,1.2,0.1c0.4,0,0.8,0,1.3,0c0.7,0,1.3,0,1.9,0c0.6,0,1.2,0,1.9,0
						c0.2,0,0.5,0.1,0.8,0.1c0.4,0.1,0.5,0.4,0.5,1.1c0,0.2,0,0.3,0,0.5c0,0.1,0,0.3,0,0.5v0.8c0,0.5,0,0.9,0,1.2
						C36.2,71.3,36.2,71.8,36.2,72.2z"/>
				</g>
			</g>
		</g>
		<g>
			<g transform="translate(93.828917, 298.312385)">
				<g>
					<path class="st3" d="M48.6,93.2c0,0.4,0,0.7-0.1,1c0,0.3,0,0.6,0,1s0,0.8,0,1.1c0,0.3,0,0.7,0,1.1c0,0.3-0.1,0.7-0.3,1.1
						c-0.2,0.5-0.7,0.7-1.5,0.7c-0.3,0-0.6,0-0.9,0c-0.3,0-0.6,0-0.9,0h-1.1c-0.6,0-1.1,0-1.5,0c-0.4,0-0.9,0-1.5,0
						c-0.3,0-0.6,0-0.9,0c-0.3,0-0.6,0-0.9,0h-5c-0.2,0-0.4,0-0.6,0.1c-0.2,0-0.4,0-0.6,0c-0.3,0-0.7-0.1-1.2-0.4
						c-0.5-0.2-0.7-0.8-0.7-1.6c0-0.6,0-1.2,0.1-1.7c0.1-0.5,0.1-1,0.1-1.6s0-1,0-1.5c0-0.4,0-0.9,0-1.5c0-0.4,0-0.8,0.1-1.1
						c0.1-0.3,0.1-0.7,0.1-1.1s0-0.8,0-1.1c0-0.3,0-0.7,0-1.1c0-0.8,0-1.5,0-2.1c0-0.6,0-1.3,0-2.1c0-0.7,0-1.4,0-2.1
						c0-0.7,0-1.4,0-2c0-1,0-1.8,0-2.5c0.1-0.8,0.1-1.6,0.1-2.5c0-0.7,0-1.3,0-1.8c0-0.5,0-1.1,0-1.8c0-1.4,0.1-2.3,0.4-2.7
						c0.3-0.5,0.9-0.7,2-0.7c0.6,0,1.2,0,1.7,0.1c0.5,0.1,1,0.1,1.6,0.1c0.3,0,0.6,0,0.9,0s0.6,0,0.9,0c0.7,0,1.4,0,2,0.1
						c0.6,0,1.3,0.1,2,0.1c0.3,0,0.6,0,0.9,0s0.5,0,0.9,0h0.9c0.2,0,0.5,0,0.7,0s0.5,0,0.8,0c0.7,0,1.1,0.2,1.3,0.6s0.2,0.7,0.2,1
						c0,0.4,0,0.8-0.1,1.2c0,0.4-0.1,0.8-0.1,1.2c0,0.4,0,0.9,0,1.5s-0.1,1-0.3,1.4c-0.2,0.4-0.7,0.6-1.5,0.6h-0.5
						c-0.3,0-0.5,0-0.8,0c-0.2,0-0.5,0-0.8,0c-0.4,0-0.7,0-1-0.1c-0.3-0.1-0.6-0.1-1-0.1c-1.3,0-2,0.2-2.3,0.6
						c-0.2,0.4-0.4,1-0.4,1.8c0,1.6,0.5,2.4,1.6,2.4c0.2,0,0.5,0,0.7,0c0.2,0,0.4,0,0.7,0h0.1c0.3,0,0.6,0,0.9,0s0.6,0,0.9,0
						c0.3,0,0.5,0,0.8,0c0.2,0,0.5,0,0.7,0c0.7,0,1.1,0.1,1.4,0.4c0.2,0.2,0.4,0.5,0.4,0.8s0,0.6,0,0.8c0,0.4,0,0.7,0,1
						c0,0.3,0,0.6,0,1c0,0.3,0,0.7,0,0.9c0,0.3,0,0.6,0,0.9c0,0.6-0.1,1-0.4,1.3c-0.2,0.3-0.5,0.5-0.8,0.5c-0.3,0.1-0.5,0.1-0.8,0.1
						c-0.7,0-1.4,0-1.9-0.1c-0.6-0.1-1.2-0.1-1.9-0.1c-0.8,0-1.4,0.1-1.8,0.4c-0.3,0.3-0.5,0.6-0.5,1s-0.1,0.8-0.1,1.1v0.6
						c0,0.1,0,0.4,0,0.7c0,0.3,0,0.6,0.1,0.7c0.3,0.7,0.7,1,1.1,1c0.4,0,1,0.1,1.9,0.1c0.4,0,0.8,0.1,1.1,0.1s0.7,0.1,1.1,0.1
						s0.7,0,1-0.1s0.6-0.1,1-0.1c0.2,0,0.6,0.1,1,0.3C48.3,92,48.6,92.5,48.6,93.2z"/>
				</g>
			</g>
		</g>
		<g>
			<g transform="translate(128.223755, 298.312385)">
				<g>
					<path class="st3" d="M59.5,89.5c0,2-0.2,3.5-0.6,4.7c-0.3,1.2-1.1,2.2-2.2,3c-0.5,0.4-1,0.8-1.6,1c-0.6,0.3-1.1,0.5-1.6,0.7
						c-0.5,0.1-1,0.2-1.8,0.3c-0.7,0.1-1.4,0.2-2.1,0.2s-1.3,0-1.8,0c-0.3,0-0.7,0-1.3,0c-0.6,0-1.2-0.1-1.9-0.2
						c-0.7-0.1-1.3-0.3-1.9-0.4c-0.6-0.2-1-0.4-1.2-0.8c-0.2-0.3-0.3-0.7-0.3-1.2c0-0.5,0-1,0-1.4s0-0.8,0-1.3c0-0.4,0-0.8,0-1
						c0-0.3,0-0.7,0-1.1c0-0.2,0-0.4,0.1-0.8c0-0.4,0.2-0.7,0.5-1c0.3-0.3,0.7-0.5,1.4-0.4c0.4,0,0.7,0.1,0.9,0.2
						c0.2,0.1,0.4,0.2,0.7,0.4c0.1,0,0.1,0.1,0.1,0.1l0.1,0.1c0.1,0.1,0.2,0.2,0.3,0.2c0.1,0.1,0.2,0.2,0.3,0.2
						c0.3,0.2,0.7,0.3,1.1,0.4c0.4,0.1,0.8,0.1,1.1,0.1c1.7,0,2.6-0.5,2.7-1.5c0.1-0.7-0.2-1.4-0.9-2.1c-0.6-0.6-1.3-1.2-1.9-1.8
						c-0.4-0.4-0.8-0.8-1.1-1.1c-0.3-0.3-0.7-0.7-1.1-1.1c-0.1-0.1-0.4-0.4-0.8-0.7c-0.4-0.4-0.8-0.8-1.2-1.2
						c-1-1.2-1.5-2.3-1.8-3.1c-0.2-1-0.3-2.1-0.3-3.1c0-3.4,0.8-5.9,2.5-7.4c1.7-1.5,4.2-2.3,7.5-2.3c1,0,2,0,3,0s1.8,0.2,2.5,0.5
						c0.7,0.3,1,0.8,1,1.5c0,0.5,0,0.9-0.1,1.3c0,0.4,0,0.9,0,1.4v0.2c0,0.3,0,0.6,0,0.9c0,0.2,0,0.5,0,0.9c0,0.2,0,0.4-0.1,0.7
						c-0.1,0.3-0.2,0.6-0.4,0.9s-0.6,0.4-1.2,0.4c-0.4,0-0.8-0.1-1.2-0.2c-0.4-0.1-0.7-0.2-0.8-0.2c-0.2-0.1-0.5-0.1-0.8-0.2
						c-0.3-0.1-0.7-0.1-1.1-0.1c-0.1,0-0.3,0-0.6,0.1c-0.3,0-0.6,0.2-0.9,0.4c-0.3,0.2-0.5,0.6-0.5,1.2c0,0.5,0.1,1,0.4,1.4
						c0.2,0.2,0.6,0.8,1.5,1.5c0.8,0.8,1.7,1.6,2.6,2.4c0.3,0.3,0.7,0.6,1,0.9c0.3,0.3,0.6,0.6,0.9,1c1.1,1.2,1.8,2.4,2.2,3.2
						C59.4,87.1,59.5,88.3,59.5,89.5z"/>
				</g>
			</g>
		</g>
		<g>
			<g transform="translate(161.921827, 298.312385)">
				<g>
					<path class="st3" d="M69.7,73.3c0,0.2-0.1,0.5-0.2,1C69.4,74.7,69,75,68.3,75c-0.2,0-0.4,0-0.6,0s-0.4,0-0.6,0
						c-0.7,0-1.2,0.2-1.4,0.5c-0.2,0.4-0.4,1-0.4,1.9c0,0.8,0,1.5,0.1,2.1c0.1,0.6,0.1,1.3,0.1,2.1c0,1,0,1.8,0,2.5
						c0,0.7,0,1.6,0,2.4c0,0.9,0,1.6,0,2.3s0,1.5,0,2.3c0,0.5,0,1,0,1.5c0,0.5,0,1,0,1.5c0,0.4,0,0.8,0,1.1c0,0.3,0,0.7,0.1,1.1
						c0,0.2,0.1,0.5,0.1,0.7c0,0.2,0,0.4,0,0.7c0,0.5-0.1,0.8-0.4,1.1c-0.2,0.2-0.5,0.4-0.8,0.4C64.2,99,64,99,63.9,99
						c-0.3,0-0.5,0-0.8,0c-0.2,0-0.5-0.1-0.8-0.1c-0.4,0-0.8,0-1,0c-0.3,0-0.6,0-1,0c-0.3,0-0.6,0-0.9,0c-0.3,0-0.6,0-0.9,0
						c-0.5,0-0.9-0.1-1.2-0.4c-0.4-0.2-0.6-0.7-0.6-1.5s0-1.5,0.1-2c0.1-0.6,0.1-1.3,0.1-2c0-0.7,0-1.4-0.1-2c0-0.6-0.1-1.2-0.1-2
						s0-1.6,0.1-2.3c0.1-0.7,0.1-1.4,0.1-2.3c0-0.6,0-1.2-0.1-1.6c0-0.5-0.1-1-0.1-1.6c0-1,0-1.8,0.1-2.6c0.1-0.8,0.1-1.5,0.1-2.2
						c0-0.6-0.2-1.1-0.6-1.5c-0.1-0.1-0.2-0.2-0.3-0.2s-0.1,0-0.1-0.1c-0.2-0.1-0.3-0.1-0.6-0.1c-0.2,0-0.4,0-0.6,0
						c-0.2,0-0.3,0-0.5,0c-0.2,0-0.3,0-0.5,0c-0.6,0-1-0.2-1.2-0.5c-0.2-0.3-0.3-0.6-0.3-0.9c0-0.6,0-1.1,0-1.6s0-1,0-1.6
						c0-0.4,0-0.8,0-1.1c0-0.3,0-0.7,0-1.1c0-0.6,0.1-1,0.4-1.2c0.2-0.2,0.7-0.4,1.3-0.4c0.5,0,1,0,1.4,0s0.9,0,1.4,0
						c0.8,0,1.6,0,2.4-0.1c0.8-0.1,1.6-0.1,2.4-0.1H62c0.7,0,1.2,0,1.8,0.1c0.5,0,1.1,0,1.8,0c0.4,0,0.8,0,1.1,0
						c0.3,0,0.7-0.1,1.1-0.1c0.9,0,1.4,0.3,1.6,0.8s0.2,1.1,0.2,1.7c0,0.5,0,0.9,0,1.2c0,0.3,0,0.7,0,1.2c0,0.3,0,0.6,0,0.8
						C69.6,72.7,69.7,73,69.7,73.3z"/>
				</g>
			</g>
		</g>
		<g>
			<g transform="translate(194.888309, 298.312385)">
				<g>
					<path class="st3" d="M72.8,97.5c0,0.3-0.1,0.6-0.2,0.9c-0.1,0.3-0.6,0.5-1.2,0.5c-0.3,0-0.7,0-1,0c-0.3,0-0.6-0.1-1-0.1
						c-0.6,0-1.1,0-1.6,0.1c-0.4,0-0.9,0.1-1.5,0.1c-0.8,0-1.3-0.1-1.6-0.3c-0.3-0.2-0.5-0.5-0.5-0.8c0-0.3-0.1-0.7-0.1-1.1v-1.9
						c0-0.5,0-1,0.1-1.5c0.1-0.5,0.1-0.9,0.1-1.5v-1.9c0-1.2,0-2.2-0.1-3.1c0-0.9-0.1-2-0.1-3v-5.7c0-0.9,0-1.8,0.1-2.4
						c0.1-0.7,0.1-1.6,0.1-2.4v-3.1c0-0.4,0-0.8-0.1-1.1c0-0.3-0.1-0.7-0.1-1.1c0-0.8,0.2-1.2,0.6-1.4c0.4-0.1,0.9-0.2,1.5-0.2
						c0.5,0,1,0,1.5,0c0.4,0,0.9,0,1.5,0c0.4,0,0.8,0,1.2,0c0.4,0,0.8-0.1,1.3-0.1c0.5,0,0.8,0.2,0.9,0.7c0.1,0.4,0.2,0.8,0.2,1.1
						c0,0.4,0,0.7,0,1c0,0.3-0.1,0.6-0.1,1c0,0.6,0,1.1,0,1.6c0,0.4,0,1,0,1.5v7.1c0,0.5,0,1,0,1.5c0,0.4,0,0.9,0,1.4v2.4
						c0,0.9,0,1.8,0.1,2.4c0.1,0.7,0.1,1.6,0.1,2.4c0,0.7,0,1.3-0.1,1.9c0,0.6-0.1,1.2-0.1,1.9s0,1.2,0.1,1.8
						C72.8,96.3,72.8,96.9,72.8,97.5z"/>
				</g>
			</g>
		</g>
		<g>
			<g transform="translate(222.768425, 298.312385)">
				<g>
					<path class="st3" d="M94,67.9c0,0.6-0.1,1.2-0.3,1.8c-0.2,0.6-0.3,1.2-0.5,1.8c-0.1,0.7-0.2,1.3-0.2,1.8c0,0.5-0.1,1.2-0.1,1.8
						c0,0.2-0.1,0.5-0.1,0.7c0,0.2-0.1,0.4-0.1,0.6c0,0.2,0,0.4,0,0.6c0,0.2,0,0.3,0,0.6c-0.1,0.6-0.2,1.2-0.3,1.7
						c-0.1,0.5-0.3,1.1-0.4,1.7c-0.1,0.6-0.2,1.2-0.3,1.7c-0.1,0.5-0.1,1.1-0.2,1.7c-0.1,0.5-0.1,0.9-0.2,1.4
						c-0.1,0.4-0.2,0.9-0.3,1.4c-0.1,0.6-0.2,1.2-0.2,1.7s-0.1,1.1-0.3,1.7c-0.2,0.7-0.3,1.4-0.5,1.9c-0.2,0.6-0.3,1.2-0.5,2
						c-0.2,1.1-0.4,2-0.6,2.9c-0.1,0.9-0.4,1.5-0.8,1.9c-0.2,0.2-0.5,0.3-0.8,0.4c-0.3,0-0.6,0-0.9,0h-7.7c-0.3,0-0.6,0-0.7-0.1
						c-0.1-0.1-0.3-0.2-0.4-0.4c-0.1-0.1-0.3-0.5-0.4-1.1c-0.2-0.7-0.3-1.4-0.5-2.3c-0.2-0.9-0.4-1.8-0.5-2.6
						c-0.2-0.9-0.3-1.7-0.4-2.3c-0.1-0.7-0.2-1-0.2-1.2c-0.2-1.2-0.4-2.2-0.7-3c-0.2-0.9-0.4-1.9-0.5-3c0-0.3-0.1-0.6-0.1-0.8
						s-0.1-0.5-0.1-0.8c-0.2-0.8-0.3-1.6-0.5-2.2c-0.2-0.7-0.3-1.4-0.5-2.2c-0.1-0.9-0.2-1.7-0.3-2.4c-0.1-0.7-0.2-1.5-0.4-2.4
						c-0.1-0.8-0.2-1.3-0.3-1.7c-0.1-0.4-0.1-0.7-0.2-1c0-0.3-0.1-0.7-0.1-1.1c0-0.3,0.1-0.7,0.1-1.2c0.1-0.4,0.5-0.6,1.1-0.6
						c0.3,0,0.7,0,1,0c0.3,0,0.6,0,1,0c0.8,0,1.5,0,2.1,0s1.3,0,2.1,0c0.6,0,0.9,0.1,1.1,0.4s0.3,0.7,0.3,1.2s0,1.1,0.1,1.8
						c0.1,0.9,0.2,1.6,0.3,2.3c0.1,0.7,0.2,1.5,0.3,2.4c0.1,0.7,0.1,1.3,0.1,1.8c0,0.5,0,1.1,0.1,1.8c0.1,0.7,0.2,1.4,0.2,2
						c0.1,0.6,0.2,1.2,0.3,2c0.1,0.5,0.1,1,0.1,1.4c0,0.4,0.1,0.9,0.1,1.4c0,0,0,0.2,0.1,0.6c0,0.4,0.1,0.8,0.2,1.2
						c0.1,0.4,0.2,0.6,0.4,0.6c0.2,0,0.3-0.3,0.4-0.9c0.1-0.6,0.1-1.2,0.2-2c0.1-0.8,0.1-1.4,0.2-2c0.1-0.7,0.2-1.2,0.3-1.7
						s0.2-1.1,0.3-1.7c0.1-0.9,0.1-1.7,0.1-2.4s0-1.6,0.1-2.4c0.1-0.8,0.2-1.5,0.3-2.1c0.1-0.6,0.2-1.3,0.3-2.1
						c0.1-0.5,0.1-1.1,0.1-1.6c0.1-0.6,0.1-0.9,0.1-1c0.1-0.2,0.2-0.4,0.4-0.6c0.1-0.2,0.4-0.3,0.8-0.3c0.6,0,1.1,0,1.5,0.1
						c0.5,0,1,0.1,1.5,0.1c0.4,0,0.8,0,1.1,0c0.3,0,0.7,0,1.1,0c0.2,0,0.5,0,0.7,0s0.4,0,0.6,0c0.5,0,0.9,0.1,1,0.4
						C94,67.5,94,67.7,94,67.9z"/>
				</g>
			</g>
		</g>
		<g>
			<g transform="translate(258.626478, 298.312385)">
				<g>
					<path class="st3" d="M106.6,97.2c0,0,0,0.2-0.1,0.5c-0.1,0.3-0.2,0.6-0.4,0.9c-0.2,0.3-0.6,0.5-1,0.5c-0.6,0-1.1,0-1.5-0.1
						c-0.4-0.1-0.9-0.1-1.5-0.1c-0.5,0-0.9,0-1.2,0.1c-0.4,0-0.8,0-1.2,0c-0.6,0-0.9-0.1-1.1-0.3c-0.2-0.2-0.3-0.5-0.3-0.8
						c0-0.3,0-0.5-0.1-0.7c0-0.2,0-0.5-0.1-1c0-0.5-0.1-1-0.2-1.5c-0.1-0.5-0.2-0.8-0.3-1c-0.1-0.1-0.2-0.2-0.2-0.2s0,0-0.2-0.1
						c0,0-0.4,0-1.1-0.1c-0.7,0-1.3,0-1.8,0c-0.9,0-1.4,0.1-1.5,0.4c-0.1,0.2-0.2,0.6-0.3,1.1c0,0.1,0,0.4-0.1,1
						c0,0.5-0.1,1-0.1,1.5c-0.1,0.5-0.1,0.8-0.2,1c-0.2,0.2-0.3,0.4-0.5,0.5s-0.5,0.1-0.8,0.1c-0.4,0-0.8,0-1.2,0
						c-0.3,0-0.7,0-1.2,0s-0.9,0-1.4,0c-0.5,0-0.9,0-1.4,0c-0.4,0-0.8-0.1-1.2-0.2s-0.6-0.5-0.6-1.1c0-0.2,0-0.5,0.1-0.9
						c0.1-0.4,0.2-0.9,0.3-1.4c0.1-0.6,0.1-1.2,0.2-1.6c0.1-0.5,0.1-1,0.3-1.6c0.1-0.5,0.2-1,0.3-1.4c0.1-0.4,0.2-0.9,0.3-1.4
						c0.2-0.8,0.3-1.5,0.3-2.1c0.1-0.6,0.2-1.3,0.3-2.1s0.2-1.5,0.4-2c0.1-0.6,0.2-1.3,0.3-2c0.1-0.5,0.1-1,0.2-1.5
						c0-0.5,0.1-1,0.2-1.5c0.1-0.6,0.2-1.2,0.4-1.7c0.1-0.5,0.2-1.1,0.4-1.7c0.2-1,0.3-1.9,0.4-2.5c0.1-0.8,0.2-1.6,0.5-2.5
						c0.2-0.6,0.3-1.2,0.5-1.7c0.2-0.5,0.4-0.9,0.6-1.1c0.4-0.3,1.1-0.5,2-0.5c0.8,0,1.5,0,2.2,0.1c0.2,0,0.9,0,1.7,0
						c0.6,0,1.2,0,1.8,0s1.2,0,1.8,0h0.2c0.6,0,1.1,0.1,1.3,0.2c0.3,0.1,0.5,0.4,0.7,0.8c0.1,0,0.1,0.1,0.1,0.2
						c0,0.1,0.1,0.2,0.1,0.3c0,0,0,0.2,0.1,0.7c0.1,0.4,0.2,1,0.3,1.5c0.1,0.6,0.2,1.1,0.3,1.5s0.1,0.7,0.1,0.7
						c0.1,0.8,0.2,1.4,0.3,2c0.1,0.6,0.2,1.3,0.3,2c0.2,0.9,0.3,1.7,0.4,2.4c0.1,0.7,0.3,1.5,0.5,2.4c0.2,0.7,0.3,1.4,0.4,2
						c0.1,0.6,0.2,1.2,0.3,2c0.2,1,0.2,1.8,0.3,2.5c0,0.8,0.1,1.6,0.2,2.5c0.2,0.9,0.3,1.9,0.5,2.8s0.4,1.9,0.5,2.5
						C106.5,96.5,106.6,97,106.6,97.2z M96.6,84.2c0-0.8-0.1-1.7-0.2-2.4c-0.1-0.8-0.2-1.5-0.3-2.1s-0.2-1-0.2-1.3
						c0-0.4-0.1-0.7-0.1-1.1s-0.1-0.6-0.2-0.7c-0.1-0.3-0.2-0.5-0.5-0.5c-0.2,0-0.3,0.2-0.4,0.5c0,0.1-0.1,0.2-0.1,0.5
						c-0.1,0.3-0.1,0.6-0.2,0.9c0,0.3-0.1,0.5-0.1,0.6c-0.1,0.3-0.1,0.5-0.2,0.8c-0.1,0.2-0.1,0.5-0.2,0.8c0,0.1,0,0.4-0.1,0.8
						c-0.1,0.4-0.1,0.9-0.2,1.4c-0.1,0.5-0.1,1-0.2,1.4c-0.1,0.4-0.1,0.7-0.1,0.8c0,0.7,0.1,1.2,0.4,1.3c0.3,0.2,0.6,0.2,1,0.2
						c0.3,0,0.7-0.1,1.1-0.2C96.4,85.4,96.6,85,96.6,84.2z"/>
				</g>
			</g>
		</g>
		<g>
			<g transform="translate(295.216129, 298.312385)">
				<g>
					<path class="st3" d="M113.3,95.2c0,0.3,0,0.6,0,0.9s0,0.6,0,0.9v0.1c0,0.2,0,0.4,0,0.7s-0.1,0.6-0.3,0.9
						c-0.2,0.3-0.6,0.4-1.2,0.4c-0.4,0-0.8,0-1.2,0c-0.3,0-0.7,0-1.2,0c-0.4,0-0.8,0-1.1,0s-0.7,0-1.1,0s-0.8,0-1.1,0
						c-0.3,0-0.6,0-1,0h-3.5c-0.5,0-0.9,0-1.3,0s-0.9,0-1.4,0c-0.8,0-1.4-0.2-1.5-0.7c-0.2-0.5-0.2-0.8-0.2-1.1v-0.4
						c0-0.9,0-1.6,0.1-2.3c0.1-0.7,0.1-1.5,0.1-2.3c0-0.9,0-1.8-0.1-2.4c0-0.8-0.1-1.6-0.1-2.4c0-0.7,0-1.4,0.1-2
						c0.1-0.6,0.1-1.3,0.1-2c0-0.6,0-1.1-0.1-1.5c0-0.5,0-1,0-1.5c0-0.4,0-0.7,0-1.1s0.1-0.8,0.1-1.1c0-0.6,0-1.1-0.1-1.6
						c0-0.5,0-1,0-1.6c0-0.6,0.1-1.1,0.1-1.5c0-0.5,0-1,0-1.5c0-0.6,0-1.2,0-1.8s0-1.2,0-1.8v-0.2c0-0.2,0-0.4,0.1-0.7
						c0-0.3,0.2-0.6,0.4-0.9c0.2-0.2,0.6-0.4,1.2-0.4c0.4,0,0.8,0,1.1,0.1c0.3,0,0.7,0.1,1.2,0.1c0.4,0,0.9,0,1.3,0s0.8-0.1,1.2-0.1
						c0.4,0,0.9,0.1,1.3,0.2c0.5,0.1,0.7,0.5,0.7,1.2c0,0.3,0,0.6,0,0.8s-0.1,0.5-0.1,0.8c0,0.7-0.1,1.2-0.1,1.8c0,0.5,0,1.1,0,1.7
						c0,0.6,0,1.2,0.1,1.7c0,0.5,0,1.1,0,1.7c0,0.5,0,0.9,0,1.4c0,0.5,0,0.9,0,1.4c0,0.4,0,0.8,0.1,1.1c0,0.4,0.1,0.8,0.1,1.1
						c0,0.7,0,1.3,0,1.8c0,0.5,0,1.2,0,1.8c0,0.4,0,0.8,0,1.1s0,0.7,0,1.2c0,0.2,0,0.4,0,0.6c0,0.2,0,0.4,0,0.6
						c0,0.8,0.2,1.4,0.5,1.8c0.3,0.4,0.7,0.6,1.1,0.7c0.4,0.1,0.8,0.1,1,0.1c0.4,0,0.8,0,1,0c0.3,0,0.7,0,1.1,0c0.2,0,0.3,0,0.5,0
						s0.3,0,0.5,0s0.4,0,0.7,0.1c0.2,0,0.5,0.2,0.7,0.4c0.2,0.2,0.3,0.5,0.4,1.1c0.1,0.5,0.1,1.1,0.1,1.6
						C113.3,94.7,113.3,94.9,113.3,95.2z"/>
				</g>
			</g>
		</g>
	</g>
	<g>
		<g transform="translate(157.329136, 261.871007)">
			<g>
				<path class="st4" d="M117.6,18.5c0,0.5-0.2,1.3-0.5,2.5s-1.4,1.8-3.3,1.8c-0.6,0-1.1,0-1.6-0.1c-0.5,0-1.1-0.1-1.7-0.1
					c-1.8,0-3,0.5-3.7,1.4s-1,2.6-1,5.1c0,2,0.1,3.9,0.2,5.5s0.2,3.5,0.2,5.6c0,2.5,0,4.8-0.1,6.7s-0.1,4.2-0.1,6.7
					c0,2.3,0,4.3,0.1,6.1s0.1,3.8,0.1,6.1c0,1.3,0,2.6-0.1,3.9c0,1.3-0.1,2.6-0.1,3.9c0,1.1,0,2,0.1,2.9c0,0.9,0.1,1.9,0.2,3
					c0.1,0.7,0.2,1.2,0.2,1.8c0.1,0.5,0.1,1.1,0.1,1.8c0,1.3-0.3,2.2-0.9,2.8c-0.6,0.6-1.3,0.9-2,1.1s-1.3,0.2-1.7,0.2
					c-0.7,0-1.4,0-2-0.1c-0.6,0-1.2-0.1-2-0.2c-1.1-0.1-2-0.1-2.8-0.1s-1.7,0-2.8,0c-0.8,0-1.6,0-2.3,0.1C89.4,87,88.5,87,87.7,87
					c-1.3,0-2.3-0.3-3.1-1c-0.8-0.7-1.2-2-1.2-4s0.1-3.8,0.3-5.4c0.2-1.6,0.3-3.4,0.3-5.4c0-1.9-0.1-3.6-0.2-5.1
					c-0.1-1.6-0.2-3.3-0.2-5.1c0-2.2,0.1-4.2,0.3-6c0.2-1.8,0.3-3.8,0.3-6c0-1.6-0.1-3.1-0.2-4.3c-0.1-1.3-0.2-2.7-0.3-4.2
					c-0.1-2.5,0-4.9,0.2-7c0.2-2.2,0.3-4.1,0.2-5.8c-0.1-1.7-0.6-3-1.7-3.9c-0.2-0.3-0.5-0.5-0.7-0.6s-0.4-0.1-0.4-0.2
					c-0.4-0.2-0.9-0.4-1.5-0.4s-1.1-0.1-1.5-0.1c-0.5,0-1,0-1.4,0.1c-0.4,0-0.8,0.1-1.2,0.1c-1.6,0-2.7-0.4-3.3-1.3
					c-0.6-0.9-0.9-1.7-0.9-2.4c0-1.6,0-2.9,0.1-4.2c0.1-1.2,0.1-2.6,0.1-4.2c0-1.1,0-2-0.1-2.8S71.5,6,71.5,5c0-1.5,0.3-2.6,1-3.2
					s1.8-0.9,3.3-0.9c1.4,0,2.7,0,3.8,0.1c1.1,0.1,2.4,0.1,3.8,0.1c2.1,0,4.2-0.1,6.3-0.2C92.1,1.1,94.2,1,96.2,1h1.4
					c1.7,0,3.3,0,4.6,0.1c1.4,0.1,3,0.1,4.8,0.1c1.1,0,2.1,0,3-0.1s1.8-0.1,2.9-0.1c2.4,0,3.7,0.7,4.1,2.1s0.6,2.9,0.6,4.6
					c0,1.2,0,2.3-0.1,3.2c0,0.9-0.1,2-0.1,3.1c0,0.8,0,1.6,0.1,2.2C117.6,16.9,117.6,17.7,117.6,18.5z"/>
			</g>
		</g>
	</g>
	<g>
		<g transform="translate(208.710611, 261.871007)">
			<g>
				<path class="st4" d="M114.7,83.6c0,0.7-0.2,1.6-0.6,2.5s-1.4,1.3-3.2,1.3c-0.9,0-1.7,0-2.5-0.1s-1.6-0.1-2.5-0.1
					c-1.6,0-2.9,0.1-4.1,0.2s-2.5,0.2-4,0.2c-2,0-3.4-0.3-4.2-0.8c-0.8-0.5-1.2-1.2-1.4-2.1c-0.1-0.9-0.2-1.8-0.2-2.8v-5
					c0-1.4,0.1-2.7,0.2-3.9c0.1-1.2,0.2-2.5,0.2-3.9v-5c0-3.1-0.1-5.9-0.2-8.4S92,50.5,92,47.5V32.3c0-2.4,0.1-4.6,0.2-6.5
					s0.2-4.1,0.2-6.4V11c0-1.1-0.1-2-0.2-2.8S92,6.4,92,5.4c0-2,0.6-3.2,1.7-3.6c1.2-0.4,2.4-0.5,3.8-0.5s2.7,0,3.8,0.1
					c1.2,0,2.5,0,3.9,0c1.1,0,2.2,0,3.2-0.1s2.1-0.1,3.3-0.1c1.3,0,2.1,0.6,2.4,1.7s0.5,2.1,0.5,2.8c0,1,0,1.8-0.1,2.6
					c-0.1,0.8-0.2,1.7-0.2,2.6c-0.1,1.6-0.1,2.9-0.1,4.1s0.1,2.6,0.1,4.1v19c0,1.4,0,2.7-0.1,3.8s-0.1,2.4-0.1,3.8v6
					c0,2.4,0.1,4.6,0.2,6.5c0.2,1.9,0.2,4.1,0.2,6.5c0,1.8-0.1,3.4-0.2,4.9s-0.2,3.1-0.2,4.9c0,1.7,0.1,3.2,0.2,4.6
					C114.6,80.3,114.7,81.9,114.7,83.6z"/>
			</g>
		</g>
	</g>
	<g>
		<g transform="translate(246.69652, 261.871007)">
			<g>
				<path class="st4" d="M162.3,84.3c0,1.4-0.5,2.2-1.5,2.5s-1.9,0.4-2.7,0.4c-1.1,0-2,0-2.9-0.1c-0.8-0.1-1.8-0.1-3-0.1
					c-1.7-0.1-3.3-0.1-4.6,0.1c-1.3,0.1-2.8,0.2-4.5,0.2c-1.3,0-2.2-0.7-2.6-2c-0.4-1.3-1-2.9-1.6-4.6c-0.6-1.4-1.1-2.6-1.7-3.7
					c-0.6-1.1-1.1-2.3-1.7-3.7c-0.6-1.4-1-2.6-1.4-3.7c-0.3-1.1-0.8-2.3-1.3-3.6c-0.4-1.1-0.9-2-1.4-2.8s-0.9-1.8-1.3-2.8
					c-0.4-1-0.7-1.9-1-2.6c-0.2-0.8-0.6-1.7-1-2.8c-0.3-1.1-0.8-2.4-1.3-3.8c-0.5-1.4-0.9-2-1.1-2c-0.3,0-0.5,0.4-0.5,1.1
					c0,0.8,0.1,1.5,0.2,2.1s0.2,1.3,0.3,2.1c0.3,2.7,0.5,5.5,0.5,8.4c0,2-0.1,3.8-0.2,5.4c-0.2,1.5-0.2,3.3-0.1,5.4
					c0,1.9,0.1,3.6,0.3,5.1c0.2,1.5,0.3,3.2,0.3,5.1c0,1.5-0.4,2.5-1.2,2.9c-0.8,0.4-1.8,0.6-3.1,0.6c-1.5,0-2.9,0-4.2-0.1
					c-1.2-0.1-2.6-0.1-4.3-0.1c-1.1,0-2,0.1-2.9,0.2s-1.9,0.2-3.1,0.2s-2.1-0.3-2.5-1s-0.7-1.4-0.7-2.1s-0.1-1.1-0.1-1.2
					c0-2.6,0.1-4.9,0.4-7s0.4-4.4,0.3-6.9c0-0.8,0-1.5-0.1-2.1c0-0.6-0.1-1.2-0.1-2c0-1.7,0-3.2-0.1-4.6c0-1.3-0.1-2.8-0.1-4.5
					c0-1.5,0-2.8,0-4s0-2.5,0.1-4c0.1-1.1,0.2-2.2,0.2-3.1c0.1-0.9,0.1-2,0.1-3.1c0-1.2-0.1-2.2-0.2-3.1C105,38,105,37,105,36v-6.4
					c0-2.3,0-4.3,0.1-6.1c0-1.8,0.1-3.8,0.2-6.1c0.1-2.4,0-4.5-0.1-6.4C105,9.1,105,7,105,4.6c0-0.3,0.1-0.9,0.4-1.8
					c0.2-0.9,1.1-1.5,2.5-1.7h0.6c0.5,0,0.9,0,1.3,0.1s0.9,0.1,1.5,0.1c0.8,0.1,1.5,0.1,2.2,0.1s1.4,0,2.2,0c1.3,0,2.5-0.1,3.5-0.2
					c1.1-0.1,2.3-0.2,3.6-0.2c0.7,0,1.2,0.1,1.5,0.3c0.4,0.2,0.7,0.5,1,0.8c0.6,0.4,1.2,1.5,2,3.2c0.7,1.7,1.4,3.4,2.1,5.1
					s1.1,2.7,1.3,3.2c0.4,0.8,0.8,1.6,1,2.2c0.3,0.7,0.6,1.4,0.9,2.3c0.3,0.6,0.6,1.1,0.9,1.6c0.3,0.5,0.6,1.1,0.8,1.7
					s0.4,1.1,0.6,1.7c0.2,0.6,0.4,1.2,0.7,1.8c0.2,0.5,0.4,0.9,0.6,1.3c0.2,0.4,0.5,0.8,0.6,1.3c0.4,0.8,0.7,1.5,0.9,2.2
					s0.5,1.4,0.8,2.3c0.4,1.1,0.8,2.5,1.3,4s0.9,2.2,1.2,2.1c0.3-0.1,0.5-0.7,0.5-1.7c0-1.1,0.1-2,0.1-2.8c0-0.9-0.1-1.7-0.2-2.5
					c-0.1-0.8-0.2-1.7-0.2-2.6s0-1.7,0.1-2.5s0.1-1.7,0.1-2.6c0-2.6-0.1-5-0.3-7.1c-0.2-2.2-0.3-4.6-0.3-7.3c0-0.5,0-1.4,0.1-2.9
					c0-1.4,0.2-2.4,0.5-3c0.2-0.3,0.5-0.6,0.7-0.7c0.2-0.2,0.4-0.3,0.6-0.4c0.2-0.2,0.6-0.3,1.2-0.6c0.6-0.2,1.2-0.4,2-0.4
					c0.9,0,1.7,0,2.4,0.1s1.4,0.1,2.3,0.1h4.6c0.7,0,1.4,0,2-0.1c0.6,0,1.2-0.1,2-0.1c2.2,0,3.3,1.1,3.3,3.4c0,1.8-0.1,3.4-0.2,5
					c-0.2,1.5-0.2,3.2-0.2,5.1c0,2.7,0,5.1,0.1,7.2s0.1,4.5,0.1,7.2c0,2.9-0.1,5.5-0.2,7.8c-0.1,2.3-0.2,4.9-0.2,7.8
					c0,2.8,0.1,5.4,0.2,7.7c0.2,2.3,0.2,4.8,0.2,7.7c0,2.5-0.1,4.9-0.2,7c-0.2,2.1-0.2,4.5-0.2,7.1c0,1.3,0,2.5,0,3.6
					s0.1,2.2,0.2,3.5c0,0.6,0.1,1.1,0.2,1.5C162.3,83.2,162.3,83.7,162.3,84.3z"/>
			</g>
		</g>
	</g>
	<path class="st4" d="M207.5,340.5c-0.4-2-0.9-4.3-1.4-7s-1-5.2-1.4-7.7c-0.3-2.5-0.6-4.8-0.7-6.8c-0.1-2-0.4-4.3-0.8-6.8
		c-0.2-1.9-0.5-3.6-0.9-5.2c-0.3-1.6-0.7-3.3-1.1-5.2c-0.5-2.4-0.9-4.5-1.3-6.4c-0.4-1.9-0.7-4.1-1.1-6.4c-0.3-2-0.6-3.7-0.7-5.3
		c-0.2-1.6-0.4-3.4-0.7-5.3c0,0-0.1-0.6-0.3-1.8c-0.2-1.2-0.5-2.5-0.8-4s-0.6-2.8-0.8-4s-0.3-1.8-0.3-1.8c-0.1-0.2-0.2-0.4-0.2-0.8
		c-0.1-0.4-0.2-0.6-0.4-0.7c-0.6-1.1-1.2-1.8-1.9-2.1c-0.7-0.3-1.8-0.5-3.5-0.5h-0.5c-1.6,0-3.1,0-4.7,0.1c-1.5,0-3.1,0.1-4.6,0.1
		c-2,0-3.9-0.1-5.6-0.2c-1.7-0.2-3.6-0.2-5.7-0.2c-2.4,0-4.2,0.4-5.4,1.3c-0.6,0.6-1.1,1.6-1.5,2.9c-0.4,1.4-0.9,2.9-1.3,4.5
		c-0.6,2.5-1,4.8-1.2,6.9c-0.2,2-0.6,4.3-1,7c-0.3,1.6-0.6,3.2-1,4.5c-0.3,1.4-0.6,2.9-1,4.5c-0.2,1.5-0.4,2.8-0.5,4
		s-0.3,2.5-0.4,3.8c-0.2,2-0.5,3.8-0.9,5.4c-0.3,1.5-0.6,3.3-1,5.4c-0.3,2-0.6,3.9-0.7,5.5c-0.2,1.6-0.5,3.4-0.9,5.4
		c-0.2,1.4-0.5,2.7-0.8,3.8c-0.2,1.1-0.5,2.4-0.7,3.8c-0.3,1.5-0.5,2.9-0.7,4.2c-0.1,1.2-0.3,2.6-0.5,4.3c-0.2,1.3-0.5,2.5-0.7,3.6
		s-0.3,1.8-0.3,2.3c0,1.6,0.5,2.6,1.5,3s2.1,0.5,3.1,0.5c1.2,0,2.4,0,3.7-0.1c1.2,0,2.4-0.1,3.7-0.1c1.1,0,2.2,0,3.1,0.1
		c0.9,0,2,0.1,3.1,0.1c1,0,1.7-0.1,2.2-0.4c0.5-0.2,0.9-0.7,1.4-1.2c0.2-0.4,0.4-1.3,0.6-2.6c0.2-1.3,0.3-2.6,0.4-4
		c0.1-1.3,0.1-2.2,0.1-2.5c0.2-1.4,0.5-2.4,0.8-3s1.6-0.9,3.9-0.9c1.4,0,3,0,4.8,0.1c1.8,0,2.8,0.1,2.9,0.2c0.4,0.2,0.6,0.4,0.5,0.3
		c0,0,0.1,0.1,0.4,0.4c0.4,0.3,0.7,1.2,0.8,2.5c0.2,1.3,0.3,2.7,0.4,4c0.1,1.3,0.2,2.2,0.2,2.6c0.1,0.4,0.1,1,0.2,1.7
		c0,0.7,0.3,1.4,0.9,2c0.5,0.6,1.5,0.9,3,0.9c1.2,0,2.3,0,3.3-0.1s2.1-0.1,3.3-0.1c1.5,0,2.8,0.1,4,0.2s2.5,0.2,4,0.2
		c1.2,0,2.1-0.4,2.7-1.2c0.6-0.8,0.9-1.6,1.1-2.5c0.2-0.8,0.2-1.2,0.2-1.2C208.1,343.8,207.9,342.5,207.5,340.5z M183.6,302.8
		l1.1,8.1l-7.1-4l-7.3,3.6l1.6-8l-5.7-5.9l8.1-0.9l3.8-7.2l3.4,7.4l8,1.4L183.6,302.8z"/>
	<path class="st4" d="M123.3,328.9c-0.6-0.7-1.2-1-1.9-1.1c-0.7-0.1-1.3-0.2-1.8-0.2s-0.9,0-1.4,0.1c-0.4,0-0.8,0-1.3,0
		c-1.1,0.1-2,0.1-2.8,0.1s-1.7-0.1-2.8-0.1c-0.7,0-1.7-0.1-2.8-0.4c-1.1-0.2-2.1-0.9-2.9-1.9c-0.9-1-1.3-2.6-1.3-4.7
		c0-0.6,0-1.1,0.1-1.6c0-0.5,0.1-1.1,0.1-1.5c0-1.1,0-2.2-0.1-3.1s-0.1-1.9-0.1-3c0-1.8,0-3.4,0.1-4.8s0.1-3,0.1-4.8
		c0-1-0.1-2-0.2-3s-0.2-2-0.2-3c0-1.3,0-2.6,0.1-3.8c0.1-1.2,0.1-2.4,0.1-3.7c0.1-1.6,0.1-3.1-0.1-4.5c-0.1-1.3-0.2-2.8-0.2-4.5
		s0-3.1,0.1-4.5s0.2-2.9,0.2-4.6c0.1-0.5,0.1-3.4-0.1-3.7s-0.5,0-1,0.1c-0.5,0-6.5,1-7,1.4c-4.1,1.2-8.6,1.5-8.9,1.8
		s-3.6,0.7-3.6,0.7s-0.9,0-1,0.3c-0.1,0.3,0,5.4,0,6.3c0,1.5,0,2.8-0.1,4s-0.2,2.6-0.2,4.1s0,2.9,0.1,4.2c0.1,1.2,0.1,2.6,0.1,4.1
		c0,1,0,2-0.1,3s-0.1,1.9-0.1,2.9c0,1.5,0,2.8,0.1,4s0.1,2.6,0.1,4.1c0,1.9-0.1,3.6-0.2,5.1c-0.2,1.5-0.2,3.3-0.2,5.2
		c0,2.4,0.1,4.6,0.2,6.6s0.2,4.2,0.2,6.6c0,2.3-0.1,4.3-0.2,6.1c-0.1,1.8-0.2,3.8-0.2,6.1v1c0,0.8,0.2,1.8,0.7,3
		c0.4,1.2,1.8,1.8,4,1.8c1.4,0,2.6,0,3.7-0.1s2.2-0.1,3.5-0.1h9.2c1,0,1.8,0,2.6,0.1c0.8,0,1.7,0.1,2.8,0.1c1.1,0,2,0,2.8-0.1
		c0.8,0,1.8-0.1,2.8-0.1c1.1,0,2.2,0,3.1,0.1s1.9,0.1,3.1,0.1c1.6,0,2.7-0.3,3.2-1s0.8-1.5,0.8-2.3c0-0.9,0-1.5,0-1.9v-0.3
		c0-0.9,0-1.7,0.1-2.5c0.1-0.7,0.1-1.5,0.1-2.3c0-0.6,0-1.5,0-2.9s-0.1-2.8-0.2-4.2C124.1,330.3,123.8,329.4,123.3,328.9z"/>
	<g>
		<g transform="translate(62.068865, 195.428199)">
			<g>
				<path class="st5" d="M51.8,30.4l0.7,27.9l-8.2,1.9L44,47.3l-5.3,11.4l-3.9,0.9L28.6,51l0.3,12.7l-8.2,1.9v-28l6.7-1.6l8.9,12.8
					l7.9-16.5L51.8,30.4z"/>
			</g>
		</g>
	</g>
	<g>
		<g transform="translate(89.084076, 189.359271)">
			<g>
				<path class="st5" d="M38,40.6l0.1,3.2l11.2-2.5l0.2,6.7l-11.2,2.5l0.1,3.6l13.2-3l0,7.3l-21.8,5l-0.6-28l21.5-4.8l0.1,7L38,40.6
					z"/>
			</g>
		</g>
	</g>
	<g>
		<g transform="translate(108.14197, 185.077942)">
			<g>
				<path class="st5" d="M60.3,37.6c0.5,2.3,0.4,4.5-0.5,6.6c-0.8,2-2.3,3.7-4.4,5.1l6.1,6.7l-9.2,2.1l-5.2-5.8l-2.2,0.5l0.2,6.9
					l-8.9,2l-0.6-27.6l11.8-2.7c3.5-0.8,6.4-0.6,8.6,0.5C58.2,33,59.7,34.9,60.3,37.6z M51.4,40.5c-0.4-1.8-1.7-2.4-3.9-1.9l-3,0.7
					l0.1,6.5l3.7-0.8c1.2-0.3,2.1-0.8,2.7-1.6C51.6,42.6,51.7,41.6,51.4,40.5z"/>
			</g>
		</g>
	</g>
	<g>
		<g transform="translate(129.238747, 180.338581)">
			<g>
				<path class="st5" d="M53.8,58.4c-2.3,0.5-4.5,0.8-6.6,0.7c-2.1,0-3.9-0.3-5.4-0.8l2-7.3c3.2,1,6.4,1.1,9.5,0.4
					c1.1-0.2,2-0.6,2.5-1c0.6-0.4,0.8-0.9,0.7-1.3c-0.1-0.4-0.5-0.7-1.2-0.9c-0.7-0.1-1.7-0.2-3.1-0.2c-1.9-0.1-3.4-0.2-4.7-0.4
					s-2.4-0.7-3.5-1.5s-1.8-2-2.2-3.6c-0.4-2-0.3-3.8,0.4-5.6s2-3.3,3.8-4.5c1.8-1.3,4.1-2.2,6.9-2.8c2-0.4,3.8-0.7,5.6-0.6
					c1.8,0,3.4,0.2,4.8,0.7l-1.7,7.2c-1.2-0.4-2.5-0.7-3.8-0.7s-2.6,0.1-3.9,0.4c-1.2,0.3-2.2,0.7-2.8,1.2s-0.9,1-0.8,1.5
					c0.1,0.5,0.5,0.8,1.2,0.9c0.7,0.1,1.8,0.2,3.2,0.2c1.8,0,3.3,0.1,4.6,0.3s2.4,0.7,3.5,1.4c1.1,0.8,1.8,1.9,2.1,3.5
					c0.4,2,0.3,3.8-0.5,5.5c-0.8,1.7-2,3.2-3.9,4.5C58.8,56.8,56.5,57.8,53.8,58.4z"/>
			</g>
		</g>
	</g>
	<g>
		<g transform="translate(147.843555, 176.159038)">
			<g>
				<path class="st5" d="M56.7,36.3l0.1,3.2L68,37l0.2,6.7L57,46.2l0.1,3.6l13.2-3l0.2,7l-22,5l-0.6-27.9L69.4,26l0.1,7.2L56.7,36.3
					z"/>
			</g>
		</g>
	</g>
	<g>
		<g transform="translate(166.901449, 171.877709)">
			<g>
				<path class="st5" d="M71.2,43.7l0.2,10l-8.9,2l-0.3-10.1L51.8,30.2l8.9-2l5.8,8.6L72,25.6l8.7-2L71.2,43.7z"/>
			</g>
		</g>
	</g>
	<g>
		<g transform="translate(187.00711, 167.361001)">
			<g>
				<path class="st5" d="M73,53.7c-2.3,0.5-4.5,0.8-6.6,0.7c-2.1,0-3.9-0.3-5.4-0.8l2-7.3c3.2,1,6.4,1.1,9.5,0.4
					c1.1-0.2,2-0.6,2.5-1c0.6-0.4,0.8-0.9,0.7-1.3c-0.1-0.4-0.5-0.7-1.2-0.9c-0.7-0.1-1.7-0.2-3.1-0.2c-1.9-0.1-3.4-0.2-4.7-0.4
					c-1.3-0.2-2.4-0.7-3.5-1.5s-1.8-2-2.2-3.6c-0.4-2-0.3-3.8,0.4-5.6c0.7-1.7,2-3.3,3.8-4.5c1.8-1.3,4.1-2.2,6.9-2.8
					c2-0.4,3.8-0.7,5.6-0.6c1.8,0,3.4,0.2,4.8,0.7l-1.7,7.2c-1.2-0.4-2.5-0.7-3.8-0.7s-2.6,0.1-3.9,0.4c-1.2,0.3-2.2,0.7-2.8,1.2
					c-0.6,0.5-0.9,1-0.8,1.5s0.5,0.8,1.2,0.9c0.7,0.1,1.8,0.2,3.2,0.2c1.8,0,3.3,0.1,4.6,0.3c1.3,0.2,2.4,0.7,3.5,1.4
					c1.1,0.8,1.8,1.9,2.1,3.5c0.4,2,0.3,3.8-0.5,5.5s-2,3.2-3.9,4.5C78,52.1,75.8,53,73,53.7z"/>
			</g>
		</g>
	</g>
	<g>
		<g transform="translate(205.611919, 163.181458)">
			<g>
				<path class="st5" d="M68,26.8l8.9-2l0.6,27.6l-8.9,2L68,26.8z"/>
			</g>
		</g>
	</g>
	<g>
		<g transform="translate(215.523163, 160.954911)">
			<g>
				<path class="st5" d="M71.3,26l11.9-2.7c2.8-0.6,5.3-0.7,7.5-0.2c2.2,0.4,4.1,1.4,5.5,2.8c1.5,1.4,2.5,3.3,3,5.6
					c0.7,3.1,0.6,5.9-0.3,8.5c-0.9,2.6-2.5,4.8-4.7,6.6s-4.9,3.1-8.1,3.8L72,53.6L71.3,26z M84.8,43.5c2.3-0.5,3.9-1.6,4.8-3.4
					c1-1.7,1.2-3.7,0.7-6c-0.3-1.5-1.1-2.6-2.2-3.2s-2.6-0.7-4.4-0.4l-3.4,0.8l0.3,13.1L84.8,43.5z"/>
			</g>
		</g>
	</g>
	<g>
		<g transform="translate(238.913692, 155.700262)">
			<g>
				<path class="st5" d="M88,29l0.1,3.2l11.2-2.5l0.2,6.7l-11.2,2.5l0.1,3.6l13.2-3l0.2,7l-22,4.9l-0.6-27.6l21.5-4.8l0.1,7L88,29z"
					/>
			</g>
		</g>
	</g>
	<g>
		<g transform="translate(63.640564, 153.287512)">
			<g>
				<path class="st6" d="M28,53.1l12.4-2.8l0.1,4.4l-19.8,4.5l-0.1-3.5L31,42.8c1.3-1.7,2.2-3.1,2.6-4.1c0.4-1.1,0.5-2.1,0.3-3.1
					c-0.2-1.1-0.8-1.9-1.7-2.3c-0.9-0.4-2.1-0.5-3.7-0.1c-1.2,0.3-2.3,0.8-3.3,1.5c-1,0.8-1.8,1.7-2.4,2.8l-4-1.9
					c0.8-1.6,2.1-3,3.7-4.3c1.7-1.2,3.6-2.1,5.7-2.6c1.9-0.4,3.5-0.5,5-0.2c1.5,0.3,2.7,0.9,3.7,1.8c0.9,0.9,1.6,2,1.9,3.4
					c0.4,1.6,0.3,3.3-0.3,5c-0.6,1.6-1.8,3.6-3.6,5.9L28,53.1z"/>
			</g>
		</g>
	</g>
	<g>
		<g transform="translate(80.237706, 148.85967)">
			<g>
				<path class="st6" d="M38.6,56.2c-2.9,0.7-5.4,0.3-7.5-1.1c-2.1-1.4-3.5-3.6-4.2-6.8s-0.8-6.2-0.2-9.2c0.5-3,1.7-5.5,3.4-7.5
					c1.7-2.1,4-3.4,6.7-4c2.9-0.6,5.4-0.3,7.5,1.1s3.4,3.7,4.2,6.8c0.7,3.2,0.8,6.2,0.3,9.2s-1.7,5.5-3.4,7.5
					C43.5,54.3,41.2,55.6,38.6,56.2z M38,51.8c1.7-0.4,3-1.4,4-3s1.5-3.6,1.7-5.7c0.2-2.2,0.1-4.3-0.3-6.3c-0.4-1.9-1.2-3.2-2.2-4
					c-1.1-0.8-2.3-1-3.8-0.7c-1.7,0.4-3,1.4-4,3s-1.6,3.6-1.8,5.8c-0.2,2.2-0.1,4.3,0.4,6.2c0.4,1.9,1.2,3.3,2.3,4.1
					C35.2,51.9,36.5,52.1,38,51.8z"/>
			</g>
		</g>
	</g>
	<g>
		<g transform="translate(99.401417, 143.74711)">
			<g>
				<path class="st6" d="M40.4,51.8L52.8,49l0.1,4.4l-19.8,4.5L33,54.4l10.4-12.9c1.3-1.7,2.2-3.1,2.6-4.1c0.4-1.1,0.5-2.1,0.3-3.1
					c-0.2-1.1-0.8-1.9-1.7-2.3c-0.9-0.4-2.1-0.5-3.7-0.1c-1.2,0.3-2.3,0.8-3.3,1.5c-1,0.8-1.8,1.7-2.4,2.8l-4-1.9
					c0.8-1.6,2.1-3,3.7-4.3c1.7-1.2,3.6-2.1,5.7-2.6c1.9-0.4,3.5-0.5,5-0.2s2.7,0.9,3.7,1.8c0.9,0.9,1.6,2,1.9,3.4
					c0.4,1.6,0.3,3.3-0.3,5c-0.6,1.6-1.8,3.6-3.6,5.9L40.4,51.8z"/>
			</g>
		</g>
	</g>
	<g>
		<g transform="translate(115.99856, 139.319268)">
			<g>
				<path class="st6" d="M63,45.4l-4.8,1.1l0.1,6.4L53.4,54l-0.1-6.4l-14.7,3.3l-0.1-3.6l12.6-21l5.5-1.2l-11.8,20l8.6-1.9l-0.1-5.7
					l4.6-1l0.2,5.7l4.8-1.1L63,45.4z"/>
			</g>
		</g>
	</g>
	<polygon class="st6" points="82.7,226.4 303.4,162.4 306.8,86.8 347.9,149.6 420.6,130.1 373.8,188.9 407.9,253.6 338.1,224.4 
		137.2,255.6 340.4,209.4 374.1,226.6 357.4,188.2 384.9,153.8 342.4,165.5 318.2,128.5 316.3,172.7 	"/>
</g>
</svg>
