<?xml version="1.0" encoding="utf-8"?>
<!-- Generator: Adobe Illustrator 27.8.0, SVG Export Plug-In . SVG Version: 6.00 Build 0)  -->
<svg version="1.1" xmlns="http://www.w3.org/2000/svg" xmlns:xlink="http://www.w3.org/1999/xlink" x="0px" y="0px"
	 viewBox="0 0 520 520" style="enable-background:new 0 0 520 520;" xml:space="preserve">
<style type="text/css">
	.st0{fill:#00AAE8;}
	.st1{fill:#FFDC6E;}
	.st2{fill:#DD3E00;}
	.st3{fill:#FFFFFF;}
</style>
<g id="Layer_2">
</g>
<g id="Layer_1">
	<g>
		<path class="st0" d="M424.1,248.6L392.8,204l32.9-43.5l-52.1,16l-31.1-44.7l-0.9,54.5l-291,71.5l274.8-83.7l1.5-93.3l53.3,76.6
			l89.2-27.4L413,204.4l53.7,76.3l-88.1-30.6L145,294.3l227.7-63.5L424.1,248.6z"/>
	</g>
	<g>
		<g>
			<g transform="translate(60.634193, 194.461775)">
				<g>
					<path class="st1" d="M35.2,63.5l1.8,34l-9.9,2.5l-0.9-15.5l-6.1,14.2l-4.8,1.2l-8-10.4l0.8,15.3l-9.9,2.5l-1.8-34l8.9-2.3
						l11.4,15.5l9.2-20.7L35.2,63.5z"/>
				</g>
			</g>
		</g>
		<g>
			<g transform="translate(87.510711, 187.61556)">
				<g>
					<path class="st1" d="M24.9,74.9l0.2,3.9l13.7-3.5l0.4,8.3l-13.7,3.5l0.3,4.4l16.2-4.1l0.4,8.7L15.5,103l-1.8-34L40,62.3
						l0.4,8.7L24.9,74.9z"/>
				</g>
			</g>
		</g>
		<g>
			<g transform="translate(106.470764, 182.785895)">
				<g>
					<path class="st1" d="M56.5,69.4c0.7,2.9,0.6,5.6-0.4,8.1c-1,2.5-2.7,4.7-5.3,6.4l7.8,8.1l-11.3,2.9l-6.6-7l-2.7,0.7l0.5,8.6
						l-10.9,2.8l-1.8-34l14.5-3.7c4.2-1.1,7.8-1,10.6,0.3C53.8,63.7,55.7,66,56.5,69.4z M45.8,73.3c-0.6-2.2-2.2-2.9-4.9-2.3
						L37.2,72l0.4,8l4.5-1.2c1.5-0.4,2.6-1.1,3.2-2C46,75.8,46.1,74.7,45.8,73.3z"/>
				</g>
			</g>
		</g>
		<g>
			<g transform="translate(127.459232, 177.439534)">
				<g>
					<path class="st1" d="M54.1,94c-2.8,0.7-5.5,1.1-8.2,1.1c-2.6,0-4.8-0.3-6.7-0.8l2.2-9.1c4,1.1,7.9,1.2,11.7,0.2
						c1.4-0.3,2.4-0.8,3.1-1.3c0.7-0.5,0.9-1.1,0.8-1.7c-0.1-0.5-0.6-0.9-1.5-1.1c-0.8-0.2-2.1-0.2-3.8-0.2c-2.3,0-4.3-0.1-5.8-0.3
						c-1.6-0.2-3-0.8-4.4-1.7s-2.3-2.3-2.8-4.3c-0.6-2.4-0.5-4.7,0.3-6.9c0.8-2.2,2.4-4.1,4.6-5.7c2.2-1.6,5-2.9,8.4-3.7
						c2.4-0.6,4.7-0.9,6.9-1c2.2-0.1,4.2,0.2,5.9,0.7l-1.9,8.9c-1.5-0.5-3-0.7-4.6-0.7c-1.6,0-3.2,0.2-4.8,0.6
						c-1.5,0.4-2.6,0.9-3.4,1.5c-0.7,0.6-1,1.2-0.9,1.8c0.2,0.6,0.6,0.9,1.5,1.1c0.8,0.2,2.2,0.2,4,0.2c2.2,0,4.1,0,5.7,0.2
						c1.6,0.2,3,0.7,4.4,1.7c1.3,0.9,2.3,2.3,2.7,4.2c0.6,2.4,0.5,4.7-0.4,6.8c-0.9,2.2-2.4,4.1-4.6,5.7
						C60.2,91.9,57.5,93.1,54.1,94z"/>
				</g>
			</g>
		</g>
		<g>
			<g transform="translate(145.968526, 172.72469)">
				<g>
					<path class="st1" d="M62.3,65.4l0.2,3.9l13.7-3.5l0.4,8.3l-13.7,3.5l0.3,4.4L79.4,78l0.4,8.7L53,93.5l-1.8-34l26.3-6.7l0.4,8.7
						L62.3,65.4z"/>
				</g>
			</g>
		</g>
		<g>
			<g transform="translate(164.928578, 167.895024)">
				<g>
					<path class="st1" d="M83.7,73.1l0.7,12.3l-10.9,2.8l-0.7-12.5L59.5,57.3l10.9-2.8l7.3,10.1l6.1-13.5l11-2.8L83.7,73.1z"/>
				</g>
			</g>
		</g>
		<g>
			<g transform="translate(184.931019, 162.799833)">
				<g>
					<path class="st1" d="M91,84.6c-2.8,0.7-5.5,1.1-8.2,1.1c-2.6,0-4.8-0.3-6.7-0.8l2.2-9.1c4,1.1,7.9,1.2,11.7,0.2
						c1.4-0.3,2.4-0.8,3.1-1.3c0.7-0.5,0.9-1.1,0.8-1.7c-0.1-0.5-0.6-0.9-1.5-1.1c-0.8-0.2-2.1-0.2-3.8-0.2c-2.3,0-4.3-0.1-5.8-0.3
						c-1.6-0.2-3-0.8-4.4-1.7s-2.3-2.3-2.8-4.3c-0.6-2.4-0.5-4.7,0.3-6.9c0.8-2.2,2.4-4.1,4.6-5.7c2.2-1.6,5-2.9,8.4-3.7
						c2.4-0.6,4.7-0.9,6.9-1c2.2-0.1,4.2,0.2,5.9,0.7l-1.9,8.9c-1.5-0.5-3-0.7-4.6-0.7c-1.6,0-3.2,0.2-4.8,0.6
						c-1.5,0.4-2.6,0.9-3.4,1.5c-0.7,0.6-1,1.2-0.9,1.8c0.2,0.6,0.6,0.9,1.5,1.1c0.8,0.2,2.2,0.2,4,0.2c2.2,0,4.1,0,5.7,0.2
						c1.6,0.2,3,0.7,4.4,1.7c1.3,0.9,2.3,2.3,2.7,4.2c0.6,2.4,0.5,4.7-0.4,6.8c-0.9,2.2-2.4,4.1-4.6,5.7
						C97.1,82.5,94.3,83.7,91,84.6z"/>
				</g>
			</g>
		</g>
		<g>
			<g transform="translate(203.440313, 158.084988)">
				<g>
					<path class="st1" d="M88,50.1l10.9-2.8l1.8,34.1l-10.9,2.8L88,50.1z"/>
				</g>
			</g>
		</g>
		<g>
			<g transform="translate(213.300674, 155.573273)">
				<g>
					<path class="st1" d="M94.3,48.4l14.6-3.7c3.4-0.9,6.5-1.1,9.2-0.6c2.8,0.5,5.1,1.6,6.9,3.3c1.9,1.7,3.2,4,3.9,6.8
						c0.9,3.7,0.9,7.2-0.1,10.5c-1,3.3-2.8,6.1-5.5,8.4c-2.7,2.3-6,3.9-9.9,4.9l-17.3,4.4L94.3,48.4z M111.7,69.5
						c2.8-0.7,4.8-2.2,5.9-4.3c1.1-2.2,1.3-4.6,0.6-7.4c-0.5-1.9-1.4-3.2-2.8-3.9c-1.4-0.7-3.2-0.8-5.4-0.3l-4.2,1.1l0.9,16.2
						L111.7,69.5z"/>
				</g>
			</g>
		</g>
		<g>
			<g transform="translate(236.571119, 149.645628)">
				<g>
					<path class="st1" d="M120.4,50.6l0.2,3.9l13.7-3.5l0.4,8.3L121,62.9l0.3,4.4l16.2-4.1l0.4,8.7l-26.9,6.8l-1.8-34l26.3-6.7
						l0.4,8.7L120.4,50.6z"/>
				</g>
			</g>
		</g>
	</g>
	<g>
		<g transform="translate(74.423567, 256.979084)">
			<g>
				<path class="st2" d="M43.7,44.3v79.7h45.6v26.5H13.4V51.4L43.7,44.3z"/>
			</g>
		</g>
	</g>
	<g>
		<g transform="translate(123.497803, 256.979084)">
			<g>
				<path class="st2" d="M50.5,140.2c-7.7-8.4-11.6-18.7-11.6-31c0-12.2,3.9-22.6,11.6-31c7.7-8.5,17.5-12.7,29.4-12.7
					c10.9,0,19.9,3.4,27,10.3V68h28.5v82.5h-28.1v-9.3H107c-7.1,7.8-16.1,11.7-27,11.7C68.1,152.9,58.2,148.7,50.5,140.2z
					 M74.7,95.3c-3.7,3.6-5.5,8.3-5.5,14c0,5.7,1.8,10.3,5.3,13.9c3.5,3.6,8.2,5.4,14,5.4c5.6,0,10.2-1.8,13.7-5.5
					c3.6-3.6,5.4-8.2,5.4-13.8c0-5.7-1.9-10.3-5.6-14c-3.7-3.6-8.2-5.5-13.6-5.5C83,89.9,78.4,91.7,74.7,95.3z"/>
			</g>
		</g>
	</g>
	<g>
		<g transform="translate(184.13059, 256.979084)">
			<g>
				<path class="st2" d="M88.6,68V37.3h28.5V68h17.4v21.7h-17.4v26.2c0,7.6,2.1,11.4,6.4,11.4c1.1,0,2.2-0.2,3.4-0.6
					c1.2-0.4,2.1-0.9,2.7-1.3l0.9-0.6l7.1,23c-6.1,3.4-13.1,5.2-20.9,5.2c-5.4,0-10-0.9-13.8-2.8c-3.9-1.9-6.8-4.4-8.8-7.6
					c-2-3.2-3.4-6.5-4.3-10c-0.9-3.5-1.3-7.2-1.3-11.2V89.7H76.7V68H88.6z"/>
			</g>
		</g>
	</g>
	<g transform="translate(216.552683, 256.979084)">
		<g>
			<path class="st2" d="M104.6,68v82.5H133V68H104.6z"/>
		</g>
	</g>
	<g>
		<g transform="translate(239.86509, 256.979084)">
			<g>
				<path class="st2" d="M119.5,150.4V68H148v8.7h0.3c7.4-7.4,15.3-11.1,23.6-11.1c4.1,0,8.1,0.5,12.1,1.6c4,1.1,7.9,2.7,11.6,5
					c3.7,2.3,6.7,5.4,9,9.6c2.3,4.1,3.5,8.9,3.5,14.4v54.3h-28.4v-46.6c0-4.3-1.4-8-4.1-11.3c-2.7-3.2-6.3-4.8-10.7-4.8
					c-4.3,0-8.2,1.7-11.7,5c-3.5,3.3-5.2,7-5.2,11.1v46.6H119.5z"/>
			</g>
		</g>
	</g>
	<g>
		<g transform="translate(79.568697, 276.862361)">
			<g>
				<path class="st3" d="M8.3,161.9v-17.8h10.2v2.1h-7.9v6.1h7.3v2.1h-7.3v7.5H8.3z"/>
			</g>
		</g>
	</g>
	<g>
		<g transform="translate(97.823219, 276.862361)">
			<g>
				<path class="st3" d="M25.5,162.3c-1.3,0-2.5-0.3-3.5-0.9c-1-0.6-1.8-1.4-2.4-2.4c-0.6-1.1-0.8-2.3-0.8-3.6
					c0-1.3,0.3-2.5,0.8-3.6c0.6-1,1.4-1.9,2.4-2.4c1-0.6,2.2-0.9,3.5-0.9c1.4,0,2.6,0.3,3.6,1c1,0.7,1.8,1.6,2.4,2.7
					c0.6,1.2,0.8,2.5,0.8,4.1H20.9c0.2,1.2,0.7,2.2,1.5,3c0.8,0.7,1.9,1.1,3.1,1.1c0.9,0,1.7-0.2,2.4-0.6c0.7-0.4,1.3-0.9,1.7-1.6
					H32c-0.5,1.3-1.4,2.3-2.5,3.1C28.3,161.9,27,162.3,25.5,162.3z M20.9,154.3h9.2c-0.2-1.2-0.7-2.2-1.6-2.8
					c-0.8-0.7-1.9-1.1-3.1-1.1c-1.2,0-2.2,0.4-3.1,1.1C21.6,152.2,21.1,153.1,20.9,154.3z"/>
			</g>
		</g>
	</g>
	<g>
		<g transform="translate(117.284807, 276.862361)">
			<g>
				<path class="st3" d="M37,162.3c-1.7,0-3.1-0.4-4.2-1.2c-1-0.8-1.6-1.9-1.6-3.3h2.1c0,0.8,0.4,1.4,1,1.9c0.6,0.5,1.5,0.7,2.7,0.7
					c1,0,1.8-0.2,2.4-0.5c0.6-0.4,0.9-0.8,0.9-1.4c0-0.6-0.3-1.1-0.9-1.4c-0.6-0.4-1.5-0.7-2.8-0.9c-1.7-0.3-3-0.8-3.8-1.4
					c-0.8-0.6-1.2-1.5-1.2-2.5c0-1.2,0.4-2.1,1.4-2.7c0.9-0.7,2.2-1,3.8-1c1.6,0,2.9,0.4,3.9,1.1c1,0.7,1.5,1.7,1.6,3H40
					c-0.1-0.7-0.4-1.3-1-1.6c-0.6-0.4-1.4-0.6-2.4-0.6c-1,0-1.7,0.2-2.2,0.5c-0.5,0.3-0.8,0.8-0.8,1.4c0,0.6,0.3,1,0.8,1.3
					c0.5,0.3,1.5,0.6,2.9,0.9c3.4,0.7,5.1,2,5.1,4.1c0,1.1-0.5,2.1-1.5,2.8C40,161.9,38.6,162.3,37,162.3z"/>
			</g>
		</g>
	</g>
	<g>
		<g transform="translate(135.353621, 276.862361)">
			<g>
				<path class="st3" d="M49.5,161.9c-1.5,0-2.6-0.4-3.4-1.2c-0.8-0.8-1.2-2-1.2-3.5v-6.5h-2.8v-1.9h1.3c0.6,0,1-0.1,1.3-0.3
					c0.2-0.2,0.4-0.6,0.5-1.2l0.2-1.8h1.6v3.3h4.3v1.9h-4.3v6.4c0,1.9,0.9,2.8,2.6,2.8h1.9v2.1H49.5z"/>
			</g>
		</g>
	</g>
	<g>
		<g transform="translate(151.843951, 276.862361)">
			<g>
				<path class="st3" d="M54.4,161.9v-13.2h2.1v13.2H54.4z M53.7,144.9c0-0.5,0.2-0.9,0.5-1.2c0.3-0.3,0.8-0.5,1.3-0.5
					c0.5,0,0.9,0.2,1.2,0.5c0.3,0.3,0.5,0.7,0.5,1.2c0,0.5-0.2,0.9-0.5,1.2c-0.3,0.3-0.7,0.5-1.2,0.5c-0.5,0-1-0.2-1.3-0.5
					C53.9,145.8,53.7,145.4,53.7,144.9z"/>
			</g>
		</g>
	</g>
	<g>
		<g transform="translate(165.641578, 276.862361)">
			<g>
				<path class="st3" d="M67.1,161.9l-5.8-13.2h2.3l1.8,4.2l2.7,6.2l2.7-6.2l1.8-4.2h2.3l-5.8,13.2H67.1z"/>
			</g>
		</g>
	</g>
	<g>
		<g transform="translate(184.050854, 276.862361)">
			<g>
				<path class="st3" d="M79.4,162.1c-1.6,0-2.9-0.4-3.8-1.1c-0.9-0.7-1.3-1.7-1.3-2.9c0-1.2,0.4-2.1,1.3-2.8
					c0.8-0.7,1.9-1.1,3.3-1.1h5.4v-0.5c0-1-0.3-1.9-1-2.4c-0.6-0.6-1.5-0.9-2.6-0.9c-0.8,0-1.6,0.2-2.2,0.6
					c-0.6,0.4-1.1,0.9-1.3,1.5H75c0.3-1.3,0.9-2.3,1.9-3c1-0.7,2.2-1.1,3.7-1.1c1.2,0,2.2,0.2,3,0.6c0.9,0.4,1.5,1,2,1.8
					c0.5,0.8,0.7,1.7,0.7,2.7v8.4h-1.7l-0.2-1.8C83.2,161.4,81.5,162.1,79.4,162.1z M76.4,158.1c0,0.7,0.3,1.2,0.8,1.6
					c0.5,0.4,1.3,0.6,2.2,0.6c0.9,0,1.7-0.2,2.4-0.5c0.7-0.4,1.3-0.8,1.7-1.5c0.4-0.6,0.6-1.4,0.7-2.2h-5.3c-0.7,0-1.3,0.2-1.8,0.6
					C76.7,157,76.4,157.5,76.4,158.1z"/>
			</g>
		</g>
	</g>
	<g>
		<g transform="translate(203.264841, 276.862361)">
			<g>
				<path class="st3" d="M87.4,161.9v-18.8h2.1v18.8H87.4z"/>
			</g>
		</g>
	</g>
	<g>
		<g transform="translate(230.519648, 276.862361)">
			<g>
				<path class="st3" d="M104.3,161.9v-1.7l7.4-6.8c0.8-0.8,1.5-1.5,1.9-2.2c0.4-0.7,0.6-1.4,0.6-2.1c0-1-0.3-1.8-1-2.5
					c-0.7-0.6-1.6-0.9-2.7-0.9c-1.1,0-2,0.3-2.7,1c-0.7,0.7-1.1,1.6-1.1,2.9h-2.1c0-1.2,0.3-2.2,0.8-3.1c0.5-0.9,1.2-1.6,2.1-2.1
					c0.9-0.5,1.9-0.7,3.1-0.7c1.1,0,2.2,0.2,3.1,0.7c0.9,0.5,1.6,1.1,2.1,1.9c0.5,0.8,0.8,1.7,0.8,2.8c0,1-0.3,2-0.8,3
					c-0.5,1-1.3,2-2.4,3l-5.1,4.7h8.7v2.1H104.3z"/>
			</g>
		</g>
	</g>
	<g>
		<g transform="translate(250.058614, 276.862361)">
			<g>
				<path class="st3" d="M123.9,162.3c-1.5,0-2.7-0.4-3.8-1.1c-1.1-0.8-1.9-1.8-2.5-3.2c-0.6-1.4-0.9-3-0.9-4.9s0.3-3.5,0.9-4.9
					c0.6-1.4,1.4-2.4,2.5-3.2c1.1-0.8,2.3-1.1,3.8-1.1c1.5,0,2.8,0.4,3.8,1.1c1.1,0.8,1.9,1.8,2.5,3.2c0.6,1.4,0.9,3,0.9,4.9
					s-0.3,3.5-0.9,4.9c-0.6,1.4-1.4,2.5-2.5,3.2C126.7,161.9,125.4,162.3,123.9,162.3z M118.9,153c0,2.2,0.4,3.9,1.3,5.2
					c0.9,1.3,2.1,1.9,3.6,1.9c1.5,0,2.7-0.6,3.6-1.9c0.9-1.3,1.3-3,1.3-5.2c0-2.2-0.4-3.9-1.3-5.2c-0.9-1.3-2.1-1.9-3.6-1.9
					c-1.5,0-2.8,0.6-3.6,1.9C119.4,149.1,118.9,150.8,118.9,153z"/>
			</g>
		</g>
	</g>
	<g>
		<g transform="translate(270.495152, 276.862361)">
			<g>
				<path class="st3" d="M129.9,161.9v-1.7l7.4-6.8c0.8-0.8,1.5-1.5,1.9-2.2c0.4-0.7,0.6-1.4,0.6-2.1c0-1-0.3-1.8-1-2.5
					c-0.7-0.6-1.6-0.9-2.7-0.9c-1.1,0-2,0.3-2.7,1c-0.7,0.7-1.1,1.6-1.1,2.9h-2.1c0-1.2,0.3-2.2,0.8-3.1c0.5-0.9,1.2-1.6,2.1-2.1
					c0.9-0.5,1.9-0.7,3.1-0.7c1.1,0,2.2,0.2,3.1,0.7c0.9,0.5,1.6,1.1,2.1,1.9c0.5,0.8,0.8,1.7,0.8,2.8c0,1-0.3,2-0.8,3
					c-0.5,1-1.3,2-2.4,3l-5.1,4.7h8.7v2.1H129.9z"/>
			</g>
		</g>
	</g>
	<g>
		<g transform="translate(290.034118, 276.862361)">
			<g>
				<path class="st3" d="M141.6,158.1v-1.7l6.4-12.3h2.5l-6.2,11.9h6.4l0.2-5.6h2.1v5.6h2.4v2.1h-2.4v3.8h-2.3v-3.8H141.6z"/>
			</g>
		</g>
	</g>
	<polygon class="st3" points="351.4,303.9 337.2,301.2 326.9,311.4 325.1,297 312.2,290.3 325.3,284.2 327.7,269.9 337.6,280.5 
		351.9,278.3 344.9,291 	"/>
</g>
</svg>
